G04 #@! TF.GenerationSoftware,KiCad,Pcbnew,7.0.6-0*
G04 #@! TF.CreationDate,2023-08-16T20:57:49-04:00*
G04 #@! TF.ProjectId,Compaq S3 Virge GX VRAM Addon Board,436f6d70-6171-4205-9333-205669726765,1*
G04 #@! TF.SameCoordinates,Original*
G04 #@! TF.FileFunction,Soldermask,Top*
G04 #@! TF.FilePolarity,Negative*
%FSLAX46Y46*%
G04 Gerber Fmt 4.6, Leading zero omitted, Abs format (unit mm)*
G04 Created by KiCad (PCBNEW 7.0.6-0) date 2023-08-16 20:57:49*
%MOMM*%
%LPD*%
G01*
G04 APERTURE LIST*
G04 Aperture macros list*
%AMRoundRect*
0 Rectangle with rounded corners*
0 $1 Rounding radius*
0 $2 $3 $4 $5 $6 $7 $8 $9 X,Y pos of 4 corners*
0 Add a 4 corners polygon primitive as box body*
4,1,4,$2,$3,$4,$5,$6,$7,$8,$9,$2,$3,0*
0 Add four circle primitives for the rounded corners*
1,1,$1+$1,$2,$3*
1,1,$1+$1,$4,$5*
1,1,$1+$1,$6,$7*
1,1,$1+$1,$8,$9*
0 Add four rect primitives between the rounded corners*
20,1,$1+$1,$2,$3,$4,$5,0*
20,1,$1+$1,$4,$5,$6,$7,0*
20,1,$1+$1,$6,$7,$8,$9,0*
20,1,$1+$1,$8,$9,$2,$3,0*%
G04 Aperture macros list end*
%ADD10C,0.120000*%
%ADD11C,0.010000*%
%ADD12C,0.901600*%
%ADD13RoundRect,0.050800X-0.675000X-0.675000X0.675000X-0.675000X0.675000X0.675000X-0.675000X0.675000X0*%
%ADD14C,1.451600*%
%ADD15RoundRect,0.150800X-0.100000X0.775000X-0.100000X-0.775000X0.100000X-0.775000X0.100000X0.775000X0*%
%ADD16RoundRect,0.150800X-0.775000X0.100000X-0.775000X-0.100000X0.775000X-0.100000X0.775000X0.100000X0*%
%ADD17RoundRect,0.288300X-0.237500X0.300000X-0.237500X-0.300000X0.237500X-0.300000X0.237500X0.300000X0*%
%ADD18RoundRect,0.288300X0.237500X-0.300000X0.237500X0.300000X-0.237500X0.300000X-0.237500X-0.300000X0*%
%ADD19RoundRect,0.050800X-0.711200X0.711200X-0.711200X-0.711200X0.711200X-0.711200X0.711200X0.711200X0*%
%ADD20C,1.524000*%
G04 APERTURE END LIST*
D10*
X122714639Y-123728201D02*
G75*
G03*
X114468552Y-129108091I-3661056J-3398062D01*
G01*
X115398625Y-130569031D02*
G75*
G03*
X123644712Y-125189141I3661056J3398062D01*
G01*
X115520327Y-130253171D02*
G75*
G03*
X115520327Y-130253171I-385906J0D01*
G01*
X123360704Y-124011597D02*
G75*
G03*
X123360704Y-124011597I-385906J0D01*
G01*
D11*
X119223935Y-128339132D02*
X119229231Y-128344976D01*
X119232946Y-128355001D01*
X119234395Y-128363894D01*
X119237619Y-128384322D01*
X119242948Y-128405835D01*
X119249738Y-128426084D01*
X119254397Y-128436965D01*
X119266231Y-128456193D01*
X119283051Y-128474696D01*
X119304807Y-128492440D01*
X119331453Y-128509388D01*
X119362939Y-128525504D01*
X119384482Y-128534902D01*
X119395898Y-128539728D01*
X119403397Y-128543332D01*
X119407824Y-128546266D01*
X119410021Y-128549084D01*
X119410812Y-128552152D01*
X119410164Y-128557947D01*
X119405740Y-128561285D01*
X119405732Y-128561288D01*
X119401423Y-128562299D01*
X119392811Y-128563723D01*
X119380650Y-128565471D01*
X119365691Y-128567457D01*
X119348689Y-128569593D01*
X119330395Y-128571793D01*
X119311562Y-128573970D01*
X119292944Y-128576035D01*
X119275293Y-128577903D01*
X119259361Y-128579487D01*
X119245902Y-128580698D01*
X119235669Y-128581450D01*
X119229671Y-128581660D01*
X119219147Y-128580956D01*
X119208804Y-128579375D01*
X119203824Y-128578140D01*
X119186725Y-128570559D01*
X119171899Y-128559611D01*
X119159992Y-128546089D01*
X119151647Y-128530782D01*
X119147511Y-128514481D01*
X119147176Y-128508650D01*
X119147436Y-128504058D01*
X119148373Y-128498521D01*
X119150169Y-128491485D01*
X119153006Y-128482395D01*
X119157066Y-128470697D01*
X119162530Y-128455836D01*
X119169581Y-128437258D01*
X119176329Y-128419750D01*
X119183613Y-128401180D01*
X119190502Y-128384070D01*
X119196744Y-128369017D01*
X119202084Y-128356618D01*
X119206266Y-128347469D01*
X119209039Y-128342167D01*
X119209835Y-128341132D01*
X119217367Y-128337756D01*
X119223935Y-128339132D01*
G36*
X119223935Y-128339132D02*
G01*
X119229231Y-128344976D01*
X119232946Y-128355001D01*
X119234395Y-128363894D01*
X119237619Y-128384322D01*
X119242948Y-128405835D01*
X119249738Y-128426084D01*
X119254397Y-128436965D01*
X119266231Y-128456193D01*
X119283051Y-128474696D01*
X119304807Y-128492440D01*
X119331453Y-128509388D01*
X119362939Y-128525504D01*
X119384482Y-128534902D01*
X119395898Y-128539728D01*
X119403397Y-128543332D01*
X119407824Y-128546266D01*
X119410021Y-128549084D01*
X119410812Y-128552152D01*
X119410164Y-128557947D01*
X119405740Y-128561285D01*
X119405732Y-128561288D01*
X119401423Y-128562299D01*
X119392811Y-128563723D01*
X119380650Y-128565471D01*
X119365691Y-128567457D01*
X119348689Y-128569593D01*
X119330395Y-128571793D01*
X119311562Y-128573970D01*
X119292944Y-128576035D01*
X119275293Y-128577903D01*
X119259361Y-128579487D01*
X119245902Y-128580698D01*
X119235669Y-128581450D01*
X119229671Y-128581660D01*
X119219147Y-128580956D01*
X119208804Y-128579375D01*
X119203824Y-128578140D01*
X119186725Y-128570559D01*
X119171899Y-128559611D01*
X119159992Y-128546089D01*
X119151647Y-128530782D01*
X119147511Y-128514481D01*
X119147176Y-128508650D01*
X119147436Y-128504058D01*
X119148373Y-128498521D01*
X119150169Y-128491485D01*
X119153006Y-128482395D01*
X119157066Y-128470697D01*
X119162530Y-128455836D01*
X119169581Y-128437258D01*
X119176329Y-128419750D01*
X119183613Y-128401180D01*
X119190502Y-128384070D01*
X119196744Y-128369017D01*
X119202084Y-128356618D01*
X119206266Y-128347469D01*
X119209039Y-128342167D01*
X119209835Y-128341132D01*
X119217367Y-128337756D01*
X119223935Y-128339132D01*
G37*
X118248758Y-122954002D02*
X118249988Y-122957211D01*
X118249277Y-122959490D01*
X118246554Y-122963493D01*
X118241580Y-122969475D01*
X118234115Y-122977694D01*
X118223922Y-122988404D01*
X118210761Y-123001863D01*
X118194393Y-123018327D01*
X118175443Y-123037195D01*
X118126108Y-123086675D01*
X118080673Y-123133346D01*
X118039191Y-123177153D01*
X118001714Y-123218041D01*
X117978695Y-123243976D01*
X117961286Y-123264032D01*
X117946523Y-123281444D01*
X117933572Y-123297269D01*
X117921601Y-123312565D01*
X117909777Y-123328392D01*
X117897267Y-123345806D01*
X117886739Y-123360827D01*
X117866555Y-123389757D01*
X117848697Y-123415140D01*
X117832660Y-123437648D01*
X117817941Y-123457950D01*
X117804034Y-123476720D01*
X117790436Y-123494628D01*
X117776642Y-123512345D01*
X117762149Y-123530543D01*
X117746451Y-123549893D01*
X117729044Y-123571066D01*
X117726465Y-123574187D01*
X117708338Y-123596457D01*
X117688955Y-123620898D01*
X117668987Y-123646622D01*
X117649105Y-123672739D01*
X117629983Y-123698359D01*
X117612291Y-123722595D01*
X117596701Y-123744555D01*
X117586383Y-123759607D01*
X117579337Y-123770826D01*
X117570381Y-123786277D01*
X117559710Y-123805567D01*
X117547518Y-123828305D01*
X117534003Y-123854098D01*
X117519358Y-123882555D01*
X117503780Y-123913284D01*
X117487463Y-123945894D01*
X117470604Y-123979992D01*
X117453397Y-124015187D01*
X117436039Y-124051086D01*
X117418723Y-124087299D01*
X117401647Y-124123433D01*
X117385005Y-124159097D01*
X117368992Y-124193898D01*
X117360888Y-124211727D01*
X117342180Y-124253540D01*
X117322200Y-124299059D01*
X117301405Y-124347209D01*
X117280247Y-124396917D01*
X117259182Y-124447110D01*
X117238664Y-124496715D01*
X117219147Y-124544659D01*
X117205331Y-124579154D01*
X117198314Y-124596584D01*
X117192755Y-124609801D01*
X117188377Y-124619368D01*
X117184903Y-124625845D01*
X117182056Y-124629796D01*
X117179560Y-124631782D01*
X117179397Y-124631859D01*
X117173465Y-124634146D01*
X117169189Y-124633874D01*
X117164145Y-124630687D01*
X117162453Y-124629372D01*
X117157823Y-124624472D01*
X117155767Y-124619807D01*
X117155761Y-124619609D01*
X117156385Y-124615835D01*
X117158163Y-124607709D01*
X117160951Y-124595791D01*
X117164609Y-124580641D01*
X117168993Y-124562818D01*
X117173960Y-124542883D01*
X117179369Y-124521395D01*
X117185077Y-124498914D01*
X117190942Y-124476001D01*
X117196820Y-124453215D01*
X117202570Y-124431115D01*
X117208050Y-124410263D01*
X117213116Y-124391218D01*
X117217626Y-124374539D01*
X117221439Y-124360786D01*
X117222946Y-124355505D01*
X117232943Y-124321776D01*
X117243873Y-124286633D01*
X117255896Y-124249607D01*
X117269172Y-124210228D01*
X117283862Y-124168029D01*
X117300126Y-124122541D01*
X117318125Y-124073293D01*
X117336064Y-124025037D01*
X117358501Y-123965553D01*
X117379893Y-123909756D01*
X117400197Y-123857749D01*
X117419368Y-123809635D01*
X117437363Y-123765520D01*
X117454135Y-123725506D01*
X117469642Y-123689699D01*
X117483839Y-123658201D01*
X117496681Y-123631118D01*
X117508124Y-123608553D01*
X117518123Y-123590610D01*
X117526635Y-123577394D01*
X117527484Y-123576226D01*
X117542544Y-123557050D01*
X117561421Y-123535106D01*
X117583845Y-123510643D01*
X117609545Y-123483906D01*
X117638248Y-123455142D01*
X117669685Y-123424599D01*
X117703583Y-123392523D01*
X117739672Y-123359161D01*
X117777679Y-123324761D01*
X117817335Y-123289569D01*
X117858368Y-123253832D01*
X117900506Y-123217797D01*
X117943479Y-123181711D01*
X117987015Y-123145821D01*
X118030843Y-123110375D01*
X118074691Y-123075618D01*
X118093021Y-123061307D01*
X118119928Y-123040505D01*
X118144884Y-123021433D01*
X118167643Y-123004266D01*
X118187964Y-122989182D01*
X118205602Y-122976355D01*
X118220316Y-122965963D01*
X118231861Y-122958181D01*
X118239995Y-122953187D01*
X118244474Y-122951156D01*
X118244996Y-122951132D01*
X118248758Y-122954002D01*
G36*
X118248758Y-122954002D02*
G01*
X118249988Y-122957211D01*
X118249277Y-122959490D01*
X118246554Y-122963493D01*
X118241580Y-122969475D01*
X118234115Y-122977694D01*
X118223922Y-122988404D01*
X118210761Y-123001863D01*
X118194393Y-123018327D01*
X118175443Y-123037195D01*
X118126108Y-123086675D01*
X118080673Y-123133346D01*
X118039191Y-123177153D01*
X118001714Y-123218041D01*
X117978695Y-123243976D01*
X117961286Y-123264032D01*
X117946523Y-123281444D01*
X117933572Y-123297269D01*
X117921601Y-123312565D01*
X117909777Y-123328392D01*
X117897267Y-123345806D01*
X117886739Y-123360827D01*
X117866555Y-123389757D01*
X117848697Y-123415140D01*
X117832660Y-123437648D01*
X117817941Y-123457950D01*
X117804034Y-123476720D01*
X117790436Y-123494628D01*
X117776642Y-123512345D01*
X117762149Y-123530543D01*
X117746451Y-123549893D01*
X117729044Y-123571066D01*
X117726465Y-123574187D01*
X117708338Y-123596457D01*
X117688955Y-123620898D01*
X117668987Y-123646622D01*
X117649105Y-123672739D01*
X117629983Y-123698359D01*
X117612291Y-123722595D01*
X117596701Y-123744555D01*
X117586383Y-123759607D01*
X117579337Y-123770826D01*
X117570381Y-123786277D01*
X117559710Y-123805567D01*
X117547518Y-123828305D01*
X117534003Y-123854098D01*
X117519358Y-123882555D01*
X117503780Y-123913284D01*
X117487463Y-123945894D01*
X117470604Y-123979992D01*
X117453397Y-124015187D01*
X117436039Y-124051086D01*
X117418723Y-124087299D01*
X117401647Y-124123433D01*
X117385005Y-124159097D01*
X117368992Y-124193898D01*
X117360888Y-124211727D01*
X117342180Y-124253540D01*
X117322200Y-124299059D01*
X117301405Y-124347209D01*
X117280247Y-124396917D01*
X117259182Y-124447110D01*
X117238664Y-124496715D01*
X117219147Y-124544659D01*
X117205331Y-124579154D01*
X117198314Y-124596584D01*
X117192755Y-124609801D01*
X117188377Y-124619368D01*
X117184903Y-124625845D01*
X117182056Y-124629796D01*
X117179560Y-124631782D01*
X117179397Y-124631859D01*
X117173465Y-124634146D01*
X117169189Y-124633874D01*
X117164145Y-124630687D01*
X117162453Y-124629372D01*
X117157823Y-124624472D01*
X117155767Y-124619807D01*
X117155761Y-124619609D01*
X117156385Y-124615835D01*
X117158163Y-124607709D01*
X117160951Y-124595791D01*
X117164609Y-124580641D01*
X117168993Y-124562818D01*
X117173960Y-124542883D01*
X117179369Y-124521395D01*
X117185077Y-124498914D01*
X117190942Y-124476001D01*
X117196820Y-124453215D01*
X117202570Y-124431115D01*
X117208050Y-124410263D01*
X117213116Y-124391218D01*
X117217626Y-124374539D01*
X117221439Y-124360786D01*
X117222946Y-124355505D01*
X117232943Y-124321776D01*
X117243873Y-124286633D01*
X117255896Y-124249607D01*
X117269172Y-124210228D01*
X117283862Y-124168029D01*
X117300126Y-124122541D01*
X117318125Y-124073293D01*
X117336064Y-124025037D01*
X117358501Y-123965553D01*
X117379893Y-123909756D01*
X117400197Y-123857749D01*
X117419368Y-123809635D01*
X117437363Y-123765520D01*
X117454135Y-123725506D01*
X117469642Y-123689699D01*
X117483839Y-123658201D01*
X117496681Y-123631118D01*
X117508124Y-123608553D01*
X117518123Y-123590610D01*
X117526635Y-123577394D01*
X117527484Y-123576226D01*
X117542544Y-123557050D01*
X117561421Y-123535106D01*
X117583845Y-123510643D01*
X117609545Y-123483906D01*
X117638248Y-123455142D01*
X117669685Y-123424599D01*
X117703583Y-123392523D01*
X117739672Y-123359161D01*
X117777679Y-123324761D01*
X117817335Y-123289569D01*
X117858368Y-123253832D01*
X117900506Y-123217797D01*
X117943479Y-123181711D01*
X117987015Y-123145821D01*
X118030843Y-123110375D01*
X118074691Y-123075618D01*
X118093021Y-123061307D01*
X118119928Y-123040505D01*
X118144884Y-123021433D01*
X118167643Y-123004266D01*
X118187964Y-122989182D01*
X118205602Y-122976355D01*
X118220316Y-122965963D01*
X118231861Y-122958181D01*
X118239995Y-122953187D01*
X118244474Y-122951156D01*
X118244996Y-122951132D01*
X118248758Y-122954002D01*
G37*
X116585647Y-125193285D02*
X116596046Y-125198736D01*
X116596076Y-125198755D01*
X116600972Y-125203191D01*
X116607720Y-125211615D01*
X116616350Y-125224080D01*
X116626891Y-125240637D01*
X116639374Y-125261341D01*
X116653829Y-125286243D01*
X116670285Y-125315395D01*
X116688773Y-125348852D01*
X116709322Y-125386664D01*
X116731963Y-125428886D01*
X116756725Y-125475569D01*
X116783639Y-125526766D01*
X116792541Y-125543785D01*
X116807998Y-125573357D01*
X116821318Y-125598786D01*
X116832708Y-125620433D01*
X116842374Y-125638662D01*
X116850525Y-125653836D01*
X116857366Y-125666317D01*
X116863106Y-125676468D01*
X116867951Y-125684653D01*
X116872108Y-125691233D01*
X116875785Y-125696572D01*
X116879188Y-125701032D01*
X116882525Y-125704976D01*
X116886003Y-125708768D01*
X116887791Y-125710648D01*
X116890793Y-125713645D01*
X116897328Y-125720059D01*
X116907276Y-125729774D01*
X116920518Y-125742676D01*
X116936936Y-125758648D01*
X116956410Y-125777576D01*
X116978822Y-125799344D01*
X117004052Y-125823837D01*
X117031982Y-125850940D01*
X117062492Y-125880537D01*
X117095465Y-125912514D01*
X117130780Y-125946754D01*
X117168319Y-125983142D01*
X117207963Y-126021564D01*
X117249593Y-126061903D01*
X117293090Y-126104045D01*
X117338336Y-126147875D01*
X117385210Y-126193276D01*
X117433595Y-126240134D01*
X117483371Y-126288333D01*
X117534419Y-126337758D01*
X117586621Y-126388295D01*
X117639857Y-126439826D01*
X117694009Y-126492238D01*
X117722181Y-126519502D01*
X117787542Y-126582754D01*
X117849358Y-126642570D01*
X117907729Y-126699048D01*
X117962758Y-126752285D01*
X118014548Y-126802380D01*
X118063201Y-126849430D01*
X118108819Y-126893534D01*
X118151504Y-126934790D01*
X118191360Y-126973296D01*
X118228488Y-127009149D01*
X118262990Y-127042448D01*
X118294969Y-127073291D01*
X118324528Y-127101776D01*
X118351768Y-127128001D01*
X118376793Y-127152064D01*
X118399703Y-127174062D01*
X118420603Y-127194095D01*
X118439593Y-127212259D01*
X118456777Y-127228654D01*
X118472257Y-127243376D01*
X118486135Y-127256525D01*
X118498513Y-127268198D01*
X118509494Y-127278493D01*
X118519180Y-127287507D01*
X118527673Y-127295341D01*
X118535076Y-127302090D01*
X118541492Y-127307854D01*
X118547022Y-127312729D01*
X118551768Y-127316815D01*
X118555834Y-127320210D01*
X118559322Y-127323010D01*
X118562333Y-127325315D01*
X118564971Y-127327223D01*
X118566820Y-127328488D01*
X118589881Y-127342792D01*
X118614363Y-127356047D01*
X118638722Y-127367488D01*
X118661413Y-127376348D01*
X118667061Y-127378201D01*
X118680581Y-127381735D01*
X118694135Y-127383611D01*
X118710194Y-127384170D01*
X118710241Y-127384171D01*
X118722190Y-127384016D01*
X118730885Y-127383292D01*
X118738151Y-127381637D01*
X118745807Y-127378687D01*
X118751880Y-127375894D01*
X118775754Y-127362353D01*
X118800379Y-127343974D01*
X118825791Y-127320725D01*
X118852022Y-127292571D01*
X118879108Y-127259479D01*
X118900636Y-127230517D01*
X118906944Y-127221904D01*
X118912371Y-127214856D01*
X118916096Y-127210421D01*
X118917032Y-127209534D01*
X118923375Y-127207768D01*
X118931304Y-127208878D01*
X118938628Y-127212339D01*
X118941947Y-127215493D01*
X118943945Y-127218441D01*
X118945157Y-127221500D01*
X118945605Y-127225672D01*
X118945308Y-127231957D01*
X118944287Y-127241355D01*
X118942729Y-127253593D01*
X118934901Y-127301695D01*
X118924388Y-127345653D01*
X118911050Y-127385721D01*
X118894749Y-127422151D01*
X118875345Y-127455197D01*
X118852699Y-127485110D01*
X118826671Y-127512143D01*
X118797121Y-127536551D01*
X118780178Y-127548381D01*
X118756073Y-127562814D01*
X118733883Y-127572907D01*
X118713112Y-127578792D01*
X118693260Y-127580600D01*
X118673831Y-127578460D01*
X118669559Y-127577472D01*
X118654547Y-127572658D01*
X118637548Y-127565588D01*
X118620530Y-127557192D01*
X118605464Y-127548397D01*
X118600077Y-127544725D01*
X118596730Y-127541842D01*
X118589993Y-127535623D01*
X118580096Y-127526290D01*
X118567272Y-127514068D01*
X118551752Y-127499181D01*
X118533769Y-127481853D01*
X118513553Y-127462307D01*
X118491336Y-127440769D01*
X118467351Y-127417462D01*
X118441829Y-127392609D01*
X118415001Y-127366436D01*
X118387100Y-127339166D01*
X118359138Y-127311789D01*
X118330647Y-127283900D01*
X118303152Y-127257046D01*
X118276870Y-127231435D01*
X118252020Y-127207279D01*
X118228819Y-127184786D01*
X118207485Y-127164167D01*
X118188237Y-127145632D01*
X118171293Y-127129390D01*
X118156871Y-127115653D01*
X118145188Y-127104629D01*
X118136464Y-127096529D01*
X118130915Y-127091562D01*
X118128760Y-127089939D01*
X118128747Y-127089948D01*
X118127587Y-127093300D01*
X118126074Y-127100384D01*
X118124476Y-127109888D01*
X118123927Y-127113677D01*
X118116825Y-127153344D01*
X118106315Y-127195551D01*
X118092738Y-127239412D01*
X118076437Y-127284039D01*
X118057752Y-127328547D01*
X118037025Y-127372047D01*
X118014600Y-127413655D01*
X117997172Y-127442607D01*
X117986476Y-127459168D01*
X117974184Y-127477586D01*
X117960612Y-127497435D01*
X117946074Y-127518291D01*
X117930884Y-127539731D01*
X117915355Y-127561329D01*
X117899802Y-127582663D01*
X117884539Y-127603307D01*
X117869881Y-127622838D01*
X117856140Y-127640832D01*
X117843632Y-127656864D01*
X117832671Y-127670510D01*
X117823570Y-127681347D01*
X117816644Y-127688950D01*
X117812207Y-127692895D01*
X117811540Y-127693253D01*
X117807405Y-127693871D01*
X117799024Y-127694325D01*
X117787228Y-127694621D01*
X117772848Y-127694763D01*
X117756716Y-127694757D01*
X117739662Y-127694608D01*
X117722518Y-127694320D01*
X117706115Y-127693900D01*
X117691284Y-127693351D01*
X117678857Y-127692680D01*
X117675191Y-127692414D01*
X117648128Y-127689672D01*
X117621261Y-127685657D01*
X117593676Y-127680163D01*
X117564457Y-127672982D01*
X117532691Y-127663908D01*
X117497465Y-127652733D01*
X117491936Y-127650899D01*
X117431016Y-127629228D01*
X117371996Y-127605514D01*
X117315537Y-127580067D01*
X117262301Y-127553201D01*
X117212951Y-127525225D01*
X117178621Y-127503525D01*
X117130321Y-127468649D01*
X117082946Y-127428830D01*
X117036554Y-127384132D01*
X116991205Y-127334618D01*
X116946960Y-127280352D01*
X116903878Y-127221397D01*
X116882592Y-127189877D01*
X116864767Y-127162278D01*
X116848290Y-127135605D01*
X116832521Y-127108737D01*
X116816821Y-127080556D01*
X116800551Y-127049944D01*
X116783074Y-127015780D01*
X116782231Y-127014106D01*
X116772943Y-126994851D01*
X117789710Y-126994851D01*
X117790206Y-127020458D01*
X117790553Y-127023174D01*
X117796440Y-127049815D01*
X117806190Y-127074505D01*
X117819395Y-127096750D01*
X117835645Y-127116053D01*
X117854532Y-127131918D01*
X117875646Y-127143849D01*
X117895752Y-127150703D01*
X117910899Y-127153492D01*
X117924343Y-127153660D01*
X117938745Y-127151190D01*
X117941802Y-127150423D01*
X117962222Y-127143177D01*
X117980671Y-127132321D01*
X117998092Y-127117423D01*
X118012399Y-127100508D01*
X118024326Y-127080182D01*
X118034074Y-127056017D01*
X118041846Y-127027583D01*
X118043052Y-127021974D01*
X118046524Y-127005202D01*
X117965812Y-126926724D01*
X117948922Y-126910367D01*
X117933057Y-126895129D01*
X117918606Y-126881373D01*
X117905956Y-126869463D01*
X117895495Y-126859762D01*
X117887610Y-126852633D01*
X117882690Y-126848440D01*
X117881208Y-126847444D01*
X117877544Y-126848848D01*
X117871364Y-126853482D01*
X117863358Y-126860633D01*
X117854213Y-126869588D01*
X117844617Y-126879635D01*
X117835258Y-126890061D01*
X117826825Y-126900152D01*
X117820006Y-126909196D01*
X117816698Y-126914287D01*
X117803049Y-126941381D01*
X117794022Y-126968364D01*
X117789710Y-126994851D01*
X116772943Y-126994851D01*
X116738316Y-126923072D01*
X116699072Y-126833754D01*
X116664449Y-126745995D01*
X116634396Y-126659637D01*
X116608865Y-126574521D01*
X116590862Y-126502691D01*
X117288923Y-126502691D01*
X117289138Y-126527721D01*
X117290462Y-126551721D01*
X117292896Y-126573195D01*
X117294958Y-126584565D01*
X117305893Y-126624639D01*
X117320839Y-126663218D01*
X117339433Y-126699633D01*
X117361314Y-126733218D01*
X117386121Y-126763302D01*
X117398658Y-126776016D01*
X117414142Y-126788618D01*
X117433538Y-126800968D01*
X117455687Y-126812540D01*
X117479428Y-126822803D01*
X117503601Y-126831230D01*
X117527046Y-126837292D01*
X117537187Y-126839129D01*
X117550122Y-126840387D01*
X117565942Y-126840842D01*
X117583073Y-126840553D01*
X117599937Y-126839579D01*
X117614960Y-126837981D01*
X117626566Y-126835818D01*
X117626931Y-126835722D01*
X117653858Y-126826070D01*
X117677810Y-126812353D01*
X117698586Y-126794760D01*
X117715985Y-126773483D01*
X117729805Y-126748712D01*
X117736292Y-126732262D01*
X117742583Y-126713764D01*
X117729207Y-126700728D01*
X117725557Y-126697163D01*
X117718539Y-126690299D01*
X117708415Y-126680393D01*
X117695446Y-126667700D01*
X117679893Y-126652476D01*
X117662018Y-126634978D01*
X117642082Y-126615461D01*
X117620346Y-126594181D01*
X117597073Y-126571395D01*
X117572524Y-126547357D01*
X117546959Y-126522324D01*
X117527310Y-126503083D01*
X117338789Y-126318473D01*
X117328738Y-126338464D01*
X117318884Y-126360296D01*
X117309507Y-126385228D01*
X117301290Y-126411287D01*
X117294937Y-126436391D01*
X117291822Y-126455530D01*
X117289817Y-126478128D01*
X117288923Y-126502691D01*
X116590862Y-126502691D01*
X116587803Y-126490489D01*
X116571162Y-126407383D01*
X116558890Y-126325045D01*
X116556097Y-126300877D01*
X116555223Y-126290365D01*
X116554394Y-126275945D01*
X116553658Y-126258786D01*
X116553063Y-126240059D01*
X116552656Y-126220934D01*
X116552559Y-126213646D01*
X116552321Y-126194422D01*
X116552044Y-126179634D01*
X116551675Y-126168639D01*
X116551160Y-126160791D01*
X116550445Y-126155448D01*
X116549475Y-126151965D01*
X116548199Y-126149699D01*
X116547124Y-126148520D01*
X116544307Y-126146518D01*
X116537499Y-126142019D01*
X116527016Y-126135221D01*
X116513171Y-126126326D01*
X116496280Y-126115533D01*
X116476656Y-126103042D01*
X116454613Y-126089054D01*
X116430467Y-126073769D01*
X116404531Y-126057386D01*
X116377120Y-126040107D01*
X116349311Y-126022609D01*
X116320754Y-126004651D01*
X116293352Y-125987408D01*
X116267422Y-125971077D01*
X116243278Y-125955858D01*
X116221236Y-125941952D01*
X116201612Y-125929556D01*
X116184722Y-125918870D01*
X116170879Y-125910095D01*
X116160402Y-125903428D01*
X116153604Y-125899070D01*
X116150822Y-125897235D01*
X116141636Y-125887775D01*
X116136032Y-125876251D01*
X116134680Y-125867210D01*
X116137017Y-125856390D01*
X116143718Y-125847401D01*
X116154321Y-125840491D01*
X116168363Y-125835909D01*
X116185383Y-125833901D01*
X116196573Y-125834022D01*
X116202010Y-125834350D01*
X116207020Y-125834831D01*
X116212025Y-125835642D01*
X116217446Y-125836959D01*
X116223703Y-125838961D01*
X116231219Y-125841826D01*
X116240412Y-125845730D01*
X116251705Y-125850850D01*
X116265518Y-125857366D01*
X116282273Y-125865453D01*
X116302390Y-125875290D01*
X116326291Y-125887053D01*
X116349311Y-125898411D01*
X116394623Y-125921234D01*
X116435948Y-125943030D01*
X116474153Y-125964266D01*
X116504251Y-125981883D01*
X116524370Y-125993894D01*
X116540688Y-126003444D01*
X116553731Y-126010735D01*
X116564023Y-126015965D01*
X116572093Y-126019334D01*
X116578466Y-126021041D01*
X116583668Y-126021287D01*
X116588225Y-126020272D01*
X116592665Y-126018194D01*
X116595512Y-126016507D01*
X116605300Y-126008455D01*
X116615082Y-125996989D01*
X116623777Y-125983660D01*
X116630306Y-125970019D01*
X116632431Y-125963526D01*
X116634061Y-125953851D01*
X116632934Y-125945388D01*
X116632362Y-125943526D01*
X116629582Y-125938657D01*
X116623330Y-125930272D01*
X116613697Y-125918476D01*
X116600769Y-125903377D01*
X116584638Y-125885081D01*
X116570553Y-125869396D01*
X116536459Y-125831616D01*
X116503052Y-125794492D01*
X116470569Y-125758291D01*
X116439248Y-125723282D01*
X116409326Y-125689731D01*
X116381041Y-125657906D01*
X116354630Y-125628076D01*
X116330330Y-125600509D01*
X116308379Y-125575472D01*
X116289014Y-125553233D01*
X116272473Y-125534060D01*
X116258992Y-125518220D01*
X116252979Y-125511040D01*
X116241807Y-125497123D01*
X116233786Y-125485789D01*
X116228440Y-125476064D01*
X116225291Y-125466976D01*
X116223865Y-125457551D01*
X116223636Y-125451067D01*
X116225577Y-125434646D01*
X116231109Y-125420116D01*
X116239611Y-125408025D01*
X116250461Y-125398921D01*
X116263038Y-125393353D01*
X116276719Y-125391871D01*
X116288223Y-125394055D01*
X116292711Y-125396763D01*
X116300452Y-125402885D01*
X116311188Y-125412167D01*
X116324659Y-125424355D01*
X116340606Y-125439191D01*
X116358771Y-125456423D01*
X116378892Y-125475794D01*
X116400713Y-125497051D01*
X116423972Y-125519937D01*
X116448412Y-125544198D01*
X116473773Y-125569579D01*
X116499796Y-125595825D01*
X116526221Y-125622681D01*
X116552789Y-125649892D01*
X116579242Y-125677203D01*
X116605320Y-125704360D01*
X116629527Y-125729800D01*
X116647056Y-125748254D01*
X116661563Y-125763324D01*
X116673482Y-125775353D01*
X116683245Y-125784680D01*
X116691287Y-125791648D01*
X116698040Y-125796597D01*
X116703937Y-125799868D01*
X116709412Y-125801803D01*
X116714898Y-125802742D01*
X116720828Y-125803027D01*
X116722547Y-125803037D01*
X116733668Y-125800967D01*
X116742959Y-125795362D01*
X116749162Y-125787127D01*
X116750601Y-125782849D01*
X116750967Y-125780262D01*
X116750903Y-125777167D01*
X116750279Y-125773240D01*
X116748964Y-125768156D01*
X116746824Y-125761593D01*
X116743730Y-125753226D01*
X116739550Y-125742732D01*
X116734152Y-125729785D01*
X116727405Y-125714063D01*
X116719177Y-125695242D01*
X116709337Y-125672997D01*
X116697753Y-125647005D01*
X116684295Y-125616942D01*
X116673503Y-125592892D01*
X116655855Y-125553489D01*
X116640151Y-125518209D01*
X116626189Y-125486575D01*
X116613764Y-125458104D01*
X116602674Y-125432319D01*
X116592714Y-125408739D01*
X116583680Y-125386885D01*
X116575370Y-125366277D01*
X116567580Y-125346437D01*
X116560105Y-125326883D01*
X116556571Y-125317462D01*
X116551528Y-125303819D01*
X116548000Y-125293587D01*
X116545718Y-125285422D01*
X116544409Y-125277980D01*
X116543803Y-125269917D01*
X116543630Y-125259889D01*
X116543621Y-125253201D01*
X116543833Y-125238230D01*
X116544731Y-125227165D01*
X116546707Y-125218838D01*
X116550155Y-125212083D01*
X116555465Y-125205734D01*
X116561530Y-125199972D01*
X116569728Y-125193856D01*
X116577320Y-125191643D01*
X116585647Y-125193285D01*
G36*
X116585647Y-125193285D02*
G01*
X116596046Y-125198736D01*
X116596076Y-125198755D01*
X116600972Y-125203191D01*
X116607720Y-125211615D01*
X116616350Y-125224080D01*
X116626891Y-125240637D01*
X116639374Y-125261341D01*
X116653829Y-125286243D01*
X116670285Y-125315395D01*
X116688773Y-125348852D01*
X116709322Y-125386664D01*
X116731963Y-125428886D01*
X116756725Y-125475569D01*
X116783639Y-125526766D01*
X116792541Y-125543785D01*
X116807998Y-125573357D01*
X116821318Y-125598786D01*
X116832708Y-125620433D01*
X116842374Y-125638662D01*
X116850525Y-125653836D01*
X116857366Y-125666317D01*
X116863106Y-125676468D01*
X116867951Y-125684653D01*
X116872108Y-125691233D01*
X116875785Y-125696572D01*
X116879188Y-125701032D01*
X116882525Y-125704976D01*
X116886003Y-125708768D01*
X116887791Y-125710648D01*
X116890793Y-125713645D01*
X116897328Y-125720059D01*
X116907276Y-125729774D01*
X116920518Y-125742676D01*
X116936936Y-125758648D01*
X116956410Y-125777576D01*
X116978822Y-125799344D01*
X117004052Y-125823837D01*
X117031982Y-125850940D01*
X117062492Y-125880537D01*
X117095465Y-125912514D01*
X117130780Y-125946754D01*
X117168319Y-125983142D01*
X117207963Y-126021564D01*
X117249593Y-126061903D01*
X117293090Y-126104045D01*
X117338336Y-126147875D01*
X117385210Y-126193276D01*
X117433595Y-126240134D01*
X117483371Y-126288333D01*
X117534419Y-126337758D01*
X117586621Y-126388295D01*
X117639857Y-126439826D01*
X117694009Y-126492238D01*
X117722181Y-126519502D01*
X117787542Y-126582754D01*
X117849358Y-126642570D01*
X117907729Y-126699048D01*
X117962758Y-126752285D01*
X118014548Y-126802380D01*
X118063201Y-126849430D01*
X118108819Y-126893534D01*
X118151504Y-126934790D01*
X118191360Y-126973296D01*
X118228488Y-127009149D01*
X118262990Y-127042448D01*
X118294969Y-127073291D01*
X118324528Y-127101776D01*
X118351768Y-127128001D01*
X118376793Y-127152064D01*
X118399703Y-127174062D01*
X118420603Y-127194095D01*
X118439593Y-127212259D01*
X118456777Y-127228654D01*
X118472257Y-127243376D01*
X118486135Y-127256525D01*
X118498513Y-127268198D01*
X118509494Y-127278493D01*
X118519180Y-127287507D01*
X118527673Y-127295341D01*
X118535076Y-127302090D01*
X118541492Y-127307854D01*
X118547022Y-127312729D01*
X118551768Y-127316815D01*
X118555834Y-127320210D01*
X118559322Y-127323010D01*
X118562333Y-127325315D01*
X118564971Y-127327223D01*
X118566820Y-127328488D01*
X118589881Y-127342792D01*
X118614363Y-127356047D01*
X118638722Y-127367488D01*
X118661413Y-127376348D01*
X118667061Y-127378201D01*
X118680581Y-127381735D01*
X118694135Y-127383611D01*
X118710194Y-127384170D01*
X118710241Y-127384171D01*
X118722190Y-127384016D01*
X118730885Y-127383292D01*
X118738151Y-127381637D01*
X118745807Y-127378687D01*
X118751880Y-127375894D01*
X118775754Y-127362353D01*
X118800379Y-127343974D01*
X118825791Y-127320725D01*
X118852022Y-127292571D01*
X118879108Y-127259479D01*
X118900636Y-127230517D01*
X118906944Y-127221904D01*
X118912371Y-127214856D01*
X118916096Y-127210421D01*
X118917032Y-127209534D01*
X118923375Y-127207768D01*
X118931304Y-127208878D01*
X118938628Y-127212339D01*
X118941947Y-127215493D01*
X118943945Y-127218441D01*
X118945157Y-127221500D01*
X118945605Y-127225672D01*
X118945308Y-127231957D01*
X118944287Y-127241355D01*
X118942729Y-127253593D01*
X118934901Y-127301695D01*
X118924388Y-127345653D01*
X118911050Y-127385721D01*
X118894749Y-127422151D01*
X118875345Y-127455197D01*
X118852699Y-127485110D01*
X118826671Y-127512143D01*
X118797121Y-127536551D01*
X118780178Y-127548381D01*
X118756073Y-127562814D01*
X118733883Y-127572907D01*
X118713112Y-127578792D01*
X118693260Y-127580600D01*
X118673831Y-127578460D01*
X118669559Y-127577472D01*
X118654547Y-127572658D01*
X118637548Y-127565588D01*
X118620530Y-127557192D01*
X118605464Y-127548397D01*
X118600077Y-127544725D01*
X118596730Y-127541842D01*
X118589993Y-127535623D01*
X118580096Y-127526290D01*
X118567272Y-127514068D01*
X118551752Y-127499181D01*
X118533769Y-127481853D01*
X118513553Y-127462307D01*
X118491336Y-127440769D01*
X118467351Y-127417462D01*
X118441829Y-127392609D01*
X118415001Y-127366436D01*
X118387100Y-127339166D01*
X118359138Y-127311789D01*
X118330647Y-127283900D01*
X118303152Y-127257046D01*
X118276870Y-127231435D01*
X118252020Y-127207279D01*
X118228819Y-127184786D01*
X118207485Y-127164167D01*
X118188237Y-127145632D01*
X118171293Y-127129390D01*
X118156871Y-127115653D01*
X118145188Y-127104629D01*
X118136464Y-127096529D01*
X118130915Y-127091562D01*
X118128760Y-127089939D01*
X118128747Y-127089948D01*
X118127587Y-127093300D01*
X118126074Y-127100384D01*
X118124476Y-127109888D01*
X118123927Y-127113677D01*
X118116825Y-127153344D01*
X118106315Y-127195551D01*
X118092738Y-127239412D01*
X118076437Y-127284039D01*
X118057752Y-127328547D01*
X118037025Y-127372047D01*
X118014600Y-127413655D01*
X117997172Y-127442607D01*
X117986476Y-127459168D01*
X117974184Y-127477586D01*
X117960612Y-127497435D01*
X117946074Y-127518291D01*
X117930884Y-127539731D01*
X117915355Y-127561329D01*
X117899802Y-127582663D01*
X117884539Y-127603307D01*
X117869881Y-127622838D01*
X117856140Y-127640832D01*
X117843632Y-127656864D01*
X117832671Y-127670510D01*
X117823570Y-127681347D01*
X117816644Y-127688950D01*
X117812207Y-127692895D01*
X117811540Y-127693253D01*
X117807405Y-127693871D01*
X117799024Y-127694325D01*
X117787228Y-127694621D01*
X117772848Y-127694763D01*
X117756716Y-127694757D01*
X117739662Y-127694608D01*
X117722518Y-127694320D01*
X117706115Y-127693900D01*
X117691284Y-127693351D01*
X117678857Y-127692680D01*
X117675191Y-127692414D01*
X117648128Y-127689672D01*
X117621261Y-127685657D01*
X117593676Y-127680163D01*
X117564457Y-127672982D01*
X117532691Y-127663908D01*
X117497465Y-127652733D01*
X117491936Y-127650899D01*
X117431016Y-127629228D01*
X117371996Y-127605514D01*
X117315537Y-127580067D01*
X117262301Y-127553201D01*
X117212951Y-127525225D01*
X117178621Y-127503525D01*
X117130321Y-127468649D01*
X117082946Y-127428830D01*
X117036554Y-127384132D01*
X116991205Y-127334618D01*
X116946960Y-127280352D01*
X116903878Y-127221397D01*
X116882592Y-127189877D01*
X116864767Y-127162278D01*
X116848290Y-127135605D01*
X116832521Y-127108737D01*
X116816821Y-127080556D01*
X116800551Y-127049944D01*
X116783074Y-127015780D01*
X116782231Y-127014106D01*
X116772943Y-126994851D01*
X117789710Y-126994851D01*
X117790206Y-127020458D01*
X117790553Y-127023174D01*
X117796440Y-127049815D01*
X117806190Y-127074505D01*
X117819395Y-127096750D01*
X117835645Y-127116053D01*
X117854532Y-127131918D01*
X117875646Y-127143849D01*
X117895752Y-127150703D01*
X117910899Y-127153492D01*
X117924343Y-127153660D01*
X117938745Y-127151190D01*
X117941802Y-127150423D01*
X117962222Y-127143177D01*
X117980671Y-127132321D01*
X117998092Y-127117423D01*
X118012399Y-127100508D01*
X118024326Y-127080182D01*
X118034074Y-127056017D01*
X118041846Y-127027583D01*
X118043052Y-127021974D01*
X118046524Y-127005202D01*
X117965812Y-126926724D01*
X117948922Y-126910367D01*
X117933057Y-126895129D01*
X117918606Y-126881373D01*
X117905956Y-126869463D01*
X117895495Y-126859762D01*
X117887610Y-126852633D01*
X117882690Y-126848440D01*
X117881208Y-126847444D01*
X117877544Y-126848848D01*
X117871364Y-126853482D01*
X117863358Y-126860633D01*
X117854213Y-126869588D01*
X117844617Y-126879635D01*
X117835258Y-126890061D01*
X117826825Y-126900152D01*
X117820006Y-126909196D01*
X117816698Y-126914287D01*
X117803049Y-126941381D01*
X117794022Y-126968364D01*
X117789710Y-126994851D01*
X116772943Y-126994851D01*
X116738316Y-126923072D01*
X116699072Y-126833754D01*
X116664449Y-126745995D01*
X116634396Y-126659637D01*
X116608865Y-126574521D01*
X116590862Y-126502691D01*
X117288923Y-126502691D01*
X117289138Y-126527721D01*
X117290462Y-126551721D01*
X117292896Y-126573195D01*
X117294958Y-126584565D01*
X117305893Y-126624639D01*
X117320839Y-126663218D01*
X117339433Y-126699633D01*
X117361314Y-126733218D01*
X117386121Y-126763302D01*
X117398658Y-126776016D01*
X117414142Y-126788618D01*
X117433538Y-126800968D01*
X117455687Y-126812540D01*
X117479428Y-126822803D01*
X117503601Y-126831230D01*
X117527046Y-126837292D01*
X117537187Y-126839129D01*
X117550122Y-126840387D01*
X117565942Y-126840842D01*
X117583073Y-126840553D01*
X117599937Y-126839579D01*
X117614960Y-126837981D01*
X117626566Y-126835818D01*
X117626931Y-126835722D01*
X117653858Y-126826070D01*
X117677810Y-126812353D01*
X117698586Y-126794760D01*
X117715985Y-126773483D01*
X117729805Y-126748712D01*
X117736292Y-126732262D01*
X117742583Y-126713764D01*
X117729207Y-126700728D01*
X117725557Y-126697163D01*
X117718539Y-126690299D01*
X117708415Y-126680393D01*
X117695446Y-126667700D01*
X117679893Y-126652476D01*
X117662018Y-126634978D01*
X117642082Y-126615461D01*
X117620346Y-126594181D01*
X117597073Y-126571395D01*
X117572524Y-126547357D01*
X117546959Y-126522324D01*
X117527310Y-126503083D01*
X117338789Y-126318473D01*
X117328738Y-126338464D01*
X117318884Y-126360296D01*
X117309507Y-126385228D01*
X117301290Y-126411287D01*
X117294937Y-126436391D01*
X117291822Y-126455530D01*
X117289817Y-126478128D01*
X117288923Y-126502691D01*
X116590862Y-126502691D01*
X116587803Y-126490489D01*
X116571162Y-126407383D01*
X116558890Y-126325045D01*
X116556097Y-126300877D01*
X116555223Y-126290365D01*
X116554394Y-126275945D01*
X116553658Y-126258786D01*
X116553063Y-126240059D01*
X116552656Y-126220934D01*
X116552559Y-126213646D01*
X116552321Y-126194422D01*
X116552044Y-126179634D01*
X116551675Y-126168639D01*
X116551160Y-126160791D01*
X116550445Y-126155448D01*
X116549475Y-126151965D01*
X116548199Y-126149699D01*
X116547124Y-126148520D01*
X116544307Y-126146518D01*
X116537499Y-126142019D01*
X116527016Y-126135221D01*
X116513171Y-126126326D01*
X116496280Y-126115533D01*
X116476656Y-126103042D01*
X116454613Y-126089054D01*
X116430467Y-126073769D01*
X116404531Y-126057386D01*
X116377120Y-126040107D01*
X116349311Y-126022609D01*
X116320754Y-126004651D01*
X116293352Y-125987408D01*
X116267422Y-125971077D01*
X116243278Y-125955858D01*
X116221236Y-125941952D01*
X116201612Y-125929556D01*
X116184722Y-125918870D01*
X116170879Y-125910095D01*
X116160402Y-125903428D01*
X116153604Y-125899070D01*
X116150822Y-125897235D01*
X116141636Y-125887775D01*
X116136032Y-125876251D01*
X116134680Y-125867210D01*
X116137017Y-125856390D01*
X116143718Y-125847401D01*
X116154321Y-125840491D01*
X116168363Y-125835909D01*
X116185383Y-125833901D01*
X116196573Y-125834022D01*
X116202010Y-125834350D01*
X116207020Y-125834831D01*
X116212025Y-125835642D01*
X116217446Y-125836959D01*
X116223703Y-125838961D01*
X116231219Y-125841826D01*
X116240412Y-125845730D01*
X116251705Y-125850850D01*
X116265518Y-125857366D01*
X116282273Y-125865453D01*
X116302390Y-125875290D01*
X116326291Y-125887053D01*
X116349311Y-125898411D01*
X116394623Y-125921234D01*
X116435948Y-125943030D01*
X116474153Y-125964266D01*
X116504251Y-125981883D01*
X116524370Y-125993894D01*
X116540688Y-126003444D01*
X116553731Y-126010735D01*
X116564023Y-126015965D01*
X116572093Y-126019334D01*
X116578466Y-126021041D01*
X116583668Y-126021287D01*
X116588225Y-126020272D01*
X116592665Y-126018194D01*
X116595512Y-126016507D01*
X116605300Y-126008455D01*
X116615082Y-125996989D01*
X116623777Y-125983660D01*
X116630306Y-125970019D01*
X116632431Y-125963526D01*
X116634061Y-125953851D01*
X116632934Y-125945388D01*
X116632362Y-125943526D01*
X116629582Y-125938657D01*
X116623330Y-125930272D01*
X116613697Y-125918476D01*
X116600769Y-125903377D01*
X116584638Y-125885081D01*
X116570553Y-125869396D01*
X116536459Y-125831616D01*
X116503052Y-125794492D01*
X116470569Y-125758291D01*
X116439248Y-125723282D01*
X116409326Y-125689731D01*
X116381041Y-125657906D01*
X116354630Y-125628076D01*
X116330330Y-125600509D01*
X116308379Y-125575472D01*
X116289014Y-125553233D01*
X116272473Y-125534060D01*
X116258992Y-125518220D01*
X116252979Y-125511040D01*
X116241807Y-125497123D01*
X116233786Y-125485789D01*
X116228440Y-125476064D01*
X116225291Y-125466976D01*
X116223865Y-125457551D01*
X116223636Y-125451067D01*
X116225577Y-125434646D01*
X116231109Y-125420116D01*
X116239611Y-125408025D01*
X116250461Y-125398921D01*
X116263038Y-125393353D01*
X116276719Y-125391871D01*
X116288223Y-125394055D01*
X116292711Y-125396763D01*
X116300452Y-125402885D01*
X116311188Y-125412167D01*
X116324659Y-125424355D01*
X116340606Y-125439191D01*
X116358771Y-125456423D01*
X116378892Y-125475794D01*
X116400713Y-125497051D01*
X116423972Y-125519937D01*
X116448412Y-125544198D01*
X116473773Y-125569579D01*
X116499796Y-125595825D01*
X116526221Y-125622681D01*
X116552789Y-125649892D01*
X116579242Y-125677203D01*
X116605320Y-125704360D01*
X116629527Y-125729800D01*
X116647056Y-125748254D01*
X116661563Y-125763324D01*
X116673482Y-125775353D01*
X116683245Y-125784680D01*
X116691287Y-125791648D01*
X116698040Y-125796597D01*
X116703937Y-125799868D01*
X116709412Y-125801803D01*
X116714898Y-125802742D01*
X116720828Y-125803027D01*
X116722547Y-125803037D01*
X116733668Y-125800967D01*
X116742959Y-125795362D01*
X116749162Y-125787127D01*
X116750601Y-125782849D01*
X116750967Y-125780262D01*
X116750903Y-125777167D01*
X116750279Y-125773240D01*
X116748964Y-125768156D01*
X116746824Y-125761593D01*
X116743730Y-125753226D01*
X116739550Y-125742732D01*
X116734152Y-125729785D01*
X116727405Y-125714063D01*
X116719177Y-125695242D01*
X116709337Y-125672997D01*
X116697753Y-125647005D01*
X116684295Y-125616942D01*
X116673503Y-125592892D01*
X116655855Y-125553489D01*
X116640151Y-125518209D01*
X116626189Y-125486575D01*
X116613764Y-125458104D01*
X116602674Y-125432319D01*
X116592714Y-125408739D01*
X116583680Y-125386885D01*
X116575370Y-125366277D01*
X116567580Y-125346437D01*
X116560105Y-125326883D01*
X116556571Y-125317462D01*
X116551528Y-125303819D01*
X116548000Y-125293587D01*
X116545718Y-125285422D01*
X116544409Y-125277980D01*
X116543803Y-125269917D01*
X116543630Y-125259889D01*
X116543621Y-125253201D01*
X116543833Y-125238230D01*
X116544731Y-125227165D01*
X116546707Y-125218838D01*
X116550155Y-125212083D01*
X116555465Y-125205734D01*
X116561530Y-125199972D01*
X116569728Y-125193856D01*
X116577320Y-125191643D01*
X116585647Y-125193285D01*
G37*
X118747793Y-122178761D02*
X118773543Y-122179085D01*
X118796973Y-122179572D01*
X118817169Y-122180222D01*
X118833216Y-122181035D01*
X118833431Y-122181049D01*
X118861937Y-122183184D01*
X118891052Y-122185837D01*
X118920228Y-122188923D01*
X118948918Y-122192360D01*
X118976576Y-122196065D01*
X119002654Y-122199954D01*
X119026605Y-122203943D01*
X119047882Y-122207951D01*
X119065938Y-122211893D01*
X119080226Y-122215686D01*
X119090199Y-122219247D01*
X119092723Y-122220510D01*
X119105571Y-122229958D01*
X119117406Y-122243124D01*
X119128274Y-122260156D01*
X119138224Y-122281202D01*
X119147300Y-122306408D01*
X119155551Y-122335924D01*
X119163022Y-122369895D01*
X119169761Y-122408470D01*
X119175814Y-122451796D01*
X119181202Y-122499767D01*
X119187935Y-122571433D01*
X119193256Y-122639214D01*
X119197221Y-122704086D01*
X119199882Y-122767030D01*
X119201294Y-122829022D01*
X119201566Y-122868067D01*
X119201535Y-122900337D01*
X119201336Y-122928553D01*
X119200918Y-122953737D01*
X119200231Y-122976914D01*
X119199221Y-122999108D01*
X119197838Y-123021341D01*
X119196030Y-123044637D01*
X119193745Y-123070021D01*
X119190932Y-123098516D01*
X119189026Y-123116987D01*
X119186465Y-123141617D01*
X119184408Y-123161658D01*
X119182815Y-123177571D01*
X119181649Y-123189817D01*
X119180871Y-123198856D01*
X119180442Y-123205152D01*
X119180323Y-123209163D01*
X119180477Y-123211353D01*
X119180864Y-123212182D01*
X119181060Y-123212237D01*
X119184045Y-123212859D01*
X119191443Y-123214641D01*
X119202751Y-123217453D01*
X119217470Y-123221165D01*
X119235096Y-123225647D01*
X119255130Y-123230771D01*
X119277069Y-123236406D01*
X119300412Y-123242423D01*
X119324657Y-123248693D01*
X119349304Y-123255086D01*
X119373851Y-123261472D01*
X119397796Y-123267722D01*
X119420639Y-123273707D01*
X119441877Y-123279296D01*
X119461009Y-123284361D01*
X119477534Y-123288772D01*
X119482401Y-123290081D01*
X119641106Y-123334325D01*
X119795094Y-123380211D01*
X119944470Y-123427778D01*
X120089337Y-123477068D01*
X120229801Y-123528122D01*
X120365965Y-123580981D01*
X120497934Y-123635685D01*
X120625812Y-123692276D01*
X120749704Y-123750795D01*
X120869714Y-123811282D01*
X120985947Y-123873778D01*
X121019101Y-123892362D01*
X121125586Y-123954557D01*
X121228996Y-124018873D01*
X121328946Y-124085047D01*
X121425054Y-124152816D01*
X121516935Y-124221918D01*
X121604207Y-124292089D01*
X121609651Y-124296631D01*
X121689872Y-124365955D01*
X121770406Y-124439947D01*
X121850957Y-124518230D01*
X121931226Y-124600431D01*
X122010917Y-124686173D01*
X122089733Y-124775081D01*
X122167377Y-124866779D01*
X122243551Y-124960893D01*
X122317959Y-125057045D01*
X122390302Y-125154862D01*
X122460285Y-125253967D01*
X122527609Y-125353986D01*
X122591979Y-125454542D01*
X122653096Y-125555260D01*
X122710664Y-125655764D01*
X122764385Y-125755680D01*
X122764575Y-125756047D01*
X122826509Y-125879706D01*
X122885490Y-126006430D01*
X122941309Y-126135643D01*
X122993759Y-126266766D01*
X123042630Y-126399223D01*
X123087715Y-126532437D01*
X123128806Y-126665829D01*
X123165692Y-126798823D01*
X123198168Y-126930841D01*
X123213341Y-126999377D01*
X123218388Y-127023647D01*
X123223506Y-127049271D01*
X123228604Y-127075720D01*
X123233595Y-127102465D01*
X123238389Y-127128978D01*
X123242896Y-127154730D01*
X123247026Y-127179192D01*
X123250692Y-127201836D01*
X123253803Y-127222133D01*
X123256271Y-127239555D01*
X123258005Y-127253574D01*
X123258917Y-127263660D01*
X123258925Y-127269231D01*
X123257908Y-127269416D01*
X123255222Y-127266629D01*
X123250728Y-127260668D01*
X123244290Y-127251328D01*
X123235770Y-127238406D01*
X123225030Y-127221698D01*
X123211933Y-127201000D01*
X123199387Y-127180987D01*
X123166543Y-127128222D01*
X123133988Y-127075532D01*
X123102225Y-127023740D01*
X123071757Y-126973668D01*
X123043084Y-126926136D01*
X123016710Y-126881967D01*
X123015540Y-126879997D01*
X122981538Y-126823427D01*
X122947312Y-126768026D01*
X122912462Y-126713199D01*
X122876585Y-126658350D01*
X122839281Y-126602883D01*
X122800148Y-126546203D01*
X122758785Y-126487713D01*
X122714790Y-126426819D01*
X122667762Y-126362925D01*
X122660348Y-126352947D01*
X122647128Y-126335046D01*
X122631692Y-126313929D01*
X122614728Y-126290549D01*
X122596922Y-126265859D01*
X122578963Y-126240813D01*
X122561536Y-126216363D01*
X122545330Y-126193463D01*
X122544057Y-126191657D01*
X122521761Y-126160029D01*
X122502081Y-126132205D01*
X122484743Y-126107806D01*
X122469476Y-126086456D01*
X122456006Y-126067780D01*
X122444060Y-126051400D01*
X122433366Y-126036941D01*
X122423651Y-126024025D01*
X122414641Y-126012277D01*
X122406191Y-126001480D01*
X122398402Y-125992170D01*
X122387831Y-125980312D01*
X122375157Y-125966603D01*
X122361065Y-125951741D01*
X122346235Y-125936423D01*
X122331351Y-125921346D01*
X122317094Y-125907209D01*
X122304148Y-125894707D01*
X122293193Y-125884540D01*
X122284912Y-125877404D01*
X122284486Y-125877064D01*
X122273724Y-125868541D01*
X122279142Y-125882144D01*
X122293214Y-125918991D01*
X122307902Y-125960318D01*
X122323051Y-126005586D01*
X122338504Y-126054255D01*
X122354105Y-126105784D01*
X122369698Y-126159633D01*
X122385128Y-126215261D01*
X122400238Y-126272130D01*
X122414871Y-126329698D01*
X122428874Y-126387425D01*
X122442088Y-126444771D01*
X122443704Y-126452007D01*
X122472100Y-126586769D01*
X122496846Y-126719291D01*
X122517931Y-126849451D01*
X122535345Y-126977128D01*
X122549077Y-127102201D01*
X122559118Y-127224550D01*
X122565456Y-127344053D01*
X122568083Y-127460590D01*
X122566986Y-127574040D01*
X122562158Y-127684281D01*
X122555624Y-127769825D01*
X122544350Y-127871631D01*
X122528935Y-127976096D01*
X122509437Y-128083018D01*
X122485914Y-128192194D01*
X122458421Y-128303422D01*
X122427018Y-128416500D01*
X122391759Y-128531225D01*
X122352704Y-128647396D01*
X122309909Y-128764810D01*
X122263431Y-128883264D01*
X122213328Y-129002557D01*
X122195143Y-129044026D01*
X122188182Y-129059583D01*
X122180106Y-129077388D01*
X122171143Y-129096955D01*
X122161522Y-129117802D01*
X122151471Y-129139442D01*
X122141220Y-129161392D01*
X122130997Y-129183167D01*
X122121031Y-129204283D01*
X122111550Y-129224255D01*
X122102784Y-129242598D01*
X122094961Y-129258829D01*
X122088310Y-129272463D01*
X122083060Y-129283015D01*
X122079440Y-129290000D01*
X122077678Y-129292935D01*
X122077582Y-129292997D01*
X122077535Y-129290680D01*
X122078135Y-129284505D01*
X122079261Y-129275636D01*
X122079768Y-129272042D01*
X122082603Y-129250326D01*
X122085525Y-129224000D01*
X122088496Y-129193531D01*
X122091476Y-129159388D01*
X122094424Y-129122039D01*
X122097302Y-129081952D01*
X122100070Y-129039594D01*
X122101643Y-129013597D01*
X122102404Y-128997583D01*
X122103066Y-128977554D01*
X122103628Y-128954104D01*
X122104091Y-128927829D01*
X122104455Y-128899324D01*
X122104718Y-128869185D01*
X122104883Y-128838006D01*
X122104948Y-128806385D01*
X122104913Y-128774914D01*
X122104778Y-128744191D01*
X122104544Y-128714810D01*
X122104210Y-128687367D01*
X122103777Y-128662457D01*
X122103244Y-128640676D01*
X122102611Y-128622618D01*
X122101878Y-128608880D01*
X122101658Y-128605927D01*
X122099467Y-128580498D01*
X122096913Y-128554042D01*
X122093936Y-128526043D01*
X122090472Y-128495987D01*
X122086458Y-128463360D01*
X122081831Y-128427647D01*
X122076529Y-128388333D01*
X122070489Y-128344903D01*
X122065536Y-128310017D01*
X122061006Y-128277713D01*
X122056144Y-128241934D01*
X122051114Y-128203944D01*
X122046077Y-128165009D01*
X122041197Y-128126394D01*
X122036634Y-128089365D01*
X122032552Y-128055187D01*
X122030014Y-128033157D01*
X122023608Y-127976888D01*
X122017647Y-127925378D01*
X122012086Y-127878331D01*
X122006883Y-127835448D01*
X122001993Y-127796434D01*
X121997373Y-127760991D01*
X121992980Y-127728821D01*
X121988771Y-127699627D01*
X121984702Y-127673113D01*
X121980730Y-127648980D01*
X121976811Y-127626933D01*
X121972902Y-127606673D01*
X121968960Y-127587904D01*
X121964941Y-127570328D01*
X121960802Y-127553649D01*
X121958977Y-127546688D01*
X121955588Y-127534454D01*
X121952228Y-127523159D01*
X121949336Y-127514239D01*
X121947690Y-127509858D01*
X121946171Y-127506609D01*
X121945114Y-127505449D01*
X121944432Y-127506956D01*
X121944039Y-127511707D01*
X121943846Y-127520282D01*
X121943768Y-127533256D01*
X121943760Y-127536024D01*
X121942379Y-127575574D01*
X121938537Y-127618919D01*
X121932366Y-127665486D01*
X121924000Y-127714703D01*
X121913570Y-127765996D01*
X121901210Y-127818793D01*
X121887051Y-127872521D01*
X121871226Y-127926606D01*
X121853867Y-127980476D01*
X121835108Y-128033559D01*
X121818943Y-128075671D01*
X121800369Y-128120282D01*
X121780044Y-128165469D01*
X121758598Y-128209937D01*
X121736663Y-128252391D01*
X121714867Y-128291538D01*
X121708479Y-128302397D01*
X121702475Y-128312222D01*
X121694058Y-128325651D01*
X121683627Y-128342061D01*
X121671586Y-128360827D01*
X121658335Y-128381325D01*
X121644277Y-128402931D01*
X121629812Y-128425022D01*
X121618566Y-128442097D01*
X121591483Y-128483358D01*
X121567194Y-128520933D01*
X121545475Y-128555219D01*
X121526099Y-128586614D01*
X121508840Y-128615516D01*
X121493471Y-128642322D01*
X121479767Y-128667430D01*
X121467503Y-128691238D01*
X121456450Y-128714143D01*
X121446385Y-128736544D01*
X121437081Y-128758837D01*
X121433697Y-128767364D01*
X121424944Y-128790399D01*
X121417356Y-128812029D01*
X121410732Y-128833087D01*
X121404872Y-128854404D01*
X121399576Y-128876814D01*
X121394643Y-128901147D01*
X121389873Y-128928237D01*
X121385067Y-128958915D01*
X121381195Y-128985657D01*
X121362869Y-129130554D01*
X121349042Y-129273319D01*
X121339717Y-129413919D01*
X121334892Y-129552320D01*
X121334571Y-129688491D01*
X121338752Y-129822396D01*
X121347437Y-129954004D01*
X121353133Y-130015627D01*
X121362961Y-130102258D01*
X121374555Y-130185318D01*
X121387862Y-130264495D01*
X121402829Y-130339477D01*
X121419404Y-130409955D01*
X121420545Y-130414407D01*
X121424485Y-130429733D01*
X121428069Y-130443720D01*
X121431072Y-130455490D01*
X121433270Y-130464162D01*
X121434438Y-130468857D01*
X121434476Y-130469017D01*
X121433295Y-130469285D01*
X121428882Y-130465995D01*
X121421430Y-130459339D01*
X121411132Y-130449512D01*
X121398180Y-130436707D01*
X121382768Y-130421117D01*
X121365087Y-130402936D01*
X121345332Y-130382356D01*
X121323695Y-130359572D01*
X121300368Y-130334777D01*
X121296385Y-130330521D01*
X121204209Y-130230107D01*
X121114316Y-130128433D01*
X121026877Y-130025745D01*
X120942064Y-129922286D01*
X120860050Y-129818302D01*
X120781006Y-129714038D01*
X120705104Y-129609739D01*
X120632517Y-129505649D01*
X120563417Y-129402013D01*
X120497974Y-129299077D01*
X120436363Y-129197084D01*
X120378754Y-129096281D01*
X120325320Y-128996912D01*
X120276232Y-128899222D01*
X120246304Y-128835797D01*
X120222484Y-128782545D01*
X120197680Y-128724379D01*
X120171916Y-128661366D01*
X120145217Y-128593569D01*
X120117608Y-128521055D01*
X120089113Y-128443889D01*
X120059758Y-128362136D01*
X120029566Y-128275861D01*
X119998562Y-128185130D01*
X119983847Y-128141352D01*
X119939754Y-128009517D01*
X119934440Y-128021972D01*
X119926617Y-128040227D01*
X119920397Y-128054440D01*
X119915428Y-128065260D01*
X119911357Y-128073333D01*
X119907831Y-128079305D01*
X119904498Y-128083824D01*
X119901005Y-128087537D01*
X119896999Y-128091091D01*
X119896544Y-128091473D01*
X119884514Y-128101546D01*
X119880888Y-128305342D01*
X119926119Y-128351515D01*
X119956797Y-128383789D01*
X119983563Y-128413972D01*
X120006356Y-128441974D01*
X120025115Y-128467708D01*
X120039777Y-128491084D01*
X120050280Y-128512016D01*
X120056563Y-128530413D01*
X120058270Y-128540085D01*
X120058493Y-128553923D01*
X120056890Y-128571464D01*
X120053665Y-128591759D01*
X120049024Y-128613855D01*
X120043171Y-128636799D01*
X120036310Y-128659641D01*
X120028646Y-128681428D01*
X120026935Y-128685828D01*
X120005062Y-128734174D01*
X119978400Y-128780935D01*
X119946999Y-128826072D01*
X119910908Y-128869546D01*
X119870179Y-128911319D01*
X119824860Y-128951353D01*
X119775001Y-128989609D01*
X119720652Y-129026048D01*
X119661863Y-129060634D01*
X119598684Y-129093326D01*
X119531164Y-129124086D01*
X119459354Y-129152877D01*
X119389691Y-129177541D01*
X119295446Y-129206516D01*
X119201571Y-129230478D01*
X119107869Y-129249462D01*
X119014140Y-129263502D01*
X118920184Y-129272634D01*
X118825804Y-129276892D01*
X118822001Y-129276961D01*
X118748805Y-129276980D01*
X118672009Y-129274642D01*
X118592461Y-129270044D01*
X118511008Y-129263288D01*
X118428496Y-129254470D01*
X118345774Y-129243689D01*
X118263688Y-129231045D01*
X118183086Y-129216637D01*
X118104814Y-129200562D01*
X118042616Y-129186121D01*
X117972206Y-129167631D01*
X117898838Y-129146045D01*
X117823337Y-129121651D01*
X117746528Y-129094742D01*
X117669239Y-129065608D01*
X117592295Y-129034540D01*
X117516521Y-129001828D01*
X117506488Y-128997330D01*
X117494960Y-128992199D01*
X117485239Y-128987986D01*
X117478182Y-128985056D01*
X117474646Y-128983770D01*
X117474403Y-128983755D01*
X117475608Y-128985925D01*
X117479290Y-128991495D01*
X117484955Y-128999743D01*
X117492111Y-129009949D01*
X117496505Y-129016137D01*
X117560947Y-129109361D01*
X117624491Y-129206989D01*
X117686772Y-129308371D01*
X117747420Y-129412858D01*
X117806070Y-129519801D01*
X117862354Y-129628551D01*
X117915904Y-129738458D01*
X117961457Y-129837827D01*
X117998342Y-129922798D01*
X118033491Y-130007847D01*
X118066806Y-130092645D01*
X118098186Y-130176863D01*
X118127532Y-130260173D01*
X118154746Y-130342247D01*
X118179727Y-130422754D01*
X118202376Y-130501368D01*
X118222595Y-130577760D01*
X118240282Y-130651600D01*
X118255340Y-130722561D01*
X118267669Y-130790314D01*
X118277168Y-130854530D01*
X118282171Y-130898091D01*
X118283684Y-130914742D01*
X118285019Y-130932296D01*
X118286152Y-130950075D01*
X118287059Y-130967396D01*
X118287717Y-130983581D01*
X118288100Y-130997949D01*
X118288185Y-131009819D01*
X118287947Y-131018511D01*
X118287362Y-131023346D01*
X118286655Y-131024007D01*
X118284868Y-131021181D01*
X118281071Y-131014420D01*
X118275576Y-131004305D01*
X118268696Y-130991419D01*
X118260743Y-130976345D01*
X118252030Y-130959664D01*
X118249171Y-130954157D01*
X118211055Y-130881314D01*
X118174524Y-130812945D01*
X118139404Y-130748758D01*
X118105519Y-130688461D01*
X118072695Y-130631764D01*
X118040755Y-130578373D01*
X118009524Y-130527998D01*
X117978828Y-130480347D01*
X117948491Y-130435128D01*
X117918338Y-130392050D01*
X117888193Y-130350822D01*
X117880012Y-130339941D01*
X117865569Y-130320847D01*
X117849394Y-130299462D01*
X117832533Y-130277167D01*
X117816032Y-130255345D01*
X117800934Y-130235378D01*
X117793130Y-130225057D01*
X117780879Y-130208621D01*
X117768656Y-130191805D01*
X117757109Y-130175531D01*
X117746887Y-130160721D01*
X117738638Y-130148298D01*
X117734075Y-130141003D01*
X117727816Y-130130741D01*
X117722597Y-130122586D01*
X117718890Y-130117242D01*
X117717167Y-130115417D01*
X117717101Y-130115568D01*
X117717561Y-130119060D01*
X117718887Y-130127090D01*
X117720995Y-130139206D01*
X117723802Y-130154955D01*
X117727223Y-130173884D01*
X117731176Y-130195542D01*
X117735577Y-130219476D01*
X117740342Y-130245233D01*
X117745388Y-130272362D01*
X117750632Y-130300408D01*
X117755989Y-130328921D01*
X117761376Y-130357447D01*
X117766710Y-130385535D01*
X117771908Y-130412731D01*
X117773205Y-130419487D01*
X117789446Y-130503371D01*
X117806332Y-130589370D01*
X117823687Y-130676609D01*
X117841330Y-130764219D01*
X117859086Y-130851326D01*
X117876775Y-130937060D01*
X117894221Y-131020548D01*
X117911244Y-131100920D01*
X117927668Y-131177302D01*
X117930507Y-131190377D01*
X117941231Y-131240091D01*
X117950812Y-131285448D01*
X117959341Y-131327017D01*
X117966911Y-131365366D01*
X117973613Y-131401067D01*
X117979541Y-131434687D01*
X117984785Y-131466798D01*
X117989438Y-131497967D01*
X117993593Y-131528765D01*
X117997341Y-131559762D01*
X118000775Y-131591527D01*
X118003986Y-131624628D01*
X118007067Y-131659637D01*
X118007757Y-131667897D01*
X118010164Y-131699171D01*
X118012393Y-131732445D01*
X118014428Y-131767171D01*
X118016253Y-131802799D01*
X118017853Y-131838780D01*
X118019213Y-131874567D01*
X118020315Y-131909610D01*
X118021146Y-131943360D01*
X118021689Y-131975269D01*
X118021928Y-132004788D01*
X118021848Y-132031367D01*
X118021434Y-132054459D01*
X118020669Y-132073515D01*
X118019699Y-132086452D01*
X118018091Y-132102417D01*
X117982531Y-132080177D01*
X117957866Y-132064548D01*
X117929674Y-132046327D01*
X117898535Y-132025906D01*
X117865031Y-132003678D01*
X117829743Y-131980038D01*
X117793252Y-131955378D01*
X117756140Y-131930092D01*
X117718989Y-131904574D01*
X117682379Y-131879216D01*
X117646893Y-131854413D01*
X117613110Y-131830557D01*
X117602801Y-131823220D01*
X117469395Y-131726505D01*
X117339001Y-131628787D01*
X117211770Y-131530204D01*
X117087852Y-131430893D01*
X116967399Y-131330991D01*
X116850560Y-131230637D01*
X116737488Y-131129966D01*
X116628332Y-131029118D01*
X116523243Y-130928229D01*
X116422372Y-130827436D01*
X116325870Y-130726878D01*
X116233888Y-130626691D01*
X116146577Y-130527012D01*
X116064086Y-130427981D01*
X116042405Y-130401051D01*
X115946233Y-130277394D01*
X115854727Y-130152977D01*
X115767973Y-130027926D01*
X115686053Y-129902366D01*
X115609054Y-129776423D01*
X115547329Y-129668788D01*
X115491467Y-129565227D01*
X115437602Y-129459168D01*
X115386033Y-129351310D01*
X115337059Y-129242353D01*
X115290979Y-129132997D01*
X115248093Y-129023942D01*
X115208700Y-128915888D01*
X115173101Y-128809535D01*
X115155617Y-128753247D01*
X115134495Y-128678905D01*
X115115047Y-128601301D01*
X115097252Y-128520287D01*
X115081090Y-128435712D01*
X115066541Y-128347425D01*
X115053587Y-128255279D01*
X115042206Y-128159121D01*
X115038592Y-128122225D01*
X115258762Y-128122225D01*
X115258762Y-128131385D01*
X115258958Y-128143566D01*
X115259326Y-128158086D01*
X115259842Y-128174259D01*
X115260482Y-128191404D01*
X115261223Y-128208835D01*
X115262040Y-128225869D01*
X115262911Y-128241822D01*
X115263810Y-128256011D01*
X115264715Y-128267753D01*
X115264746Y-128268107D01*
X115267735Y-128299790D01*
X115271047Y-128330392D01*
X115274769Y-128360225D01*
X115278988Y-128389603D01*
X115283790Y-128418838D01*
X115289260Y-128448242D01*
X115295487Y-128478129D01*
X115302554Y-128508810D01*
X115310550Y-128540599D01*
X115319560Y-128573808D01*
X115329671Y-128608749D01*
X115340968Y-128645736D01*
X115353539Y-128685081D01*
X115367469Y-128727097D01*
X115382845Y-128772095D01*
X115399753Y-128820390D01*
X115418279Y-128872293D01*
X115438509Y-128928118D01*
X115460531Y-128988176D01*
X115472261Y-129019947D01*
X115493134Y-129076150D01*
X115512574Y-129128000D01*
X115530775Y-129175954D01*
X115547933Y-129220472D01*
X115564240Y-129262011D01*
X115579891Y-129301030D01*
X115595080Y-129337988D01*
X115610002Y-129373343D01*
X115624851Y-129407553D01*
X115639820Y-129441077D01*
X115655105Y-129474374D01*
X115670899Y-129507902D01*
X115687396Y-129542120D01*
X115704792Y-129577486D01*
X115723279Y-129614458D01*
X115728327Y-129624467D01*
X115775126Y-129714336D01*
X115822523Y-129799724D01*
X115870913Y-129881224D01*
X115920693Y-129959429D01*
X115972258Y-130034934D01*
X116026003Y-130108332D01*
X116082325Y-130180217D01*
X116141619Y-130251184D01*
X116159855Y-130272167D01*
X116190721Y-130306829D01*
X116225373Y-130344727D01*
X116263741Y-130385788D01*
X116305755Y-130429941D01*
X116351345Y-130477112D01*
X116400444Y-130527230D01*
X116452980Y-130580222D01*
X116508884Y-130636015D01*
X116518568Y-130645625D01*
X116555446Y-130682099D01*
X116589386Y-130715458D01*
X116620966Y-130746250D01*
X116650768Y-130775024D01*
X116679371Y-130802328D01*
X116707356Y-130828712D01*
X116735301Y-130854722D01*
X116763787Y-130880910D01*
X116793394Y-130907822D01*
X116824702Y-130936007D01*
X116839644Y-130949381D01*
X116864556Y-130971611D01*
X116885937Y-130990615D01*
X116904013Y-131006587D01*
X116919011Y-131019718D01*
X116931157Y-131030202D01*
X116940677Y-131038233D01*
X116947797Y-131044002D01*
X116952745Y-131047704D01*
X116955745Y-131049530D01*
X116957026Y-131049675D01*
X116957092Y-131049534D01*
X116956605Y-131046367D01*
X116954849Y-131039053D01*
X116952017Y-131028313D01*
X116948300Y-131014864D01*
X116943892Y-130999425D01*
X116941023Y-130989602D01*
X116899272Y-130856590D01*
X116853009Y-130725872D01*
X116802250Y-130597484D01*
X116747011Y-130471460D01*
X116687310Y-130347838D01*
X116623162Y-130226652D01*
X116554584Y-130107939D01*
X116481593Y-129991734D01*
X116476295Y-129983658D01*
X116453459Y-129949300D01*
X116430456Y-129915432D01*
X116406960Y-129881612D01*
X116382643Y-129847395D01*
X116357177Y-129812340D01*
X116330235Y-129776002D01*
X116301489Y-129737939D01*
X116270611Y-129697708D01*
X116237273Y-129654866D01*
X116201149Y-129608969D01*
X116173137Y-129573667D01*
X116143582Y-129536651D01*
X116116273Y-129502733D01*
X116090704Y-129471329D01*
X116066367Y-129441853D01*
X116042755Y-129413719D01*
X116019361Y-129386342D01*
X115995678Y-129359138D01*
X115971199Y-129331520D01*
X115945417Y-129302904D01*
X115917825Y-129272704D01*
X115887917Y-129240335D01*
X115855184Y-129205212D01*
X115838680Y-129187587D01*
X115813292Y-129160444D01*
X115791020Y-129136477D01*
X115771451Y-129115209D01*
X115754171Y-129096161D01*
X115738768Y-129078857D01*
X115724828Y-129062818D01*
X115711938Y-129047568D01*
X115699684Y-129032628D01*
X115687652Y-129017522D01*
X115675430Y-129001772D01*
X115662604Y-128984900D01*
X115658640Y-128979633D01*
X115602452Y-128900891D01*
X115549162Y-128818218D01*
X115498937Y-128731965D01*
X115451944Y-128642485D01*
X115408350Y-128550130D01*
X115368321Y-128455250D01*
X115332025Y-128358198D01*
X115299627Y-128259326D01*
X115273327Y-128166749D01*
X115269344Y-128151708D01*
X115265754Y-128138306D01*
X115262774Y-128127334D01*
X115260618Y-128119587D01*
X115259502Y-128115856D01*
X115259444Y-128115707D01*
X115258981Y-128116771D01*
X115258762Y-128122225D01*
X115038592Y-128122225D01*
X115032378Y-128058803D01*
X115024085Y-127954175D01*
X115017306Y-127845087D01*
X115012022Y-127731389D01*
X115009183Y-127648347D01*
X115008632Y-127625310D01*
X115008190Y-127597844D01*
X115007853Y-127566569D01*
X115007618Y-127532112D01*
X115007483Y-127495094D01*
X115007443Y-127456141D01*
X115007497Y-127415874D01*
X115007641Y-127374920D01*
X115007872Y-127333900D01*
X115008187Y-127293438D01*
X115008583Y-127254159D01*
X115009058Y-127216685D01*
X115009607Y-127181642D01*
X115010228Y-127149651D01*
X115010919Y-127121338D01*
X115011675Y-127097325D01*
X115011873Y-127092087D01*
X115015254Y-127010884D01*
X115018830Y-126934273D01*
X115022643Y-126861765D01*
X115026730Y-126792873D01*
X115031131Y-126727111D01*
X115035885Y-126663992D01*
X115041032Y-126603028D01*
X115046612Y-126543732D01*
X115052662Y-126485618D01*
X115059224Y-126428198D01*
X115066336Y-126370986D01*
X115074037Y-126313494D01*
X115074525Y-126309990D01*
X115563653Y-126309990D01*
X115563848Y-126319839D01*
X115564676Y-126332969D01*
X115566157Y-126349785D01*
X115568311Y-126370692D01*
X115571160Y-126396096D01*
X115572195Y-126405017D01*
X115582954Y-126489573D01*
X115595495Y-126574612D01*
X115609686Y-126659538D01*
X115625398Y-126743759D01*
X115642501Y-126826681D01*
X115660864Y-126907711D01*
X115680357Y-126986256D01*
X115700849Y-127061722D01*
X115722211Y-127133517D01*
X115744312Y-127201045D01*
X115751508Y-127221627D01*
X115773359Y-127280481D01*
X115798345Y-127342994D01*
X115826346Y-127408924D01*
X115857241Y-127478030D01*
X115890909Y-127550071D01*
X115927229Y-127624807D01*
X115966080Y-127701996D01*
X116007343Y-127781397D01*
X116050895Y-127862770D01*
X116096616Y-127945872D01*
X116144386Y-128030464D01*
X116194084Y-128116303D01*
X116231267Y-128179207D01*
X116268027Y-128240296D01*
X116305581Y-128301615D01*
X116343646Y-128362736D01*
X116381942Y-128423233D01*
X116420187Y-128482678D01*
X116458098Y-128540645D01*
X116495394Y-128596707D01*
X116531794Y-128650438D01*
X116567015Y-128701410D01*
X116600776Y-128749197D01*
X116632795Y-128793372D01*
X116662791Y-128833509D01*
X116665874Y-128837553D01*
X116676110Y-128850900D01*
X116688672Y-128867199D01*
X116702752Y-128885406D01*
X116717542Y-128904474D01*
X116732231Y-128923361D01*
X116744552Y-128939153D01*
X116766483Y-128967417D01*
X116787961Y-128995525D01*
X116809211Y-129023807D01*
X116830461Y-129052589D01*
X116851938Y-129082200D01*
X116873867Y-129112966D01*
X116896476Y-129145216D01*
X116919991Y-129179277D01*
X116944639Y-129215477D01*
X116970647Y-129254144D01*
X116998241Y-129295605D01*
X117027649Y-129340187D01*
X117059096Y-129388219D01*
X117092810Y-129440028D01*
X117117789Y-129478576D01*
X117149374Y-129527515D01*
X117178338Y-129572662D01*
X117204924Y-129614422D01*
X117229375Y-129653200D01*
X117251932Y-129689399D01*
X117272840Y-129723425D01*
X117292340Y-129755682D01*
X117310675Y-129786573D01*
X117328089Y-129816505D01*
X117344823Y-129845880D01*
X117361121Y-129875104D01*
X117377225Y-129904581D01*
X117393378Y-129934716D01*
X117406627Y-129959811D01*
X117419771Y-129985258D01*
X117433299Y-130012177D01*
X117446884Y-130039867D01*
X117460201Y-130067628D01*
X117472921Y-130094759D01*
X117484720Y-130120559D01*
X117495270Y-130144328D01*
X117504245Y-130165366D01*
X117511318Y-130182971D01*
X117514032Y-130190250D01*
X117516551Y-130195747D01*
X117518734Y-130198048D01*
X117519262Y-130197870D01*
X117520027Y-130194865D01*
X117521110Y-130187592D01*
X117522417Y-130176845D01*
X117523852Y-130163420D01*
X117525319Y-130148111D01*
X117525584Y-130145167D01*
X117527215Y-130123582D01*
X117528507Y-130099852D01*
X117529453Y-130074840D01*
X117530047Y-130049407D01*
X117530284Y-130024416D01*
X117530157Y-130000729D01*
X117529660Y-129979209D01*
X117528788Y-129960717D01*
X117527535Y-129946117D01*
X117526987Y-129941967D01*
X117521123Y-129906874D01*
X117514154Y-129873162D01*
X117505692Y-129839226D01*
X117495349Y-129803456D01*
X117487954Y-129780061D01*
X117483086Y-129764835D01*
X117479732Y-129753622D01*
X117477723Y-129745641D01*
X117476888Y-129740113D01*
X117477059Y-129736255D01*
X117477887Y-129733668D01*
X117483468Y-129726802D01*
X117491530Y-129723051D01*
X117499124Y-129723097D01*
X117502535Y-129725143D01*
X117509341Y-129730267D01*
X117519168Y-129738146D01*
X117531638Y-129748457D01*
X117546375Y-129760876D01*
X117563004Y-129775080D01*
X117581147Y-129790744D01*
X117600428Y-129807547D01*
X117620472Y-129825164D01*
X117640901Y-129843272D01*
X117661340Y-129861547D01*
X117681412Y-129879665D01*
X117684181Y-129882180D01*
X117701571Y-129898058D01*
X117720948Y-129915898D01*
X117742560Y-129935931D01*
X117766655Y-129958386D01*
X117793478Y-129983494D01*
X117823277Y-130011486D01*
X117856298Y-130042593D01*
X117884106Y-130068840D01*
X117892907Y-130077054D01*
X117900206Y-130083676D01*
X117905318Y-130088098D01*
X117907555Y-130089712D01*
X117907601Y-130089670D01*
X117906690Y-130085923D01*
X117904104Y-130078033D01*
X117900061Y-130066567D01*
X117894780Y-130052096D01*
X117888480Y-130035190D01*
X117881378Y-130016417D01*
X117873693Y-129996347D01*
X117865645Y-129975550D01*
X117857451Y-129954594D01*
X117849330Y-129934051D01*
X117841501Y-129914488D01*
X117834181Y-129896476D01*
X117827591Y-129880583D01*
X117825084Y-129874657D01*
X117794570Y-129805045D01*
X117762733Y-129736428D01*
X117729359Y-129668450D01*
X117694233Y-129600753D01*
X117657138Y-129532981D01*
X117617860Y-129464778D01*
X117576184Y-129395786D01*
X117531894Y-129325649D01*
X117484776Y-129254010D01*
X117434614Y-129180513D01*
X117381193Y-129104800D01*
X117324297Y-129026516D01*
X117267329Y-128950097D01*
X117250827Y-128928317D01*
X117235159Y-128907901D01*
X117220021Y-128888504D01*
X117205110Y-128869779D01*
X117190120Y-128851381D01*
X117174749Y-128832962D01*
X117158693Y-128814179D01*
X117141647Y-128794683D01*
X117123309Y-128774130D01*
X117103373Y-128752174D01*
X117081535Y-128728468D01*
X117057493Y-128702667D01*
X117030942Y-128674425D01*
X117001579Y-128643395D01*
X116969099Y-128609232D01*
X116953845Y-128593227D01*
X116911386Y-128548638D01*
X116872366Y-128507522D01*
X116836651Y-128469737D01*
X116804109Y-128435141D01*
X116774609Y-128403593D01*
X116748018Y-128374950D01*
X116724205Y-128349072D01*
X116703036Y-128325816D01*
X116684381Y-128305040D01*
X116668933Y-128287549D01*
X116653631Y-128269321D01*
X116635988Y-128246998D01*
X116616200Y-128220884D01*
X116594467Y-128191284D01*
X116570985Y-128158503D01*
X116545954Y-128122844D01*
X116519571Y-128084612D01*
X116492034Y-128044111D01*
X116463542Y-128001647D01*
X116434291Y-127957523D01*
X116404481Y-127912043D01*
X116374309Y-127865513D01*
X116343973Y-127818236D01*
X116313672Y-127770517D01*
X116283602Y-127722661D01*
X116253963Y-127674972D01*
X116224952Y-127627754D01*
X116196767Y-127581311D01*
X116169607Y-127535949D01*
X116143669Y-127491971D01*
X116119151Y-127449682D01*
X116096251Y-127409387D01*
X116087134Y-127393077D01*
X116022939Y-127274724D01*
X115959548Y-127152107D01*
X115897328Y-127026020D01*
X115836644Y-126897260D01*
X115777863Y-126766623D01*
X115721351Y-126634905D01*
X115667475Y-126502902D01*
X115616602Y-126371410D01*
X115615498Y-126368471D01*
X115608699Y-126350504D01*
X115602375Y-126334045D01*
X115596767Y-126319710D01*
X115592119Y-126308108D01*
X115588675Y-126299855D01*
X115586677Y-126295561D01*
X115586389Y-126295129D01*
X115581197Y-126292935D01*
X115574102Y-126293047D01*
X115567665Y-126295343D01*
X115566656Y-126296074D01*
X115565077Y-126298513D01*
X115564070Y-126303016D01*
X115563653Y-126309990D01*
X115074525Y-126309990D01*
X115075733Y-126301338D01*
X115097519Y-126160256D01*
X115123064Y-126020713D01*
X115152452Y-125882464D01*
X115185768Y-125745264D01*
X115223097Y-125608871D01*
X115247744Y-125528055D01*
X115594357Y-125528055D01*
X115595302Y-125619966D01*
X115598859Y-125715844D01*
X115605017Y-125815825D01*
X115613763Y-125920044D01*
X115614007Y-125922625D01*
X115617726Y-125957280D01*
X115622235Y-125990318D01*
X115627698Y-126022187D01*
X115634278Y-126053333D01*
X115642139Y-126084204D01*
X115651443Y-126115247D01*
X115662355Y-126146910D01*
X115675036Y-126179639D01*
X115689651Y-126213882D01*
X115706363Y-126250086D01*
X115725335Y-126288699D01*
X115746730Y-126330167D01*
X115770712Y-126374938D01*
X115795660Y-126420257D01*
X115816695Y-126458219D01*
X115835393Y-126492357D01*
X115852007Y-126523216D01*
X115866790Y-126551341D01*
X115879996Y-126577277D01*
X115891877Y-126601571D01*
X115902688Y-126624767D01*
X115912680Y-126647411D01*
X115922108Y-126670048D01*
X115931224Y-126693224D01*
X115940282Y-126717485D01*
X115949535Y-126743374D01*
X115959236Y-126771439D01*
X115960741Y-126775857D01*
X115972086Y-126808266D01*
X115984085Y-126840608D01*
X115996856Y-126873095D01*
X116010518Y-126905939D01*
X116025189Y-126939350D01*
X116040988Y-126973541D01*
X116058034Y-127008723D01*
X116076445Y-127045107D01*
X116096339Y-127082905D01*
X116117835Y-127122329D01*
X116141052Y-127163591D01*
X116166108Y-127206900D01*
X116193122Y-127252470D01*
X116222212Y-127300512D01*
X116253496Y-127351237D01*
X116287094Y-127404857D01*
X116323124Y-127461584D01*
X116361705Y-127521628D01*
X116402954Y-127585202D01*
X116446990Y-127652517D01*
X116480646Y-127703656D01*
X116501208Y-127734734D01*
X116520999Y-127764426D01*
X116540203Y-127792972D01*
X116559005Y-127820616D01*
X116577588Y-127847599D01*
X116596137Y-127874162D01*
X116614836Y-127900548D01*
X116633870Y-127926999D01*
X116653422Y-127953757D01*
X116673678Y-127981062D01*
X116694821Y-128009159D01*
X116717036Y-128038287D01*
X116740507Y-128068689D01*
X116765418Y-128100608D01*
X116791954Y-128134284D01*
X116820299Y-128169960D01*
X116850638Y-128207877D01*
X116883154Y-128248279D01*
X116918031Y-128291405D01*
X116955455Y-128337499D01*
X116995610Y-128386802D01*
X117038679Y-128439557D01*
X117077828Y-128487426D01*
X117230284Y-128673726D01*
X117264777Y-128690237D01*
X117388201Y-128747027D01*
X117511537Y-128799208D01*
X117634669Y-128846748D01*
X117757482Y-128889617D01*
X117879861Y-128927782D01*
X118001692Y-128961213D01*
X118122860Y-128989877D01*
X118243250Y-129013745D01*
X118362746Y-129032783D01*
X118481234Y-129046961D01*
X118598599Y-129056248D01*
X118606101Y-129056677D01*
X118627719Y-129057879D01*
X118645252Y-129058829D01*
X118659687Y-129059563D01*
X118672009Y-129060114D01*
X118683205Y-129060517D01*
X118694262Y-129060807D01*
X118706166Y-129061018D01*
X118719904Y-129061184D01*
X118736462Y-129061341D01*
X118740453Y-129061376D01*
X118794795Y-129061857D01*
X118777283Y-129046038D01*
X118747933Y-129017753D01*
X118723174Y-128989878D01*
X118702626Y-128961785D01*
X118685908Y-128932847D01*
X118672637Y-128902435D01*
X118662433Y-128869922D01*
X118657586Y-128848959D01*
X118655540Y-128835073D01*
X118654103Y-128817190D01*
X118653274Y-128796354D01*
X118653051Y-128773613D01*
X118653433Y-128750012D01*
X118654418Y-128726596D01*
X118656005Y-128704411D01*
X118657837Y-128687207D01*
X118664335Y-128642793D01*
X118672079Y-128601848D01*
X118680989Y-128564654D01*
X118690984Y-128531498D01*
X118701984Y-128502663D01*
X118713910Y-128478434D01*
X118719391Y-128469364D01*
X118727885Y-128457400D01*
X118737493Y-128445732D01*
X118747201Y-128435459D01*
X118755992Y-128427680D01*
X118760968Y-128424355D01*
X118764722Y-128422603D01*
X118766090Y-128423517D01*
X118765696Y-128428075D01*
X118765208Y-128431009D01*
X118764318Y-128438963D01*
X118763545Y-128451207D01*
X118762896Y-128466953D01*
X118762379Y-128485411D01*
X118762001Y-128505793D01*
X118761769Y-128527310D01*
X118761691Y-128549174D01*
X118761776Y-128570595D01*
X118762029Y-128590786D01*
X118762460Y-128608957D01*
X118763075Y-128624319D01*
X118763310Y-128628473D01*
X118767066Y-128676834D01*
X118772180Y-128720801D01*
X118778804Y-128760916D01*
X118787089Y-128797719D01*
X118797186Y-128831753D01*
X118809246Y-128863557D01*
X118823420Y-128893673D01*
X118839858Y-128922642D01*
X118849690Y-128937940D01*
X118864199Y-128958302D01*
X118880030Y-128978174D01*
X118896519Y-128996868D01*
X118913002Y-129013696D01*
X118928816Y-129027969D01*
X118943295Y-129039000D01*
X118952619Y-129044599D01*
X118956377Y-129046379D01*
X118960178Y-129047641D01*
X118964666Y-129048350D01*
X118970487Y-129048469D01*
X118978284Y-129047963D01*
X118988703Y-129046796D01*
X119002387Y-129044932D01*
X119019983Y-129042336D01*
X119035361Y-129040004D01*
X119101407Y-129028876D01*
X119168281Y-129015558D01*
X119235325Y-129000246D01*
X119301884Y-128983138D01*
X119367300Y-128964431D01*
X119430917Y-128944323D01*
X119492079Y-128923009D01*
X119550129Y-128900689D01*
X119604410Y-128877558D01*
X119652893Y-128854508D01*
X119688401Y-128835837D01*
X119719999Y-128817444D01*
X119748751Y-128798587D01*
X119775723Y-128778523D01*
X119801981Y-128756511D01*
X119827379Y-128732979D01*
X119851255Y-128708916D01*
X119871080Y-128686612D01*
X119887293Y-128665455D01*
X119900334Y-128644829D01*
X119910643Y-128624121D01*
X119916977Y-128607785D01*
X119922650Y-128583758D01*
X119923373Y-128559328D01*
X119919243Y-128534673D01*
X119910357Y-128509973D01*
X119896810Y-128485408D01*
X119878701Y-128461156D01*
X119856124Y-128437397D01*
X119829178Y-128414311D01*
X119802400Y-128395010D01*
X119792890Y-128389106D01*
X119779827Y-128381637D01*
X119764269Y-128373172D01*
X119747273Y-128364282D01*
X119729896Y-128355538D01*
X119723034Y-128352189D01*
X119697304Y-128339528D01*
X119675831Y-128328439D01*
X119658140Y-128318644D01*
X119643757Y-128309866D01*
X119632207Y-128301827D01*
X119623016Y-128294250D01*
X119621266Y-128292619D01*
X119609189Y-128278315D01*
X119597771Y-128259175D01*
X119587050Y-128235403D01*
X119577064Y-128207206D01*
X119567851Y-128174789D01*
X119565941Y-128166507D01*
X119761801Y-128166507D01*
X119763071Y-128167777D01*
X119764341Y-128166507D01*
X119763071Y-128165237D01*
X119761801Y-128166507D01*
X119565941Y-128166507D01*
X119559448Y-128138357D01*
X119551894Y-128098116D01*
X119545227Y-128054272D01*
X119539484Y-128007029D01*
X119534704Y-127956594D01*
X119530924Y-127903171D01*
X119528183Y-127846967D01*
X119526519Y-127788186D01*
X119526362Y-127779000D01*
X119525978Y-127752554D01*
X119525758Y-127730680D01*
X119525745Y-127712873D01*
X119525980Y-127698626D01*
X119526507Y-127687434D01*
X119527368Y-127678790D01*
X119528604Y-127672188D01*
X119530170Y-127667397D01*
X119735810Y-127667397D01*
X119736847Y-127692162D01*
X119737700Y-127705604D01*
X119739176Y-127715743D01*
X119741625Y-127724344D01*
X119744585Y-127731450D01*
X119756026Y-127750372D01*
X119771265Y-127766254D01*
X119789844Y-127778830D01*
X119811303Y-127787834D01*
X119835186Y-127793000D01*
X119852606Y-127794185D01*
X119862210Y-127794143D01*
X119867771Y-127793585D01*
X119870318Y-127792271D01*
X119870880Y-127789964D01*
X119870880Y-127789952D01*
X119870123Y-127786323D01*
X119868079Y-127778591D01*
X119864961Y-127767508D01*
X119860982Y-127753824D01*
X119856356Y-127738289D01*
X119853735Y-127729627D01*
X119836731Y-127673747D01*
X119796091Y-127670809D01*
X119781418Y-127669777D01*
X119767783Y-127668873D01*
X119756328Y-127668166D01*
X119748194Y-127667730D01*
X119745630Y-127667634D01*
X119735810Y-127667397D01*
X119530170Y-127667397D01*
X119530260Y-127667123D01*
X119532376Y-127663088D01*
X119534996Y-127659577D01*
X119536522Y-127657844D01*
X119540689Y-127654213D01*
X119543300Y-127654651D01*
X119543790Y-127655304D01*
X119545013Y-127655117D01*
X119545741Y-127650636D01*
X119545862Y-127646776D01*
X119545752Y-127641641D01*
X119544943Y-127637608D01*
X119542777Y-127633768D01*
X119538594Y-127629214D01*
X119531737Y-127623038D01*
X119523577Y-127616060D01*
X119504918Y-127599162D01*
X119489713Y-127583223D01*
X119478375Y-127568701D01*
X119472870Y-127559447D01*
X119467382Y-127545076D01*
X119462812Y-127525765D01*
X119459172Y-127501575D01*
X119457096Y-127480707D01*
X119455797Y-127466087D01*
X119454311Y-127451242D01*
X119452828Y-127437987D01*
X119451632Y-127428764D01*
X119450246Y-127409109D01*
X119451191Y-127387041D01*
X119454212Y-127363533D01*
X119459054Y-127339557D01*
X119465464Y-127316087D01*
X119473186Y-127294097D01*
X119481965Y-127274559D01*
X119491547Y-127258446D01*
X119498449Y-127249882D01*
X119503947Y-127244552D01*
X119508283Y-127241229D01*
X119509666Y-127240677D01*
X119510920Y-127243064D01*
X119511319Y-127249745D01*
X119510977Y-127257822D01*
X119510634Y-127269308D01*
X119510864Y-127284710D01*
X119511591Y-127302901D01*
X119512738Y-127322759D01*
X119514229Y-127343160D01*
X119515989Y-127362979D01*
X119517940Y-127381093D01*
X119520008Y-127396377D01*
X119520602Y-127400019D01*
X119526490Y-127429814D01*
X119533362Y-127455196D01*
X119541552Y-127476791D01*
X119551390Y-127495224D01*
X119563209Y-127511121D01*
X119577341Y-127525106D01*
X119593607Y-127537460D01*
X119609384Y-127547476D01*
X119624172Y-127555176D01*
X119640545Y-127561865D01*
X119644978Y-127563458D01*
X119650145Y-127565176D01*
X119655229Y-127566534D01*
X119660921Y-127567586D01*
X119667912Y-127568386D01*
X119676894Y-127568986D01*
X119688558Y-127569440D01*
X119703595Y-127569802D01*
X119722698Y-127570125D01*
X119733226Y-127570278D01*
X119754423Y-127570548D01*
X119771071Y-127570679D01*
X119783696Y-127570650D01*
X119792828Y-127570441D01*
X119798993Y-127570030D01*
X119802721Y-127569398D01*
X119804540Y-127568525D01*
X119804981Y-127567500D01*
X119804316Y-127564166D01*
X119802438Y-127556591D01*
X119799518Y-127545421D01*
X119795728Y-127531300D01*
X119791240Y-127514876D01*
X119786226Y-127496793D01*
X119784809Y-127491728D01*
X119769136Y-127435257D01*
X119753156Y-127376645D01*
X119737008Y-127316445D01*
X119720830Y-127255205D01*
X119704761Y-127193478D01*
X119688939Y-127131812D01*
X119673502Y-127070760D01*
X119658589Y-127010871D01*
X119644339Y-126952696D01*
X119630890Y-126896785D01*
X119618380Y-126843689D01*
X119606948Y-126793959D01*
X119596731Y-126748144D01*
X119590141Y-126717584D01*
X119585595Y-126696142D01*
X119582436Y-126706154D01*
X119580818Y-126711447D01*
X119578020Y-126720774D01*
X119574294Y-126733294D01*
X119569887Y-126748167D01*
X119565051Y-126764553D01*
X119562472Y-126773317D01*
X119544957Y-126831769D01*
X119527206Y-126888851D01*
X119509354Y-126944186D01*
X119491537Y-126997396D01*
X119473891Y-127048102D01*
X119456552Y-127095927D01*
X119439654Y-127140494D01*
X119423334Y-127181424D01*
X119407727Y-127218339D01*
X119392969Y-127250862D01*
X119385593Y-127266077D01*
X119373182Y-127290308D01*
X119358418Y-127317828D01*
X119341246Y-127348732D01*
X119321609Y-127383116D01*
X119299451Y-127421074D01*
X119274717Y-127462701D01*
X119247348Y-127508092D01*
X119217290Y-127557342D01*
X119184487Y-127610547D01*
X119148882Y-127667801D01*
X119133254Y-127692797D01*
X119109181Y-127731206D01*
X119086993Y-127766529D01*
X119066767Y-127798642D01*
X119048583Y-127827422D01*
X119032518Y-127852746D01*
X119018651Y-127874492D01*
X119007061Y-127892535D01*
X118997826Y-127906754D01*
X118991025Y-127917026D01*
X118986735Y-127923226D01*
X118985035Y-127925233D01*
X118985024Y-127925226D01*
X118984997Y-127922589D01*
X118985328Y-127915551D01*
X118985976Y-127904776D01*
X118986899Y-127890927D01*
X118988053Y-127874666D01*
X118989397Y-127856658D01*
X118989429Y-127856243D01*
X118996329Y-127758677D01*
X119002242Y-127659778D01*
X119007177Y-127559871D01*
X119011141Y-127459280D01*
X119014142Y-127358327D01*
X119015651Y-127283857D01*
X119218241Y-127283857D01*
X119219170Y-127285947D01*
X119219934Y-127285550D01*
X119220238Y-127282535D01*
X119219934Y-127282163D01*
X119218424Y-127282512D01*
X119218241Y-127283857D01*
X119015651Y-127283857D01*
X119016189Y-127257337D01*
X119017289Y-127156632D01*
X119017451Y-127056537D01*
X119016683Y-126957375D01*
X119014993Y-126859470D01*
X119012389Y-126763145D01*
X119008879Y-126668724D01*
X119004471Y-126576531D01*
X118999174Y-126486888D01*
X118992996Y-126400120D01*
X118985944Y-126316550D01*
X118978027Y-126236502D01*
X118969253Y-126160298D01*
X118959630Y-126088264D01*
X118949166Y-126020722D01*
X118942417Y-125982107D01*
X118923663Y-125888805D01*
X118901098Y-125792754D01*
X118874876Y-125694383D01*
X118845151Y-125594118D01*
X118812078Y-125492388D01*
X118775809Y-125389619D01*
X118736499Y-125286240D01*
X118694302Y-125182678D01*
X118649371Y-125079361D01*
X118601860Y-124976717D01*
X118551924Y-124875172D01*
X118525829Y-124824437D01*
X118515836Y-124805433D01*
X118505063Y-124785185D01*
X118493795Y-124764208D01*
X118482318Y-124743019D01*
X118470917Y-124722136D01*
X118459878Y-124702074D01*
X118449486Y-124683352D01*
X118440029Y-124666485D01*
X118431790Y-124651991D01*
X118425057Y-124640387D01*
X118420114Y-124632189D01*
X118417248Y-124627914D01*
X118417108Y-124627747D01*
X118414978Y-124628958D01*
X118409288Y-124632649D01*
X118400655Y-124638407D01*
X118389696Y-124645820D01*
X118377027Y-124654476D01*
X118372492Y-124657592D01*
X118357605Y-124667786D01*
X118346194Y-124675418D01*
X118337589Y-124680853D01*
X118331115Y-124684458D01*
X118326099Y-124686599D01*
X118321870Y-124687645D01*
X118317754Y-124687959D01*
X118316728Y-124687967D01*
X118303171Y-124685679D01*
X118291893Y-124679320D01*
X118283623Y-124669611D01*
X118279089Y-124657273D01*
X118278450Y-124650088D01*
X118278475Y-124646929D01*
X118278778Y-124644074D01*
X118279693Y-124641158D01*
X118281555Y-124637817D01*
X118284697Y-124633687D01*
X118289454Y-124628403D01*
X118296159Y-124621601D01*
X118305147Y-124612917D01*
X118316752Y-124601985D01*
X118331309Y-124588442D01*
X118349150Y-124571923D01*
X118355491Y-124566057D01*
X118407092Y-124516557D01*
X118444239Y-124478413D01*
X118595398Y-124478413D01*
X118596087Y-124481698D01*
X118598474Y-124486598D01*
X118602888Y-124493918D01*
X118609661Y-124504462D01*
X118611997Y-124508058D01*
X118643305Y-124557964D01*
X118675335Y-124612345D01*
X118707841Y-124670691D01*
X118740580Y-124732489D01*
X118773308Y-124797228D01*
X118805781Y-124864395D01*
X118837755Y-124933480D01*
X118868987Y-125003971D01*
X118899231Y-125075355D01*
X118928245Y-125147122D01*
X118955785Y-125218758D01*
X118972615Y-125264557D01*
X119018569Y-125397337D01*
X119059995Y-125528454D01*
X119096977Y-125658376D01*
X119129597Y-125787574D01*
X119157937Y-125916517D01*
X119182081Y-126045677D01*
X119202110Y-126175523D01*
X119218107Y-126306526D01*
X119230156Y-126439155D01*
X119238337Y-126573881D01*
X119242735Y-126711174D01*
X119243606Y-126807607D01*
X119242992Y-126893552D01*
X119241134Y-126975053D01*
X119238013Y-127052598D01*
X119233609Y-127126672D01*
X119227901Y-127197763D01*
X119226983Y-127207657D01*
X119225567Y-127222850D01*
X119224213Y-127237732D01*
X119223047Y-127250894D01*
X119222196Y-127260925D01*
X119221987Y-127263537D01*
X119221991Y-127264875D01*
X119222325Y-127264973D01*
X119223028Y-127263693D01*
X119224140Y-127260899D01*
X119225701Y-127256454D01*
X119227750Y-127250221D01*
X119230328Y-127242063D01*
X119233472Y-127231844D01*
X119237224Y-127219427D01*
X119241623Y-127204674D01*
X119246708Y-127187450D01*
X119252520Y-127167617D01*
X119259096Y-127145038D01*
X119266478Y-127119577D01*
X119274705Y-127091097D01*
X119283817Y-127059461D01*
X119293852Y-127024532D01*
X119304851Y-126986173D01*
X119316854Y-126944249D01*
X119329899Y-126898621D01*
X119344027Y-126849153D01*
X119359277Y-126795708D01*
X119375689Y-126738150D01*
X119393302Y-126676342D01*
X119412156Y-126610146D01*
X119432291Y-126539427D01*
X119453746Y-126464046D01*
X119468556Y-126412002D01*
X119480758Y-126369150D01*
X119492595Y-126327645D01*
X119503990Y-126287749D01*
X119514869Y-126249723D01*
X119525157Y-126213829D01*
X119534777Y-126180327D01*
X119543654Y-126149480D01*
X119551714Y-126121548D01*
X119558880Y-126096792D01*
X119565078Y-126075475D01*
X119570232Y-126057857D01*
X119574266Y-126044200D01*
X119577106Y-126034765D01*
X119578676Y-126029814D01*
X119578970Y-126029097D01*
X119580716Y-126031248D01*
X119584412Y-126037258D01*
X119589699Y-126046457D01*
X119596219Y-126058180D01*
X119603613Y-126071758D01*
X119611523Y-126086524D01*
X119619591Y-126101810D01*
X119627458Y-126116949D01*
X119634767Y-126131273D01*
X119641158Y-126144114D01*
X119645095Y-126152287D01*
X119668762Y-126204285D01*
X119692346Y-126259683D01*
X119715194Y-126316829D01*
X119736652Y-126374074D01*
X119756067Y-126429769D01*
X119761364Y-126445830D01*
X119774886Y-126488796D01*
X119789065Y-126536475D01*
X119803821Y-126588552D01*
X119819077Y-126644714D01*
X119834755Y-126704645D01*
X119850777Y-126768031D01*
X119867065Y-126834559D01*
X119883542Y-126903913D01*
X119900130Y-126975780D01*
X119916750Y-127049846D01*
X119933325Y-127125795D01*
X119949777Y-127203315D01*
X119953818Y-127222694D01*
X119956421Y-127234830D01*
X119958698Y-127244719D01*
X119960447Y-127251539D01*
X119961467Y-127254471D01*
X119961610Y-127254444D01*
X119962928Y-127248749D01*
X119964861Y-127238513D01*
X119967334Y-127224230D01*
X119970274Y-127206394D01*
X119973607Y-127185498D01*
X119977260Y-127162034D01*
X119981158Y-127136497D01*
X119985228Y-127109379D01*
X119989397Y-127081174D01*
X119993591Y-127052374D01*
X119997736Y-127023474D01*
X120001759Y-126994966D01*
X120005586Y-126967343D01*
X120009143Y-126941100D01*
X120012356Y-126916728D01*
X120014294Y-126901587D01*
X120031902Y-126752440D01*
X120046650Y-126606680D01*
X120058588Y-126463530D01*
X120067767Y-126322214D01*
X120074238Y-126181955D01*
X120078051Y-126041977D01*
X120079258Y-125907177D01*
X120078882Y-125825592D01*
X120077700Y-125748290D01*
X120075677Y-125674531D01*
X120072775Y-125603577D01*
X120068958Y-125534688D01*
X120064190Y-125467124D01*
X120058433Y-125400148D01*
X120051650Y-125333019D01*
X120049988Y-125317897D01*
X120033902Y-125192993D01*
X120013490Y-125067469D01*
X119988882Y-124941695D01*
X119960208Y-124816040D01*
X119927598Y-124690875D01*
X119891182Y-124566568D01*
X119851089Y-124443491D01*
X119807450Y-124322013D01*
X119760394Y-124202504D01*
X119710052Y-124085334D01*
X119656553Y-123970873D01*
X119600028Y-123859491D01*
X119540605Y-123751558D01*
X119478416Y-123647443D01*
X119456391Y-123612813D01*
X119988140Y-123612813D01*
X119990862Y-123617854D01*
X119996395Y-123625618D01*
X119998370Y-123628162D01*
X120047658Y-123690948D01*
X120099359Y-123757282D01*
X120153018Y-123826561D01*
X120208177Y-123898185D01*
X120264383Y-123971552D01*
X120321180Y-124046061D01*
X120378111Y-124121111D01*
X120434722Y-124196102D01*
X120490557Y-124270431D01*
X120545160Y-124343498D01*
X120598076Y-124414702D01*
X120648849Y-124483441D01*
X120697023Y-124549114D01*
X120715868Y-124574947D01*
X120781106Y-124664898D01*
X120843234Y-124751353D01*
X120902473Y-124834652D01*
X120959043Y-124915137D01*
X121013162Y-124993149D01*
X121065050Y-125069030D01*
X121114926Y-125143120D01*
X121163010Y-125215762D01*
X121209521Y-125287296D01*
X121254678Y-125358064D01*
X121298701Y-125428408D01*
X121341809Y-125498667D01*
X121384222Y-125569185D01*
X121426159Y-125640301D01*
X121467838Y-125712358D01*
X121509481Y-125785697D01*
X121551305Y-125860658D01*
X121593531Y-125937585D01*
X121603928Y-125956707D01*
X121665392Y-126071494D01*
X121727516Y-126190513D01*
X121789974Y-126313071D01*
X121852443Y-126438474D01*
X121914598Y-126566027D01*
X121976115Y-126695038D01*
X122036668Y-126824811D01*
X122095935Y-126954654D01*
X122153590Y-127083871D01*
X122209309Y-127211770D01*
X122262767Y-127337657D01*
X122313640Y-127460837D01*
X122353007Y-127558851D01*
X122358601Y-127572844D01*
X122363558Y-127585002D01*
X122367581Y-127594618D01*
X122370374Y-127600986D01*
X122371640Y-127603397D01*
X122371671Y-127603394D01*
X122372127Y-127600740D01*
X122372947Y-127593865D01*
X122374040Y-127583610D01*
X122375317Y-127570812D01*
X122376396Y-127559447D01*
X122384069Y-127458957D01*
X122388739Y-127355392D01*
X122390400Y-127249780D01*
X122389049Y-127143145D01*
X122384681Y-127036514D01*
X122379149Y-126953657D01*
X122369497Y-126851363D01*
X122356765Y-126750938D01*
X122341038Y-126652838D01*
X122322399Y-126557516D01*
X122300933Y-126465428D01*
X122276725Y-126377029D01*
X122264685Y-126337707D01*
X122257099Y-126314376D01*
X122248694Y-126289731D01*
X122239315Y-126263356D01*
X122228802Y-126234836D01*
X122216998Y-126203756D01*
X122203745Y-126169700D01*
X122188886Y-126132254D01*
X122172264Y-126091003D01*
X122153750Y-126045607D01*
X122117344Y-125957896D01*
X122081140Y-125872901D01*
X122045238Y-125790831D01*
X122009739Y-125711892D01*
X121974742Y-125636292D01*
X121940348Y-125564237D01*
X121906655Y-125495934D01*
X121873765Y-125431591D01*
X121841777Y-125371415D01*
X121810790Y-125315614D01*
X121780905Y-125264393D01*
X121762537Y-125234328D01*
X121754106Y-125220661D01*
X121748119Y-125210544D01*
X121744243Y-125203271D01*
X121742144Y-125198140D01*
X121741489Y-125194447D01*
X121741944Y-125191487D01*
X121742057Y-125191148D01*
X121744017Y-125186821D01*
X121746616Y-125184232D01*
X121750304Y-125183591D01*
X121755535Y-125185104D01*
X121762761Y-125188980D01*
X121772434Y-125195426D01*
X121785006Y-125204651D01*
X121800929Y-125216863D01*
X121805210Y-125220192D01*
X121896773Y-125292623D01*
X121983923Y-125363916D01*
X122067077Y-125434497D01*
X122146656Y-125504797D01*
X122223078Y-125575244D01*
X122296760Y-125646267D01*
X122368122Y-125718294D01*
X122437582Y-125791755D01*
X122505559Y-125867078D01*
X122572472Y-125944692D01*
X122638738Y-126025026D01*
X122704777Y-126108508D01*
X122771008Y-126195567D01*
X122813303Y-126252832D01*
X122819946Y-126261768D01*
X122825203Y-126268536D01*
X122828553Y-126272487D01*
X122829476Y-126272974D01*
X122829464Y-126272937D01*
X122826361Y-126264652D01*
X122821427Y-126252390D01*
X122814941Y-126236793D01*
X122807183Y-126218505D01*
X122798434Y-126198167D01*
X122788972Y-126176424D01*
X122779079Y-126153917D01*
X122769034Y-126131290D01*
X122759118Y-126109185D01*
X122749610Y-126088245D01*
X122740790Y-126069112D01*
X122738852Y-126064958D01*
X122729894Y-126046080D01*
X122719004Y-126023586D01*
X122706624Y-125998352D01*
X122693193Y-125971255D01*
X122679152Y-125943171D01*
X122664941Y-125914975D01*
X122651001Y-125887544D01*
X122637773Y-125861755D01*
X122625696Y-125838483D01*
X122615211Y-125818606D01*
X122612332Y-125813233D01*
X122535772Y-125675591D01*
X122456447Y-125542063D01*
X122374386Y-125412685D01*
X122289614Y-125287494D01*
X122202156Y-125166528D01*
X122112039Y-125049823D01*
X122019290Y-124937417D01*
X121923933Y-124829346D01*
X121911073Y-124815320D01*
X121882945Y-124785340D01*
X121851679Y-124753009D01*
X121818110Y-124719141D01*
X121783075Y-124684550D01*
X121747408Y-124650048D01*
X121711947Y-124616449D01*
X121677526Y-124584567D01*
X121644981Y-124555215D01*
X121632792Y-124544467D01*
X121522761Y-124451222D01*
X121409006Y-124360816D01*
X121291886Y-124273466D01*
X121171760Y-124189391D01*
X121048987Y-124108810D01*
X120923925Y-124031942D01*
X120796934Y-123959006D01*
X120668373Y-123890220D01*
X120538601Y-123825803D01*
X120407976Y-123765975D01*
X120276857Y-123710953D01*
X120244401Y-123698114D01*
X120225093Y-123690695D01*
X120203811Y-123682737D01*
X120181085Y-123674421D01*
X120157448Y-123665929D01*
X120133431Y-123657441D01*
X120109565Y-123649138D01*
X120086384Y-123641202D01*
X120064417Y-123633813D01*
X120044197Y-123627152D01*
X120026257Y-123621401D01*
X120011126Y-123616740D01*
X119999338Y-123613350D01*
X119991424Y-123611412D01*
X119988528Y-123611016D01*
X119988140Y-123612813D01*
X119456391Y-123612813D01*
X119444748Y-123594507D01*
X119392386Y-123517770D01*
X119370200Y-123487421D01*
X119352849Y-123464155D01*
X119320027Y-123456217D01*
X119291623Y-123450032D01*
X119261169Y-123444599D01*
X119230700Y-123440236D01*
X119202253Y-123437257D01*
X119193426Y-123436617D01*
X119181702Y-123435932D01*
X119174005Y-123435120D01*
X119169323Y-123433398D01*
X119166648Y-123429979D01*
X119164968Y-123424079D01*
X119163273Y-123414913D01*
X119162896Y-123412897D01*
X119160728Y-123401467D01*
X119153787Y-123424327D01*
X119150592Y-123434853D01*
X119146371Y-123448770D01*
X119141569Y-123464609D01*
X119136632Y-123480898D01*
X119134147Y-123489097D01*
X119113085Y-123557066D01*
X119091849Y-123622577D01*
X119070559Y-123685310D01*
X119049335Y-123744943D01*
X119028297Y-123801156D01*
X119007564Y-123853628D01*
X118987257Y-123902039D01*
X118967495Y-123946068D01*
X118948632Y-123984935D01*
X118929326Y-124020973D01*
X118906477Y-124060040D01*
X118880334Y-124101784D01*
X118851143Y-124145853D01*
X118819154Y-124191894D01*
X118784613Y-124239556D01*
X118747771Y-124288486D01*
X118708873Y-124338332D01*
X118668169Y-124388742D01*
X118642482Y-124419710D01*
X118631099Y-124433310D01*
X118620595Y-124445893D01*
X118611479Y-124456846D01*
X118604259Y-124465557D01*
X118599444Y-124471413D01*
X118597789Y-124473471D01*
X118596075Y-124475939D01*
X118595398Y-124478413D01*
X118444239Y-124478413D01*
X118458037Y-124464245D01*
X118507952Y-124409616D01*
X118556465Y-124353167D01*
X118603201Y-124295393D01*
X118647788Y-124236790D01*
X118689852Y-124177854D01*
X118729021Y-124119081D01*
X118764922Y-124060967D01*
X118797180Y-124004008D01*
X118825423Y-123948699D01*
X118834307Y-123929787D01*
X118867800Y-123851483D01*
X118898224Y-123769485D01*
X118925487Y-123684214D01*
X118949497Y-123596093D01*
X118970161Y-123505545D01*
X118987386Y-123412991D01*
X119001080Y-123318854D01*
X119011151Y-123223556D01*
X119017506Y-123127520D01*
X119019061Y-123086507D01*
X119019436Y-123066724D01*
X119019551Y-123042568D01*
X119019427Y-123014739D01*
X119019081Y-122983936D01*
X119018535Y-122950857D01*
X119017806Y-122916203D01*
X119016914Y-122880673D01*
X119015879Y-122844965D01*
X119014719Y-122809780D01*
X119013454Y-122775817D01*
X119012104Y-122743775D01*
X119010687Y-122714354D01*
X119009223Y-122688252D01*
X119007731Y-122666170D01*
X119007331Y-122661057D01*
X119002883Y-122615091D01*
X118997356Y-122574008D01*
X118990721Y-122537724D01*
X118982951Y-122506150D01*
X118974016Y-122479200D01*
X118963888Y-122456789D01*
X118952539Y-122438829D01*
X118939940Y-122425235D01*
X118926491Y-122416134D01*
X118904134Y-122406922D01*
X118877327Y-122399551D01*
X118846347Y-122394014D01*
X118811475Y-122390299D01*
X118772991Y-122388400D01*
X118731172Y-122388305D01*
X118686300Y-122390007D01*
X118638653Y-122393496D01*
X118588510Y-122398762D01*
X118536152Y-122405798D01*
X118481858Y-122414593D01*
X118425907Y-122425139D01*
X118384657Y-122433832D01*
X118273238Y-122460597D01*
X118160730Y-122492064D01*
X118047523Y-122528072D01*
X117934004Y-122568461D01*
X117820562Y-122613071D01*
X117707583Y-122661744D01*
X117595456Y-122714317D01*
X117484569Y-122770633D01*
X117375311Y-122830531D01*
X117268068Y-122893851D01*
X117267521Y-122894186D01*
X117247848Y-122906435D01*
X117225103Y-122920929D01*
X117200250Y-122937030D01*
X117174248Y-122954099D01*
X117148061Y-122971499D01*
X117122650Y-122988592D01*
X117098976Y-123004739D01*
X117078003Y-123019303D01*
X117065591Y-123028109D01*
X116964812Y-123103113D01*
X116867364Y-123181107D01*
X116773131Y-123262230D01*
X116681995Y-123346619D01*
X116593839Y-123434411D01*
X116508548Y-123525745D01*
X116426004Y-123620757D01*
X116346091Y-123719585D01*
X116268692Y-123822366D01*
X116193690Y-123929238D01*
X116120969Y-124040339D01*
X116050411Y-124155805D01*
X115981901Y-124275774D01*
X115938940Y-124355237D01*
X115917350Y-124396710D01*
X115894610Y-124441665D01*
X115871098Y-124489287D01*
X115847193Y-124538762D01*
X115823275Y-124589276D01*
X115799721Y-124640016D01*
X115776912Y-124690168D01*
X115755225Y-124738918D01*
X115735040Y-124785452D01*
X115716737Y-124828956D01*
X115705327Y-124856968D01*
X115682237Y-124919287D01*
X115661865Y-124984350D01*
X115644198Y-125052293D01*
X115629225Y-125123254D01*
X115616934Y-125197366D01*
X115607313Y-125274767D01*
X115600351Y-125355591D01*
X115596036Y-125439975D01*
X115594357Y-125528055D01*
X115247744Y-125528055D01*
X115264524Y-125473039D01*
X115310133Y-125337524D01*
X115360010Y-125202082D01*
X115414238Y-125066469D01*
X115472904Y-124930440D01*
X115536092Y-124793751D01*
X115603887Y-124656158D01*
X115676374Y-124517417D01*
X115728738Y-124421665D01*
X115810683Y-124278141D01*
X115894299Y-124139005D01*
X115979553Y-124004297D01*
X116066414Y-123874056D01*
X116154848Y-123748320D01*
X116244824Y-123627131D01*
X116336309Y-123510525D01*
X116429269Y-123398544D01*
X116523674Y-123291226D01*
X116619491Y-123188610D01*
X116716686Y-123090736D01*
X116815228Y-122997643D01*
X116915085Y-122909371D01*
X117016223Y-122825958D01*
X117098611Y-122762322D01*
X117183183Y-122700755D01*
X117267000Y-122643453D01*
X117350938Y-122589871D01*
X117435877Y-122539464D01*
X117522693Y-122491688D01*
X117592641Y-122455716D01*
X117698641Y-122405334D01*
X117804718Y-122360011D01*
X117910947Y-122319727D01*
X118017401Y-122284460D01*
X118124154Y-122254192D01*
X118231280Y-122228900D01*
X118338854Y-122208565D01*
X118446948Y-122193166D01*
X118555639Y-122182681D01*
X118579387Y-122181048D01*
X118595775Y-122180233D01*
X118616244Y-122179581D01*
X118639879Y-122179091D01*
X118665766Y-122178764D01*
X118692990Y-122178600D01*
X118720637Y-122178599D01*
X118747793Y-122178761D01*
G36*
X118747793Y-122178761D02*
G01*
X118773543Y-122179085D01*
X118796973Y-122179572D01*
X118817169Y-122180222D01*
X118833216Y-122181035D01*
X118833431Y-122181049D01*
X118861937Y-122183184D01*
X118891052Y-122185837D01*
X118920228Y-122188923D01*
X118948918Y-122192360D01*
X118976576Y-122196065D01*
X119002654Y-122199954D01*
X119026605Y-122203943D01*
X119047882Y-122207951D01*
X119065938Y-122211893D01*
X119080226Y-122215686D01*
X119090199Y-122219247D01*
X119092723Y-122220510D01*
X119105571Y-122229958D01*
X119117406Y-122243124D01*
X119128274Y-122260156D01*
X119138224Y-122281202D01*
X119147300Y-122306408D01*
X119155551Y-122335924D01*
X119163022Y-122369895D01*
X119169761Y-122408470D01*
X119175814Y-122451796D01*
X119181202Y-122499767D01*
X119187935Y-122571433D01*
X119193256Y-122639214D01*
X119197221Y-122704086D01*
X119199882Y-122767030D01*
X119201294Y-122829022D01*
X119201566Y-122868067D01*
X119201535Y-122900337D01*
X119201336Y-122928553D01*
X119200918Y-122953737D01*
X119200231Y-122976914D01*
X119199221Y-122999108D01*
X119197838Y-123021341D01*
X119196030Y-123044637D01*
X119193745Y-123070021D01*
X119190932Y-123098516D01*
X119189026Y-123116987D01*
X119186465Y-123141617D01*
X119184408Y-123161658D01*
X119182815Y-123177571D01*
X119181649Y-123189817D01*
X119180871Y-123198856D01*
X119180442Y-123205152D01*
X119180323Y-123209163D01*
X119180477Y-123211353D01*
X119180864Y-123212182D01*
X119181060Y-123212237D01*
X119184045Y-123212859D01*
X119191443Y-123214641D01*
X119202751Y-123217453D01*
X119217470Y-123221165D01*
X119235096Y-123225647D01*
X119255130Y-123230771D01*
X119277069Y-123236406D01*
X119300412Y-123242423D01*
X119324657Y-123248693D01*
X119349304Y-123255086D01*
X119373851Y-123261472D01*
X119397796Y-123267722D01*
X119420639Y-123273707D01*
X119441877Y-123279296D01*
X119461009Y-123284361D01*
X119477534Y-123288772D01*
X119482401Y-123290081D01*
X119641106Y-123334325D01*
X119795094Y-123380211D01*
X119944470Y-123427778D01*
X120089337Y-123477068D01*
X120229801Y-123528122D01*
X120365965Y-123580981D01*
X120497934Y-123635685D01*
X120625812Y-123692276D01*
X120749704Y-123750795D01*
X120869714Y-123811282D01*
X120985947Y-123873778D01*
X121019101Y-123892362D01*
X121125586Y-123954557D01*
X121228996Y-124018873D01*
X121328946Y-124085047D01*
X121425054Y-124152816D01*
X121516935Y-124221918D01*
X121604207Y-124292089D01*
X121609651Y-124296631D01*
X121689872Y-124365955D01*
X121770406Y-124439947D01*
X121850957Y-124518230D01*
X121931226Y-124600431D01*
X122010917Y-124686173D01*
X122089733Y-124775081D01*
X122167377Y-124866779D01*
X122243551Y-124960893D01*
X122317959Y-125057045D01*
X122390302Y-125154862D01*
X122460285Y-125253967D01*
X122527609Y-125353986D01*
X122591979Y-125454542D01*
X122653096Y-125555260D01*
X122710664Y-125655764D01*
X122764385Y-125755680D01*
X122764575Y-125756047D01*
X122826509Y-125879706D01*
X122885490Y-126006430D01*
X122941309Y-126135643D01*
X122993759Y-126266766D01*
X123042630Y-126399223D01*
X123087715Y-126532437D01*
X123128806Y-126665829D01*
X123165692Y-126798823D01*
X123198168Y-126930841D01*
X123213341Y-126999377D01*
X123218388Y-127023647D01*
X123223506Y-127049271D01*
X123228604Y-127075720D01*
X123233595Y-127102465D01*
X123238389Y-127128978D01*
X123242896Y-127154730D01*
X123247026Y-127179192D01*
X123250692Y-127201836D01*
X123253803Y-127222133D01*
X123256271Y-127239555D01*
X123258005Y-127253574D01*
X123258917Y-127263660D01*
X123258925Y-127269231D01*
X123257908Y-127269416D01*
X123255222Y-127266629D01*
X123250728Y-127260668D01*
X123244290Y-127251328D01*
X123235770Y-127238406D01*
X123225030Y-127221698D01*
X123211933Y-127201000D01*
X123199387Y-127180987D01*
X123166543Y-127128222D01*
X123133988Y-127075532D01*
X123102225Y-127023740D01*
X123071757Y-126973668D01*
X123043084Y-126926136D01*
X123016710Y-126881967D01*
X123015540Y-126879997D01*
X122981538Y-126823427D01*
X122947312Y-126768026D01*
X122912462Y-126713199D01*
X122876585Y-126658350D01*
X122839281Y-126602883D01*
X122800148Y-126546203D01*
X122758785Y-126487713D01*
X122714790Y-126426819D01*
X122667762Y-126362925D01*
X122660348Y-126352947D01*
X122647128Y-126335046D01*
X122631692Y-126313929D01*
X122614728Y-126290549D01*
X122596922Y-126265859D01*
X122578963Y-126240813D01*
X122561536Y-126216363D01*
X122545330Y-126193463D01*
X122544057Y-126191657D01*
X122521761Y-126160029D01*
X122502081Y-126132205D01*
X122484743Y-126107806D01*
X122469476Y-126086456D01*
X122456006Y-126067780D01*
X122444060Y-126051400D01*
X122433366Y-126036941D01*
X122423651Y-126024025D01*
X122414641Y-126012277D01*
X122406191Y-126001480D01*
X122398402Y-125992170D01*
X122387831Y-125980312D01*
X122375157Y-125966603D01*
X122361065Y-125951741D01*
X122346235Y-125936423D01*
X122331351Y-125921346D01*
X122317094Y-125907209D01*
X122304148Y-125894707D01*
X122293193Y-125884540D01*
X122284912Y-125877404D01*
X122284486Y-125877064D01*
X122273724Y-125868541D01*
X122279142Y-125882144D01*
X122293214Y-125918991D01*
X122307902Y-125960318D01*
X122323051Y-126005586D01*
X122338504Y-126054255D01*
X122354105Y-126105784D01*
X122369698Y-126159633D01*
X122385128Y-126215261D01*
X122400238Y-126272130D01*
X122414871Y-126329698D01*
X122428874Y-126387425D01*
X122442088Y-126444771D01*
X122443704Y-126452007D01*
X122472100Y-126586769D01*
X122496846Y-126719291D01*
X122517931Y-126849451D01*
X122535345Y-126977128D01*
X122549077Y-127102201D01*
X122559118Y-127224550D01*
X122565456Y-127344053D01*
X122568083Y-127460590D01*
X122566986Y-127574040D01*
X122562158Y-127684281D01*
X122555624Y-127769825D01*
X122544350Y-127871631D01*
X122528935Y-127976096D01*
X122509437Y-128083018D01*
X122485914Y-128192194D01*
X122458421Y-128303422D01*
X122427018Y-128416500D01*
X122391759Y-128531225D01*
X122352704Y-128647396D01*
X122309909Y-128764810D01*
X122263431Y-128883264D01*
X122213328Y-129002557D01*
X122195143Y-129044026D01*
X122188182Y-129059583D01*
X122180106Y-129077388D01*
X122171143Y-129096955D01*
X122161522Y-129117802D01*
X122151471Y-129139442D01*
X122141220Y-129161392D01*
X122130997Y-129183167D01*
X122121031Y-129204283D01*
X122111550Y-129224255D01*
X122102784Y-129242598D01*
X122094961Y-129258829D01*
X122088310Y-129272463D01*
X122083060Y-129283015D01*
X122079440Y-129290000D01*
X122077678Y-129292935D01*
X122077582Y-129292997D01*
X122077535Y-129290680D01*
X122078135Y-129284505D01*
X122079261Y-129275636D01*
X122079768Y-129272042D01*
X122082603Y-129250326D01*
X122085525Y-129224000D01*
X122088496Y-129193531D01*
X122091476Y-129159388D01*
X122094424Y-129122039D01*
X122097302Y-129081952D01*
X122100070Y-129039594D01*
X122101643Y-129013597D01*
X122102404Y-128997583D01*
X122103066Y-128977554D01*
X122103628Y-128954104D01*
X122104091Y-128927829D01*
X122104455Y-128899324D01*
X122104718Y-128869185D01*
X122104883Y-128838006D01*
X122104948Y-128806385D01*
X122104913Y-128774914D01*
X122104778Y-128744191D01*
X122104544Y-128714810D01*
X122104210Y-128687367D01*
X122103777Y-128662457D01*
X122103244Y-128640676D01*
X122102611Y-128622618D01*
X122101878Y-128608880D01*
X122101658Y-128605927D01*
X122099467Y-128580498D01*
X122096913Y-128554042D01*
X122093936Y-128526043D01*
X122090472Y-128495987D01*
X122086458Y-128463360D01*
X122081831Y-128427647D01*
X122076529Y-128388333D01*
X122070489Y-128344903D01*
X122065536Y-128310017D01*
X122061006Y-128277713D01*
X122056144Y-128241934D01*
X122051114Y-128203944D01*
X122046077Y-128165009D01*
X122041197Y-128126394D01*
X122036634Y-128089365D01*
X122032552Y-128055187D01*
X122030014Y-128033157D01*
X122023608Y-127976888D01*
X122017647Y-127925378D01*
X122012086Y-127878331D01*
X122006883Y-127835448D01*
X122001993Y-127796434D01*
X121997373Y-127760991D01*
X121992980Y-127728821D01*
X121988771Y-127699627D01*
X121984702Y-127673113D01*
X121980730Y-127648980D01*
X121976811Y-127626933D01*
X121972902Y-127606673D01*
X121968960Y-127587904D01*
X121964941Y-127570328D01*
X121960802Y-127553649D01*
X121958977Y-127546688D01*
X121955588Y-127534454D01*
X121952228Y-127523159D01*
X121949336Y-127514239D01*
X121947690Y-127509858D01*
X121946171Y-127506609D01*
X121945114Y-127505449D01*
X121944432Y-127506956D01*
X121944039Y-127511707D01*
X121943846Y-127520282D01*
X121943768Y-127533256D01*
X121943760Y-127536024D01*
X121942379Y-127575574D01*
X121938537Y-127618919D01*
X121932366Y-127665486D01*
X121924000Y-127714703D01*
X121913570Y-127765996D01*
X121901210Y-127818793D01*
X121887051Y-127872521D01*
X121871226Y-127926606D01*
X121853867Y-127980476D01*
X121835108Y-128033559D01*
X121818943Y-128075671D01*
X121800369Y-128120282D01*
X121780044Y-128165469D01*
X121758598Y-128209937D01*
X121736663Y-128252391D01*
X121714867Y-128291538D01*
X121708479Y-128302397D01*
X121702475Y-128312222D01*
X121694058Y-128325651D01*
X121683627Y-128342061D01*
X121671586Y-128360827D01*
X121658335Y-128381325D01*
X121644277Y-128402931D01*
X121629812Y-128425022D01*
X121618566Y-128442097D01*
X121591483Y-128483358D01*
X121567194Y-128520933D01*
X121545475Y-128555219D01*
X121526099Y-128586614D01*
X121508840Y-128615516D01*
X121493471Y-128642322D01*
X121479767Y-128667430D01*
X121467503Y-128691238D01*
X121456450Y-128714143D01*
X121446385Y-128736544D01*
X121437081Y-128758837D01*
X121433697Y-128767364D01*
X121424944Y-128790399D01*
X121417356Y-128812029D01*
X121410732Y-128833087D01*
X121404872Y-128854404D01*
X121399576Y-128876814D01*
X121394643Y-128901147D01*
X121389873Y-128928237D01*
X121385067Y-128958915D01*
X121381195Y-128985657D01*
X121362869Y-129130554D01*
X121349042Y-129273319D01*
X121339717Y-129413919D01*
X121334892Y-129552320D01*
X121334571Y-129688491D01*
X121338752Y-129822396D01*
X121347437Y-129954004D01*
X121353133Y-130015627D01*
X121362961Y-130102258D01*
X121374555Y-130185318D01*
X121387862Y-130264495D01*
X121402829Y-130339477D01*
X121419404Y-130409955D01*
X121420545Y-130414407D01*
X121424485Y-130429733D01*
X121428069Y-130443720D01*
X121431072Y-130455490D01*
X121433270Y-130464162D01*
X121434438Y-130468857D01*
X121434476Y-130469017D01*
X121433295Y-130469285D01*
X121428882Y-130465995D01*
X121421430Y-130459339D01*
X121411132Y-130449512D01*
X121398180Y-130436707D01*
X121382768Y-130421117D01*
X121365087Y-130402936D01*
X121345332Y-130382356D01*
X121323695Y-130359572D01*
X121300368Y-130334777D01*
X121296385Y-130330521D01*
X121204209Y-130230107D01*
X121114316Y-130128433D01*
X121026877Y-130025745D01*
X120942064Y-129922286D01*
X120860050Y-129818302D01*
X120781006Y-129714038D01*
X120705104Y-129609739D01*
X120632517Y-129505649D01*
X120563417Y-129402013D01*
X120497974Y-129299077D01*
X120436363Y-129197084D01*
X120378754Y-129096281D01*
X120325320Y-128996912D01*
X120276232Y-128899222D01*
X120246304Y-128835797D01*
X120222484Y-128782545D01*
X120197680Y-128724379D01*
X120171916Y-128661366D01*
X120145217Y-128593569D01*
X120117608Y-128521055D01*
X120089113Y-128443889D01*
X120059758Y-128362136D01*
X120029566Y-128275861D01*
X119998562Y-128185130D01*
X119983847Y-128141352D01*
X119939754Y-128009517D01*
X119934440Y-128021972D01*
X119926617Y-128040227D01*
X119920397Y-128054440D01*
X119915428Y-128065260D01*
X119911357Y-128073333D01*
X119907831Y-128079305D01*
X119904498Y-128083824D01*
X119901005Y-128087537D01*
X119896999Y-128091091D01*
X119896544Y-128091473D01*
X119884514Y-128101546D01*
X119880888Y-128305342D01*
X119926119Y-128351515D01*
X119956797Y-128383789D01*
X119983563Y-128413972D01*
X120006356Y-128441974D01*
X120025115Y-128467708D01*
X120039777Y-128491084D01*
X120050280Y-128512016D01*
X120056563Y-128530413D01*
X120058270Y-128540085D01*
X120058493Y-128553923D01*
X120056890Y-128571464D01*
X120053665Y-128591759D01*
X120049024Y-128613855D01*
X120043171Y-128636799D01*
X120036310Y-128659641D01*
X120028646Y-128681428D01*
X120026935Y-128685828D01*
X120005062Y-128734174D01*
X119978400Y-128780935D01*
X119946999Y-128826072D01*
X119910908Y-128869546D01*
X119870179Y-128911319D01*
X119824860Y-128951353D01*
X119775001Y-128989609D01*
X119720652Y-129026048D01*
X119661863Y-129060634D01*
X119598684Y-129093326D01*
X119531164Y-129124086D01*
X119459354Y-129152877D01*
X119389691Y-129177541D01*
X119295446Y-129206516D01*
X119201571Y-129230478D01*
X119107869Y-129249462D01*
X119014140Y-129263502D01*
X118920184Y-129272634D01*
X118825804Y-129276892D01*
X118822001Y-129276961D01*
X118748805Y-129276980D01*
X118672009Y-129274642D01*
X118592461Y-129270044D01*
X118511008Y-129263288D01*
X118428496Y-129254470D01*
X118345774Y-129243689D01*
X118263688Y-129231045D01*
X118183086Y-129216637D01*
X118104814Y-129200562D01*
X118042616Y-129186121D01*
X117972206Y-129167631D01*
X117898838Y-129146045D01*
X117823337Y-129121651D01*
X117746528Y-129094742D01*
X117669239Y-129065608D01*
X117592295Y-129034540D01*
X117516521Y-129001828D01*
X117506488Y-128997330D01*
X117494960Y-128992199D01*
X117485239Y-128987986D01*
X117478182Y-128985056D01*
X117474646Y-128983770D01*
X117474403Y-128983755D01*
X117475608Y-128985925D01*
X117479290Y-128991495D01*
X117484955Y-128999743D01*
X117492111Y-129009949D01*
X117496505Y-129016137D01*
X117560947Y-129109361D01*
X117624491Y-129206989D01*
X117686772Y-129308371D01*
X117747420Y-129412858D01*
X117806070Y-129519801D01*
X117862354Y-129628551D01*
X117915904Y-129738458D01*
X117961457Y-129837827D01*
X117998342Y-129922798D01*
X118033491Y-130007847D01*
X118066806Y-130092645D01*
X118098186Y-130176863D01*
X118127532Y-130260173D01*
X118154746Y-130342247D01*
X118179727Y-130422754D01*
X118202376Y-130501368D01*
X118222595Y-130577760D01*
X118240282Y-130651600D01*
X118255340Y-130722561D01*
X118267669Y-130790314D01*
X118277168Y-130854530D01*
X118282171Y-130898091D01*
X118283684Y-130914742D01*
X118285019Y-130932296D01*
X118286152Y-130950075D01*
X118287059Y-130967396D01*
X118287717Y-130983581D01*
X118288100Y-130997949D01*
X118288185Y-131009819D01*
X118287947Y-131018511D01*
X118287362Y-131023346D01*
X118286655Y-131024007D01*
X118284868Y-131021181D01*
X118281071Y-131014420D01*
X118275576Y-131004305D01*
X118268696Y-130991419D01*
X118260743Y-130976345D01*
X118252030Y-130959664D01*
X118249171Y-130954157D01*
X118211055Y-130881314D01*
X118174524Y-130812945D01*
X118139404Y-130748758D01*
X118105519Y-130688461D01*
X118072695Y-130631764D01*
X118040755Y-130578373D01*
X118009524Y-130527998D01*
X117978828Y-130480347D01*
X117948491Y-130435128D01*
X117918338Y-130392050D01*
X117888193Y-130350822D01*
X117880012Y-130339941D01*
X117865569Y-130320847D01*
X117849394Y-130299462D01*
X117832533Y-130277167D01*
X117816032Y-130255345D01*
X117800934Y-130235378D01*
X117793130Y-130225057D01*
X117780879Y-130208621D01*
X117768656Y-130191805D01*
X117757109Y-130175531D01*
X117746887Y-130160721D01*
X117738638Y-130148298D01*
X117734075Y-130141003D01*
X117727816Y-130130741D01*
X117722597Y-130122586D01*
X117718890Y-130117242D01*
X117717167Y-130115417D01*
X117717101Y-130115568D01*
X117717561Y-130119060D01*
X117718887Y-130127090D01*
X117720995Y-130139206D01*
X117723802Y-130154955D01*
X117727223Y-130173884D01*
X117731176Y-130195542D01*
X117735577Y-130219476D01*
X117740342Y-130245233D01*
X117745388Y-130272362D01*
X117750632Y-130300408D01*
X117755989Y-130328921D01*
X117761376Y-130357447D01*
X117766710Y-130385535D01*
X117771908Y-130412731D01*
X117773205Y-130419487D01*
X117789446Y-130503371D01*
X117806332Y-130589370D01*
X117823687Y-130676609D01*
X117841330Y-130764219D01*
X117859086Y-130851326D01*
X117876775Y-130937060D01*
X117894221Y-131020548D01*
X117911244Y-131100920D01*
X117927668Y-131177302D01*
X117930507Y-131190377D01*
X117941231Y-131240091D01*
X117950812Y-131285448D01*
X117959341Y-131327017D01*
X117966911Y-131365366D01*
X117973613Y-131401067D01*
X117979541Y-131434687D01*
X117984785Y-131466798D01*
X117989438Y-131497967D01*
X117993593Y-131528765D01*
X117997341Y-131559762D01*
X118000775Y-131591527D01*
X118003986Y-131624628D01*
X118007067Y-131659637D01*
X118007757Y-131667897D01*
X118010164Y-131699171D01*
X118012393Y-131732445D01*
X118014428Y-131767171D01*
X118016253Y-131802799D01*
X118017853Y-131838780D01*
X118019213Y-131874567D01*
X118020315Y-131909610D01*
X118021146Y-131943360D01*
X118021689Y-131975269D01*
X118021928Y-132004788D01*
X118021848Y-132031367D01*
X118021434Y-132054459D01*
X118020669Y-132073515D01*
X118019699Y-132086452D01*
X118018091Y-132102417D01*
X117982531Y-132080177D01*
X117957866Y-132064548D01*
X117929674Y-132046327D01*
X117898535Y-132025906D01*
X117865031Y-132003678D01*
X117829743Y-131980038D01*
X117793252Y-131955378D01*
X117756140Y-131930092D01*
X117718989Y-131904574D01*
X117682379Y-131879216D01*
X117646893Y-131854413D01*
X117613110Y-131830557D01*
X117602801Y-131823220D01*
X117469395Y-131726505D01*
X117339001Y-131628787D01*
X117211770Y-131530204D01*
X117087852Y-131430893D01*
X116967399Y-131330991D01*
X116850560Y-131230637D01*
X116737488Y-131129966D01*
X116628332Y-131029118D01*
X116523243Y-130928229D01*
X116422372Y-130827436D01*
X116325870Y-130726878D01*
X116233888Y-130626691D01*
X116146577Y-130527012D01*
X116064086Y-130427981D01*
X116042405Y-130401051D01*
X115946233Y-130277394D01*
X115854727Y-130152977D01*
X115767973Y-130027926D01*
X115686053Y-129902366D01*
X115609054Y-129776423D01*
X115547329Y-129668788D01*
X115491467Y-129565227D01*
X115437602Y-129459168D01*
X115386033Y-129351310D01*
X115337059Y-129242353D01*
X115290979Y-129132997D01*
X115248093Y-129023942D01*
X115208700Y-128915888D01*
X115173101Y-128809535D01*
X115155617Y-128753247D01*
X115134495Y-128678905D01*
X115115047Y-128601301D01*
X115097252Y-128520287D01*
X115081090Y-128435712D01*
X115066541Y-128347425D01*
X115053587Y-128255279D01*
X115042206Y-128159121D01*
X115038592Y-128122225D01*
X115258762Y-128122225D01*
X115258762Y-128131385D01*
X115258958Y-128143566D01*
X115259326Y-128158086D01*
X115259842Y-128174259D01*
X115260482Y-128191404D01*
X115261223Y-128208835D01*
X115262040Y-128225869D01*
X115262911Y-128241822D01*
X115263810Y-128256011D01*
X115264715Y-128267753D01*
X115264746Y-128268107D01*
X115267735Y-128299790D01*
X115271047Y-128330392D01*
X115274769Y-128360225D01*
X115278988Y-128389603D01*
X115283790Y-128418838D01*
X115289260Y-128448242D01*
X115295487Y-128478129D01*
X115302554Y-128508810D01*
X115310550Y-128540599D01*
X115319560Y-128573808D01*
X115329671Y-128608749D01*
X115340968Y-128645736D01*
X115353539Y-128685081D01*
X115367469Y-128727097D01*
X115382845Y-128772095D01*
X115399753Y-128820390D01*
X115418279Y-128872293D01*
X115438509Y-128928118D01*
X115460531Y-128988176D01*
X115472261Y-129019947D01*
X115493134Y-129076150D01*
X115512574Y-129128000D01*
X115530775Y-129175954D01*
X115547933Y-129220472D01*
X115564240Y-129262011D01*
X115579891Y-129301030D01*
X115595080Y-129337988D01*
X115610002Y-129373343D01*
X115624851Y-129407553D01*
X115639820Y-129441077D01*
X115655105Y-129474374D01*
X115670899Y-129507902D01*
X115687396Y-129542120D01*
X115704792Y-129577486D01*
X115723279Y-129614458D01*
X115728327Y-129624467D01*
X115775126Y-129714336D01*
X115822523Y-129799724D01*
X115870913Y-129881224D01*
X115920693Y-129959429D01*
X115972258Y-130034934D01*
X116026003Y-130108332D01*
X116082325Y-130180217D01*
X116141619Y-130251184D01*
X116159855Y-130272167D01*
X116190721Y-130306829D01*
X116225373Y-130344727D01*
X116263741Y-130385788D01*
X116305755Y-130429941D01*
X116351345Y-130477112D01*
X116400444Y-130527230D01*
X116452980Y-130580222D01*
X116508884Y-130636015D01*
X116518568Y-130645625D01*
X116555446Y-130682099D01*
X116589386Y-130715458D01*
X116620966Y-130746250D01*
X116650768Y-130775024D01*
X116679371Y-130802328D01*
X116707356Y-130828712D01*
X116735301Y-130854722D01*
X116763787Y-130880910D01*
X116793394Y-130907822D01*
X116824702Y-130936007D01*
X116839644Y-130949381D01*
X116864556Y-130971611D01*
X116885937Y-130990615D01*
X116904013Y-131006587D01*
X116919011Y-131019718D01*
X116931157Y-131030202D01*
X116940677Y-131038233D01*
X116947797Y-131044002D01*
X116952745Y-131047704D01*
X116955745Y-131049530D01*
X116957026Y-131049675D01*
X116957092Y-131049534D01*
X116956605Y-131046367D01*
X116954849Y-131039053D01*
X116952017Y-131028313D01*
X116948300Y-131014864D01*
X116943892Y-130999425D01*
X116941023Y-130989602D01*
X116899272Y-130856590D01*
X116853009Y-130725872D01*
X116802250Y-130597484D01*
X116747011Y-130471460D01*
X116687310Y-130347838D01*
X116623162Y-130226652D01*
X116554584Y-130107939D01*
X116481593Y-129991734D01*
X116476295Y-129983658D01*
X116453459Y-129949300D01*
X116430456Y-129915432D01*
X116406960Y-129881612D01*
X116382643Y-129847395D01*
X116357177Y-129812340D01*
X116330235Y-129776002D01*
X116301489Y-129737939D01*
X116270611Y-129697708D01*
X116237273Y-129654866D01*
X116201149Y-129608969D01*
X116173137Y-129573667D01*
X116143582Y-129536651D01*
X116116273Y-129502733D01*
X116090704Y-129471329D01*
X116066367Y-129441853D01*
X116042755Y-129413719D01*
X116019361Y-129386342D01*
X115995678Y-129359138D01*
X115971199Y-129331520D01*
X115945417Y-129302904D01*
X115917825Y-129272704D01*
X115887917Y-129240335D01*
X115855184Y-129205212D01*
X115838680Y-129187587D01*
X115813292Y-129160444D01*
X115791020Y-129136477D01*
X115771451Y-129115209D01*
X115754171Y-129096161D01*
X115738768Y-129078857D01*
X115724828Y-129062818D01*
X115711938Y-129047568D01*
X115699684Y-129032628D01*
X115687652Y-129017522D01*
X115675430Y-129001772D01*
X115662604Y-128984900D01*
X115658640Y-128979633D01*
X115602452Y-128900891D01*
X115549162Y-128818218D01*
X115498937Y-128731965D01*
X115451944Y-128642485D01*
X115408350Y-128550130D01*
X115368321Y-128455250D01*
X115332025Y-128358198D01*
X115299627Y-128259326D01*
X115273327Y-128166749D01*
X115269344Y-128151708D01*
X115265754Y-128138306D01*
X115262774Y-128127334D01*
X115260618Y-128119587D01*
X115259502Y-128115856D01*
X115259444Y-128115707D01*
X115258981Y-128116771D01*
X115258762Y-128122225D01*
X115038592Y-128122225D01*
X115032378Y-128058803D01*
X115024085Y-127954175D01*
X115017306Y-127845087D01*
X115012022Y-127731389D01*
X115009183Y-127648347D01*
X115008632Y-127625310D01*
X115008190Y-127597844D01*
X115007853Y-127566569D01*
X115007618Y-127532112D01*
X115007483Y-127495094D01*
X115007443Y-127456141D01*
X115007497Y-127415874D01*
X115007641Y-127374920D01*
X115007872Y-127333900D01*
X115008187Y-127293438D01*
X115008583Y-127254159D01*
X115009058Y-127216685D01*
X115009607Y-127181642D01*
X115010228Y-127149651D01*
X115010919Y-127121338D01*
X115011675Y-127097325D01*
X115011873Y-127092087D01*
X115015254Y-127010884D01*
X115018830Y-126934273D01*
X115022643Y-126861765D01*
X115026730Y-126792873D01*
X115031131Y-126727111D01*
X115035885Y-126663992D01*
X115041032Y-126603028D01*
X115046612Y-126543732D01*
X115052662Y-126485618D01*
X115059224Y-126428198D01*
X115066336Y-126370986D01*
X115074037Y-126313494D01*
X115074525Y-126309990D01*
X115563653Y-126309990D01*
X115563848Y-126319839D01*
X115564676Y-126332969D01*
X115566157Y-126349785D01*
X115568311Y-126370692D01*
X115571160Y-126396096D01*
X115572195Y-126405017D01*
X115582954Y-126489573D01*
X115595495Y-126574612D01*
X115609686Y-126659538D01*
X115625398Y-126743759D01*
X115642501Y-126826681D01*
X115660864Y-126907711D01*
X115680357Y-126986256D01*
X115700849Y-127061722D01*
X115722211Y-127133517D01*
X115744312Y-127201045D01*
X115751508Y-127221627D01*
X115773359Y-127280481D01*
X115798345Y-127342994D01*
X115826346Y-127408924D01*
X115857241Y-127478030D01*
X115890909Y-127550071D01*
X115927229Y-127624807D01*
X115966080Y-127701996D01*
X116007343Y-127781397D01*
X116050895Y-127862770D01*
X116096616Y-127945872D01*
X116144386Y-128030464D01*
X116194084Y-128116303D01*
X116231267Y-128179207D01*
X116268027Y-128240296D01*
X116305581Y-128301615D01*
X116343646Y-128362736D01*
X116381942Y-128423233D01*
X116420187Y-128482678D01*
X116458098Y-128540645D01*
X116495394Y-128596707D01*
X116531794Y-128650438D01*
X116567015Y-128701410D01*
X116600776Y-128749197D01*
X116632795Y-128793372D01*
X116662791Y-128833509D01*
X116665874Y-128837553D01*
X116676110Y-128850900D01*
X116688672Y-128867199D01*
X116702752Y-128885406D01*
X116717542Y-128904474D01*
X116732231Y-128923361D01*
X116744552Y-128939153D01*
X116766483Y-128967417D01*
X116787961Y-128995525D01*
X116809211Y-129023807D01*
X116830461Y-129052589D01*
X116851938Y-129082200D01*
X116873867Y-129112966D01*
X116896476Y-129145216D01*
X116919991Y-129179277D01*
X116944639Y-129215477D01*
X116970647Y-129254144D01*
X116998241Y-129295605D01*
X117027649Y-129340187D01*
X117059096Y-129388219D01*
X117092810Y-129440028D01*
X117117789Y-129478576D01*
X117149374Y-129527515D01*
X117178338Y-129572662D01*
X117204924Y-129614422D01*
X117229375Y-129653200D01*
X117251932Y-129689399D01*
X117272840Y-129723425D01*
X117292340Y-129755682D01*
X117310675Y-129786573D01*
X117328089Y-129816505D01*
X117344823Y-129845880D01*
X117361121Y-129875104D01*
X117377225Y-129904581D01*
X117393378Y-129934716D01*
X117406627Y-129959811D01*
X117419771Y-129985258D01*
X117433299Y-130012177D01*
X117446884Y-130039867D01*
X117460201Y-130067628D01*
X117472921Y-130094759D01*
X117484720Y-130120559D01*
X117495270Y-130144328D01*
X117504245Y-130165366D01*
X117511318Y-130182971D01*
X117514032Y-130190250D01*
X117516551Y-130195747D01*
X117518734Y-130198048D01*
X117519262Y-130197870D01*
X117520027Y-130194865D01*
X117521110Y-130187592D01*
X117522417Y-130176845D01*
X117523852Y-130163420D01*
X117525319Y-130148111D01*
X117525584Y-130145167D01*
X117527215Y-130123582D01*
X117528507Y-130099852D01*
X117529453Y-130074840D01*
X117530047Y-130049407D01*
X117530284Y-130024416D01*
X117530157Y-130000729D01*
X117529660Y-129979209D01*
X117528788Y-129960717D01*
X117527535Y-129946117D01*
X117526987Y-129941967D01*
X117521123Y-129906874D01*
X117514154Y-129873162D01*
X117505692Y-129839226D01*
X117495349Y-129803456D01*
X117487954Y-129780061D01*
X117483086Y-129764835D01*
X117479732Y-129753622D01*
X117477723Y-129745641D01*
X117476888Y-129740113D01*
X117477059Y-129736255D01*
X117477887Y-129733668D01*
X117483468Y-129726802D01*
X117491530Y-129723051D01*
X117499124Y-129723097D01*
X117502535Y-129725143D01*
X117509341Y-129730267D01*
X117519168Y-129738146D01*
X117531638Y-129748457D01*
X117546375Y-129760876D01*
X117563004Y-129775080D01*
X117581147Y-129790744D01*
X117600428Y-129807547D01*
X117620472Y-129825164D01*
X117640901Y-129843272D01*
X117661340Y-129861547D01*
X117681412Y-129879665D01*
X117684181Y-129882180D01*
X117701571Y-129898058D01*
X117720948Y-129915898D01*
X117742560Y-129935931D01*
X117766655Y-129958386D01*
X117793478Y-129983494D01*
X117823277Y-130011486D01*
X117856298Y-130042593D01*
X117884106Y-130068840D01*
X117892907Y-130077054D01*
X117900206Y-130083676D01*
X117905318Y-130088098D01*
X117907555Y-130089712D01*
X117907601Y-130089670D01*
X117906690Y-130085923D01*
X117904104Y-130078033D01*
X117900061Y-130066567D01*
X117894780Y-130052096D01*
X117888480Y-130035190D01*
X117881378Y-130016417D01*
X117873693Y-129996347D01*
X117865645Y-129975550D01*
X117857451Y-129954594D01*
X117849330Y-129934051D01*
X117841501Y-129914488D01*
X117834181Y-129896476D01*
X117827591Y-129880583D01*
X117825084Y-129874657D01*
X117794570Y-129805045D01*
X117762733Y-129736428D01*
X117729359Y-129668450D01*
X117694233Y-129600753D01*
X117657138Y-129532981D01*
X117617860Y-129464778D01*
X117576184Y-129395786D01*
X117531894Y-129325649D01*
X117484776Y-129254010D01*
X117434614Y-129180513D01*
X117381193Y-129104800D01*
X117324297Y-129026516D01*
X117267329Y-128950097D01*
X117250827Y-128928317D01*
X117235159Y-128907901D01*
X117220021Y-128888504D01*
X117205110Y-128869779D01*
X117190120Y-128851381D01*
X117174749Y-128832962D01*
X117158693Y-128814179D01*
X117141647Y-128794683D01*
X117123309Y-128774130D01*
X117103373Y-128752174D01*
X117081535Y-128728468D01*
X117057493Y-128702667D01*
X117030942Y-128674425D01*
X117001579Y-128643395D01*
X116969099Y-128609232D01*
X116953845Y-128593227D01*
X116911386Y-128548638D01*
X116872366Y-128507522D01*
X116836651Y-128469737D01*
X116804109Y-128435141D01*
X116774609Y-128403593D01*
X116748018Y-128374950D01*
X116724205Y-128349072D01*
X116703036Y-128325816D01*
X116684381Y-128305040D01*
X116668933Y-128287549D01*
X116653631Y-128269321D01*
X116635988Y-128246998D01*
X116616200Y-128220884D01*
X116594467Y-128191284D01*
X116570985Y-128158503D01*
X116545954Y-128122844D01*
X116519571Y-128084612D01*
X116492034Y-128044111D01*
X116463542Y-128001647D01*
X116434291Y-127957523D01*
X116404481Y-127912043D01*
X116374309Y-127865513D01*
X116343973Y-127818236D01*
X116313672Y-127770517D01*
X116283602Y-127722661D01*
X116253963Y-127674972D01*
X116224952Y-127627754D01*
X116196767Y-127581311D01*
X116169607Y-127535949D01*
X116143669Y-127491971D01*
X116119151Y-127449682D01*
X116096251Y-127409387D01*
X116087134Y-127393077D01*
X116022939Y-127274724D01*
X115959548Y-127152107D01*
X115897328Y-127026020D01*
X115836644Y-126897260D01*
X115777863Y-126766623D01*
X115721351Y-126634905D01*
X115667475Y-126502902D01*
X115616602Y-126371410D01*
X115615498Y-126368471D01*
X115608699Y-126350504D01*
X115602375Y-126334045D01*
X115596767Y-126319710D01*
X115592119Y-126308108D01*
X115588675Y-126299855D01*
X115586677Y-126295561D01*
X115586389Y-126295129D01*
X115581197Y-126292935D01*
X115574102Y-126293047D01*
X115567665Y-126295343D01*
X115566656Y-126296074D01*
X115565077Y-126298513D01*
X115564070Y-126303016D01*
X115563653Y-126309990D01*
X115074525Y-126309990D01*
X115075733Y-126301338D01*
X115097519Y-126160256D01*
X115123064Y-126020713D01*
X115152452Y-125882464D01*
X115185768Y-125745264D01*
X115223097Y-125608871D01*
X115247744Y-125528055D01*
X115594357Y-125528055D01*
X115595302Y-125619966D01*
X115598859Y-125715844D01*
X115605017Y-125815825D01*
X115613763Y-125920044D01*
X115614007Y-125922625D01*
X115617726Y-125957280D01*
X115622235Y-125990318D01*
X115627698Y-126022187D01*
X115634278Y-126053333D01*
X115642139Y-126084204D01*
X115651443Y-126115247D01*
X115662355Y-126146910D01*
X115675036Y-126179639D01*
X115689651Y-126213882D01*
X115706363Y-126250086D01*
X115725335Y-126288699D01*
X115746730Y-126330167D01*
X115770712Y-126374938D01*
X115795660Y-126420257D01*
X115816695Y-126458219D01*
X115835393Y-126492357D01*
X115852007Y-126523216D01*
X115866790Y-126551341D01*
X115879996Y-126577277D01*
X115891877Y-126601571D01*
X115902688Y-126624767D01*
X115912680Y-126647411D01*
X115922108Y-126670048D01*
X115931224Y-126693224D01*
X115940282Y-126717485D01*
X115949535Y-126743374D01*
X115959236Y-126771439D01*
X115960741Y-126775857D01*
X115972086Y-126808266D01*
X115984085Y-126840608D01*
X115996856Y-126873095D01*
X116010518Y-126905939D01*
X116025189Y-126939350D01*
X116040988Y-126973541D01*
X116058034Y-127008723D01*
X116076445Y-127045107D01*
X116096339Y-127082905D01*
X116117835Y-127122329D01*
X116141052Y-127163591D01*
X116166108Y-127206900D01*
X116193122Y-127252470D01*
X116222212Y-127300512D01*
X116253496Y-127351237D01*
X116287094Y-127404857D01*
X116323124Y-127461584D01*
X116361705Y-127521628D01*
X116402954Y-127585202D01*
X116446990Y-127652517D01*
X116480646Y-127703656D01*
X116501208Y-127734734D01*
X116520999Y-127764426D01*
X116540203Y-127792972D01*
X116559005Y-127820616D01*
X116577588Y-127847599D01*
X116596137Y-127874162D01*
X116614836Y-127900548D01*
X116633870Y-127926999D01*
X116653422Y-127953757D01*
X116673678Y-127981062D01*
X116694821Y-128009159D01*
X116717036Y-128038287D01*
X116740507Y-128068689D01*
X116765418Y-128100608D01*
X116791954Y-128134284D01*
X116820299Y-128169960D01*
X116850638Y-128207877D01*
X116883154Y-128248279D01*
X116918031Y-128291405D01*
X116955455Y-128337499D01*
X116995610Y-128386802D01*
X117038679Y-128439557D01*
X117077828Y-128487426D01*
X117230284Y-128673726D01*
X117264777Y-128690237D01*
X117388201Y-128747027D01*
X117511537Y-128799208D01*
X117634669Y-128846748D01*
X117757482Y-128889617D01*
X117879861Y-128927782D01*
X118001692Y-128961213D01*
X118122860Y-128989877D01*
X118243250Y-129013745D01*
X118362746Y-129032783D01*
X118481234Y-129046961D01*
X118598599Y-129056248D01*
X118606101Y-129056677D01*
X118627719Y-129057879D01*
X118645252Y-129058829D01*
X118659687Y-129059563D01*
X118672009Y-129060114D01*
X118683205Y-129060517D01*
X118694262Y-129060807D01*
X118706166Y-129061018D01*
X118719904Y-129061184D01*
X118736462Y-129061341D01*
X118740453Y-129061376D01*
X118794795Y-129061857D01*
X118777283Y-129046038D01*
X118747933Y-129017753D01*
X118723174Y-128989878D01*
X118702626Y-128961785D01*
X118685908Y-128932847D01*
X118672637Y-128902435D01*
X118662433Y-128869922D01*
X118657586Y-128848959D01*
X118655540Y-128835073D01*
X118654103Y-128817190D01*
X118653274Y-128796354D01*
X118653051Y-128773613D01*
X118653433Y-128750012D01*
X118654418Y-128726596D01*
X118656005Y-128704411D01*
X118657837Y-128687207D01*
X118664335Y-128642793D01*
X118672079Y-128601848D01*
X118680989Y-128564654D01*
X118690984Y-128531498D01*
X118701984Y-128502663D01*
X118713910Y-128478434D01*
X118719391Y-128469364D01*
X118727885Y-128457400D01*
X118737493Y-128445732D01*
X118747201Y-128435459D01*
X118755992Y-128427680D01*
X118760968Y-128424355D01*
X118764722Y-128422603D01*
X118766090Y-128423517D01*
X118765696Y-128428075D01*
X118765208Y-128431009D01*
X118764318Y-128438963D01*
X118763545Y-128451207D01*
X118762896Y-128466953D01*
X118762379Y-128485411D01*
X118762001Y-128505793D01*
X118761769Y-128527310D01*
X118761691Y-128549174D01*
X118761776Y-128570595D01*
X118762029Y-128590786D01*
X118762460Y-128608957D01*
X118763075Y-128624319D01*
X118763310Y-128628473D01*
X118767066Y-128676834D01*
X118772180Y-128720801D01*
X118778804Y-128760916D01*
X118787089Y-128797719D01*
X118797186Y-128831753D01*
X118809246Y-128863557D01*
X118823420Y-128893673D01*
X118839858Y-128922642D01*
X118849690Y-128937940D01*
X118864199Y-128958302D01*
X118880030Y-128978174D01*
X118896519Y-128996868D01*
X118913002Y-129013696D01*
X118928816Y-129027969D01*
X118943295Y-129039000D01*
X118952619Y-129044599D01*
X118956377Y-129046379D01*
X118960178Y-129047641D01*
X118964666Y-129048350D01*
X118970487Y-129048469D01*
X118978284Y-129047963D01*
X118988703Y-129046796D01*
X119002387Y-129044932D01*
X119019983Y-129042336D01*
X119035361Y-129040004D01*
X119101407Y-129028876D01*
X119168281Y-129015558D01*
X119235325Y-129000246D01*
X119301884Y-128983138D01*
X119367300Y-128964431D01*
X119430917Y-128944323D01*
X119492079Y-128923009D01*
X119550129Y-128900689D01*
X119604410Y-128877558D01*
X119652893Y-128854508D01*
X119688401Y-128835837D01*
X119719999Y-128817444D01*
X119748751Y-128798587D01*
X119775723Y-128778523D01*
X119801981Y-128756511D01*
X119827379Y-128732979D01*
X119851255Y-128708916D01*
X119871080Y-128686612D01*
X119887293Y-128665455D01*
X119900334Y-128644829D01*
X119910643Y-128624121D01*
X119916977Y-128607785D01*
X119922650Y-128583758D01*
X119923373Y-128559328D01*
X119919243Y-128534673D01*
X119910357Y-128509973D01*
X119896810Y-128485408D01*
X119878701Y-128461156D01*
X119856124Y-128437397D01*
X119829178Y-128414311D01*
X119802400Y-128395010D01*
X119792890Y-128389106D01*
X119779827Y-128381637D01*
X119764269Y-128373172D01*
X119747273Y-128364282D01*
X119729896Y-128355538D01*
X119723034Y-128352189D01*
X119697304Y-128339528D01*
X119675831Y-128328439D01*
X119658140Y-128318644D01*
X119643757Y-128309866D01*
X119632207Y-128301827D01*
X119623016Y-128294250D01*
X119621266Y-128292619D01*
X119609189Y-128278315D01*
X119597771Y-128259175D01*
X119587050Y-128235403D01*
X119577064Y-128207206D01*
X119567851Y-128174789D01*
X119565941Y-128166507D01*
X119761801Y-128166507D01*
X119763071Y-128167777D01*
X119764341Y-128166507D01*
X119763071Y-128165237D01*
X119761801Y-128166507D01*
X119565941Y-128166507D01*
X119559448Y-128138357D01*
X119551894Y-128098116D01*
X119545227Y-128054272D01*
X119539484Y-128007029D01*
X119534704Y-127956594D01*
X119530924Y-127903171D01*
X119528183Y-127846967D01*
X119526519Y-127788186D01*
X119526362Y-127779000D01*
X119525978Y-127752554D01*
X119525758Y-127730680D01*
X119525745Y-127712873D01*
X119525980Y-127698626D01*
X119526507Y-127687434D01*
X119527368Y-127678790D01*
X119528604Y-127672188D01*
X119530170Y-127667397D01*
X119735810Y-127667397D01*
X119736847Y-127692162D01*
X119737700Y-127705604D01*
X119739176Y-127715743D01*
X119741625Y-127724344D01*
X119744585Y-127731450D01*
X119756026Y-127750372D01*
X119771265Y-127766254D01*
X119789844Y-127778830D01*
X119811303Y-127787834D01*
X119835186Y-127793000D01*
X119852606Y-127794185D01*
X119862210Y-127794143D01*
X119867771Y-127793585D01*
X119870318Y-127792271D01*
X119870880Y-127789964D01*
X119870880Y-127789952D01*
X119870123Y-127786323D01*
X119868079Y-127778591D01*
X119864961Y-127767508D01*
X119860982Y-127753824D01*
X119856356Y-127738289D01*
X119853735Y-127729627D01*
X119836731Y-127673747D01*
X119796091Y-127670809D01*
X119781418Y-127669777D01*
X119767783Y-127668873D01*
X119756328Y-127668166D01*
X119748194Y-127667730D01*
X119745630Y-127667634D01*
X119735810Y-127667397D01*
X119530170Y-127667397D01*
X119530260Y-127667123D01*
X119532376Y-127663088D01*
X119534996Y-127659577D01*
X119536522Y-127657844D01*
X119540689Y-127654213D01*
X119543300Y-127654651D01*
X119543790Y-127655304D01*
X119545013Y-127655117D01*
X119545741Y-127650636D01*
X119545862Y-127646776D01*
X119545752Y-127641641D01*
X119544943Y-127637608D01*
X119542777Y-127633768D01*
X119538594Y-127629214D01*
X119531737Y-127623038D01*
X119523577Y-127616060D01*
X119504918Y-127599162D01*
X119489713Y-127583223D01*
X119478375Y-127568701D01*
X119472870Y-127559447D01*
X119467382Y-127545076D01*
X119462812Y-127525765D01*
X119459172Y-127501575D01*
X119457096Y-127480707D01*
X119455797Y-127466087D01*
X119454311Y-127451242D01*
X119452828Y-127437987D01*
X119451632Y-127428764D01*
X119450246Y-127409109D01*
X119451191Y-127387041D01*
X119454212Y-127363533D01*
X119459054Y-127339557D01*
X119465464Y-127316087D01*
X119473186Y-127294097D01*
X119481965Y-127274559D01*
X119491547Y-127258446D01*
X119498449Y-127249882D01*
X119503947Y-127244552D01*
X119508283Y-127241229D01*
X119509666Y-127240677D01*
X119510920Y-127243064D01*
X119511319Y-127249745D01*
X119510977Y-127257822D01*
X119510634Y-127269308D01*
X119510864Y-127284710D01*
X119511591Y-127302901D01*
X119512738Y-127322759D01*
X119514229Y-127343160D01*
X119515989Y-127362979D01*
X119517940Y-127381093D01*
X119520008Y-127396377D01*
X119520602Y-127400019D01*
X119526490Y-127429814D01*
X119533362Y-127455196D01*
X119541552Y-127476791D01*
X119551390Y-127495224D01*
X119563209Y-127511121D01*
X119577341Y-127525106D01*
X119593607Y-127537460D01*
X119609384Y-127547476D01*
X119624172Y-127555176D01*
X119640545Y-127561865D01*
X119644978Y-127563458D01*
X119650145Y-127565176D01*
X119655229Y-127566534D01*
X119660921Y-127567586D01*
X119667912Y-127568386D01*
X119676894Y-127568986D01*
X119688558Y-127569440D01*
X119703595Y-127569802D01*
X119722698Y-127570125D01*
X119733226Y-127570278D01*
X119754423Y-127570548D01*
X119771071Y-127570679D01*
X119783696Y-127570650D01*
X119792828Y-127570441D01*
X119798993Y-127570030D01*
X119802721Y-127569398D01*
X119804540Y-127568525D01*
X119804981Y-127567500D01*
X119804316Y-127564166D01*
X119802438Y-127556591D01*
X119799518Y-127545421D01*
X119795728Y-127531300D01*
X119791240Y-127514876D01*
X119786226Y-127496793D01*
X119784809Y-127491728D01*
X119769136Y-127435257D01*
X119753156Y-127376645D01*
X119737008Y-127316445D01*
X119720830Y-127255205D01*
X119704761Y-127193478D01*
X119688939Y-127131812D01*
X119673502Y-127070760D01*
X119658589Y-127010871D01*
X119644339Y-126952696D01*
X119630890Y-126896785D01*
X119618380Y-126843689D01*
X119606948Y-126793959D01*
X119596731Y-126748144D01*
X119590141Y-126717584D01*
X119585595Y-126696142D01*
X119582436Y-126706154D01*
X119580818Y-126711447D01*
X119578020Y-126720774D01*
X119574294Y-126733294D01*
X119569887Y-126748167D01*
X119565051Y-126764553D01*
X119562472Y-126773317D01*
X119544957Y-126831769D01*
X119527206Y-126888851D01*
X119509354Y-126944186D01*
X119491537Y-126997396D01*
X119473891Y-127048102D01*
X119456552Y-127095927D01*
X119439654Y-127140494D01*
X119423334Y-127181424D01*
X119407727Y-127218339D01*
X119392969Y-127250862D01*
X119385593Y-127266077D01*
X119373182Y-127290308D01*
X119358418Y-127317828D01*
X119341246Y-127348732D01*
X119321609Y-127383116D01*
X119299451Y-127421074D01*
X119274717Y-127462701D01*
X119247348Y-127508092D01*
X119217290Y-127557342D01*
X119184487Y-127610547D01*
X119148882Y-127667801D01*
X119133254Y-127692797D01*
X119109181Y-127731206D01*
X119086993Y-127766529D01*
X119066767Y-127798642D01*
X119048583Y-127827422D01*
X119032518Y-127852746D01*
X119018651Y-127874492D01*
X119007061Y-127892535D01*
X118997826Y-127906754D01*
X118991025Y-127917026D01*
X118986735Y-127923226D01*
X118985035Y-127925233D01*
X118985024Y-127925226D01*
X118984997Y-127922589D01*
X118985328Y-127915551D01*
X118985976Y-127904776D01*
X118986899Y-127890927D01*
X118988053Y-127874666D01*
X118989397Y-127856658D01*
X118989429Y-127856243D01*
X118996329Y-127758677D01*
X119002242Y-127659778D01*
X119007177Y-127559871D01*
X119011141Y-127459280D01*
X119014142Y-127358327D01*
X119015651Y-127283857D01*
X119218241Y-127283857D01*
X119219170Y-127285947D01*
X119219934Y-127285550D01*
X119220238Y-127282535D01*
X119219934Y-127282163D01*
X119218424Y-127282512D01*
X119218241Y-127283857D01*
X119015651Y-127283857D01*
X119016189Y-127257337D01*
X119017289Y-127156632D01*
X119017451Y-127056537D01*
X119016683Y-126957375D01*
X119014993Y-126859470D01*
X119012389Y-126763145D01*
X119008879Y-126668724D01*
X119004471Y-126576531D01*
X118999174Y-126486888D01*
X118992996Y-126400120D01*
X118985944Y-126316550D01*
X118978027Y-126236502D01*
X118969253Y-126160298D01*
X118959630Y-126088264D01*
X118949166Y-126020722D01*
X118942417Y-125982107D01*
X118923663Y-125888805D01*
X118901098Y-125792754D01*
X118874876Y-125694383D01*
X118845151Y-125594118D01*
X118812078Y-125492388D01*
X118775809Y-125389619D01*
X118736499Y-125286240D01*
X118694302Y-125182678D01*
X118649371Y-125079361D01*
X118601860Y-124976717D01*
X118551924Y-124875172D01*
X118525829Y-124824437D01*
X118515836Y-124805433D01*
X118505063Y-124785185D01*
X118493795Y-124764208D01*
X118482318Y-124743019D01*
X118470917Y-124722136D01*
X118459878Y-124702074D01*
X118449486Y-124683352D01*
X118440029Y-124666485D01*
X118431790Y-124651991D01*
X118425057Y-124640387D01*
X118420114Y-124632189D01*
X118417248Y-124627914D01*
X118417108Y-124627747D01*
X118414978Y-124628958D01*
X118409288Y-124632649D01*
X118400655Y-124638407D01*
X118389696Y-124645820D01*
X118377027Y-124654476D01*
X118372492Y-124657592D01*
X118357605Y-124667786D01*
X118346194Y-124675418D01*
X118337589Y-124680853D01*
X118331115Y-124684458D01*
X118326099Y-124686599D01*
X118321870Y-124687645D01*
X118317754Y-124687959D01*
X118316728Y-124687967D01*
X118303171Y-124685679D01*
X118291893Y-124679320D01*
X118283623Y-124669611D01*
X118279089Y-124657273D01*
X118278450Y-124650088D01*
X118278475Y-124646929D01*
X118278778Y-124644074D01*
X118279693Y-124641158D01*
X118281555Y-124637817D01*
X118284697Y-124633687D01*
X118289454Y-124628403D01*
X118296159Y-124621601D01*
X118305147Y-124612917D01*
X118316752Y-124601985D01*
X118331309Y-124588442D01*
X118349150Y-124571923D01*
X118355491Y-124566057D01*
X118407092Y-124516557D01*
X118444239Y-124478413D01*
X118595398Y-124478413D01*
X118596087Y-124481698D01*
X118598474Y-124486598D01*
X118602888Y-124493918D01*
X118609661Y-124504462D01*
X118611997Y-124508058D01*
X118643305Y-124557964D01*
X118675335Y-124612345D01*
X118707841Y-124670691D01*
X118740580Y-124732489D01*
X118773308Y-124797228D01*
X118805781Y-124864395D01*
X118837755Y-124933480D01*
X118868987Y-125003971D01*
X118899231Y-125075355D01*
X118928245Y-125147122D01*
X118955785Y-125218758D01*
X118972615Y-125264557D01*
X119018569Y-125397337D01*
X119059995Y-125528454D01*
X119096977Y-125658376D01*
X119129597Y-125787574D01*
X119157937Y-125916517D01*
X119182081Y-126045677D01*
X119202110Y-126175523D01*
X119218107Y-126306526D01*
X119230156Y-126439155D01*
X119238337Y-126573881D01*
X119242735Y-126711174D01*
X119243606Y-126807607D01*
X119242992Y-126893552D01*
X119241134Y-126975053D01*
X119238013Y-127052598D01*
X119233609Y-127126672D01*
X119227901Y-127197763D01*
X119226983Y-127207657D01*
X119225567Y-127222850D01*
X119224213Y-127237732D01*
X119223047Y-127250894D01*
X119222196Y-127260925D01*
X119221987Y-127263537D01*
X119221991Y-127264875D01*
X119222325Y-127264973D01*
X119223028Y-127263693D01*
X119224140Y-127260899D01*
X119225701Y-127256454D01*
X119227750Y-127250221D01*
X119230328Y-127242063D01*
X119233472Y-127231844D01*
X119237224Y-127219427D01*
X119241623Y-127204674D01*
X119246708Y-127187450D01*
X119252520Y-127167617D01*
X119259096Y-127145038D01*
X119266478Y-127119577D01*
X119274705Y-127091097D01*
X119283817Y-127059461D01*
X119293852Y-127024532D01*
X119304851Y-126986173D01*
X119316854Y-126944249D01*
X119329899Y-126898621D01*
X119344027Y-126849153D01*
X119359277Y-126795708D01*
X119375689Y-126738150D01*
X119393302Y-126676342D01*
X119412156Y-126610146D01*
X119432291Y-126539427D01*
X119453746Y-126464046D01*
X119468556Y-126412002D01*
X119480758Y-126369150D01*
X119492595Y-126327645D01*
X119503990Y-126287749D01*
X119514869Y-126249723D01*
X119525157Y-126213829D01*
X119534777Y-126180327D01*
X119543654Y-126149480D01*
X119551714Y-126121548D01*
X119558880Y-126096792D01*
X119565078Y-126075475D01*
X119570232Y-126057857D01*
X119574266Y-126044200D01*
X119577106Y-126034765D01*
X119578676Y-126029814D01*
X119578970Y-126029097D01*
X119580716Y-126031248D01*
X119584412Y-126037258D01*
X119589699Y-126046457D01*
X119596219Y-126058180D01*
X119603613Y-126071758D01*
X119611523Y-126086524D01*
X119619591Y-126101810D01*
X119627458Y-126116949D01*
X119634767Y-126131273D01*
X119641158Y-126144114D01*
X119645095Y-126152287D01*
X119668762Y-126204285D01*
X119692346Y-126259683D01*
X119715194Y-126316829D01*
X119736652Y-126374074D01*
X119756067Y-126429769D01*
X119761364Y-126445830D01*
X119774886Y-126488796D01*
X119789065Y-126536475D01*
X119803821Y-126588552D01*
X119819077Y-126644714D01*
X119834755Y-126704645D01*
X119850777Y-126768031D01*
X119867065Y-126834559D01*
X119883542Y-126903913D01*
X119900130Y-126975780D01*
X119916750Y-127049846D01*
X119933325Y-127125795D01*
X119949777Y-127203315D01*
X119953818Y-127222694D01*
X119956421Y-127234830D01*
X119958698Y-127244719D01*
X119960447Y-127251539D01*
X119961467Y-127254471D01*
X119961610Y-127254444D01*
X119962928Y-127248749D01*
X119964861Y-127238513D01*
X119967334Y-127224230D01*
X119970274Y-127206394D01*
X119973607Y-127185498D01*
X119977260Y-127162034D01*
X119981158Y-127136497D01*
X119985228Y-127109379D01*
X119989397Y-127081174D01*
X119993591Y-127052374D01*
X119997736Y-127023474D01*
X120001759Y-126994966D01*
X120005586Y-126967343D01*
X120009143Y-126941100D01*
X120012356Y-126916728D01*
X120014294Y-126901587D01*
X120031902Y-126752440D01*
X120046650Y-126606680D01*
X120058588Y-126463530D01*
X120067767Y-126322214D01*
X120074238Y-126181955D01*
X120078051Y-126041977D01*
X120079258Y-125907177D01*
X120078882Y-125825592D01*
X120077700Y-125748290D01*
X120075677Y-125674531D01*
X120072775Y-125603577D01*
X120068958Y-125534688D01*
X120064190Y-125467124D01*
X120058433Y-125400148D01*
X120051650Y-125333019D01*
X120049988Y-125317897D01*
X120033902Y-125192993D01*
X120013490Y-125067469D01*
X119988882Y-124941695D01*
X119960208Y-124816040D01*
X119927598Y-124690875D01*
X119891182Y-124566568D01*
X119851089Y-124443491D01*
X119807450Y-124322013D01*
X119760394Y-124202504D01*
X119710052Y-124085334D01*
X119656553Y-123970873D01*
X119600028Y-123859491D01*
X119540605Y-123751558D01*
X119478416Y-123647443D01*
X119456391Y-123612813D01*
X119988140Y-123612813D01*
X119990862Y-123617854D01*
X119996395Y-123625618D01*
X119998370Y-123628162D01*
X120047658Y-123690948D01*
X120099359Y-123757282D01*
X120153018Y-123826561D01*
X120208177Y-123898185D01*
X120264383Y-123971552D01*
X120321180Y-124046061D01*
X120378111Y-124121111D01*
X120434722Y-124196102D01*
X120490557Y-124270431D01*
X120545160Y-124343498D01*
X120598076Y-124414702D01*
X120648849Y-124483441D01*
X120697023Y-124549114D01*
X120715868Y-124574947D01*
X120781106Y-124664898D01*
X120843234Y-124751353D01*
X120902473Y-124834652D01*
X120959043Y-124915137D01*
X121013162Y-124993149D01*
X121065050Y-125069030D01*
X121114926Y-125143120D01*
X121163010Y-125215762D01*
X121209521Y-125287296D01*
X121254678Y-125358064D01*
X121298701Y-125428408D01*
X121341809Y-125498667D01*
X121384222Y-125569185D01*
X121426159Y-125640301D01*
X121467838Y-125712358D01*
X121509481Y-125785697D01*
X121551305Y-125860658D01*
X121593531Y-125937585D01*
X121603928Y-125956707D01*
X121665392Y-126071494D01*
X121727516Y-126190513D01*
X121789974Y-126313071D01*
X121852443Y-126438474D01*
X121914598Y-126566027D01*
X121976115Y-126695038D01*
X122036668Y-126824811D01*
X122095935Y-126954654D01*
X122153590Y-127083871D01*
X122209309Y-127211770D01*
X122262767Y-127337657D01*
X122313640Y-127460837D01*
X122353007Y-127558851D01*
X122358601Y-127572844D01*
X122363558Y-127585002D01*
X122367581Y-127594618D01*
X122370374Y-127600986D01*
X122371640Y-127603397D01*
X122371671Y-127603394D01*
X122372127Y-127600740D01*
X122372947Y-127593865D01*
X122374040Y-127583610D01*
X122375317Y-127570812D01*
X122376396Y-127559447D01*
X122384069Y-127458957D01*
X122388739Y-127355392D01*
X122390400Y-127249780D01*
X122389049Y-127143145D01*
X122384681Y-127036514D01*
X122379149Y-126953657D01*
X122369497Y-126851363D01*
X122356765Y-126750938D01*
X122341038Y-126652838D01*
X122322399Y-126557516D01*
X122300933Y-126465428D01*
X122276725Y-126377029D01*
X122264685Y-126337707D01*
X122257099Y-126314376D01*
X122248694Y-126289731D01*
X122239315Y-126263356D01*
X122228802Y-126234836D01*
X122216998Y-126203756D01*
X122203745Y-126169700D01*
X122188886Y-126132254D01*
X122172264Y-126091003D01*
X122153750Y-126045607D01*
X122117344Y-125957896D01*
X122081140Y-125872901D01*
X122045238Y-125790831D01*
X122009739Y-125711892D01*
X121974742Y-125636292D01*
X121940348Y-125564237D01*
X121906655Y-125495934D01*
X121873765Y-125431591D01*
X121841777Y-125371415D01*
X121810790Y-125315614D01*
X121780905Y-125264393D01*
X121762537Y-125234328D01*
X121754106Y-125220661D01*
X121748119Y-125210544D01*
X121744243Y-125203271D01*
X121742144Y-125198140D01*
X121741489Y-125194447D01*
X121741944Y-125191487D01*
X121742057Y-125191148D01*
X121744017Y-125186821D01*
X121746616Y-125184232D01*
X121750304Y-125183591D01*
X121755535Y-125185104D01*
X121762761Y-125188980D01*
X121772434Y-125195426D01*
X121785006Y-125204651D01*
X121800929Y-125216863D01*
X121805210Y-125220192D01*
X121896773Y-125292623D01*
X121983923Y-125363916D01*
X122067077Y-125434497D01*
X122146656Y-125504797D01*
X122223078Y-125575244D01*
X122296760Y-125646267D01*
X122368122Y-125718294D01*
X122437582Y-125791755D01*
X122505559Y-125867078D01*
X122572472Y-125944692D01*
X122638738Y-126025026D01*
X122704777Y-126108508D01*
X122771008Y-126195567D01*
X122813303Y-126252832D01*
X122819946Y-126261768D01*
X122825203Y-126268536D01*
X122828553Y-126272487D01*
X122829476Y-126272974D01*
X122829464Y-126272937D01*
X122826361Y-126264652D01*
X122821427Y-126252390D01*
X122814941Y-126236793D01*
X122807183Y-126218505D01*
X122798434Y-126198167D01*
X122788972Y-126176424D01*
X122779079Y-126153917D01*
X122769034Y-126131290D01*
X122759118Y-126109185D01*
X122749610Y-126088245D01*
X122740790Y-126069112D01*
X122738852Y-126064958D01*
X122729894Y-126046080D01*
X122719004Y-126023586D01*
X122706624Y-125998352D01*
X122693193Y-125971255D01*
X122679152Y-125943171D01*
X122664941Y-125914975D01*
X122651001Y-125887544D01*
X122637773Y-125861755D01*
X122625696Y-125838483D01*
X122615211Y-125818606D01*
X122612332Y-125813233D01*
X122535772Y-125675591D01*
X122456447Y-125542063D01*
X122374386Y-125412685D01*
X122289614Y-125287494D01*
X122202156Y-125166528D01*
X122112039Y-125049823D01*
X122019290Y-124937417D01*
X121923933Y-124829346D01*
X121911073Y-124815320D01*
X121882945Y-124785340D01*
X121851679Y-124753009D01*
X121818110Y-124719141D01*
X121783075Y-124684550D01*
X121747408Y-124650048D01*
X121711947Y-124616449D01*
X121677526Y-124584567D01*
X121644981Y-124555215D01*
X121632792Y-124544467D01*
X121522761Y-124451222D01*
X121409006Y-124360816D01*
X121291886Y-124273466D01*
X121171760Y-124189391D01*
X121048987Y-124108810D01*
X120923925Y-124031942D01*
X120796934Y-123959006D01*
X120668373Y-123890220D01*
X120538601Y-123825803D01*
X120407976Y-123765975D01*
X120276857Y-123710953D01*
X120244401Y-123698114D01*
X120225093Y-123690695D01*
X120203811Y-123682737D01*
X120181085Y-123674421D01*
X120157448Y-123665929D01*
X120133431Y-123657441D01*
X120109565Y-123649138D01*
X120086384Y-123641202D01*
X120064417Y-123633813D01*
X120044197Y-123627152D01*
X120026257Y-123621401D01*
X120011126Y-123616740D01*
X119999338Y-123613350D01*
X119991424Y-123611412D01*
X119988528Y-123611016D01*
X119988140Y-123612813D01*
X119456391Y-123612813D01*
X119444748Y-123594507D01*
X119392386Y-123517770D01*
X119370200Y-123487421D01*
X119352849Y-123464155D01*
X119320027Y-123456217D01*
X119291623Y-123450032D01*
X119261169Y-123444599D01*
X119230700Y-123440236D01*
X119202253Y-123437257D01*
X119193426Y-123436617D01*
X119181702Y-123435932D01*
X119174005Y-123435120D01*
X119169323Y-123433398D01*
X119166648Y-123429979D01*
X119164968Y-123424079D01*
X119163273Y-123414913D01*
X119162896Y-123412897D01*
X119160728Y-123401467D01*
X119153787Y-123424327D01*
X119150592Y-123434853D01*
X119146371Y-123448770D01*
X119141569Y-123464609D01*
X119136632Y-123480898D01*
X119134147Y-123489097D01*
X119113085Y-123557066D01*
X119091849Y-123622577D01*
X119070559Y-123685310D01*
X119049335Y-123744943D01*
X119028297Y-123801156D01*
X119007564Y-123853628D01*
X118987257Y-123902039D01*
X118967495Y-123946068D01*
X118948632Y-123984935D01*
X118929326Y-124020973D01*
X118906477Y-124060040D01*
X118880334Y-124101784D01*
X118851143Y-124145853D01*
X118819154Y-124191894D01*
X118784613Y-124239556D01*
X118747771Y-124288486D01*
X118708873Y-124338332D01*
X118668169Y-124388742D01*
X118642482Y-124419710D01*
X118631099Y-124433310D01*
X118620595Y-124445893D01*
X118611479Y-124456846D01*
X118604259Y-124465557D01*
X118599444Y-124471413D01*
X118597789Y-124473471D01*
X118596075Y-124475939D01*
X118595398Y-124478413D01*
X118444239Y-124478413D01*
X118458037Y-124464245D01*
X118507952Y-124409616D01*
X118556465Y-124353167D01*
X118603201Y-124295393D01*
X118647788Y-124236790D01*
X118689852Y-124177854D01*
X118729021Y-124119081D01*
X118764922Y-124060967D01*
X118797180Y-124004008D01*
X118825423Y-123948699D01*
X118834307Y-123929787D01*
X118867800Y-123851483D01*
X118898224Y-123769485D01*
X118925487Y-123684214D01*
X118949497Y-123596093D01*
X118970161Y-123505545D01*
X118987386Y-123412991D01*
X119001080Y-123318854D01*
X119011151Y-123223556D01*
X119017506Y-123127520D01*
X119019061Y-123086507D01*
X119019436Y-123066724D01*
X119019551Y-123042568D01*
X119019427Y-123014739D01*
X119019081Y-122983936D01*
X119018535Y-122950857D01*
X119017806Y-122916203D01*
X119016914Y-122880673D01*
X119015879Y-122844965D01*
X119014719Y-122809780D01*
X119013454Y-122775817D01*
X119012104Y-122743775D01*
X119010687Y-122714354D01*
X119009223Y-122688252D01*
X119007731Y-122666170D01*
X119007331Y-122661057D01*
X119002883Y-122615091D01*
X118997356Y-122574008D01*
X118990721Y-122537724D01*
X118982951Y-122506150D01*
X118974016Y-122479200D01*
X118963888Y-122456789D01*
X118952539Y-122438829D01*
X118939940Y-122425235D01*
X118926491Y-122416134D01*
X118904134Y-122406922D01*
X118877327Y-122399551D01*
X118846347Y-122394014D01*
X118811475Y-122390299D01*
X118772991Y-122388400D01*
X118731172Y-122388305D01*
X118686300Y-122390007D01*
X118638653Y-122393496D01*
X118588510Y-122398762D01*
X118536152Y-122405798D01*
X118481858Y-122414593D01*
X118425907Y-122425139D01*
X118384657Y-122433832D01*
X118273238Y-122460597D01*
X118160730Y-122492064D01*
X118047523Y-122528072D01*
X117934004Y-122568461D01*
X117820562Y-122613071D01*
X117707583Y-122661744D01*
X117595456Y-122714317D01*
X117484569Y-122770633D01*
X117375311Y-122830531D01*
X117268068Y-122893851D01*
X117267521Y-122894186D01*
X117247848Y-122906435D01*
X117225103Y-122920929D01*
X117200250Y-122937030D01*
X117174248Y-122954099D01*
X117148061Y-122971499D01*
X117122650Y-122988592D01*
X117098976Y-123004739D01*
X117078003Y-123019303D01*
X117065591Y-123028109D01*
X116964812Y-123103113D01*
X116867364Y-123181107D01*
X116773131Y-123262230D01*
X116681995Y-123346619D01*
X116593839Y-123434411D01*
X116508548Y-123525745D01*
X116426004Y-123620757D01*
X116346091Y-123719585D01*
X116268692Y-123822366D01*
X116193690Y-123929238D01*
X116120969Y-124040339D01*
X116050411Y-124155805D01*
X115981901Y-124275774D01*
X115938940Y-124355237D01*
X115917350Y-124396710D01*
X115894610Y-124441665D01*
X115871098Y-124489287D01*
X115847193Y-124538762D01*
X115823275Y-124589276D01*
X115799721Y-124640016D01*
X115776912Y-124690168D01*
X115755225Y-124738918D01*
X115735040Y-124785452D01*
X115716737Y-124828956D01*
X115705327Y-124856968D01*
X115682237Y-124919287D01*
X115661865Y-124984350D01*
X115644198Y-125052293D01*
X115629225Y-125123254D01*
X115616934Y-125197366D01*
X115607313Y-125274767D01*
X115600351Y-125355591D01*
X115596036Y-125439975D01*
X115594357Y-125528055D01*
X115247744Y-125528055D01*
X115264524Y-125473039D01*
X115310133Y-125337524D01*
X115360010Y-125202082D01*
X115414238Y-125066469D01*
X115472904Y-124930440D01*
X115536092Y-124793751D01*
X115603887Y-124656158D01*
X115676374Y-124517417D01*
X115728738Y-124421665D01*
X115810683Y-124278141D01*
X115894299Y-124139005D01*
X115979553Y-124004297D01*
X116066414Y-123874056D01*
X116154848Y-123748320D01*
X116244824Y-123627131D01*
X116336309Y-123510525D01*
X116429269Y-123398544D01*
X116523674Y-123291226D01*
X116619491Y-123188610D01*
X116716686Y-123090736D01*
X116815228Y-122997643D01*
X116915085Y-122909371D01*
X117016223Y-122825958D01*
X117098611Y-122762322D01*
X117183183Y-122700755D01*
X117267000Y-122643453D01*
X117350938Y-122589871D01*
X117435877Y-122539464D01*
X117522693Y-122491688D01*
X117592641Y-122455716D01*
X117698641Y-122405334D01*
X117804718Y-122360011D01*
X117910947Y-122319727D01*
X118017401Y-122284460D01*
X118124154Y-122254192D01*
X118231280Y-122228900D01*
X118338854Y-122208565D01*
X118446948Y-122193166D01*
X118555639Y-122182681D01*
X118579387Y-122181048D01*
X118595775Y-122180233D01*
X118616244Y-122179581D01*
X118639879Y-122179091D01*
X118665766Y-122178764D01*
X118692990Y-122178600D01*
X118720637Y-122178599D01*
X118747793Y-122178761D01*
G37*
D12*
X127030000Y-74830000D03*
D13*
X117030000Y-72830000D03*
D14*
X119030000Y-72830000D03*
X121030000Y-72830000D03*
X123030000Y-72830000D03*
X125030000Y-72830000D03*
X127030000Y-72830000D03*
X129030000Y-72830000D03*
X131030000Y-72830000D03*
X133030000Y-72830000D03*
X135030000Y-72830000D03*
X137030000Y-72830000D03*
X139030000Y-72830000D03*
X141030000Y-72830000D03*
X143030000Y-72830000D03*
X145030000Y-72830000D03*
X147030000Y-72830000D03*
X149030000Y-72830000D03*
X151030000Y-72830000D03*
X153030000Y-72830000D03*
X155030000Y-72830000D03*
X117030000Y-74830000D03*
X119030000Y-74830000D03*
X121030000Y-74830000D03*
X123030000Y-74830000D03*
X125030000Y-74830000D03*
X129030000Y-74830000D03*
X131030000Y-74830000D03*
X133030000Y-74830000D03*
X135030000Y-74830000D03*
X137030000Y-74830000D03*
X139030000Y-74830000D03*
X141030000Y-74830000D03*
X143030000Y-74830000D03*
X145030000Y-74830000D03*
X147030000Y-74830000D03*
X149030000Y-74830000D03*
X151030000Y-74830000D03*
X153030000Y-74830000D03*
X155030000Y-74830000D03*
X117030000Y-76830000D03*
X119030000Y-76830000D03*
X121030000Y-76830000D03*
X123030000Y-76830000D03*
X125030000Y-76830000D03*
X127030000Y-76830000D03*
X129030000Y-76830000D03*
X131030000Y-76830000D03*
X133030000Y-76830000D03*
X135030000Y-76830000D03*
X137030000Y-76830000D03*
X139030000Y-76830000D03*
X141030000Y-76830000D03*
X143030000Y-76830000D03*
X145030000Y-76830000D03*
X147030000Y-76830000D03*
X149030000Y-76830000D03*
X151030000Y-76830000D03*
X153030000Y-76830000D03*
X155030000Y-76830000D03*
X117030000Y-78830000D03*
X119030000Y-78830000D03*
X121030000Y-78830000D03*
X123030000Y-78830000D03*
X125030000Y-78830000D03*
X127030000Y-78830000D03*
X129030000Y-78830000D03*
X131030000Y-78830000D03*
X133030000Y-78830000D03*
X135030000Y-78830000D03*
X137030000Y-78830000D03*
X139030000Y-78830000D03*
X141030000Y-78830000D03*
X143030000Y-78830000D03*
X145030000Y-78830000D03*
X147030000Y-78830000D03*
X149030000Y-78830000D03*
X151030000Y-78830000D03*
X153030000Y-78830000D03*
X155030000Y-78830000D03*
D15*
X168145000Y-101393712D03*
X167495000Y-101393712D03*
X166845000Y-101393712D03*
X166195000Y-101393712D03*
X165545000Y-101393712D03*
X164895000Y-101393712D03*
X164245000Y-101393712D03*
X163595000Y-101393712D03*
X162945000Y-101393712D03*
X162295000Y-101393712D03*
X161645000Y-101393712D03*
X160995000Y-101393712D03*
X160345000Y-101393712D03*
X159695000Y-101393712D03*
X159045000Y-101393712D03*
X158395000Y-101393712D03*
X157745000Y-101393712D03*
X157095000Y-101393712D03*
X156445000Y-101393712D03*
X155795000Y-101393712D03*
X155145000Y-101393712D03*
X154495000Y-101393712D03*
X153845000Y-101393712D03*
X153195000Y-101393712D03*
X152545000Y-101393712D03*
X151895000Y-101393712D03*
X151245000Y-101393712D03*
X150595000Y-101393712D03*
X149945000Y-101393712D03*
X149295000Y-101393712D03*
D16*
X147595000Y-103343712D03*
X147595000Y-103993712D03*
X147595000Y-104643712D03*
X147595000Y-105293712D03*
X147595000Y-105943712D03*
X147595000Y-106593712D03*
X147595000Y-107243712D03*
X147595000Y-107893712D03*
X147595000Y-108543712D03*
X147595000Y-109193712D03*
X147595000Y-109843712D03*
X147595000Y-110493712D03*
X147595000Y-111143712D03*
X147595000Y-111793712D03*
X147595000Y-112443712D03*
X147595000Y-113093712D03*
X147595000Y-113743712D03*
X147595000Y-114393712D03*
X147595000Y-115043712D03*
X147595000Y-115693712D03*
D15*
X149295000Y-117643712D03*
X149945000Y-117643712D03*
X150595000Y-117643712D03*
X151245000Y-117643712D03*
X151895000Y-117643712D03*
X152545000Y-117643712D03*
X153195000Y-117643712D03*
X153845000Y-117643712D03*
X154495000Y-117643712D03*
X155145000Y-117643712D03*
X155795000Y-117643712D03*
X156445000Y-117643712D03*
X157095000Y-117643712D03*
X157745000Y-117643712D03*
X158395000Y-117643712D03*
X159045000Y-117643712D03*
X159695000Y-117643712D03*
X160345000Y-117643712D03*
X160995000Y-117643712D03*
X161645000Y-117643712D03*
X162295000Y-117643712D03*
X162945000Y-117643712D03*
X163595000Y-117643712D03*
X164245000Y-117643712D03*
X164895000Y-117643712D03*
X165545000Y-117643712D03*
X166195000Y-117643712D03*
X166845000Y-117643712D03*
X167495000Y-117643712D03*
X168145000Y-117643712D03*
D16*
X169845000Y-115693712D03*
X169845000Y-115043712D03*
X169845000Y-114393712D03*
X169845000Y-113743712D03*
X169845000Y-113093712D03*
X169845000Y-112443712D03*
X169845000Y-111793712D03*
X169845000Y-111143712D03*
X169845000Y-110493712D03*
X169845000Y-109843712D03*
X169845000Y-109193712D03*
X169845000Y-108543712D03*
X169845000Y-107893712D03*
X169845000Y-107243712D03*
X169845000Y-106593712D03*
X169845000Y-105943712D03*
X169845000Y-105293712D03*
X169845000Y-104643712D03*
X169845000Y-103993712D03*
X169845000Y-103343712D03*
D17*
X165544999Y-120523710D03*
X165544999Y-122248710D03*
X154495000Y-120521210D03*
X154495000Y-122246210D03*
X173045000Y-105941212D03*
X173045000Y-107666212D03*
X144415000Y-105941211D03*
X144415000Y-107666211D03*
D18*
X163595001Y-98276211D03*
X163595001Y-96551211D03*
X167495001Y-98276210D03*
X167495001Y-96551210D03*
X159375000Y-98276209D03*
X159375000Y-96551209D03*
D17*
X159045000Y-120521211D03*
X159045000Y-122246211D03*
D12*
X136530000Y-134810000D03*
D13*
X126530000Y-130810000D03*
D14*
X128530000Y-130810000D03*
X130530000Y-130810000D03*
X132530000Y-130810000D03*
X134530000Y-130810000D03*
X136530000Y-130810000D03*
X138530000Y-130810000D03*
X140530000Y-130810000D03*
X142530000Y-130810000D03*
X144530000Y-130810000D03*
X146530000Y-130810000D03*
X148530000Y-130810000D03*
X150530000Y-130810000D03*
X152530000Y-130810000D03*
X154530000Y-130810000D03*
X156530000Y-130810000D03*
X158530000Y-130810000D03*
X160530000Y-130810000D03*
X162530000Y-130810000D03*
X164530000Y-130810000D03*
X126530000Y-132810000D03*
X128530000Y-132810000D03*
X130530000Y-132810000D03*
X132530000Y-132810000D03*
X134530000Y-132810000D03*
X136530000Y-132810000D03*
X138530000Y-132810000D03*
X140530000Y-132810000D03*
X142530000Y-132810000D03*
X144530000Y-132810000D03*
X146530000Y-132810000D03*
X148530000Y-132810000D03*
X150530000Y-132810000D03*
X152530000Y-132810000D03*
X154530000Y-132810000D03*
X156530000Y-132810000D03*
X158530000Y-132810000D03*
X160530000Y-132810000D03*
X162530000Y-132810000D03*
X164530000Y-132810000D03*
X126530000Y-134810000D03*
X128530000Y-134810000D03*
X130530000Y-134810000D03*
X132530000Y-134810000D03*
X134530000Y-134810000D03*
X138530000Y-134810000D03*
X140530000Y-134810000D03*
X142530000Y-134810000D03*
X144530000Y-134810000D03*
X146530000Y-134810000D03*
X148530000Y-134810000D03*
X150530000Y-134810000D03*
X152530000Y-134810000D03*
X154530000Y-134810000D03*
X156530000Y-134810000D03*
X158530000Y-134810000D03*
X160530000Y-134810000D03*
X162530000Y-134810000D03*
X164530000Y-134810000D03*
X126530000Y-136810000D03*
X128530000Y-136810000D03*
X130530000Y-136810000D03*
X132530000Y-136810000D03*
X134530000Y-136810000D03*
X136530000Y-136810000D03*
X138530000Y-136810000D03*
X140530000Y-136810000D03*
X142530000Y-136810000D03*
X144530000Y-136810000D03*
X146530000Y-136810000D03*
X148530000Y-136810000D03*
X150530000Y-136810000D03*
X152530000Y-136810000D03*
X154530000Y-136810000D03*
X156530000Y-136810000D03*
X158530000Y-136810000D03*
X160530000Y-136810000D03*
X162530000Y-136810000D03*
X164530000Y-136810000D03*
D19*
X140800000Y-90930000D03*
D20*
X138260000Y-88390000D03*
X140800000Y-88390000D03*
X138260000Y-85850000D03*
X140800000Y-83310000D03*
X140800000Y-85850000D03*
X143340000Y-83310000D03*
X143340000Y-85850000D03*
X145880000Y-83310000D03*
X145880000Y-85850000D03*
X148420000Y-83310000D03*
X148420000Y-85850000D03*
X150960000Y-83310000D03*
X153500000Y-85850000D03*
X150960000Y-85850000D03*
X153500000Y-88390000D03*
X150960000Y-88390000D03*
X153500000Y-90930000D03*
X150960000Y-90930000D03*
X153500000Y-93470000D03*
X150960000Y-96010000D03*
X150960000Y-93470000D03*
X148420000Y-96010000D03*
X148420000Y-93470000D03*
X145880000Y-96010000D03*
X145880000Y-93470000D03*
X143340000Y-96010000D03*
X143340000Y-93470000D03*
X140800000Y-96010000D03*
X138260000Y-93470000D03*
X140800000Y-93470000D03*
X138260000Y-90930000D03*
M02*
