G04 #@! TF.GenerationSoftware,KiCad,Pcbnew,7.0.6-0*
G04 #@! TF.CreationDate,2023-08-16T20:57:49-04:00*
G04 #@! TF.ProjectId,Compaq S3 Virge GX VRAM Addon Board,436f6d70-6171-4205-9333-205669726765,1*
G04 #@! TF.SameCoordinates,Original*
G04 #@! TF.FileFunction,Soldermask,Bot*
G04 #@! TF.FilePolarity,Negative*
%FSLAX46Y46*%
G04 Gerber Fmt 4.6, Leading zero omitted, Abs format (unit mm)*
G04 Created by KiCad (PCBNEW 7.0.6-0) date 2023-08-16 20:57:49*
%MOMM*%
%LPD*%
G01*
G04 APERTURE LIST*
G04 Aperture macros list*
%AMRoundRect*
0 Rectangle with rounded corners*
0 $1 Rounding radius*
0 $2 $3 $4 $5 $6 $7 $8 $9 X,Y pos of 4 corners*
0 Add a 4 corners polygon primitive as box body*
4,1,4,$2,$3,$4,$5,$6,$7,$8,$9,$2,$3,0*
0 Add four circle primitives for the rounded corners*
1,1,$1+$1,$2,$3*
1,1,$1+$1,$4,$5*
1,1,$1+$1,$6,$7*
1,1,$1+$1,$8,$9*
0 Add four rect primitives between the rounded corners*
20,1,$1+$1,$2,$3,$4,$5,0*
20,1,$1+$1,$4,$5,$6,$7,0*
20,1,$1+$1,$6,$7,$8,$9,0*
20,1,$1+$1,$8,$9,$2,$3,0*%
G04 Aperture macros list end*
%ADD10C,0.901600*%
%ADD11RoundRect,0.050800X-0.675000X-0.675000X0.675000X-0.675000X0.675000X0.675000X-0.675000X0.675000X0*%
%ADD12C,1.451600*%
%ADD13RoundRect,0.050800X-0.711200X0.711200X-0.711200X-0.711200X0.711200X-0.711200X0.711200X0.711200X0*%
%ADD14C,1.524000*%
%ADD15RoundRect,0.150800X-0.100000X0.775000X-0.100000X-0.775000X0.100000X-0.775000X0.100000X0.775000X0*%
%ADD16RoundRect,0.150800X-0.775000X0.100000X-0.775000X-0.100000X0.775000X-0.100000X0.775000X0.100000X0*%
%ADD17RoundRect,0.288300X-0.237500X0.300000X-0.237500X-0.300000X0.237500X-0.300000X0.237500X0.300000X0*%
%ADD18RoundRect,0.288300X0.237500X-0.300000X0.237500X0.300000X-0.237500X0.300000X-0.237500X-0.300000X0*%
G04 APERTURE END LIST*
D10*
X127030000Y-74830000D03*
D11*
X117030000Y-72830000D03*
D12*
X119030000Y-72830000D03*
X121030000Y-72830000D03*
X123030000Y-72830000D03*
X125030000Y-72830000D03*
X127030000Y-72830000D03*
X129030000Y-72830000D03*
X131030000Y-72830000D03*
X133030000Y-72830000D03*
X135030000Y-72830000D03*
X137030000Y-72830000D03*
X139030000Y-72830000D03*
X141030000Y-72830000D03*
X143030000Y-72830000D03*
X145030000Y-72830000D03*
X147030000Y-72830000D03*
X149030000Y-72830000D03*
X151030000Y-72830000D03*
X153030000Y-72830000D03*
X155030000Y-72830000D03*
X117030000Y-74830000D03*
X119030000Y-74830000D03*
X121030000Y-74830000D03*
X123030000Y-74830000D03*
X125030000Y-74830000D03*
X129030000Y-74830000D03*
X131030000Y-74830000D03*
X133030000Y-74830000D03*
X135030000Y-74830000D03*
X137030000Y-74830000D03*
X139030000Y-74830000D03*
X141030000Y-74830000D03*
X143030000Y-74830000D03*
X145030000Y-74830000D03*
X147030000Y-74830000D03*
X149030000Y-74830000D03*
X151030000Y-74830000D03*
X153030000Y-74830000D03*
X155030000Y-74830000D03*
X117030000Y-76830000D03*
X119030000Y-76830000D03*
X121030000Y-76830000D03*
X123030000Y-76830000D03*
X125030000Y-76830000D03*
X127030000Y-76830000D03*
X129030000Y-76830000D03*
X131030000Y-76830000D03*
X133030000Y-76830000D03*
X135030000Y-76830000D03*
X137030000Y-76830000D03*
X139030000Y-76830000D03*
X141030000Y-76830000D03*
X143030000Y-76830000D03*
X145030000Y-76830000D03*
X147030000Y-76830000D03*
X149030000Y-76830000D03*
X151030000Y-76830000D03*
X153030000Y-76830000D03*
X155030000Y-76830000D03*
X117030000Y-78830000D03*
X119030000Y-78830000D03*
X121030000Y-78830000D03*
X123030000Y-78830000D03*
X125030000Y-78830000D03*
X127030000Y-78830000D03*
X129030000Y-78830000D03*
X131030000Y-78830000D03*
X133030000Y-78830000D03*
X135030000Y-78830000D03*
X137030000Y-78830000D03*
X139030000Y-78830000D03*
X141030000Y-78830000D03*
X143030000Y-78830000D03*
X145030000Y-78830000D03*
X147030000Y-78830000D03*
X149030000Y-78830000D03*
X151030000Y-78830000D03*
X153030000Y-78830000D03*
X155030000Y-78830000D03*
D10*
X136530000Y-134810000D03*
D11*
X126530000Y-130810000D03*
D12*
X128530000Y-130810000D03*
X130530000Y-130810000D03*
X132530000Y-130810000D03*
X134530000Y-130810000D03*
X136530000Y-130810000D03*
X138530000Y-130810000D03*
X140530000Y-130810000D03*
X142530000Y-130810000D03*
X144530000Y-130810000D03*
X146530000Y-130810000D03*
X148530000Y-130810000D03*
X150530000Y-130810000D03*
X152530000Y-130810000D03*
X154530000Y-130810000D03*
X156530000Y-130810000D03*
X158530000Y-130810000D03*
X160530000Y-130810000D03*
X162530000Y-130810000D03*
X164530000Y-130810000D03*
X126530000Y-132810000D03*
X128530000Y-132810000D03*
X130530000Y-132810000D03*
X132530000Y-132810000D03*
X134530000Y-132810000D03*
X136530000Y-132810000D03*
X138530000Y-132810000D03*
X140530000Y-132810000D03*
X142530000Y-132810000D03*
X144530000Y-132810000D03*
X146530000Y-132810000D03*
X148530000Y-132810000D03*
X150530000Y-132810000D03*
X152530000Y-132810000D03*
X154530000Y-132810000D03*
X156530000Y-132810000D03*
X158530000Y-132810000D03*
X160530000Y-132810000D03*
X162530000Y-132810000D03*
X164530000Y-132810000D03*
X126530000Y-134810000D03*
X128530000Y-134810000D03*
X130530000Y-134810000D03*
X132530000Y-134810000D03*
X134530000Y-134810000D03*
X138530000Y-134810000D03*
X140530000Y-134810000D03*
X142530000Y-134810000D03*
X144530000Y-134810000D03*
X146530000Y-134810000D03*
X148530000Y-134810000D03*
X150530000Y-134810000D03*
X152530000Y-134810000D03*
X154530000Y-134810000D03*
X156530000Y-134810000D03*
X158530000Y-134810000D03*
X160530000Y-134810000D03*
X162530000Y-134810000D03*
X164530000Y-134810000D03*
X126530000Y-136810000D03*
X128530000Y-136810000D03*
X130530000Y-136810000D03*
X132530000Y-136810000D03*
X134530000Y-136810000D03*
X136530000Y-136810000D03*
X138530000Y-136810000D03*
X140530000Y-136810000D03*
X142530000Y-136810000D03*
X144530000Y-136810000D03*
X146530000Y-136810000D03*
X148530000Y-136810000D03*
X150530000Y-136810000D03*
X152530000Y-136810000D03*
X154530000Y-136810000D03*
X156530000Y-136810000D03*
X158530000Y-136810000D03*
X160530000Y-136810000D03*
X162530000Y-136810000D03*
X164530000Y-136810000D03*
D13*
X140800000Y-90930000D03*
D14*
X138260000Y-88390000D03*
X140800000Y-88390000D03*
X138260000Y-85850000D03*
X140800000Y-83310000D03*
X140800000Y-85850000D03*
X143340000Y-83310000D03*
X143340000Y-85850000D03*
X145880000Y-83310000D03*
X145880000Y-85850000D03*
X148420000Y-83310000D03*
X148420000Y-85850000D03*
X150960000Y-83310000D03*
X153500000Y-85850000D03*
X150960000Y-85850000D03*
X153500000Y-88390000D03*
X150960000Y-88390000D03*
X153500000Y-90930000D03*
X150960000Y-90930000D03*
X153500000Y-93470000D03*
X150960000Y-96010000D03*
X150960000Y-93470000D03*
X148420000Y-96010000D03*
X148420000Y-93470000D03*
X145880000Y-96010000D03*
X145880000Y-93470000D03*
X143340000Y-96010000D03*
X143340000Y-93470000D03*
X140800000Y-96010000D03*
X138260000Y-93470000D03*
X140800000Y-93470000D03*
X138260000Y-90930000D03*
D15*
X114331857Y-101394959D03*
X114981857Y-101394959D03*
X115631857Y-101394959D03*
X116281857Y-101394959D03*
X116931857Y-101394959D03*
X117581857Y-101394959D03*
X118231857Y-101394959D03*
X118881857Y-101394959D03*
X119531857Y-101394959D03*
X120181857Y-101394959D03*
X120831857Y-101394959D03*
X121481857Y-101394959D03*
X122131857Y-101394959D03*
X122781857Y-101394959D03*
X123431857Y-101394959D03*
X124081857Y-101394959D03*
X124731857Y-101394959D03*
X125381857Y-101394959D03*
X126031857Y-101394959D03*
X126681857Y-101394959D03*
X127331857Y-101394959D03*
X127981857Y-101394959D03*
X128631857Y-101394959D03*
X129281857Y-101394959D03*
X129931857Y-101394959D03*
X130581857Y-101394959D03*
X131231857Y-101394959D03*
X131881857Y-101394959D03*
X132531857Y-101394959D03*
X133181857Y-101394959D03*
D16*
X134881857Y-103344959D03*
X134881857Y-103994959D03*
X134881857Y-104644959D03*
X134881857Y-105294959D03*
X134881857Y-105944959D03*
X134881857Y-106594959D03*
X134881857Y-107244959D03*
X134881857Y-107894959D03*
X134881857Y-108544959D03*
X134881857Y-109194959D03*
X134881857Y-109844959D03*
X134881857Y-110494959D03*
X134881857Y-111144959D03*
X134881857Y-111794959D03*
X134881857Y-112444959D03*
X134881857Y-113094959D03*
X134881857Y-113744959D03*
X134881857Y-114394959D03*
X134881857Y-115044959D03*
X134881857Y-115694959D03*
D15*
X133181857Y-117644959D03*
X132531857Y-117644959D03*
X131881857Y-117644959D03*
X131231857Y-117644959D03*
X130581857Y-117644959D03*
X129931857Y-117644959D03*
X129281857Y-117644959D03*
X128631857Y-117644959D03*
X127981857Y-117644959D03*
X127331857Y-117644959D03*
X126681857Y-117644959D03*
X126031857Y-117644959D03*
X125381857Y-117644959D03*
X124731857Y-117644959D03*
X124081857Y-117644959D03*
X123431857Y-117644959D03*
X122781857Y-117644959D03*
X122131857Y-117644959D03*
X121481857Y-117644959D03*
X120831857Y-117644959D03*
X120181857Y-117644959D03*
X119531857Y-117644959D03*
X118881857Y-117644959D03*
X118231857Y-117644959D03*
X117581857Y-117644959D03*
X116931857Y-117644959D03*
X116281857Y-117644959D03*
X115631857Y-117644959D03*
X114981857Y-117644959D03*
X114331857Y-117644959D03*
D16*
X112631857Y-115694959D03*
X112631857Y-115044959D03*
X112631857Y-114394959D03*
X112631857Y-113744959D03*
X112631857Y-113094959D03*
X112631857Y-112444959D03*
X112631857Y-111794959D03*
X112631857Y-111144959D03*
X112631857Y-110494959D03*
X112631857Y-109844959D03*
X112631857Y-109194959D03*
X112631857Y-108544959D03*
X112631857Y-107894959D03*
X112631857Y-107244959D03*
X112631857Y-106594959D03*
X112631857Y-105944959D03*
X112631857Y-105294959D03*
X112631857Y-104644959D03*
X112631857Y-103994959D03*
X112631857Y-103344959D03*
D17*
X138151857Y-105942459D03*
X138151857Y-107667459D03*
D18*
X114971857Y-98277459D03*
X114971857Y-96552459D03*
X123111857Y-98277459D03*
X123111857Y-96552459D03*
D17*
X116931857Y-120522459D03*
X116931857Y-122247459D03*
X123441857Y-120514959D03*
X123441857Y-122239959D03*
X109301857Y-105942459D03*
X109301857Y-107667459D03*
D18*
X118891857Y-98277459D03*
X118891857Y-96552459D03*
D17*
X127981857Y-120522459D03*
X127981857Y-122247459D03*
M02*
