G04 #@! TF.GenerationSoftware,KiCad,Pcbnew,7.0.6-0*
G04 #@! TF.CreationDate,2023-08-16T20:57:49-04:00*
G04 #@! TF.ProjectId,Compaq S3 Virge GX VRAM Addon Board,436f6d70-6171-4205-9333-205669726765,1*
G04 #@! TF.SameCoordinates,Original*
G04 #@! TF.FileFunction,Paste,Bot*
G04 #@! TF.FilePolarity,Positive*
%FSLAX46Y46*%
G04 Gerber Fmt 4.6, Leading zero omitted, Abs format (unit mm)*
G04 Created by KiCad (PCBNEW 7.0.6-0) date 2023-08-16 20:57:49*
%MOMM*%
%LPD*%
G01*
G04 APERTURE LIST*
G04 Aperture macros list*
%AMRoundRect*
0 Rectangle with rounded corners*
0 $1 Rounding radius*
0 $2 $3 $4 $5 $6 $7 $8 $9 X,Y pos of 4 corners*
0 Add a 4 corners polygon primitive as box body*
4,1,4,$2,$3,$4,$5,$6,$7,$8,$9,$2,$3,0*
0 Add four circle primitives for the rounded corners*
1,1,$1+$1,$2,$3*
1,1,$1+$1,$4,$5*
1,1,$1+$1,$6,$7*
1,1,$1+$1,$8,$9*
0 Add four rect primitives between the rounded corners*
20,1,$1+$1,$2,$3,$4,$5,0*
20,1,$1+$1,$4,$5,$6,$7,0*
20,1,$1+$1,$6,$7,$8,$9,0*
20,1,$1+$1,$8,$9,$2,$3,0*%
G04 Aperture macros list end*
%ADD10RoundRect,0.100000X-0.100000X0.775000X-0.100000X-0.775000X0.100000X-0.775000X0.100000X0.775000X0*%
%ADD11RoundRect,0.100000X-0.775000X0.100000X-0.775000X-0.100000X0.775000X-0.100000X0.775000X0.100000X0*%
%ADD12RoundRect,0.237500X-0.237500X0.300000X-0.237500X-0.300000X0.237500X-0.300000X0.237500X0.300000X0*%
%ADD13RoundRect,0.237500X0.237500X-0.300000X0.237500X0.300000X-0.237500X0.300000X-0.237500X-0.300000X0*%
G04 APERTURE END LIST*
D10*
X114331857Y-101394959D03*
X114981857Y-101394959D03*
X115631857Y-101394959D03*
X116281857Y-101394959D03*
X116931857Y-101394959D03*
X117581857Y-101394959D03*
X118231857Y-101394959D03*
X118881857Y-101394959D03*
X119531857Y-101394959D03*
X120181857Y-101394959D03*
X120831857Y-101394959D03*
X121481857Y-101394959D03*
X122131857Y-101394959D03*
X122781857Y-101394959D03*
X123431857Y-101394959D03*
X124081857Y-101394959D03*
X124731857Y-101394959D03*
X125381857Y-101394959D03*
X126031857Y-101394959D03*
X126681857Y-101394959D03*
X127331857Y-101394959D03*
X127981857Y-101394959D03*
X128631857Y-101394959D03*
X129281857Y-101394959D03*
X129931857Y-101394959D03*
X130581857Y-101394959D03*
X131231857Y-101394959D03*
X131881857Y-101394959D03*
X132531857Y-101394959D03*
X133181857Y-101394959D03*
D11*
X134881857Y-103344959D03*
X134881857Y-103994959D03*
X134881857Y-104644959D03*
X134881857Y-105294959D03*
X134881857Y-105944959D03*
X134881857Y-106594959D03*
X134881857Y-107244959D03*
X134881857Y-107894959D03*
X134881857Y-108544959D03*
X134881857Y-109194959D03*
X134881857Y-109844959D03*
X134881857Y-110494959D03*
X134881857Y-111144959D03*
X134881857Y-111794959D03*
X134881857Y-112444959D03*
X134881857Y-113094959D03*
X134881857Y-113744959D03*
X134881857Y-114394959D03*
X134881857Y-115044959D03*
X134881857Y-115694959D03*
D10*
X133181857Y-117644959D03*
X132531857Y-117644959D03*
X131881857Y-117644959D03*
X131231857Y-117644959D03*
X130581857Y-117644959D03*
X129931857Y-117644959D03*
X129281857Y-117644959D03*
X128631857Y-117644959D03*
X127981857Y-117644959D03*
X127331857Y-117644959D03*
X126681857Y-117644959D03*
X126031857Y-117644959D03*
X125381857Y-117644959D03*
X124731857Y-117644959D03*
X124081857Y-117644959D03*
X123431857Y-117644959D03*
X122781857Y-117644959D03*
X122131857Y-117644959D03*
X121481857Y-117644959D03*
X120831857Y-117644959D03*
X120181857Y-117644959D03*
X119531857Y-117644959D03*
X118881857Y-117644959D03*
X118231857Y-117644959D03*
X117581857Y-117644959D03*
X116931857Y-117644959D03*
X116281857Y-117644959D03*
X115631857Y-117644959D03*
X114981857Y-117644959D03*
X114331857Y-117644959D03*
D11*
X112631857Y-115694959D03*
X112631857Y-115044959D03*
X112631857Y-114394959D03*
X112631857Y-113744959D03*
X112631857Y-113094959D03*
X112631857Y-112444959D03*
X112631857Y-111794959D03*
X112631857Y-111144959D03*
X112631857Y-110494959D03*
X112631857Y-109844959D03*
X112631857Y-109194959D03*
X112631857Y-108544959D03*
X112631857Y-107894959D03*
X112631857Y-107244959D03*
X112631857Y-106594959D03*
X112631857Y-105944959D03*
X112631857Y-105294959D03*
X112631857Y-104644959D03*
X112631857Y-103994959D03*
X112631857Y-103344959D03*
D12*
X138151857Y-105942459D03*
X138151857Y-107667459D03*
D13*
X114971857Y-98277459D03*
X114971857Y-96552459D03*
X123111857Y-98277459D03*
X123111857Y-96552459D03*
D12*
X116931857Y-120522459D03*
X116931857Y-122247459D03*
X123441857Y-120514959D03*
X123441857Y-122239959D03*
X109301857Y-105942459D03*
X109301857Y-107667459D03*
D13*
X118891857Y-98277459D03*
X118891857Y-96552459D03*
D12*
X127981857Y-120522459D03*
X127981857Y-122247459D03*
M02*
