M48
; DRILL file {KiCad 7.0.6-0} date 2023 August 16, Wednesday 20:57:51
; FORMAT={-:-/ absolute / metric / decimal}
; #@! TF.CreationDate,2023-08-16T20:57:51-04:00
; #@! TF.GenerationSoftware,Kicad,Pcbnew,7.0.6-0
; #@! TF.FileFunction,Plated,1,4,PTH
FMAT,2
METRIC
; #@! TA.AperFunction,Plated,PTH,ViaDrill
T1C0.300
; #@! TA.AperFunction,Plated,PTH,ViaDrill
T2C0.381
; #@! TA.AperFunction,Plated,PTH,ComponentDrill
T3C0.800
%
G90
G05
T1
X108.115Y-74.245
X108.7Y-121.98
X109.05Y-82.8
X109.11Y-73.21
X109.63Y-109.07
X109.85Y-123.21
X110.105Y-72.175
X110.13Y-81.77
X110.59Y-90.79
X110.59Y-98.56
X110.88Y-115.045
X111.05Y-124.41
X112.22Y-125.61
X114.66Y-103.44
X114.66Y-105.3
X114.96Y-95.27
X115.48Y-122.25
X117.09Y-115.7
X118.09Y-92.15
X118.88Y-88.85
X118.89Y-95.26
X119.2Y-120.63
X119.33Y-105.15
X119.35Y-103.4
X120.76Y-111.29
X120.81Y-135.02
X121.14Y-120.65
X121.29Y-105.16
X121.845Y-136.015
X122.35Y-122.24
X122.88Y-137.01
X123.63Y-106.93
X123.63Y-108.85
X123.66Y-95.41
X123.66Y-103.43
X123.66Y-105.13
X124.73Y-115.75
X125.5Y-112.52
X125.52Y-110.35
X126.8Y-122.25
X126.99Y-111.38
X128.63Y-104.31
X128.75Y-97.98
X129.35Y-83.28
X129.45Y-103.14
X130.26Y-96.72
X131.56Y-95.28
X131.57Y-115.44
X131.63Y-82.38
X132.119Y-70.797
X132.565Y-113.095
X132.71Y-125.52
X132.73Y-122.11
X133.53Y-96.6
X133.555Y-70.768
X133.68Y-85.86
X134.99Y-70.74
X136.53Y-125.2
X137.53Y-126.74
X138.13Y-124.28
X138.152Y-109.968
X141.22Y-113.96
X141.25Y-112.495
X141.27Y-100.775
X141.27Y-102.24
X141.27Y-103.705
X141.27Y-105.217
X141.27Y-108.1
X141.27Y-111.03
X141.27Y-115.425
X141.27Y-116.89
X141.27Y-118.355
X141.27Y-121.66
X141.28Y-99.31
X141.28Y-109.565
X141.28Y-119.82
X141.28Y-123.46
X141.3Y-106.635
X142.23Y-92.11
X143.68Y-89.03
X144.2Y-98.39
X144.5Y-126.18
X144.56Y-91.18
X145.41Y-89.09
X145.42Y-127.15
X145.8Y-107.66
X145.809Y-138.827
X147.245Y-138.798
X148.32Y-125.05
X148.68Y-138.77
X149.36Y-113.25
X149.59Y-111.84
X149.63Y-109.87
X149.64Y-103.8
X149.64Y-105.35
X149.72Y-96.62
X151.245Y-115.6
X151.39Y-106.96
X151.41Y-105.35
X152.2Y-92.77
X152.3Y-96.83
X152.41Y-126.5
X153.37Y-98.38
X154.12Y-108.62
X155.1Y-91.27
X155.59Y-109.81
X155.73Y-83.32
X155.77Y-115.72
X155.93Y-111.54
X156.03Y-86.92
X156.11Y-104.1
X156.11Y-108.05
X156.35Y-126.83
X156.44Y-73.85
X156.74Y-115.17
X156.85Y-122.25
X157.13Y-120.62
X157.68Y-83.32
X157.99Y-76.04
X159.05Y-116.05
X159.21Y-103.68
X159.37Y-95.33
X159.38Y-88.28
X159.4Y-90.3
X159.43Y-83.3
X159.43Y-86.42
X159.525Y-79.375
X160.345Y-97.485
X160.69Y-112.92
X161.65Y-102.98
X161.97Y-115.58
X162.5Y-82.96
X164.06Y-111.79
X164.07Y-109.83
X164.08Y-107.71
X164.28Y-122.24
X164.63Y-81.82
X164.78Y-115.91
X164.9Y-104.58
X165.36Y-97.73
X165.37Y-96.54
X165.552Y-114.954
X166.53Y-127.47
X166.82Y-103.27
X167.5Y-95.31
X167.59Y-113.05
X167.95Y-105.05
X168.23Y-114.76
X168.88Y-136.35
X170.01Y-91.73
X170.23Y-134.9
X170.91Y-84.76
X171.22Y-92.81
X171.66Y-137.53
X171.67Y-133.58
X171.945Y-85.755
X172.695Y-136.535
X172.81Y-112.48
X172.98Y-86.75
X173.05Y-108.95
X173.73Y-135.54
T2
X110.782Y-105.925
X115.002Y-99.66
X116.912Y-119.21
X118.877Y-99.66
X123.43Y-99.66
X123.438Y-119.235
X127.982Y-99.665
X127.982Y-119.235
X136.707Y-105.935
X145.822Y-105.938
X154.494Y-99.666
X154.504Y-119.246
X159.044Y-119.246
X159.364Y-99.666
X163.594Y-99.666
X165.574Y-119.226
X167.514Y-99.666
X171.644Y-105.936
T3
X117.03Y-72.83
X117.03Y-74.83
X117.03Y-76.83
X117.03Y-78.83
X119.03Y-72.83
X119.03Y-74.83
X119.03Y-76.83
X119.03Y-78.83
X121.03Y-72.83
X121.03Y-74.83
X121.03Y-76.83
X121.03Y-78.83
X123.03Y-72.83
X123.03Y-74.83
X123.03Y-76.83
X123.03Y-78.83
X125.03Y-72.83
X125.03Y-74.83
X125.03Y-76.83
X125.03Y-78.83
X126.53Y-130.81
X126.53Y-132.81
X126.53Y-134.81
X126.53Y-136.81
X127.03Y-72.83
X127.03Y-76.83
X127.03Y-78.83
X128.53Y-130.81
X128.53Y-132.81
X128.53Y-134.81
X128.53Y-136.81
X129.03Y-72.83
X129.03Y-74.83
X129.03Y-76.83
X129.03Y-78.83
X130.53Y-130.81
X130.53Y-132.81
X130.53Y-134.81
X130.53Y-136.81
X131.03Y-72.83
X131.03Y-74.83
X131.03Y-76.83
X131.03Y-78.83
X132.53Y-130.81
X132.53Y-132.81
X132.53Y-134.81
X132.53Y-136.81
X133.03Y-72.83
X133.03Y-74.83
X133.03Y-76.83
X133.03Y-78.83
X134.53Y-130.81
X134.53Y-132.81
X134.53Y-134.81
X134.53Y-136.81
X135.03Y-72.83
X135.03Y-74.83
X135.03Y-76.83
X135.03Y-78.83
X136.53Y-130.81
X136.53Y-132.81
X136.53Y-136.81
X137.03Y-72.83
X137.03Y-74.83
X137.03Y-76.83
X137.03Y-78.83
X138.26Y-85.85
X138.26Y-88.39
X138.26Y-90.93
X138.26Y-93.47
X138.53Y-130.81
X138.53Y-132.81
X138.53Y-134.81
X138.53Y-136.81
X139.03Y-72.83
X139.03Y-74.83
X139.03Y-76.83
X139.03Y-78.83
X140.53Y-130.81
X140.53Y-132.81
X140.53Y-134.81
X140.53Y-136.81
X140.8Y-83.31
X140.8Y-85.85
X140.8Y-88.39
X140.8Y-90.93
X140.8Y-93.47
X140.8Y-96.01
X141.03Y-72.83
X141.03Y-74.83
X141.03Y-76.83
X141.03Y-78.83
X142.53Y-130.81
X142.53Y-132.81
X142.53Y-134.81
X142.53Y-136.81
X143.03Y-72.83
X143.03Y-74.83
X143.03Y-76.83
X143.03Y-78.83
X143.34Y-83.31
X143.34Y-85.85
X143.34Y-93.47
X143.34Y-96.01
X144.53Y-130.81
X144.53Y-132.81
X144.53Y-134.81
X144.53Y-136.81
X145.03Y-72.83
X145.03Y-74.83
X145.03Y-76.83
X145.03Y-78.83
X145.88Y-83.31
X145.88Y-85.85
X145.88Y-93.47
X145.88Y-96.01
X146.53Y-130.81
X146.53Y-132.81
X146.53Y-134.81
X146.53Y-136.81
X147.03Y-72.83
X147.03Y-74.83
X147.03Y-76.83
X147.03Y-78.83
X148.42Y-83.31
X148.42Y-85.85
X148.42Y-93.47
X148.42Y-96.01
X148.53Y-130.81
X148.53Y-132.81
X148.53Y-134.81
X148.53Y-136.81
X149.03Y-72.83
X149.03Y-74.83
X149.03Y-76.83
X149.03Y-78.83
X150.53Y-130.81
X150.53Y-132.81
X150.53Y-134.81
X150.53Y-136.81
X150.96Y-83.31
X150.96Y-85.85
X150.96Y-88.39
X150.96Y-90.93
X150.96Y-93.47
X150.96Y-96.01
X151.03Y-72.83
X151.03Y-74.83
X151.03Y-76.83
X151.03Y-78.83
X152.53Y-130.81
X152.53Y-132.81
X152.53Y-134.81
X152.53Y-136.81
X153.03Y-72.83
X153.03Y-74.83
X153.03Y-76.83
X153.03Y-78.83
X153.5Y-85.85
X153.5Y-88.39
X153.5Y-90.93
X153.5Y-93.47
X154.53Y-130.81
X154.53Y-132.81
X154.53Y-134.81
X154.53Y-136.81
X155.03Y-72.83
X155.03Y-74.83
X155.03Y-76.83
X155.03Y-78.83
X156.53Y-130.81
X156.53Y-132.81
X156.53Y-134.81
X156.53Y-136.81
X158.53Y-130.81
X158.53Y-132.81
X158.53Y-134.81
X158.53Y-136.81
X160.53Y-130.81
X160.53Y-132.81
X160.53Y-134.81
X160.53Y-136.81
X162.53Y-130.81
X162.53Y-132.81
X162.53Y-134.81
X162.53Y-136.81
X164.53Y-130.81
X164.53Y-132.81
X164.53Y-134.81
X164.53Y-136.81
T0
M30
