G04 #@! TF.GenerationSoftware,KiCad,Pcbnew,7.0.6-0*
G04 #@! TF.CreationDate,2023-08-16T20:57:49-04:00*
G04 #@! TF.ProjectId,Compaq S3 Virge GX VRAM Addon Board,436f6d70-6171-4205-9333-205669726765,1*
G04 #@! TF.SameCoordinates,Original*
G04 #@! TF.FileFunction,Legend,Bot*
G04 #@! TF.FilePolarity,Positive*
%FSLAX46Y46*%
G04 Gerber Fmt 4.6, Leading zero omitted, Abs format (unit mm)*
G04 Created by KiCad (PCBNEW 7.0.6-0) date 2023-08-16 20:57:49*
%MOMM*%
%LPD*%
G01*
G04 APERTURE LIST*
G04 Aperture macros list*
%AMRoundRect*
0 Rectangle with rounded corners*
0 $1 Rounding radius*
0 $2 $3 $4 $5 $6 $7 $8 $9 X,Y pos of 4 corners*
0 Add a 4 corners polygon primitive as box body*
4,1,4,$2,$3,$4,$5,$6,$7,$8,$9,$2,$3,0*
0 Add four circle primitives for the rounded corners*
1,1,$1+$1,$2,$3*
1,1,$1+$1,$4,$5*
1,1,$1+$1,$6,$7*
1,1,$1+$1,$8,$9*
0 Add four rect primitives between the rounded corners*
20,1,$1+$1,$2,$3,$4,$5,0*
20,1,$1+$1,$4,$5,$6,$7,0*
20,1,$1+$1,$6,$7,$8,$9,0*
20,1,$1+$1,$8,$9,$2,$3,0*%
G04 Aperture macros list end*
%ADD10C,0.127000*%
%ADD11C,1.000000*%
%ADD12C,0.200000*%
%ADD13C,0.250000*%
%ADD14C,0.150000*%
%ADD15C,0.120000*%
%ADD16C,0.500000*%
%ADD17C,0.901600*%
%ADD18RoundRect,0.050800X-0.675000X-0.675000X0.675000X-0.675000X0.675000X0.675000X-0.675000X0.675000X0*%
%ADD19C,1.451600*%
%ADD20RoundRect,0.050800X-0.711200X0.711200X-0.711200X-0.711200X0.711200X-0.711200X0.711200X0.711200X0*%
%ADD21C,1.524000*%
%ADD22RoundRect,0.150800X-0.100000X0.775000X-0.100000X-0.775000X0.100000X-0.775000X0.100000X0.775000X0*%
%ADD23RoundRect,0.150800X-0.775000X0.100000X-0.775000X-0.100000X0.775000X-0.100000X0.775000X0.100000X0*%
%ADD24RoundRect,0.288300X-0.237500X0.300000X-0.237500X-0.300000X0.237500X-0.300000X0.237500X0.300000X0*%
%ADD25RoundRect,0.288300X0.237500X-0.300000X0.237500X0.300000X-0.237500X0.300000X-0.237500X-0.300000X0*%
G04 APERTURE END LIST*
D10*
X172340000Y-135489999D02*
X171800001Y-135489999D01*
X165576518Y-136810000D02*
G75*
G03*
X165576518Y-136810000I-1046518J0D01*
G01*
X163520000Y-133800000D02*
X166240000Y-133800000D01*
X162589999Y-139290000D02*
X162050001Y-139290000D01*
X172340000Y-134950000D02*
X172340000Y-135489998D01*
X166240000Y-133800000D02*
X170650000Y-133800000D01*
X163576518Y-132810000D02*
G75*
G03*
X163576518Y-132810000I-1046518J0D01*
G01*
X160580000Y-88220000D02*
X167730000Y-88220000D01*
X167730000Y-91860000D01*
X160580000Y-91860000D01*
X160580000Y-88220000D01*
D11*
X137750000Y-82610000D02*
G75*
G03*
X137750000Y-82610000I-260000J0D01*
G01*
D10*
X163790142Y-137549858D02*
X162050000Y-139290000D01*
X170650000Y-133800000D02*
X172340000Y-135490000D01*
X163270041Y-133550041D02*
X163520000Y-133800000D01*
D11*
X114940000Y-103440000D02*
G75*
G03*
X114940000Y-103440000I-260000J0D01*
G01*
D10*
X162050000Y-139290000D02*
X162050000Y-138750000D01*
G36*
X166916956Y-91080000D02*
G01*
X166916956Y-89079162D01*
X166631192Y-89079162D01*
X166631192Y-91080000D01*
X166916956Y-91080000D01*
G37*
G36*
X166377668Y-91080000D02*
G01*
X166377668Y-89079162D01*
X166105581Y-89079162D01*
X165663013Y-90284745D01*
X165663013Y-89079162D01*
X165377249Y-89079162D01*
X165377249Y-91080000D01*
X165643474Y-91080000D01*
X166091904Y-89877348D01*
X166091904Y-91080000D01*
X166377668Y-91080000D01*
G37*
G36*
X164223934Y-89664368D02*
G01*
X164509699Y-89664368D01*
X164509699Y-89600376D01*
X164510386Y-89576372D01*
X164512446Y-89553207D01*
X164515881Y-89530882D01*
X164520690Y-89509396D01*
X164526872Y-89488750D01*
X164534428Y-89468943D01*
X164543358Y-89449976D01*
X164553662Y-89431849D01*
X164565592Y-89415133D01*
X164579399Y-89400647D01*
X164595084Y-89388389D01*
X164612647Y-89378360D01*
X164632087Y-89370559D01*
X164653405Y-89364987D01*
X164676600Y-89361644D01*
X164701673Y-89360530D01*
X164721818Y-89361320D01*
X164743453Y-89364238D01*
X164763078Y-89369307D01*
X164783044Y-89377734D01*
X164792043Y-89383000D01*
X164808347Y-89394907D01*
X164823062Y-89408157D01*
X164836190Y-89422751D01*
X164847731Y-89438688D01*
X164857623Y-89457586D01*
X164865805Y-89477644D01*
X164872277Y-89498863D01*
X164876538Y-89518381D01*
X164877040Y-89521242D01*
X164880085Y-89541518D01*
X164882383Y-89562168D01*
X164883932Y-89583192D01*
X164884733Y-89604590D01*
X164884856Y-89616985D01*
X164884718Y-89638446D01*
X164884306Y-89658498D01*
X164883478Y-89680114D01*
X164882276Y-89699812D01*
X164880948Y-89715170D01*
X164877547Y-89736495D01*
X164872292Y-89756507D01*
X164865183Y-89775204D01*
X164860431Y-89785024D01*
X164849930Y-89801678D01*
X164837110Y-89817018D01*
X164821972Y-89831044D01*
X164812560Y-89838269D01*
X164795524Y-89849260D01*
X164778313Y-89858877D01*
X164758952Y-89868494D01*
X164740645Y-89876737D01*
X164727563Y-89882233D01*
X164515072Y-89968695D01*
X164492541Y-89978044D01*
X164471108Y-89987776D01*
X164450775Y-89997889D01*
X164431541Y-90008384D01*
X164413406Y-90019260D01*
X164396370Y-90030519D01*
X164380433Y-90042158D01*
X164365595Y-90054180D01*
X164348331Y-90069814D01*
X164332260Y-90086189D01*
X164317381Y-90103302D01*
X164303695Y-90121156D01*
X164291201Y-90139748D01*
X164279900Y-90159080D01*
X164275714Y-90167020D01*
X164266867Y-90188245D01*
X164258951Y-90210401D01*
X164251965Y-90233488D01*
X164247045Y-90252626D01*
X164242722Y-90272360D01*
X164238993Y-90292690D01*
X164235860Y-90313615D01*
X164235170Y-90318939D01*
X164232536Y-90340562D01*
X164230254Y-90362933D01*
X164228323Y-90386052D01*
X164226743Y-90409919D01*
X164225514Y-90434534D01*
X164224637Y-90459897D01*
X164224110Y-90486009D01*
X164223945Y-90506083D01*
X164223934Y-90512868D01*
X164224153Y-90536160D01*
X164224810Y-90559144D01*
X164225905Y-90581819D01*
X164227438Y-90604184D01*
X164229408Y-90626240D01*
X164231817Y-90647987D01*
X164234663Y-90669425D01*
X164237948Y-90690554D01*
X164241670Y-90711374D01*
X164245830Y-90731885D01*
X164248847Y-90745387D01*
X164253789Y-90765258D01*
X164259271Y-90784571D01*
X164265295Y-90803325D01*
X164274168Y-90827463D01*
X164284002Y-90850609D01*
X164294799Y-90872763D01*
X164306557Y-90893924D01*
X164319276Y-90914093D01*
X164329447Y-90928569D01*
X164344667Y-90947582D01*
X164361016Y-90965541D01*
X164378494Y-90982447D01*
X164397103Y-90998300D01*
X164416840Y-91013100D01*
X164437708Y-91026846D01*
X164459705Y-91039539D01*
X164482832Y-91051179D01*
X164500878Y-91059123D01*
X164519663Y-91066286D01*
X164539186Y-91072667D01*
X164559448Y-91078267D01*
X164580448Y-91083085D01*
X164602186Y-91087123D01*
X164624663Y-91090378D01*
X164647879Y-91092853D01*
X164671833Y-91094546D01*
X164696525Y-91095457D01*
X164713397Y-91095631D01*
X164738837Y-91095066D01*
X164763864Y-91093372D01*
X164788479Y-91090548D01*
X164812682Y-91086594D01*
X164836473Y-91081511D01*
X164859851Y-91075298D01*
X164882818Y-91067955D01*
X164905372Y-91059483D01*
X164927209Y-91049897D01*
X164948267Y-91039455D01*
X164968547Y-91028159D01*
X164988048Y-91016008D01*
X165006771Y-91003002D01*
X165024715Y-90989141D01*
X165041881Y-90974426D01*
X165058268Y-90958855D01*
X165073854Y-90942414D01*
X165088615Y-90925333D01*
X165102552Y-90907610D01*
X165115665Y-90889246D01*
X165127954Y-90870241D01*
X165139418Y-90850594D01*
X165150058Y-90830307D01*
X165159873Y-90809378D01*
X165168689Y-90787771D01*
X165176329Y-90765689D01*
X165182794Y-90743135D01*
X165188083Y-90720108D01*
X165192197Y-90696607D01*
X165195136Y-90672633D01*
X165196899Y-90648186D01*
X165197486Y-90623265D01*
X165197486Y-90517264D01*
X164911722Y-90517264D01*
X164911722Y-90606168D01*
X164910613Y-90630223D01*
X164907286Y-90653538D01*
X164901740Y-90676114D01*
X164893977Y-90697950D01*
X164883995Y-90719047D01*
X164871794Y-90739405D01*
X164866293Y-90747341D01*
X164850582Y-90765354D01*
X164831842Y-90780314D01*
X164814668Y-90790083D01*
X164795556Y-90797899D01*
X164774506Y-90803761D01*
X164751516Y-90807669D01*
X164726588Y-90809623D01*
X164713397Y-90809867D01*
X164691744Y-90809354D01*
X164671666Y-90807816D01*
X164649650Y-90804616D01*
X164629900Y-90799939D01*
X164609725Y-90792616D01*
X164602022Y-90788862D01*
X164583124Y-90777260D01*
X164566485Y-90763461D01*
X164552105Y-90747463D01*
X164539985Y-90729267D01*
X164531232Y-90711255D01*
X164524210Y-90691840D01*
X164518917Y-90671023D01*
X164515354Y-90648804D01*
X164514095Y-90635478D01*
X164512601Y-90614698D01*
X164511416Y-90593025D01*
X164510540Y-90570459D01*
X164509973Y-90547001D01*
X164509737Y-90526769D01*
X164509699Y-90514333D01*
X164509830Y-90490600D01*
X164510223Y-90468251D01*
X164510879Y-90447286D01*
X164511798Y-90427703D01*
X164513246Y-90406030D01*
X164515072Y-90386350D01*
X164517937Y-90365272D01*
X164521831Y-90346065D01*
X164527540Y-90326403D01*
X164535568Y-90307204D01*
X164536565Y-90305261D01*
X164548247Y-90288839D01*
X164561862Y-90274195D01*
X164577408Y-90261328D01*
X164586879Y-90254947D01*
X164603793Y-90244994D01*
X164623272Y-90234675D01*
X164642419Y-90225345D01*
X164660394Y-90217125D01*
X164669922Y-90212937D01*
X164868736Y-90129406D01*
X164890685Y-90119755D01*
X164911715Y-90109730D01*
X164931825Y-90099330D01*
X164951015Y-90088557D01*
X164969285Y-90077409D01*
X164986636Y-90065888D01*
X165003067Y-90053993D01*
X165018579Y-90041723D01*
X165040121Y-90022618D01*
X165059594Y-90002671D01*
X165076998Y-89981883D01*
X165092332Y-89960253D01*
X165105597Y-89937782D01*
X165109559Y-89930104D01*
X165120471Y-89906286D01*
X165130310Y-89881361D01*
X165139076Y-89855327D01*
X165146768Y-89828186D01*
X165153387Y-89799938D01*
X165157203Y-89780490D01*
X165160542Y-89760550D01*
X165163405Y-89740117D01*
X165165790Y-89719192D01*
X165167698Y-89697775D01*
X165169129Y-89675866D01*
X165170083Y-89653464D01*
X165170560Y-89630570D01*
X165170620Y-89618939D01*
X165170358Y-89598150D01*
X165169572Y-89577551D01*
X165168263Y-89557141D01*
X165166429Y-89536919D01*
X165164072Y-89516886D01*
X165161192Y-89497043D01*
X165157787Y-89477388D01*
X165153859Y-89457922D01*
X165149406Y-89438645D01*
X165144430Y-89419556D01*
X165140822Y-89406936D01*
X165134877Y-89388313D01*
X165126123Y-89364244D01*
X165116422Y-89341044D01*
X165105774Y-89318715D01*
X165094180Y-89297256D01*
X165081640Y-89276667D01*
X165068153Y-89256948D01*
X165053720Y-89238100D01*
X165049964Y-89233524D01*
X165035065Y-89215908D01*
X165019189Y-89199207D01*
X165002336Y-89183423D01*
X164984507Y-89168555D01*
X164965700Y-89154603D01*
X164945916Y-89141566D01*
X164925156Y-89129446D01*
X164903418Y-89118241D01*
X164880536Y-89108051D01*
X164856584Y-89099221D01*
X164831565Y-89091748D01*
X164812099Y-89087036D01*
X164792032Y-89083087D01*
X164771364Y-89079903D01*
X164750095Y-89077483D01*
X164728224Y-89075827D01*
X164705753Y-89074936D01*
X164690438Y-89074766D01*
X164664701Y-89075376D01*
X164639514Y-89077208D01*
X164614876Y-89080261D01*
X164590787Y-89084535D01*
X164567248Y-89090031D01*
X164544259Y-89096748D01*
X164521819Y-89104685D01*
X164499929Y-89113845D01*
X164478680Y-89124011D01*
X164458163Y-89134972D01*
X164438380Y-89146726D01*
X164419329Y-89159274D01*
X164401011Y-89172616D01*
X164383425Y-89186751D01*
X164366572Y-89201680D01*
X164350452Y-89217404D01*
X164335132Y-89234289D01*
X164320800Y-89251483D01*
X164307456Y-89268986D01*
X164295101Y-89286799D01*
X164283734Y-89304921D01*
X164273355Y-89323352D01*
X164263965Y-89342091D01*
X164255564Y-89361140D01*
X164248151Y-89380499D01*
X164241726Y-89400166D01*
X164236290Y-89420142D01*
X164231842Y-89440428D01*
X164228382Y-89461022D01*
X164225911Y-89481926D01*
X164224429Y-89503139D01*
X164223934Y-89524661D01*
X164223934Y-89664368D01*
G37*
G36*
X163968456Y-91080000D02*
G01*
X163968456Y-89079162D01*
X163682692Y-89079162D01*
X163682692Y-91080000D01*
X163968456Y-91080000D01*
G37*
G36*
X163429168Y-91080000D02*
G01*
X163037403Y-91080000D01*
X163006416Y-91079479D01*
X162976350Y-91077916D01*
X162947203Y-91075311D01*
X162918975Y-91071665D01*
X162891668Y-91066976D01*
X162865280Y-91061246D01*
X162839812Y-91054474D01*
X162815264Y-91046660D01*
X162791635Y-91037805D01*
X162768926Y-91027907D01*
X162747137Y-91016968D01*
X162726268Y-91004986D01*
X162706318Y-90991963D01*
X162687288Y-90977898D01*
X162669178Y-90962792D01*
X162651987Y-90946643D01*
X162635780Y-90929395D01*
X162620618Y-90910991D01*
X162606501Y-90891431D01*
X162593430Y-90870714D01*
X162581405Y-90848841D01*
X162570426Y-90825811D01*
X162560492Y-90801626D01*
X162551604Y-90776284D01*
X162543761Y-90749785D01*
X162536964Y-90722130D01*
X162531213Y-90693319D01*
X162526508Y-90663352D01*
X162522848Y-90632228D01*
X162520234Y-90599948D01*
X162518665Y-90566511D01*
X162518408Y-90549504D01*
X162803907Y-90549504D01*
X162804095Y-90565055D01*
X162805087Y-90587395D01*
X162806929Y-90608550D01*
X162809621Y-90628519D01*
X162814533Y-90653302D01*
X162820955Y-90675979D01*
X162828889Y-90696549D01*
X162838335Y-90715012D01*
X162852267Y-90735129D01*
X162855355Y-90738765D01*
X162872789Y-90755216D01*
X162889122Y-90766298D01*
X162907578Y-90775534D01*
X162928156Y-90782922D01*
X162950855Y-90788463D01*
X162975676Y-90792157D01*
X162995684Y-90793716D01*
X163016886Y-90794235D01*
X163143404Y-90794235D01*
X163143404Y-89364926D01*
X163016886Y-89364926D01*
X163009388Y-89364988D01*
X162987776Y-89365918D01*
X162967485Y-89367965D01*
X162942489Y-89372430D01*
X162919843Y-89378880D01*
X162899548Y-89387314D01*
X162881603Y-89397732D01*
X162866010Y-89410135D01*
X162849824Y-89428429D01*
X162844264Y-89436510D01*
X162834219Y-89453897D01*
X162825610Y-89472918D01*
X162818435Y-89493572D01*
X162812695Y-89515859D01*
X162808391Y-89539779D01*
X162805521Y-89565333D01*
X162804310Y-89585571D01*
X162803907Y-89606727D01*
X162803907Y-90549504D01*
X162518408Y-90549504D01*
X162518142Y-90531919D01*
X162518142Y-89595980D01*
X162518635Y-89565522D01*
X162520112Y-89535942D01*
X162522573Y-89507240D01*
X162526019Y-89479415D01*
X162530450Y-89452468D01*
X162535865Y-89426399D01*
X162542265Y-89401208D01*
X162549650Y-89376894D01*
X162558019Y-89353458D01*
X162567373Y-89330900D01*
X162577711Y-89309220D01*
X162589034Y-89288417D01*
X162601341Y-89268492D01*
X162614634Y-89249445D01*
X162628910Y-89231276D01*
X162644172Y-89213984D01*
X162660320Y-89197658D01*
X162677381Y-89182385D01*
X162695354Y-89168166D01*
X162714239Y-89155000D01*
X162734036Y-89142887D01*
X162754745Y-89131827D01*
X162776366Y-89121821D01*
X162798900Y-89112868D01*
X162822345Y-89104968D01*
X162846702Y-89098121D01*
X162871972Y-89092328D01*
X162898154Y-89087588D01*
X162925248Y-89083902D01*
X162953253Y-89081269D01*
X162982171Y-89079689D01*
X163012001Y-89079162D01*
X163429168Y-89079162D01*
X163429168Y-91080000D01*
G37*
G36*
X162237263Y-91080000D02*
G01*
X162237263Y-89079162D01*
X161393160Y-89079162D01*
X161393160Y-89364926D01*
X161951499Y-89364926D01*
X161951499Y-89918869D01*
X161455686Y-89918869D01*
X161455686Y-90204633D01*
X161951499Y-90204633D01*
X161951499Y-90794235D01*
X161393160Y-90794235D01*
X161393160Y-91080000D01*
X162237263Y-91080000D01*
G37*
D12*
G36*
X129894395Y-109985000D02*
G01*
X129894395Y-106983743D01*
X129465749Y-106983743D01*
X129465749Y-108296793D01*
X128956502Y-108296793D01*
X128956502Y-106983743D01*
X128527856Y-106983743D01*
X128527856Y-109985000D01*
X128956502Y-109985000D01*
X128956502Y-108671950D01*
X129465749Y-108671950D01*
X129465749Y-109985000D01*
X129894395Y-109985000D01*
G37*
G36*
X128106537Y-109985000D02*
G01*
X128106537Y-107874741D01*
X127677891Y-107874741D01*
X127677891Y-109985000D01*
X128106537Y-109985000D01*
G37*
G36*
X128106537Y-107412390D02*
G01*
X128106537Y-106983743D01*
X127677891Y-106983743D01*
X127677891Y-107412390D01*
X128106537Y-107412390D01*
G37*
G36*
X126891963Y-107851347D02*
G01*
X126929675Y-107852618D01*
X126964915Y-107855583D01*
X126997682Y-107860243D01*
X127027975Y-107866597D01*
X127062365Y-107876922D01*
X127092890Y-107889895D01*
X127119552Y-107905516D01*
X127140234Y-107918925D01*
X127169133Y-107940553D01*
X127195481Y-107963997D01*
X127219279Y-107989257D01*
X127240527Y-108016333D01*
X127259224Y-108045224D01*
X127275371Y-108075933D01*
X127288968Y-108108457D01*
X127300015Y-108142797D01*
X127308512Y-108178953D01*
X127314458Y-108216926D01*
X127315966Y-108231036D01*
X127318691Y-108262040D01*
X127321027Y-108296753D01*
X127322973Y-108335175D01*
X127324177Y-108366426D01*
X127325163Y-108399764D01*
X127325929Y-108435188D01*
X127326476Y-108472699D01*
X127326805Y-108512297D01*
X127326914Y-108553981D01*
X127326914Y-109356318D01*
X127326898Y-109367193D01*
X127326651Y-109398977D01*
X127326108Y-109429498D01*
X127324923Y-109468230D01*
X127323211Y-109504717D01*
X127320973Y-109538961D01*
X127318208Y-109570961D01*
X127314916Y-109600716D01*
X127310061Y-109634755D01*
X127305539Y-109660080D01*
X127299017Y-109690320D01*
X127291529Y-109718985D01*
X127281267Y-109751305D01*
X127269615Y-109781358D01*
X127256572Y-109809145D01*
X127235640Y-109844762D01*
X127211861Y-109876876D01*
X127185236Y-109905487D01*
X127155765Y-109930594D01*
X127123447Y-109952198D01*
X127088282Y-109970299D01*
X127050271Y-109984896D01*
X127009414Y-109995990D01*
X126980594Y-110001440D01*
X126950509Y-110005333D01*
X126919159Y-110007668D01*
X126886544Y-110008447D01*
X126878470Y-110008392D01*
X126846802Y-110007069D01*
X126816142Y-110003984D01*
X126786490Y-109999135D01*
X126757845Y-109992524D01*
X126723455Y-109981780D01*
X126690640Y-109968281D01*
X126659398Y-109952027D01*
X126653333Y-109948453D01*
X126623781Y-109929143D01*
X126595517Y-109907437D01*
X126568540Y-109883333D01*
X126547886Y-109862325D01*
X126528057Y-109839782D01*
X126509052Y-109815705D01*
X126490871Y-109790094D01*
X126482811Y-109790094D01*
X126482811Y-110214344D01*
X126483217Y-110233118D01*
X126485696Y-110262978D01*
X126491647Y-110296449D01*
X126500843Y-110327344D01*
X126513285Y-110355663D01*
X126528973Y-110381406D01*
X126534878Y-110389391D01*
X126559106Y-110413284D01*
X126584282Y-110428740D01*
X126613528Y-110439559D01*
X126646844Y-110445741D01*
X126677717Y-110447351D01*
X126697593Y-110446752D01*
X126728687Y-110443092D01*
X126762647Y-110434308D01*
X126792950Y-110420733D01*
X126819594Y-110402366D01*
X126842581Y-110379207D01*
X126858623Y-110357716D01*
X126874285Y-110331406D01*
X126887609Y-110299995D01*
X126895603Y-110267813D01*
X126898268Y-110234860D01*
X127326914Y-110234860D01*
X127324178Y-110258310D01*
X127319429Y-110292466D01*
X127313908Y-110325398D01*
X127307614Y-110357106D01*
X127300547Y-110387591D01*
X127292708Y-110416852D01*
X127284095Y-110444890D01*
X127271410Y-110480370D01*
X127257351Y-110513675D01*
X127241918Y-110544804D01*
X127229458Y-110566904D01*
X127212125Y-110595028D01*
X127193967Y-110621618D01*
X127174985Y-110646674D01*
X127155178Y-110670196D01*
X127134547Y-110692183D01*
X127113092Y-110712637D01*
X127085114Y-110736046D01*
X127074060Y-110745486D01*
X127045874Y-110767532D01*
X127016901Y-110787360D01*
X126987141Y-110804970D01*
X126956594Y-110820362D01*
X126925260Y-110833535D01*
X126893139Y-110844490D01*
X126880162Y-110848305D01*
X126847969Y-110856767D01*
X126816134Y-110863690D01*
X126784656Y-110869074D01*
X126753537Y-110872921D01*
X126722775Y-110875228D01*
X126692371Y-110875997D01*
X126671758Y-110875777D01*
X126641502Y-110874620D01*
X126612046Y-110872471D01*
X126574013Y-110868063D01*
X126537399Y-110861892D01*
X126502205Y-110853958D01*
X126468431Y-110844261D01*
X126436077Y-110832801D01*
X126405142Y-110819577D01*
X126375397Y-110804923D01*
X126346981Y-110789169D01*
X126319893Y-110772316D01*
X126294133Y-110754364D01*
X126269701Y-110735314D01*
X126246598Y-110715163D01*
X126224822Y-110693914D01*
X126204374Y-110671566D01*
X126189792Y-110654749D01*
X126171571Y-110631725D01*
X126150759Y-110601980D01*
X126132129Y-110571161D01*
X126115682Y-110539269D01*
X126101418Y-110506303D01*
X126089336Y-110472264D01*
X126085077Y-110458442D01*
X126075631Y-110423963D01*
X126067903Y-110389592D01*
X126061893Y-110355327D01*
X126057599Y-110321170D01*
X126055023Y-110287121D01*
X126054165Y-110253178D01*
X126054165Y-109351922D01*
X126482811Y-109351922D01*
X126483046Y-109364152D01*
X126486566Y-109399229D01*
X126494311Y-109431884D01*
X126506281Y-109462118D01*
X126522476Y-109489930D01*
X126542895Y-109515321D01*
X126550434Y-109523129D01*
X126574494Y-109543531D01*
X126600717Y-109559399D01*
X126629105Y-109570733D01*
X126659656Y-109577534D01*
X126692371Y-109579801D01*
X126721039Y-109578644D01*
X126753525Y-109573947D01*
X126782291Y-109565635D01*
X126811898Y-109550892D01*
X126836146Y-109530945D01*
X126855037Y-109505795D01*
X126865169Y-109486721D01*
X126877835Y-109456651D01*
X126887460Y-109424829D01*
X126894046Y-109391255D01*
X126897213Y-109361938D01*
X126898268Y-109331406D01*
X126898268Y-108559842D01*
X126897837Y-108536107D01*
X126895919Y-108505842D01*
X126891364Y-108470232D01*
X126884413Y-108437091D01*
X126875064Y-108406419D01*
X126863318Y-108378215D01*
X126849175Y-108352480D01*
X126835826Y-108333933D01*
X126812453Y-108310749D01*
X126785061Y-108293129D01*
X126753651Y-108281074D01*
X126724407Y-108275278D01*
X126692371Y-108273346D01*
X126680702Y-108273629D01*
X126647446Y-108277879D01*
X126616817Y-108287230D01*
X126588816Y-108301682D01*
X126563443Y-108321233D01*
X126540696Y-108345886D01*
X126537135Y-108350462D01*
X126518141Y-108379691D01*
X126505422Y-108406370D01*
X126495530Y-108435161D01*
X126488464Y-108466062D01*
X126484224Y-108499074D01*
X126482811Y-108534197D01*
X126482811Y-109351922D01*
X126054165Y-109351922D01*
X126054165Y-107874741D01*
X126482811Y-107874741D01*
X126482811Y-108065983D01*
X126498069Y-108049179D01*
X126518013Y-108027495D01*
X126539903Y-108004086D01*
X126561213Y-107981720D01*
X126573105Y-107969623D01*
X126595594Y-107949202D01*
X126619473Y-107930520D01*
X126644744Y-107913576D01*
X126659209Y-107904739D01*
X126686598Y-107890455D01*
X126715726Y-107878258D01*
X126746593Y-107868147D01*
X126757372Y-107865135D01*
X126788066Y-107858552D01*
X126817253Y-107854520D01*
X126848613Y-107852100D01*
X126882148Y-107851294D01*
X126891963Y-107851347D01*
G37*
G36*
X125694395Y-109985000D02*
G01*
X125694395Y-106983743D01*
X125265749Y-106983743D01*
X125265749Y-108082103D01*
X125256956Y-108082103D01*
X125239874Y-108057397D01*
X125221968Y-108033835D01*
X125198426Y-108005993D01*
X125173597Y-107979939D01*
X125147479Y-107955675D01*
X125120073Y-107933199D01*
X125097221Y-107916507D01*
X125066660Y-107897720D01*
X125033594Y-107882117D01*
X125005338Y-107871928D01*
X124975480Y-107863776D01*
X124944018Y-107857662D01*
X124910954Y-107853587D01*
X124876286Y-107851549D01*
X124858352Y-107851294D01*
X124828676Y-107852247D01*
X124799001Y-107855106D01*
X124769325Y-107859872D01*
X124739650Y-107866544D01*
X124709974Y-107875122D01*
X124700082Y-107878405D01*
X124670999Y-107889808D01*
X124643101Y-107903684D01*
X124616388Y-107920033D01*
X124590860Y-107938855D01*
X124566517Y-107960150D01*
X124558666Y-107967798D01*
X124536186Y-107992416D01*
X124515458Y-108019558D01*
X124496481Y-108049225D01*
X124482005Y-108075876D01*
X124468746Y-108104280D01*
X124459015Y-108128265D01*
X124448249Y-108159793D01*
X124439308Y-108193467D01*
X124432192Y-108229287D01*
X124427813Y-108259490D01*
X124424601Y-108291066D01*
X124422558Y-108324016D01*
X124421682Y-108358339D01*
X124421646Y-108367135D01*
X124421646Y-109985000D01*
X124850292Y-109985000D01*
X124850292Y-108528335D01*
X124851598Y-108493373D01*
X124855515Y-108460844D01*
X124862045Y-108430748D01*
X124873328Y-108397844D01*
X124888371Y-108368443D01*
X124903781Y-108346618D01*
X124925411Y-108323958D01*
X124950183Y-108305986D01*
X124978098Y-108292703D01*
X125009156Y-108284108D01*
X125043357Y-108280201D01*
X125055456Y-108279940D01*
X125090972Y-108281765D01*
X125122875Y-108287239D01*
X125151165Y-108296362D01*
X125180342Y-108312127D01*
X125204316Y-108333147D01*
X125220320Y-108354678D01*
X125235758Y-108384801D01*
X125246184Y-108413523D01*
X125254392Y-108445537D01*
X125260381Y-108480842D01*
X125263575Y-108511457D01*
X125265350Y-108544178D01*
X125265749Y-108570101D01*
X125265749Y-109985000D01*
X125694395Y-109985000D01*
G37*
G36*
X123282253Y-109985000D02*
G01*
X123282253Y-106983743D01*
X122874123Y-106983743D01*
X122323844Y-108573032D01*
X122315784Y-108573032D01*
X121769168Y-106983743D01*
X121352978Y-106983743D01*
X121352978Y-109985000D01*
X121781625Y-109985000D01*
X121781625Y-108159773D01*
X121789685Y-108159773D01*
X122214667Y-109449375D01*
X122429357Y-109449375D01*
X122853606Y-108159773D01*
X122853606Y-109985000D01*
X123282253Y-109985000D01*
G37*
G36*
X120384992Y-107851620D02*
G01*
X120421404Y-107853333D01*
X120456760Y-107856515D01*
X120491059Y-107861164D01*
X120524302Y-107867282D01*
X120556490Y-107874869D01*
X120587621Y-107883923D01*
X120617695Y-107894446D01*
X120646714Y-107906438D01*
X120674676Y-107919897D01*
X120701583Y-107934825D01*
X120718822Y-107945387D01*
X120743725Y-107962023D01*
X120767482Y-107979613D01*
X120797376Y-108004549D01*
X120825231Y-108031179D01*
X120851048Y-108059503D01*
X120874827Y-108089522D01*
X120896569Y-108121236D01*
X120916272Y-108154644D01*
X120921928Y-108165179D01*
X120935066Y-108192345D01*
X120946772Y-108220692D01*
X120957047Y-108250220D01*
X120965892Y-108280928D01*
X120973305Y-108312816D01*
X120979287Y-108345886D01*
X120981328Y-108359433D01*
X120985853Y-108394026D01*
X120989556Y-108429657D01*
X120991926Y-108458909D01*
X120993770Y-108488825D01*
X120995086Y-108519405D01*
X120995876Y-108550649D01*
X120996140Y-108582557D01*
X120996140Y-109277916D01*
X120996123Y-109285866D01*
X120995728Y-109317293D01*
X120994807Y-109348125D01*
X120993358Y-109378362D01*
X120991383Y-109408003D01*
X120988174Y-109444217D01*
X120984142Y-109479501D01*
X120979287Y-109513855D01*
X120977066Y-109527313D01*
X120970511Y-109560107D01*
X120962526Y-109591685D01*
X120953109Y-109622046D01*
X120942261Y-109651190D01*
X120929982Y-109679118D01*
X120916272Y-109705830D01*
X120901686Y-109731045D01*
X120880454Y-109763182D01*
X120857184Y-109793624D01*
X120831876Y-109822372D01*
X120804530Y-109849426D01*
X120775147Y-109874785D01*
X120751772Y-109892693D01*
X120727250Y-109909647D01*
X120701583Y-109925648D01*
X120683763Y-109935675D01*
X120656152Y-109949502D01*
X120627486Y-109961873D01*
X120597763Y-109972789D01*
X120566984Y-109982249D01*
X120535149Y-109990254D01*
X120502258Y-109996803D01*
X120468310Y-110001897D01*
X120433307Y-110005536D01*
X120397247Y-110007719D01*
X120360131Y-110008447D01*
X120323953Y-110007668D01*
X120288690Y-110005333D01*
X120254344Y-110001440D01*
X120220913Y-109995990D01*
X120188398Y-109988984D01*
X120156799Y-109980420D01*
X120126116Y-109970299D01*
X120096349Y-109958621D01*
X120067555Y-109945581D01*
X120039791Y-109931373D01*
X120013058Y-109915997D01*
X119987356Y-109899453D01*
X119962683Y-109881742D01*
X119939041Y-109862863D01*
X119916430Y-109842816D01*
X119894849Y-109821601D01*
X119874086Y-109799840D01*
X119854663Y-109777237D01*
X119836579Y-109753792D01*
X119819836Y-109729506D01*
X119804431Y-109704379D01*
X119790366Y-109678410D01*
X119777641Y-109651599D01*
X119766255Y-109623948D01*
X119756208Y-109595454D01*
X119747501Y-109566119D01*
X119740134Y-109535943D01*
X119734106Y-109504925D01*
X119729418Y-109473066D01*
X119726069Y-109440365D01*
X119724060Y-109406822D01*
X119723390Y-109372438D01*
X120152036Y-109372438D01*
X120155324Y-109393980D01*
X120162512Y-109424199D01*
X120172715Y-109454488D01*
X120185934Y-109484846D01*
X120199664Y-109510924D01*
X120210826Y-109527067D01*
X120232336Y-109547246D01*
X120259564Y-109562581D01*
X120292511Y-109573074D01*
X120324336Y-109578119D01*
X120360131Y-109579801D01*
X120394486Y-109577946D01*
X120426111Y-109572382D01*
X120455005Y-109563108D01*
X120485264Y-109547601D01*
X120511806Y-109527044D01*
X120518549Y-109520183D01*
X120538725Y-109493421D01*
X120551777Y-109467077D01*
X120560913Y-109437590D01*
X120566134Y-109404961D01*
X120567493Y-109375369D01*
X120567493Y-109094002D01*
X119723390Y-109094002D01*
X119723390Y-108765739D01*
X120152036Y-108765739D01*
X120567493Y-108765739D01*
X120567493Y-108523206D01*
X120566623Y-108493588D01*
X120563088Y-108459302D01*
X120556834Y-108428057D01*
X120545741Y-108394578D01*
X120530731Y-108365478D01*
X120511806Y-108340757D01*
X120504602Y-108333392D01*
X120481169Y-108314149D01*
X120455005Y-108299183D01*
X120426111Y-108288492D01*
X120394486Y-108282078D01*
X120360131Y-108279940D01*
X120348290Y-108280178D01*
X120314656Y-108283741D01*
X120283856Y-108291581D01*
X120255889Y-108303697D01*
X120230756Y-108320089D01*
X120208456Y-108340757D01*
X120204985Y-108344573D01*
X120186472Y-108370024D01*
X120171927Y-108399854D01*
X120162835Y-108428057D01*
X120156499Y-108459302D01*
X120152918Y-108493588D01*
X120152036Y-108523206D01*
X120152036Y-108765739D01*
X119723390Y-108765739D01*
X119723390Y-108510750D01*
X119724046Y-108475679D01*
X119726012Y-108441358D01*
X119729289Y-108407787D01*
X119733877Y-108374966D01*
X119739776Y-108342895D01*
X119746986Y-108311573D01*
X119755507Y-108281002D01*
X119765339Y-108251181D01*
X119776481Y-108222109D01*
X119788935Y-108193787D01*
X119802699Y-108166216D01*
X119817775Y-108139394D01*
X119834161Y-108113322D01*
X119851858Y-108088000D01*
X119870866Y-108063427D01*
X119891185Y-108039605D01*
X119912629Y-108018219D01*
X119935194Y-107998023D01*
X119958882Y-107979018D01*
X119983692Y-107961203D01*
X120009624Y-107944579D01*
X120036677Y-107929146D01*
X120064853Y-107914904D01*
X120094151Y-107901852D01*
X120124433Y-107890003D01*
X120155563Y-107879733D01*
X120187539Y-107871043D01*
X120220363Y-107863934D01*
X120254034Y-107858404D01*
X120288553Y-107854454D01*
X120323918Y-107852084D01*
X120360131Y-107851294D01*
X120384992Y-107851620D01*
G37*
G36*
X119395860Y-109985000D02*
G01*
X119395860Y-107874741D01*
X118967214Y-107874741D01*
X118967214Y-108081371D01*
X118958422Y-108081371D01*
X118941340Y-108056836D01*
X118923434Y-108033423D01*
X118899892Y-108005734D01*
X118875062Y-107979799D01*
X118848944Y-107955617D01*
X118821539Y-107933188D01*
X118798687Y-107916507D01*
X118768125Y-107897720D01*
X118735060Y-107882117D01*
X118706804Y-107871928D01*
X118676945Y-107863776D01*
X118645483Y-107857662D01*
X118612419Y-107853587D01*
X118577752Y-107851549D01*
X118559817Y-107851294D01*
X118526272Y-107852347D01*
X118494146Y-107855507D01*
X118463440Y-107860774D01*
X118434154Y-107868147D01*
X118406288Y-107877626D01*
X118373451Y-107892438D01*
X118342832Y-107910542D01*
X118331206Y-107918705D01*
X118303407Y-107939846D01*
X118277253Y-107961595D01*
X118252745Y-107983953D01*
X118229883Y-108006919D01*
X118208667Y-108030493D01*
X118189097Y-108054675D01*
X118181729Y-108064518D01*
X118161694Y-108043097D01*
X118135941Y-108017384D01*
X118109401Y-107992851D01*
X118082074Y-107969499D01*
X118053960Y-107947327D01*
X118025058Y-107926336D01*
X118007340Y-107914309D01*
X117975730Y-107896155D01*
X117947789Y-107883847D01*
X117917490Y-107873509D01*
X117884832Y-107865140D01*
X117849815Y-107858740D01*
X117812441Y-107854309D01*
X117782862Y-107852279D01*
X117751956Y-107851356D01*
X117741359Y-107851294D01*
X117711529Y-107852247D01*
X117681390Y-107855106D01*
X117650942Y-107859872D01*
X117620184Y-107866544D01*
X117589118Y-107875122D01*
X117578694Y-107878405D01*
X117547988Y-107889808D01*
X117518518Y-107903684D01*
X117490285Y-107920033D01*
X117463289Y-107938855D01*
X117437529Y-107960150D01*
X117429217Y-107967798D01*
X117405089Y-107992416D01*
X117382712Y-108019558D01*
X117365402Y-108044105D01*
X117349310Y-108070406D01*
X117334433Y-108098459D01*
X117320773Y-108128265D01*
X117308741Y-108159793D01*
X117298748Y-108193467D01*
X117290795Y-108229287D01*
X117285901Y-108259490D01*
X117282311Y-108291066D01*
X117280027Y-108324016D01*
X117279048Y-108358339D01*
X117279008Y-108367135D01*
X117279008Y-109985000D01*
X117707654Y-109985000D01*
X117707654Y-108528335D01*
X117708960Y-108493373D01*
X117712877Y-108460844D01*
X117719407Y-108430748D01*
X117730690Y-108397844D01*
X117745734Y-108368443D01*
X117761143Y-108346618D01*
X117782799Y-108323958D01*
X117807648Y-108305986D01*
X117835692Y-108292703D01*
X117866931Y-108284108D01*
X117901363Y-108280201D01*
X117913551Y-108279940D01*
X117949067Y-108281765D01*
X117980970Y-108287239D01*
X118009260Y-108296362D01*
X118038437Y-108312127D01*
X118062411Y-108333147D01*
X118078415Y-108354678D01*
X118093604Y-108384801D01*
X118103862Y-108413523D01*
X118111937Y-108445537D01*
X118117829Y-108480842D01*
X118120972Y-108511457D01*
X118122718Y-108544178D01*
X118123111Y-108570101D01*
X118123111Y-109985000D01*
X118551757Y-109985000D01*
X118551757Y-108528335D01*
X118553063Y-108493373D01*
X118556981Y-108460844D01*
X118563510Y-108430748D01*
X118574793Y-108397844D01*
X118589837Y-108368443D01*
X118605246Y-108346618D01*
X118626876Y-108323958D01*
X118651649Y-108305986D01*
X118679564Y-108292703D01*
X118710622Y-108284108D01*
X118744823Y-108280201D01*
X118756921Y-108279940D01*
X118792438Y-108281765D01*
X118824341Y-108287239D01*
X118852630Y-108296362D01*
X118881808Y-108312127D01*
X118905782Y-108333147D01*
X118921785Y-108354678D01*
X118937224Y-108384801D01*
X118947650Y-108413523D01*
X118955857Y-108445537D01*
X118961846Y-108480842D01*
X118965040Y-108511457D01*
X118966815Y-108544178D01*
X118967214Y-108570101D01*
X118967214Y-109985000D01*
X119395860Y-109985000D01*
G37*
D13*
X132857379Y-114865273D02*
X132857379Y-113615273D01*
X132143094Y-114865273D02*
X132678808Y-114150988D01*
X132143094Y-113615273D02*
X132857379Y-114329559D01*
X131607379Y-114865273D02*
X131607379Y-113615273D01*
X131607379Y-113615273D02*
X131190713Y-114508130D01*
X131190713Y-114508130D02*
X130774046Y-113615273D01*
X130774046Y-113615273D02*
X130774046Y-114865273D01*
X129643094Y-114031940D02*
X129643094Y-114865273D01*
X129940713Y-113555750D02*
X130238332Y-114448607D01*
X130238332Y-114448607D02*
X129464523Y-114448607D01*
X128333571Y-114865273D02*
X129047856Y-114865273D01*
X128690713Y-114865273D02*
X128690713Y-113615273D01*
X128690713Y-113615273D02*
X128809761Y-113793845D01*
X128809761Y-113793845D02*
X128928809Y-113912892D01*
X128928809Y-113912892D02*
X129047856Y-113972416D01*
X127916904Y-113615273D02*
X127143095Y-113615273D01*
X127143095Y-113615273D02*
X127559761Y-114091464D01*
X127559761Y-114091464D02*
X127381190Y-114091464D01*
X127381190Y-114091464D02*
X127262142Y-114150988D01*
X127262142Y-114150988D02*
X127202618Y-114210511D01*
X127202618Y-114210511D02*
X127143095Y-114329559D01*
X127143095Y-114329559D02*
X127143095Y-114627178D01*
X127143095Y-114627178D02*
X127202618Y-114746226D01*
X127202618Y-114746226D02*
X127262142Y-114805750D01*
X127262142Y-114805750D02*
X127381190Y-114865273D01*
X127381190Y-114865273D02*
X127738333Y-114865273D01*
X127738333Y-114865273D02*
X127857380Y-114805750D01*
X127857380Y-114805750D02*
X127916904Y-114746226D01*
X126666904Y-113734321D02*
X126607380Y-113674797D01*
X126607380Y-113674797D02*
X126488333Y-113615273D01*
X126488333Y-113615273D02*
X126190714Y-113615273D01*
X126190714Y-113615273D02*
X126071666Y-113674797D01*
X126071666Y-113674797D02*
X126012142Y-113734321D01*
X126012142Y-113734321D02*
X125952619Y-113853369D01*
X125952619Y-113853369D02*
X125952619Y-113972416D01*
X125952619Y-113972416D02*
X126012142Y-114150988D01*
X126012142Y-114150988D02*
X126726428Y-114865273D01*
X126726428Y-114865273D02*
X125952619Y-114865273D01*
X124762143Y-113674797D02*
X124881190Y-113615273D01*
X124881190Y-113615273D02*
X125059762Y-113615273D01*
X125059762Y-113615273D02*
X125238333Y-113674797D01*
X125238333Y-113674797D02*
X125357381Y-113793845D01*
X125357381Y-113793845D02*
X125416904Y-113912892D01*
X125416904Y-113912892D02*
X125476428Y-114150988D01*
X125476428Y-114150988D02*
X125476428Y-114329559D01*
X125476428Y-114329559D02*
X125416904Y-114567654D01*
X125416904Y-114567654D02*
X125357381Y-114686702D01*
X125357381Y-114686702D02*
X125238333Y-114805750D01*
X125238333Y-114805750D02*
X125059762Y-114865273D01*
X125059762Y-114865273D02*
X124940714Y-114865273D01*
X124940714Y-114865273D02*
X124762143Y-114805750D01*
X124762143Y-114805750D02*
X124702619Y-114746226D01*
X124702619Y-114746226D02*
X124702619Y-114329559D01*
X124702619Y-114329559D02*
X124940714Y-114329559D01*
X124226428Y-113734321D02*
X124166904Y-113674797D01*
X124166904Y-113674797D02*
X124047857Y-113615273D01*
X124047857Y-113615273D02*
X123750238Y-113615273D01*
X123750238Y-113615273D02*
X123631190Y-113674797D01*
X123631190Y-113674797D02*
X123571666Y-113734321D01*
X123571666Y-113734321D02*
X123512143Y-113853369D01*
X123512143Y-113853369D02*
X123512143Y-113972416D01*
X123512143Y-113972416D02*
X123571666Y-114150988D01*
X123571666Y-114150988D02*
X124285952Y-114865273D01*
X124285952Y-114865273D02*
X123512143Y-114865273D01*
X123095476Y-113615273D02*
X122262143Y-113615273D01*
X122262143Y-113615273D02*
X122797857Y-114865273D01*
X121131191Y-114865273D02*
X121845476Y-114865273D01*
X121488333Y-114865273D02*
X121488333Y-113615273D01*
X121488333Y-113615273D02*
X121607381Y-113793845D01*
X121607381Y-113793845D02*
X121726429Y-113912892D01*
X121726429Y-113912892D02*
X121845476Y-113972416D01*
X120178810Y-114210511D02*
X120000238Y-114270035D01*
X120000238Y-114270035D02*
X119940715Y-114329559D01*
X119940715Y-114329559D02*
X119881191Y-114448607D01*
X119881191Y-114448607D02*
X119881191Y-114627178D01*
X119881191Y-114627178D02*
X119940715Y-114746226D01*
X119940715Y-114746226D02*
X120000238Y-114805750D01*
X120000238Y-114805750D02*
X120119286Y-114865273D01*
X120119286Y-114865273D02*
X120595476Y-114865273D01*
X120595476Y-114865273D02*
X120595476Y-113615273D01*
X120595476Y-113615273D02*
X120178810Y-113615273D01*
X120178810Y-113615273D02*
X120059762Y-113674797D01*
X120059762Y-113674797D02*
X120000238Y-113734321D01*
X120000238Y-113734321D02*
X119940715Y-113853369D01*
X119940715Y-113853369D02*
X119940715Y-113972416D01*
X119940715Y-113972416D02*
X120000238Y-114091464D01*
X120000238Y-114091464D02*
X120059762Y-114150988D01*
X120059762Y-114150988D02*
X120178810Y-114210511D01*
X120178810Y-114210511D02*
X120595476Y-114210511D01*
X118512143Y-114984321D02*
X118631191Y-114924797D01*
X118631191Y-114924797D02*
X118750238Y-114805750D01*
X118750238Y-114805750D02*
X118928810Y-114627178D01*
X118928810Y-114627178D02*
X119047857Y-114567654D01*
X119047857Y-114567654D02*
X119166905Y-114567654D01*
X119107381Y-114865273D02*
X119226429Y-114805750D01*
X119226429Y-114805750D02*
X119345476Y-114686702D01*
X119345476Y-114686702D02*
X119405000Y-114448607D01*
X119405000Y-114448607D02*
X119405000Y-114031940D01*
X119405000Y-114031940D02*
X119345476Y-113793845D01*
X119345476Y-113793845D02*
X119226429Y-113674797D01*
X119226429Y-113674797D02*
X119107381Y-113615273D01*
X119107381Y-113615273D02*
X118869286Y-113615273D01*
X118869286Y-113615273D02*
X118750238Y-113674797D01*
X118750238Y-113674797D02*
X118631191Y-113793845D01*
X118631191Y-113793845D02*
X118571667Y-114031940D01*
X118571667Y-114031940D02*
X118571667Y-114448607D01*
X118571667Y-114448607D02*
X118631191Y-114686702D01*
X118631191Y-114686702D02*
X118750238Y-114805750D01*
X118750238Y-114805750D02*
X118869286Y-114865273D01*
X118869286Y-114865273D02*
X119107381Y-114865273D01*
X118035952Y-114389083D02*
X117083572Y-114389083D01*
X115833572Y-114865273D02*
X116547857Y-114865273D01*
X116190714Y-114865273D02*
X116190714Y-113615273D01*
X116190714Y-113615273D02*
X116309762Y-113793845D01*
X116309762Y-113793845D02*
X116428810Y-113912892D01*
X116428810Y-113912892D02*
X116547857Y-113972416D01*
X115059762Y-113615273D02*
X114940715Y-113615273D01*
X114940715Y-113615273D02*
X114821667Y-113674797D01*
X114821667Y-113674797D02*
X114762143Y-113734321D01*
X114762143Y-113734321D02*
X114702619Y-113853369D01*
X114702619Y-113853369D02*
X114643096Y-114091464D01*
X114643096Y-114091464D02*
X114643096Y-114389083D01*
X114643096Y-114389083D02*
X114702619Y-114627178D01*
X114702619Y-114627178D02*
X114762143Y-114746226D01*
X114762143Y-114746226D02*
X114821667Y-114805750D01*
X114821667Y-114805750D02*
X114940715Y-114865273D01*
X114940715Y-114865273D02*
X115059762Y-114865273D01*
X115059762Y-114865273D02*
X115178810Y-114805750D01*
X115178810Y-114805750D02*
X115238334Y-114746226D01*
X115238334Y-114746226D02*
X115297857Y-114627178D01*
X115297857Y-114627178D02*
X115357381Y-114389083D01*
X115357381Y-114389083D02*
X115357381Y-114091464D01*
X115357381Y-114091464D02*
X115297857Y-113853369D01*
X115297857Y-113853369D02*
X115238334Y-113734321D01*
X115238334Y-113734321D02*
X115178810Y-113674797D01*
X115178810Y-113674797D02*
X115059762Y-113615273D01*
D14*
X168694173Y-138755247D02*
X168579887Y-138793342D01*
X168579887Y-138793342D02*
X168541792Y-138831438D01*
X168541792Y-138831438D02*
X168503696Y-138907628D01*
X168503696Y-138907628D02*
X168503696Y-139021914D01*
X168503696Y-139021914D02*
X168541792Y-139098104D01*
X168541792Y-139098104D02*
X168579887Y-139136200D01*
X168579887Y-139136200D02*
X168656077Y-139174295D01*
X168656077Y-139174295D02*
X168960839Y-139174295D01*
X168960839Y-139174295D02*
X168960839Y-138374295D01*
X168960839Y-138374295D02*
X168694173Y-138374295D01*
X168694173Y-138374295D02*
X168617982Y-138412390D01*
X168617982Y-138412390D02*
X168579887Y-138450485D01*
X168579887Y-138450485D02*
X168541792Y-138526676D01*
X168541792Y-138526676D02*
X168541792Y-138602866D01*
X168541792Y-138602866D02*
X168579887Y-138679057D01*
X168579887Y-138679057D02*
X168617982Y-138717152D01*
X168617982Y-138717152D02*
X168694173Y-138755247D01*
X168694173Y-138755247D02*
X168960839Y-138755247D01*
X168160839Y-139174295D02*
X168160839Y-138374295D01*
X167627506Y-138374295D02*
X167475125Y-138374295D01*
X167475125Y-138374295D02*
X167398935Y-138412390D01*
X167398935Y-138412390D02*
X167322744Y-138488580D01*
X167322744Y-138488580D02*
X167284649Y-138640961D01*
X167284649Y-138640961D02*
X167284649Y-138907628D01*
X167284649Y-138907628D02*
X167322744Y-139060009D01*
X167322744Y-139060009D02*
X167398935Y-139136200D01*
X167398935Y-139136200D02*
X167475125Y-139174295D01*
X167475125Y-139174295D02*
X167627506Y-139174295D01*
X167627506Y-139174295D02*
X167703697Y-139136200D01*
X167703697Y-139136200D02*
X167779887Y-139060009D01*
X167779887Y-139060009D02*
X167817983Y-138907628D01*
X167817983Y-138907628D02*
X167817983Y-138640961D01*
X167817983Y-138640961D02*
X167779887Y-138488580D01*
X167779887Y-138488580D02*
X167703697Y-138412390D01*
X167703697Y-138412390D02*
X167627506Y-138374295D01*
X166979888Y-139136200D02*
X166865602Y-139174295D01*
X166865602Y-139174295D02*
X166675126Y-139174295D01*
X166675126Y-139174295D02*
X166598935Y-139136200D01*
X166598935Y-139136200D02*
X166560840Y-139098104D01*
X166560840Y-139098104D02*
X166522745Y-139021914D01*
X166522745Y-139021914D02*
X166522745Y-138945723D01*
X166522745Y-138945723D02*
X166560840Y-138869533D01*
X166560840Y-138869533D02*
X166598935Y-138831438D01*
X166598935Y-138831438D02*
X166675126Y-138793342D01*
X166675126Y-138793342D02*
X166827507Y-138755247D01*
X166827507Y-138755247D02*
X166903697Y-138717152D01*
X166903697Y-138717152D02*
X166941792Y-138679057D01*
X166941792Y-138679057D02*
X166979888Y-138602866D01*
X166979888Y-138602866D02*
X166979888Y-138526676D01*
X166979888Y-138526676D02*
X166941792Y-138450485D01*
X166941792Y-138450485D02*
X166903697Y-138412390D01*
X166903697Y-138412390D02*
X166827507Y-138374295D01*
X166827507Y-138374295D02*
X166637030Y-138374295D01*
X166637030Y-138374295D02*
X166522745Y-138412390D01*
X165417982Y-138374295D02*
X165265601Y-138374295D01*
X165265601Y-138374295D02*
X165189411Y-138412390D01*
X165189411Y-138412390D02*
X165113220Y-138488580D01*
X165113220Y-138488580D02*
X165075125Y-138640961D01*
X165075125Y-138640961D02*
X165075125Y-138907628D01*
X165075125Y-138907628D02*
X165113220Y-139060009D01*
X165113220Y-139060009D02*
X165189411Y-139136200D01*
X165189411Y-139136200D02*
X165265601Y-139174295D01*
X165265601Y-139174295D02*
X165417982Y-139174295D01*
X165417982Y-139174295D02*
X165494173Y-139136200D01*
X165494173Y-139136200D02*
X165570363Y-139060009D01*
X165570363Y-139060009D02*
X165608459Y-138907628D01*
X165608459Y-138907628D02*
X165608459Y-138640961D01*
X165608459Y-138640961D02*
X165570363Y-138488580D01*
X165570363Y-138488580D02*
X165494173Y-138412390D01*
X165494173Y-138412390D02*
X165417982Y-138374295D01*
X164732268Y-138755247D02*
X164465602Y-138755247D01*
X164351316Y-139174295D02*
X164732268Y-139174295D01*
X164732268Y-139174295D02*
X164732268Y-138374295D01*
X164732268Y-138374295D02*
X164351316Y-138374295D01*
X164046554Y-138640961D02*
X163475125Y-138640961D01*
X163817982Y-138298104D02*
X164046554Y-139326676D01*
X163551315Y-138983819D02*
X164122744Y-138983819D01*
X163779887Y-139326676D02*
X163551315Y-138298104D01*
D12*
G36*
X149140965Y-86679771D02*
G01*
X149165070Y-86681358D01*
X149189124Y-86684003D01*
X149213128Y-86687705D01*
X149237081Y-86692466D01*
X149260984Y-86698284D01*
X149284836Y-86705160D01*
X149308639Y-86713094D01*
X149331979Y-86721918D01*
X149354715Y-86731733D01*
X149376847Y-86742539D01*
X149398373Y-86754335D01*
X149419296Y-86767122D01*
X149439614Y-86780899D01*
X149459327Y-86795668D01*
X149478436Y-86811427D01*
X149497428Y-86828756D01*
X149515445Y-86847159D01*
X149532489Y-86866638D01*
X149548558Y-86887191D01*
X149563654Y-86908818D01*
X149577776Y-86931521D01*
X149590924Y-86955298D01*
X149603098Y-86980150D01*
X149614054Y-87006017D01*
X149623550Y-87032842D01*
X149629713Y-87053589D01*
X149635055Y-87074874D01*
X149639574Y-87096697D01*
X149643272Y-87119059D01*
X149646148Y-87141959D01*
X149648202Y-87165398D01*
X149649435Y-87189375D01*
X149649846Y-87213890D01*
X149649846Y-88368084D01*
X149649435Y-88393627D01*
X149648202Y-88418472D01*
X149646148Y-88442617D01*
X149643272Y-88466063D01*
X149639574Y-88488811D01*
X149635055Y-88510860D01*
X149629713Y-88532209D01*
X149623550Y-88552860D01*
X149614054Y-88579307D01*
X149603098Y-88604511D01*
X149590924Y-88628565D01*
X149577776Y-88651561D01*
X149563654Y-88673500D01*
X149548558Y-88694380D01*
X149532489Y-88714203D01*
X149515445Y-88732967D01*
X149497428Y-88750674D01*
X149478436Y-88767323D01*
X149459327Y-88783720D01*
X149439614Y-88799060D01*
X149419296Y-88813341D01*
X149398373Y-88826564D01*
X149376847Y-88838730D01*
X149354715Y-88849838D01*
X149331979Y-88859888D01*
X149308639Y-88868879D01*
X149284836Y-88876688D01*
X149260984Y-88883455D01*
X149237081Y-88889181D01*
X149213128Y-88893866D01*
X149189124Y-88897509D01*
X149165070Y-88900112D01*
X149140965Y-88901674D01*
X149116810Y-88902194D01*
X149092664Y-88901674D01*
X149068585Y-88900112D01*
X149044572Y-88897509D01*
X149020628Y-88893866D01*
X148996750Y-88889181D01*
X148972939Y-88883455D01*
X148949196Y-88876688D01*
X148925519Y-88868879D01*
X148902003Y-88859888D01*
X148879006Y-88849838D01*
X148856531Y-88838730D01*
X148834576Y-88826564D01*
X148813141Y-88813341D01*
X148792227Y-88799060D01*
X148771833Y-88783720D01*
X148751960Y-88767323D01*
X148733725Y-88750674D01*
X148716362Y-88732967D01*
X148699873Y-88714203D01*
X148684256Y-88694380D01*
X148669513Y-88673500D01*
X148655643Y-88651561D01*
X148642646Y-88628565D01*
X148630523Y-88604511D01*
X148619566Y-88579307D01*
X148610071Y-88552860D01*
X148603907Y-88532209D01*
X148598566Y-88510860D01*
X148594047Y-88488811D01*
X148590349Y-88466063D01*
X148587473Y-88442617D01*
X148585418Y-88418472D01*
X148584186Y-88393627D01*
X148583775Y-88368084D01*
X148583775Y-88367009D01*
X148898115Y-88367009D01*
X148898369Y-88380948D01*
X148900401Y-88407429D01*
X148904465Y-88432046D01*
X148910560Y-88454798D01*
X148918687Y-88475687D01*
X148928846Y-88494712D01*
X148944402Y-88515872D01*
X148963133Y-88534120D01*
X148975527Y-88543723D01*
X148997086Y-88557629D01*
X149019773Y-88568911D01*
X149043588Y-88577569D01*
X149068532Y-88583603D01*
X149094603Y-88587014D01*
X149116273Y-88587854D01*
X149127328Y-88587644D01*
X149154140Y-88585282D01*
X149179771Y-88580297D01*
X149204221Y-88572689D01*
X149227491Y-88562456D01*
X149249580Y-88549600D01*
X149270488Y-88534120D01*
X149278361Y-88527171D01*
X149295822Y-88507758D01*
X149310108Y-88485433D01*
X149319251Y-88465476D01*
X149326362Y-88443655D01*
X149331442Y-88419970D01*
X149334489Y-88394422D01*
X149335505Y-88367009D01*
X149335505Y-87214965D01*
X149335251Y-87200960D01*
X149333220Y-87174362D01*
X149329156Y-87149645D01*
X149323061Y-87126808D01*
X149314933Y-87105852D01*
X149304774Y-87086777D01*
X149289219Y-87065577D01*
X149270488Y-87047316D01*
X149258085Y-87037714D01*
X149236468Y-87023808D01*
X149213671Y-87012526D01*
X149189693Y-87003868D01*
X149164534Y-86997833D01*
X149138195Y-86994422D01*
X149116273Y-86993583D01*
X149105348Y-86993793D01*
X149078825Y-86996154D01*
X149053430Y-87001139D01*
X149029163Y-87008748D01*
X149006025Y-87018980D01*
X148984015Y-87031836D01*
X148963133Y-87047316D01*
X148955260Y-87054268D01*
X148937799Y-87073704D01*
X148923513Y-87096079D01*
X148914370Y-87116095D01*
X148907258Y-87137991D01*
X148902179Y-87161769D01*
X148899131Y-87187426D01*
X148898115Y-87214965D01*
X148898115Y-88367009D01*
X148583775Y-88367009D01*
X148583775Y-87213890D01*
X148584186Y-87189375D01*
X148585418Y-87165398D01*
X148587473Y-87141959D01*
X148590349Y-87119059D01*
X148594047Y-87096697D01*
X148598566Y-87074874D01*
X148603907Y-87053589D01*
X148610071Y-87032842D01*
X148619566Y-87006017D01*
X148630523Y-86980150D01*
X148642646Y-86955298D01*
X148655643Y-86931521D01*
X148669513Y-86908818D01*
X148684256Y-86887191D01*
X148699873Y-86866638D01*
X148716362Y-86847159D01*
X148733725Y-86828756D01*
X148751960Y-86811427D01*
X148771833Y-86795668D01*
X148792227Y-86780899D01*
X148813141Y-86767122D01*
X148834576Y-86754335D01*
X148856531Y-86742539D01*
X148879006Y-86731733D01*
X148902003Y-86721918D01*
X148925519Y-86713094D01*
X148949196Y-86705160D01*
X148972939Y-86698284D01*
X148996750Y-86692466D01*
X149020628Y-86687705D01*
X149044572Y-86684003D01*
X149068585Y-86681358D01*
X149092664Y-86679771D01*
X149116810Y-86679242D01*
X149140965Y-86679771D01*
G37*
G36*
X147743040Y-87320463D02*
G01*
X147770108Y-87321907D01*
X147795497Y-87324795D01*
X147819207Y-87329127D01*
X147841238Y-87334903D01*
X147861589Y-87342124D01*
X147884667Y-87353180D01*
X147905122Y-87366493D01*
X147920385Y-87378373D01*
X147939323Y-87394144D01*
X147958104Y-87410938D01*
X147976727Y-87428756D01*
X147995192Y-87447597D01*
X148009851Y-87463406D01*
X148024410Y-87479870D01*
X148024410Y-87337477D01*
X148338750Y-87337477D01*
X148338750Y-89504009D01*
X148024410Y-89504009D01*
X148024410Y-88742069D01*
X148021132Y-88746869D01*
X148007623Y-88765370D01*
X147993476Y-88782745D01*
X147978691Y-88798995D01*
X147963268Y-88814120D01*
X147943092Y-88831444D01*
X147921919Y-88847011D01*
X147899748Y-88860819D01*
X147876594Y-88872739D01*
X147852469Y-88882638D01*
X147827373Y-88890517D01*
X147801307Y-88896376D01*
X147779755Y-88899608D01*
X147757581Y-88901548D01*
X147734787Y-88902194D01*
X147727553Y-88902156D01*
X147699687Y-88901237D01*
X147673534Y-88899091D01*
X147649093Y-88895720D01*
X147626366Y-88891124D01*
X147600365Y-88883654D01*
X147577040Y-88874269D01*
X147556392Y-88862969D01*
X147541418Y-88853070D01*
X147520484Y-88837120D01*
X147501382Y-88819848D01*
X147484113Y-88801253D01*
X147468676Y-88781336D01*
X147455072Y-88760097D01*
X147443300Y-88737535D01*
X147433360Y-88713651D01*
X147425253Y-88688444D01*
X147418978Y-88661916D01*
X147414535Y-88634064D01*
X147413429Y-88624159D01*
X147411431Y-88602145D01*
X147409718Y-88577193D01*
X147408291Y-88549302D01*
X147407408Y-88526455D01*
X147406685Y-88501956D01*
X147406123Y-88475803D01*
X147405722Y-88447998D01*
X147405481Y-88418539D01*
X147405449Y-88406235D01*
X147719741Y-88406235D01*
X147720020Y-88419771D01*
X147721723Y-88441598D01*
X147725809Y-88466578D01*
X147732125Y-88490235D01*
X147740670Y-88512570D01*
X147751444Y-88533583D01*
X147760234Y-88546303D01*
X147776663Y-88562202D01*
X147796983Y-88574286D01*
X147821195Y-88582554D01*
X147844344Y-88586529D01*
X147870195Y-88587854D01*
X147878370Y-88587671D01*
X147901864Y-88584932D01*
X147923809Y-88578906D01*
X147944204Y-88569593D01*
X147963051Y-88556993D01*
X147980348Y-88541106D01*
X147988223Y-88532022D01*
X148001648Y-88512552D01*
X148011974Y-88491344D01*
X148019203Y-88468399D01*
X148023334Y-88443715D01*
X148024410Y-88421817D01*
X148024410Y-87824839D01*
X148023373Y-87799250D01*
X148020264Y-87775209D01*
X148015083Y-87752716D01*
X148007828Y-87731771D01*
X147996387Y-87708680D01*
X147981960Y-87687819D01*
X147976549Y-87681377D01*
X147959057Y-87664545D01*
X147939675Y-87651454D01*
X147918404Y-87642103D01*
X147895244Y-87636493D01*
X147870195Y-87634623D01*
X147855858Y-87635128D01*
X147833623Y-87638216D01*
X147809675Y-87645628D01*
X147788713Y-87657082D01*
X147770736Y-87672578D01*
X147755743Y-87692117D01*
X147747305Y-87707062D01*
X147738340Y-87727349D01*
X147731132Y-87749419D01*
X147725683Y-87773274D01*
X147721991Y-87798913D01*
X147720304Y-87820708D01*
X147719741Y-87843646D01*
X147719741Y-88406235D01*
X147405449Y-88406235D01*
X147405401Y-88387428D01*
X147405401Y-87799047D01*
X147405413Y-87791072D01*
X147405594Y-87767764D01*
X147405992Y-87745382D01*
X147406861Y-87716979D01*
X147408116Y-87690221D01*
X147409758Y-87665109D01*
X147411785Y-87641643D01*
X147414199Y-87619822D01*
X147417759Y-87594860D01*
X147421076Y-87576171D01*
X147425859Y-87553896D01*
X147431350Y-87532827D01*
X147438875Y-87509138D01*
X147447420Y-87487187D01*
X147456985Y-87466974D01*
X147467303Y-87449211D01*
X147484450Y-87424714D01*
X147503599Y-87402797D01*
X147524750Y-87383457D01*
X147547903Y-87366696D01*
X147573059Y-87352514D01*
X147600218Y-87340911D01*
X147629379Y-87331886D01*
X147660542Y-87325439D01*
X147682430Y-87322574D01*
X147705208Y-87320855D01*
X147728876Y-87320282D01*
X147743040Y-87320463D01*
G37*
G36*
X147146406Y-87337477D02*
G01*
X147146406Y-86838831D01*
X146832065Y-86838831D01*
X146832065Y-87337477D01*
X146660118Y-87337477D01*
X146660118Y-87578203D01*
X146832065Y-87578203D01*
X146832065Y-88420743D01*
X146831602Y-88443329D01*
X146829940Y-88466309D01*
X146826625Y-88488548D01*
X146822393Y-88505104D01*
X146813477Y-88525229D01*
X146800065Y-88542426D01*
X146791228Y-88549703D01*
X146771820Y-88559976D01*
X146749397Y-88566348D01*
X146738032Y-88567972D01*
X146714764Y-88569502D01*
X146692988Y-88570281D01*
X146668746Y-88570635D01*
X146660118Y-88570659D01*
X146660118Y-88885000D01*
X146784242Y-88885000D01*
X146809505Y-88884479D01*
X146833711Y-88882917D01*
X146856858Y-88880315D01*
X146878947Y-88876671D01*
X146899979Y-88871986D01*
X146924781Y-88864666D01*
X146947930Y-88855719D01*
X146956727Y-88851685D01*
X146977551Y-88840660D01*
X146997037Y-88828743D01*
X147015185Y-88815934D01*
X147031995Y-88802233D01*
X147050401Y-88784615D01*
X147066880Y-88765711D01*
X147081621Y-88745693D01*
X147094813Y-88724731D01*
X147106456Y-88702824D01*
X147116550Y-88679973D01*
X147125095Y-88656177D01*
X147127599Y-88648035D01*
X147133990Y-88623421D01*
X147139059Y-88599146D01*
X147142806Y-88575212D01*
X147145230Y-88551617D01*
X147146332Y-88528363D01*
X147146406Y-88520687D01*
X147146406Y-87578203D01*
X147313517Y-87578203D01*
X147313517Y-87337477D01*
X147146406Y-87337477D01*
G37*
G36*
X146513963Y-88885000D02*
G01*
X146513963Y-87337477D01*
X146199623Y-87337477D01*
X146199623Y-88885000D01*
X146513963Y-88885000D01*
G37*
G36*
X146513963Y-86998419D02*
G01*
X146513963Y-86684078D01*
X146199623Y-86684078D01*
X146199623Y-86998419D01*
X146513963Y-86998419D01*
G37*
G36*
X145528454Y-87320521D02*
G01*
X145555156Y-87321778D01*
X145581084Y-87324111D01*
X145606237Y-87327520D01*
X145630615Y-87332007D01*
X145654219Y-87337570D01*
X145677048Y-87344210D01*
X145699103Y-87351927D01*
X145720383Y-87360721D01*
X145740889Y-87370591D01*
X145760621Y-87381538D01*
X145773263Y-87389283D01*
X145791525Y-87401484D01*
X145808947Y-87414383D01*
X145830869Y-87432669D01*
X145851296Y-87452198D01*
X145870228Y-87472969D01*
X145887666Y-87494983D01*
X145903610Y-87518239D01*
X145918059Y-87542739D01*
X145922207Y-87550465D01*
X145931841Y-87570387D01*
X145940426Y-87591174D01*
X145947961Y-87612828D01*
X145954447Y-87635347D01*
X145959883Y-87658732D01*
X145964270Y-87682983D01*
X145965767Y-87692917D01*
X145969086Y-87718286D01*
X145971801Y-87744415D01*
X145973539Y-87765867D01*
X145974891Y-87787805D01*
X145975856Y-87810230D01*
X145976436Y-87833142D01*
X145976629Y-87856542D01*
X145976629Y-88366472D01*
X145976617Y-88372302D01*
X145976327Y-88395348D01*
X145975651Y-88417958D01*
X145974589Y-88440132D01*
X145973141Y-88461869D01*
X145970787Y-88488426D01*
X145967831Y-88514301D01*
X145964270Y-88539494D01*
X145962641Y-88549363D01*
X145957835Y-88573412D01*
X145951979Y-88596569D01*
X145945073Y-88618833D01*
X145937118Y-88640206D01*
X145928113Y-88660687D01*
X145918059Y-88680275D01*
X145907363Y-88698766D01*
X145891793Y-88722333D01*
X145874728Y-88744658D01*
X145856169Y-88765740D01*
X145836115Y-88785579D01*
X145814568Y-88804176D01*
X145797426Y-88817308D01*
X145779443Y-88829741D01*
X145760621Y-88841475D01*
X145747552Y-88848828D01*
X145727305Y-88858968D01*
X145706283Y-88868040D01*
X145684486Y-88876045D01*
X145661915Y-88882982D01*
X145638569Y-88888853D01*
X145614449Y-88893656D01*
X145589554Y-88897391D01*
X145563885Y-88900060D01*
X145537441Y-88901661D01*
X145510223Y-88902194D01*
X145491928Y-88901957D01*
X145465148Y-88900712D01*
X145439160Y-88898399D01*
X145413966Y-88895019D01*
X145389566Y-88890572D01*
X145365959Y-88885058D01*
X145343145Y-88878476D01*
X145321125Y-88870827D01*
X145299898Y-88862110D01*
X145279465Y-88852327D01*
X145259825Y-88841475D01*
X145247118Y-88833730D01*
X145228766Y-88821530D01*
X145211263Y-88808631D01*
X145189249Y-88790345D01*
X145168747Y-88770816D01*
X145149755Y-88750045D01*
X145132275Y-88728031D01*
X145116306Y-88704774D01*
X145101849Y-88680275D01*
X145097701Y-88672547D01*
X145088067Y-88652601D01*
X145079482Y-88631764D01*
X145071947Y-88610034D01*
X145065461Y-88587413D01*
X145060025Y-88563899D01*
X145055638Y-88539494D01*
X145054878Y-88534510D01*
X145051438Y-88509180D01*
X145048602Y-88483169D01*
X145046369Y-88456475D01*
X145045017Y-88434629D01*
X145044052Y-88412347D01*
X145044047Y-88412145D01*
X145357620Y-88412145D01*
X145358266Y-88433488D01*
X145360893Y-88458229D01*
X145365539Y-88480819D01*
X145373782Y-88505087D01*
X145384934Y-88526258D01*
X145398995Y-88544330D01*
X145404215Y-88549600D01*
X145421260Y-88563371D01*
X145440384Y-88574082D01*
X145461586Y-88581733D01*
X145484865Y-88586324D01*
X145510223Y-88587854D01*
X145518843Y-88587684D01*
X145543370Y-88585133D01*
X145565894Y-88579523D01*
X145586415Y-88570852D01*
X145604934Y-88559121D01*
X145621451Y-88544330D01*
X145633216Y-88529485D01*
X145644701Y-88508831D01*
X145653315Y-88485079D01*
X145658300Y-88462919D01*
X145661291Y-88438608D01*
X145662288Y-88412145D01*
X145662288Y-87810331D01*
X145661650Y-87788997D01*
X145659058Y-87764290D01*
X145654472Y-87741760D01*
X145646336Y-87717599D01*
X145635329Y-87696574D01*
X145621451Y-87678684D01*
X145616168Y-87673349D01*
X145598984Y-87659407D01*
X145579797Y-87648564D01*
X145558608Y-87640819D01*
X145535417Y-87636172D01*
X145510223Y-87634623D01*
X145501539Y-87634795D01*
X145476874Y-87637377D01*
X145454288Y-87643056D01*
X145433779Y-87651834D01*
X145415348Y-87663710D01*
X145398995Y-87678684D01*
X145387075Y-87693374D01*
X145375438Y-87713877D01*
X145366711Y-87737515D01*
X145361660Y-87759610D01*
X145358630Y-87783881D01*
X145357620Y-87810331D01*
X145357620Y-88412145D01*
X145044047Y-88412145D01*
X145043472Y-88389628D01*
X145043279Y-88366472D01*
X145043279Y-87856542D01*
X145043291Y-87850646D01*
X145043581Y-87827369D01*
X145044257Y-87804578D01*
X145045319Y-87782275D01*
X145046767Y-87760458D01*
X145049121Y-87733872D01*
X145052078Y-87708047D01*
X145055638Y-87682983D01*
X145057267Y-87673179D01*
X145062073Y-87649274D01*
X145067929Y-87626235D01*
X145074835Y-87604062D01*
X145082790Y-87582755D01*
X145091795Y-87562314D01*
X145101849Y-87542739D01*
X145112550Y-87524248D01*
X145128141Y-87500681D01*
X145145244Y-87478356D01*
X145163857Y-87457274D01*
X145183982Y-87437435D01*
X145205618Y-87418838D01*
X145222837Y-87405706D01*
X145240906Y-87393272D01*
X145259825Y-87381538D01*
X145272830Y-87374120D01*
X145292999Y-87363891D01*
X145313961Y-87354739D01*
X145335717Y-87346663D01*
X145358266Y-87339664D01*
X145381609Y-87333742D01*
X145405745Y-87328896D01*
X145430674Y-87325128D01*
X145456397Y-87322436D01*
X145482913Y-87320821D01*
X145510223Y-87320282D01*
X145528454Y-87320521D01*
G37*
G36*
X144803091Y-88885000D02*
G01*
X144803091Y-87337477D01*
X144488750Y-87337477D01*
X144488750Y-87489005D01*
X144482302Y-87489005D01*
X144469776Y-87471013D01*
X144456645Y-87453843D01*
X144439381Y-87433538D01*
X144421172Y-87414519D01*
X144402019Y-87396786D01*
X144381922Y-87380338D01*
X144365163Y-87368105D01*
X144342752Y-87354328D01*
X144318504Y-87342886D01*
X144297783Y-87335414D01*
X144275886Y-87329436D01*
X144252814Y-87324952D01*
X144228567Y-87321963D01*
X144203145Y-87320469D01*
X144189992Y-87320282D01*
X144168230Y-87320981D01*
X144146468Y-87323078D01*
X144124706Y-87326573D01*
X144102944Y-87331465D01*
X144081182Y-87337756D01*
X144073928Y-87340163D01*
X144052601Y-87348526D01*
X144032142Y-87358702D01*
X144012553Y-87370691D01*
X143993832Y-87384494D01*
X143975980Y-87400110D01*
X143970223Y-87405718D01*
X143953738Y-87423771D01*
X143938537Y-87443676D01*
X143924621Y-87465432D01*
X143914005Y-87484976D01*
X143904282Y-87505805D01*
X143897145Y-87523394D01*
X143889251Y-87546515D01*
X143882694Y-87571209D01*
X143877475Y-87597477D01*
X143874264Y-87619626D01*
X143871909Y-87642781D01*
X143870410Y-87666945D01*
X143869768Y-87692115D01*
X143869741Y-87698565D01*
X143869741Y-88885000D01*
X144184082Y-88885000D01*
X144184082Y-87816779D01*
X144185039Y-87791140D01*
X144187912Y-87767285D01*
X144192701Y-87745215D01*
X144200975Y-87721085D01*
X144212007Y-87699525D01*
X144223307Y-87683520D01*
X144239169Y-87666903D01*
X144257336Y-87653723D01*
X144277807Y-87643982D01*
X144300583Y-87637679D01*
X144325663Y-87634814D01*
X144334535Y-87634623D01*
X144360581Y-87635961D01*
X144383976Y-87639975D01*
X144404722Y-87646665D01*
X144426119Y-87658227D01*
X144443700Y-87673641D01*
X144455436Y-87689431D01*
X144466757Y-87711520D01*
X144474403Y-87732583D01*
X144480422Y-87756060D01*
X144484814Y-87781951D01*
X144487156Y-87804401D01*
X144488458Y-87828397D01*
X144488750Y-87847407D01*
X144488750Y-88885000D01*
X144803091Y-88885000D01*
G37*
G36*
X143214126Y-87320828D02*
G01*
X143240254Y-87322465D01*
X143265710Y-87325194D01*
X143290495Y-87329014D01*
X143314608Y-87333925D01*
X143338049Y-87339928D01*
X143360819Y-87347023D01*
X143382916Y-87355209D01*
X143404292Y-87364335D01*
X143424896Y-87374251D01*
X143444727Y-87384955D01*
X143463785Y-87396449D01*
X143482071Y-87408732D01*
X143499585Y-87421805D01*
X143516326Y-87435666D01*
X143532295Y-87450317D01*
X143548042Y-87466542D01*
X143562772Y-87483380D01*
X143576487Y-87500831D01*
X143589186Y-87518894D01*
X143600868Y-87537571D01*
X143611535Y-87556860D01*
X143621186Y-87576763D01*
X143629822Y-87597278D01*
X143637441Y-87618406D01*
X143644044Y-87640147D01*
X143649632Y-87662501D01*
X143654203Y-87685468D01*
X143657759Y-87709048D01*
X143660298Y-87733240D01*
X143661822Y-87758046D01*
X143662330Y-87783464D01*
X143363572Y-87783464D01*
X143360339Y-87770074D01*
X143353565Y-87749142D01*
X143343149Y-87726310D01*
X143330241Y-87705971D01*
X143314839Y-87688125D01*
X143296943Y-87672773D01*
X143290518Y-87668154D01*
X143270714Y-87656082D01*
X143250117Y-87646694D01*
X143228727Y-87639988D01*
X143206543Y-87635964D01*
X143183565Y-87634623D01*
X143162131Y-87635403D01*
X143137770Y-87638576D01*
X143116111Y-87644188D01*
X143093688Y-87654143D01*
X143075156Y-87667612D01*
X143060516Y-87684595D01*
X143052456Y-87697373D01*
X143042381Y-87718115D01*
X143034724Y-87740746D01*
X143029485Y-87765266D01*
X143026966Y-87787143D01*
X143026126Y-87810331D01*
X143026126Y-87965621D01*
X143029204Y-87964514D01*
X143050038Y-87958770D01*
X143072337Y-87956486D01*
X143087626Y-87956486D01*
X143109413Y-87956486D01*
X143121226Y-87956486D01*
X143143265Y-87956486D01*
X143155814Y-87956486D01*
X143177655Y-87956486D01*
X143195922Y-87956612D01*
X143222559Y-87957273D01*
X143248281Y-87958501D01*
X143273086Y-87960296D01*
X143296974Y-87962657D01*
X143319947Y-87965585D01*
X143342003Y-87969080D01*
X143369987Y-87974621D01*
X143396341Y-87981170D01*
X143421067Y-87988726D01*
X143444366Y-87997298D01*
X143466438Y-88006895D01*
X143487285Y-88017515D01*
X143506906Y-88029160D01*
X143525302Y-88041830D01*
X143542471Y-88055523D01*
X143558415Y-88070241D01*
X143573133Y-88085983D01*
X143587078Y-88103422D01*
X143599899Y-88121884D01*
X143611594Y-88141371D01*
X143622164Y-88161882D01*
X143631610Y-88183417D01*
X143639930Y-88205977D01*
X143647125Y-88229561D01*
X143653196Y-88254169D01*
X143655798Y-88266788D01*
X143660500Y-88292782D01*
X143664530Y-88319783D01*
X143667888Y-88347791D01*
X143669966Y-88369459D01*
X143671666Y-88391693D01*
X143672989Y-88414494D01*
X143673933Y-88437862D01*
X143674500Y-88461796D01*
X143674689Y-88486297D01*
X143674563Y-88502298D01*
X143673902Y-88525598D01*
X143672674Y-88548057D01*
X143670155Y-88576696D01*
X143666629Y-88603839D01*
X143662095Y-88629489D01*
X143656554Y-88653644D01*
X143650005Y-88676304D01*
X143642449Y-88697470D01*
X143640381Y-88702537D01*
X143629458Y-88726738D01*
X143617565Y-88749050D01*
X143604701Y-88769473D01*
X143590866Y-88788006D01*
X143576061Y-88804651D01*
X143557013Y-88822131D01*
X143550414Y-88827792D01*
X143530415Y-88843390D01*
X143510114Y-88856909D01*
X143489510Y-88868351D01*
X143468604Y-88877714D01*
X143447397Y-88885000D01*
X143429624Y-88889953D01*
X143408365Y-88894789D01*
X143383659Y-88898903D01*
X143359056Y-88901371D01*
X143334556Y-88902194D01*
X143320514Y-88902016D01*
X143293614Y-88900588D01*
X143268292Y-88897734D01*
X143244549Y-88893452D01*
X143222384Y-88887743D01*
X143201797Y-88880606D01*
X143178283Y-88869679D01*
X143157236Y-88856521D01*
X143149317Y-88850656D01*
X143129573Y-88834636D01*
X143109909Y-88816674D01*
X143094234Y-88800907D01*
X143078609Y-88783897D01*
X143063035Y-88765644D01*
X143047511Y-88746149D01*
X143032037Y-88725411D01*
X143026126Y-88725411D01*
X143026126Y-88885000D01*
X142711786Y-88885000D01*
X142711786Y-88423429D01*
X143026126Y-88423429D01*
X143026523Y-88441278D01*
X143028286Y-88463871D01*
X143032474Y-88490176D01*
X143038865Y-88514330D01*
X143047460Y-88536333D01*
X143058259Y-88556183D01*
X143071263Y-88573883D01*
X143086079Y-88589208D01*
X143106178Y-88604169D01*
X143128809Y-88615390D01*
X143149602Y-88621884D01*
X143172153Y-88625780D01*
X143196461Y-88627079D01*
X143215277Y-88626197D01*
X143237308Y-88622616D01*
X143261563Y-88614682D01*
X143283439Y-88602781D01*
X143302934Y-88586913D01*
X143317362Y-88570659D01*
X143325044Y-88559682D01*
X143336168Y-88540064D01*
X143345194Y-88518794D01*
X143352120Y-88495871D01*
X143356948Y-88471295D01*
X143359677Y-88445065D01*
X143360348Y-88422892D01*
X143360278Y-88414944D01*
X143359215Y-88392037D01*
X143355815Y-88363685D01*
X143350147Y-88337834D01*
X143342213Y-88314485D01*
X143332012Y-88293638D01*
X143319545Y-88275293D01*
X143304810Y-88259450D01*
X143287808Y-88246109D01*
X143269203Y-88234649D01*
X143249658Y-88224716D01*
X143229172Y-88216312D01*
X143207745Y-88209436D01*
X143185379Y-88204088D01*
X143162072Y-88200268D01*
X143137825Y-88197976D01*
X143112637Y-88197212D01*
X143094334Y-88197816D01*
X143071094Y-88199941D01*
X143048081Y-88203115D01*
X143026126Y-88206884D01*
X143026126Y-88423429D01*
X142711786Y-88423429D01*
X142711786Y-87808719D01*
X142711933Y-87793527D01*
X142712704Y-87771195D01*
X142714137Y-87749411D01*
X142717075Y-87721217D01*
X142721189Y-87693998D01*
X142726479Y-87667753D01*
X142732943Y-87642481D01*
X142740584Y-87618184D01*
X142749399Y-87594860D01*
X142759063Y-87572493D01*
X142769516Y-87551067D01*
X142780758Y-87530581D01*
X142792789Y-87511036D01*
X142805610Y-87492431D01*
X142819219Y-87474766D01*
X142833618Y-87458041D01*
X142848806Y-87442257D01*
X142865405Y-87427547D01*
X142882692Y-87413778D01*
X142900667Y-87400949D01*
X142919331Y-87389061D01*
X142938684Y-87378113D01*
X142958725Y-87368105D01*
X142979454Y-87359037D01*
X143000872Y-87350910D01*
X143022827Y-87343732D01*
X143045168Y-87337510D01*
X143067896Y-87332246D01*
X143091010Y-87327939D01*
X143114510Y-87324589D01*
X143138396Y-87322196D01*
X143162668Y-87320761D01*
X143187327Y-87320282D01*
X143214126Y-87320828D01*
G37*
G36*
X142501151Y-86684078D02*
G01*
X142186810Y-86684078D01*
X142186810Y-88441161D01*
X142186323Y-88462823D01*
X142184345Y-88487349D01*
X142180845Y-88509042D01*
X142174636Y-88531333D01*
X142164623Y-88552182D01*
X142155645Y-88563674D01*
X142136335Y-88578383D01*
X142113763Y-88588940D01*
X142090200Y-88596269D01*
X142067591Y-88601165D01*
X142042281Y-88604959D01*
X142036894Y-88605586D01*
X142036894Y-88902194D01*
X142063291Y-88901926D01*
X142089016Y-88901120D01*
X142114069Y-88899776D01*
X142138450Y-88897896D01*
X142162160Y-88895478D01*
X142185198Y-88892522D01*
X142207565Y-88889030D01*
X142229260Y-88885000D01*
X142250241Y-88880331D01*
X142275405Y-88873079D01*
X142299388Y-88864253D01*
X142322191Y-88853853D01*
X142343813Y-88841878D01*
X142364254Y-88828330D01*
X142375952Y-88819445D01*
X142394231Y-88803763D01*
X142411120Y-88786271D01*
X142426618Y-88766968D01*
X142440726Y-88745855D01*
X142453443Y-88722932D01*
X142462616Y-88703290D01*
X142468911Y-88687798D01*
X142476467Y-88665725D01*
X142483016Y-88641956D01*
X142488557Y-88616492D01*
X142493091Y-88589331D01*
X142495830Y-88567848D01*
X142498002Y-88545411D01*
X142499608Y-88522019D01*
X142500647Y-88497674D01*
X142501119Y-88472375D01*
X142501151Y-88463729D01*
X142501151Y-86684078D01*
G37*
G36*
X148021723Y-92581000D02*
G01*
X147587020Y-92581000D01*
X147548659Y-92580391D01*
X147511625Y-92578565D01*
X147475917Y-92575521D01*
X147441536Y-92571260D01*
X147408482Y-92565782D01*
X147376754Y-92559086D01*
X147346353Y-92551173D01*
X147317278Y-92542043D01*
X147289529Y-92531695D01*
X147263108Y-92520130D01*
X147238013Y-92507347D01*
X147214244Y-92493347D01*
X147191802Y-92478129D01*
X147170686Y-92461695D01*
X147150897Y-92444042D01*
X147132435Y-92425173D01*
X147115192Y-92405159D01*
X147099061Y-92384075D01*
X147084043Y-92361920D01*
X147070138Y-92338695D01*
X147057344Y-92314400D01*
X147045664Y-92289034D01*
X147035095Y-92262597D01*
X147025640Y-92235091D01*
X147017296Y-92206513D01*
X147010065Y-92176865D01*
X147003947Y-92146147D01*
X146998941Y-92114358D01*
X146995047Y-92081499D01*
X146992266Y-92047569D01*
X146990597Y-92012569D01*
X146990041Y-91976498D01*
X146990041Y-91888913D01*
X147304382Y-91888913D01*
X147304407Y-91899074D01*
X147304690Y-91924054D01*
X147305288Y-91948431D01*
X147306201Y-91972205D01*
X147307429Y-91995374D01*
X147308972Y-92017941D01*
X147310830Y-92039904D01*
X147311650Y-92048495D01*
X147315095Y-92073387D01*
X147320013Y-92096956D01*
X147326404Y-92119203D01*
X147334269Y-92140127D01*
X147343607Y-92159729D01*
X147354973Y-92177713D01*
X147370477Y-92196785D01*
X147388399Y-92213799D01*
X147405684Y-92226745D01*
X147424745Y-92238180D01*
X147435087Y-92243270D01*
X147457983Y-92251947D01*
X147479313Y-92257648D01*
X147502691Y-92261959D01*
X147528114Y-92264879D01*
X147549927Y-92266214D01*
X147573049Y-92266659D01*
X147707382Y-92266659D01*
X147707382Y-91549318D01*
X147569825Y-91549318D01*
X147548995Y-91549637D01*
X147524445Y-91550933D01*
X147501548Y-91553226D01*
X147476253Y-91557294D01*
X147453339Y-91562797D01*
X147432805Y-91569736D01*
X147420110Y-91575202D01*
X147399511Y-91586504D01*
X147380969Y-91600018D01*
X147364483Y-91615743D01*
X147350055Y-91633679D01*
X147340421Y-91651046D01*
X147330804Y-91672931D01*
X147322937Y-91696564D01*
X147317584Y-91718213D01*
X147313516Y-91741146D01*
X147312954Y-91745097D01*
X147309957Y-91769705D01*
X147307950Y-91791395D01*
X147306389Y-91814161D01*
X147305274Y-91838003D01*
X147304605Y-91862920D01*
X147304382Y-91888913D01*
X146990041Y-91888913D01*
X146990041Y-91851300D01*
X146990259Y-91829361D01*
X146991405Y-91797556D01*
X146993534Y-91767072D01*
X146996644Y-91737912D01*
X147000737Y-91710073D01*
X147005813Y-91683557D01*
X147011870Y-91658363D01*
X147018910Y-91634491D01*
X147026932Y-91611942D01*
X147035937Y-91590716D01*
X147045924Y-91570811D01*
X147053088Y-91558175D01*
X147064754Y-91539946D01*
X147077526Y-91522585D01*
X147091403Y-91506094D01*
X147106385Y-91490471D01*
X147122471Y-91475718D01*
X147139664Y-91461833D01*
X147157961Y-91448817D01*
X147177363Y-91436671D01*
X147197870Y-91425393D01*
X147219483Y-91414984D01*
X147198442Y-91403286D01*
X147178440Y-91391163D01*
X147159477Y-91378615D01*
X147141553Y-91365642D01*
X147119270Y-91347683D01*
X147098835Y-91328969D01*
X147080246Y-91309499D01*
X147063505Y-91289273D01*
X147048611Y-91268292D01*
X147036610Y-91247355D01*
X147025998Y-91224978D01*
X147018008Y-91204651D01*
X147011037Y-91183267D01*
X147005087Y-91160825D01*
X147003265Y-91153061D01*
X146998504Y-91128484D01*
X146995345Y-91106532D01*
X146992921Y-91083241D01*
X146991231Y-91058612D01*
X146990276Y-91032646D01*
X146990041Y-91010909D01*
X146990041Y-90978131D01*
X147304382Y-90978131D01*
X147304434Y-90987131D01*
X147305213Y-91013318D01*
X147306927Y-91038287D01*
X147309577Y-91062037D01*
X147313161Y-91084569D01*
X147317681Y-91105883D01*
X147325161Y-91132405D01*
X147334304Y-91156761D01*
X147345110Y-91178952D01*
X147357578Y-91198976D01*
X147361003Y-91203604D01*
X147376720Y-91220648D01*
X147395661Y-91235340D01*
X147417826Y-91247682D01*
X147443215Y-91257673D01*
X147464373Y-91263624D01*
X147487344Y-91268252D01*
X147512129Y-91271558D01*
X147538727Y-91273541D01*
X147567138Y-91274203D01*
X147707382Y-91274203D01*
X147707382Y-90694419D01*
X147578959Y-90694419D01*
X147569315Y-90694489D01*
X147541514Y-90695536D01*
X147515413Y-90697839D01*
X147491013Y-90701398D01*
X147468313Y-90706213D01*
X147447313Y-90712285D01*
X147421957Y-90722335D01*
X147399624Y-90734618D01*
X147380314Y-90749135D01*
X147364026Y-90765884D01*
X147350047Y-90784716D01*
X147337931Y-90805748D01*
X147327680Y-90828979D01*
X147319293Y-90854410D01*
X147312769Y-90882041D01*
X147309100Y-90904208D01*
X147306479Y-90927611D01*
X147304906Y-90952253D01*
X147304382Y-90978131D01*
X146990041Y-90978131D01*
X146990041Y-90930846D01*
X146990511Y-90904231D01*
X146991922Y-90877851D01*
X146994273Y-90851707D01*
X146997564Y-90825797D01*
X147001795Y-90800123D01*
X147006967Y-90774683D01*
X147013079Y-90749479D01*
X147020132Y-90724510D01*
X147028125Y-90700011D01*
X147037327Y-90676217D01*
X147047737Y-90653128D01*
X147059357Y-90630745D01*
X147072186Y-90609067D01*
X147086224Y-90588094D01*
X147101471Y-90567826D01*
X147117927Y-90548264D01*
X147122264Y-90543525D01*
X147140378Y-90525168D01*
X147159718Y-90507767D01*
X147180283Y-90491324D01*
X147202075Y-90475838D01*
X147225092Y-90461309D01*
X147249335Y-90447737D01*
X147274804Y-90435122D01*
X147294710Y-90426289D01*
X147308387Y-90420693D01*
X147329563Y-90412976D01*
X147351533Y-90406072D01*
X147374296Y-90399980D01*
X147397853Y-90394700D01*
X147422203Y-90390232D01*
X147447346Y-90386577D01*
X147473283Y-90383734D01*
X147500013Y-90381703D01*
X147527537Y-90380485D01*
X147555854Y-90380078D01*
X148021723Y-90380078D01*
X148021723Y-92581000D01*
G37*
G36*
X146676238Y-92581000D02*
G01*
X146676238Y-90380078D01*
X146361897Y-90380078D01*
X146361897Y-92581000D01*
X146676238Y-92581000D01*
G37*
G36*
X145574140Y-90375771D02*
G01*
X145598245Y-90377358D01*
X145622299Y-90380003D01*
X145646302Y-90383705D01*
X145670256Y-90388466D01*
X145694159Y-90394284D01*
X145718011Y-90401160D01*
X145741814Y-90409094D01*
X145765154Y-90417918D01*
X145787890Y-90427733D01*
X145810022Y-90438539D01*
X145831548Y-90450335D01*
X145852471Y-90463122D01*
X145872789Y-90476899D01*
X145892502Y-90491668D01*
X145911611Y-90507427D01*
X145930603Y-90524756D01*
X145948620Y-90543159D01*
X145965664Y-90562638D01*
X145981733Y-90583191D01*
X145996829Y-90604818D01*
X146010951Y-90627521D01*
X146024099Y-90651298D01*
X146036273Y-90676150D01*
X146047229Y-90702017D01*
X146056725Y-90728842D01*
X146062888Y-90749589D01*
X146068230Y-90770874D01*
X146072749Y-90792697D01*
X146076447Y-90815059D01*
X146079323Y-90837959D01*
X146081377Y-90861398D01*
X146082610Y-90885375D01*
X146083021Y-90909890D01*
X146083021Y-92064084D01*
X146082610Y-92089627D01*
X146081377Y-92114472D01*
X146079323Y-92138617D01*
X146076447Y-92162063D01*
X146072749Y-92184811D01*
X146068230Y-92206860D01*
X146062888Y-92228209D01*
X146056725Y-92248860D01*
X146047229Y-92275307D01*
X146036273Y-92300511D01*
X146024099Y-92324565D01*
X146010951Y-92347561D01*
X145996829Y-92369500D01*
X145981733Y-92390380D01*
X145965664Y-92410203D01*
X145948620Y-92428967D01*
X145930603Y-92446674D01*
X145911611Y-92463323D01*
X145892502Y-92479720D01*
X145872789Y-92495060D01*
X145852471Y-92509341D01*
X145831548Y-92522564D01*
X145810022Y-92534730D01*
X145787890Y-92545838D01*
X145765154Y-92555888D01*
X145741814Y-92564879D01*
X145718011Y-92572688D01*
X145694159Y-92579455D01*
X145670256Y-92585181D01*
X145646302Y-92589866D01*
X145622299Y-92593509D01*
X145598245Y-92596112D01*
X145574140Y-92597674D01*
X145549985Y-92598194D01*
X145525839Y-92597674D01*
X145501760Y-92596112D01*
X145477747Y-92593509D01*
X145453802Y-92589866D01*
X145429925Y-92585181D01*
X145406114Y-92579455D01*
X145382371Y-92572688D01*
X145358694Y-92564879D01*
X145335178Y-92555888D01*
X145312181Y-92545838D01*
X145289706Y-92534730D01*
X145267750Y-92522564D01*
X145246316Y-92509341D01*
X145225402Y-92495060D01*
X145205008Y-92479720D01*
X145185135Y-92463323D01*
X145166900Y-92446674D01*
X145149537Y-92428967D01*
X145133048Y-92410203D01*
X145117431Y-92390380D01*
X145102688Y-92369500D01*
X145088818Y-92347561D01*
X145075821Y-92324565D01*
X145063698Y-92300511D01*
X145052741Y-92275307D01*
X145043246Y-92248860D01*
X145037082Y-92228209D01*
X145031741Y-92206860D01*
X145027222Y-92184811D01*
X145023524Y-92162063D01*
X145020648Y-92138617D01*
X145018593Y-92114472D01*
X145017361Y-92089627D01*
X145016950Y-92064084D01*
X145016950Y-92063009D01*
X145331290Y-92063009D01*
X145331544Y-92076948D01*
X145333576Y-92103429D01*
X145337640Y-92128046D01*
X145343735Y-92150798D01*
X145351862Y-92171687D01*
X145362021Y-92190712D01*
X145377577Y-92211872D01*
X145396308Y-92230120D01*
X145408702Y-92239723D01*
X145430261Y-92253629D01*
X145452948Y-92264911D01*
X145476763Y-92273569D01*
X145501707Y-92279603D01*
X145527778Y-92283014D01*
X145549448Y-92283854D01*
X145560503Y-92283644D01*
X145587315Y-92281282D01*
X145612946Y-92276297D01*
X145637396Y-92268689D01*
X145660666Y-92258456D01*
X145682755Y-92245600D01*
X145703663Y-92230120D01*
X145711536Y-92223171D01*
X145728997Y-92203758D01*
X145743283Y-92181433D01*
X145752426Y-92161476D01*
X145759537Y-92139655D01*
X145764617Y-92115970D01*
X145767664Y-92090422D01*
X145768680Y-92063009D01*
X145768680Y-90910965D01*
X145768426Y-90896960D01*
X145766395Y-90870362D01*
X145762331Y-90845645D01*
X145756236Y-90822808D01*
X145748108Y-90801852D01*
X145737949Y-90782777D01*
X145722394Y-90761577D01*
X145703663Y-90743316D01*
X145691260Y-90733714D01*
X145669643Y-90719808D01*
X145646846Y-90708526D01*
X145622868Y-90699868D01*
X145597709Y-90693833D01*
X145571370Y-90690422D01*
X145549448Y-90689583D01*
X145538523Y-90689793D01*
X145512000Y-90692154D01*
X145486605Y-90697139D01*
X145462338Y-90704748D01*
X145439200Y-90714980D01*
X145417190Y-90727836D01*
X145396308Y-90743316D01*
X145388435Y-90750268D01*
X145370974Y-90769704D01*
X145356688Y-90792079D01*
X145347545Y-90812095D01*
X145340433Y-90833991D01*
X145335354Y-90857769D01*
X145332306Y-90883426D01*
X145331290Y-90910965D01*
X145331290Y-92063009D01*
X145016950Y-92063009D01*
X145016950Y-90909890D01*
X145017361Y-90885375D01*
X145018593Y-90861398D01*
X145020648Y-90837959D01*
X145023524Y-90815059D01*
X145027222Y-90792697D01*
X145031741Y-90770874D01*
X145037082Y-90749589D01*
X145043246Y-90728842D01*
X145052741Y-90702017D01*
X145063698Y-90676150D01*
X145075821Y-90651298D01*
X145088818Y-90627521D01*
X145102688Y-90604818D01*
X145117431Y-90583191D01*
X145133048Y-90562638D01*
X145149537Y-90543159D01*
X145166900Y-90524756D01*
X145185135Y-90507427D01*
X145205008Y-90491668D01*
X145225402Y-90476899D01*
X145246316Y-90463122D01*
X145267750Y-90450335D01*
X145289706Y-90438539D01*
X145312181Y-90427733D01*
X145335178Y-90417918D01*
X145358694Y-90409094D01*
X145382371Y-90401160D01*
X145406114Y-90394284D01*
X145429925Y-90388466D01*
X145453802Y-90383705D01*
X145477747Y-90380003D01*
X145501760Y-90377358D01*
X145525839Y-90375771D01*
X145549985Y-90375242D01*
X145574140Y-90375771D01*
G37*
G36*
X143769797Y-91023805D02*
G01*
X144084137Y-91023805D01*
X144084137Y-90953414D01*
X144084893Y-90927009D01*
X144087160Y-90901528D01*
X144090938Y-90876970D01*
X144096227Y-90853336D01*
X144103028Y-90830625D01*
X144111340Y-90808838D01*
X144121163Y-90787974D01*
X144132498Y-90768034D01*
X144145620Y-90749647D01*
X144160808Y-90733711D01*
X144178062Y-90720228D01*
X144197381Y-90709196D01*
X144218765Y-90700615D01*
X144242214Y-90694486D01*
X144267729Y-90690809D01*
X144295310Y-90689583D01*
X144317469Y-90690452D01*
X144341267Y-90693662D01*
X144362854Y-90699238D01*
X144384818Y-90708507D01*
X144394717Y-90714300D01*
X144412650Y-90727398D01*
X144428837Y-90741973D01*
X144443278Y-90758026D01*
X144455973Y-90775556D01*
X144466854Y-90796344D01*
X144475854Y-90818409D01*
X144482974Y-90841749D01*
X144487661Y-90863219D01*
X144488213Y-90866366D01*
X144491563Y-90888669D01*
X144494090Y-90911384D01*
X144495794Y-90934511D01*
X144496676Y-90958049D01*
X144496810Y-90971683D01*
X144496659Y-90995290D01*
X144496206Y-91017348D01*
X144495295Y-91041125D01*
X144493972Y-91062793D01*
X144492511Y-91079688D01*
X144488771Y-91103145D01*
X144482991Y-91125157D01*
X144475170Y-91145725D01*
X144469943Y-91156526D01*
X144458392Y-91174846D01*
X144444290Y-91191720D01*
X144427638Y-91207149D01*
X144417285Y-91215096D01*
X144398545Y-91227186D01*
X144379614Y-91237765D01*
X144358316Y-91248343D01*
X144338179Y-91257411D01*
X144323789Y-91263456D01*
X144090048Y-91358564D01*
X144065264Y-91368849D01*
X144041688Y-91379554D01*
X144019321Y-91390678D01*
X143998164Y-91402222D01*
X143978215Y-91414187D01*
X143959476Y-91426570D01*
X143941945Y-91439374D01*
X143925624Y-91452598D01*
X143906633Y-91469796D01*
X143888955Y-91487808D01*
X143872588Y-91506633D01*
X143857534Y-91526271D01*
X143843791Y-91546723D01*
X143831359Y-91567988D01*
X143826754Y-91576722D01*
X143817023Y-91600070D01*
X143808315Y-91624442D01*
X143800630Y-91649836D01*
X143795219Y-91670889D01*
X143790463Y-91692597D01*
X143786361Y-91714959D01*
X143782915Y-91737976D01*
X143782156Y-91743833D01*
X143779259Y-91767618D01*
X143776749Y-91792226D01*
X143774625Y-91817657D01*
X143772887Y-91843911D01*
X143771535Y-91870988D01*
X143770569Y-91898887D01*
X143769990Y-91927609D01*
X143769809Y-91949691D01*
X143769797Y-91957154D01*
X143770038Y-91982776D01*
X143770760Y-92008058D01*
X143771965Y-92033000D01*
X143773651Y-92057602D01*
X143775818Y-92081864D01*
X143778468Y-92105786D01*
X143781599Y-92129368D01*
X143785212Y-92152610D01*
X143789306Y-92175512D01*
X143793882Y-92198073D01*
X143797201Y-92212926D01*
X143802637Y-92234784D01*
X143808668Y-92256028D01*
X143815293Y-92276658D01*
X143825054Y-92303210D01*
X143835872Y-92328670D01*
X143847748Y-92353039D01*
X143860681Y-92376317D01*
X143874673Y-92398503D01*
X143885861Y-92414426D01*
X143902602Y-92435340D01*
X143920586Y-92455095D01*
X143939813Y-92473692D01*
X143960282Y-92491130D01*
X143981994Y-92507410D01*
X144004948Y-92522531D01*
X144029145Y-92536493D01*
X144054584Y-92549297D01*
X144074435Y-92558035D01*
X144095098Y-92565914D01*
X144116574Y-92572934D01*
X144138862Y-92579094D01*
X144161962Y-92584394D01*
X144185874Y-92588835D01*
X144210599Y-92592416D01*
X144236136Y-92595138D01*
X144262485Y-92597000D01*
X144289647Y-92598003D01*
X144308206Y-92598194D01*
X144336189Y-92597573D01*
X144363719Y-92595709D01*
X144390796Y-92592603D01*
X144417419Y-92588254D01*
X144443589Y-92582662D01*
X144469305Y-92575828D01*
X144494568Y-92567751D01*
X144519378Y-92558431D01*
X144543399Y-92547886D01*
X144566563Y-92536401D01*
X144588871Y-92523975D01*
X144610322Y-92510609D01*
X144630917Y-92496302D01*
X144650656Y-92481055D01*
X144669538Y-92464868D01*
X144687564Y-92447741D01*
X144704708Y-92429656D01*
X144720946Y-92410866D01*
X144736277Y-92391371D01*
X144750701Y-92371170D01*
X144764218Y-92350265D01*
X144776828Y-92328654D01*
X144788532Y-92306338D01*
X144799329Y-92283316D01*
X144809027Y-92259548D01*
X144817431Y-92235258D01*
X144824542Y-92210449D01*
X144830360Y-92185118D01*
X144834886Y-92159268D01*
X144838118Y-92132896D01*
X144840058Y-92106004D01*
X144840704Y-92078592D01*
X144840704Y-91961990D01*
X144526364Y-91961990D01*
X144526364Y-92059785D01*
X144525144Y-92086245D01*
X144521483Y-92111892D01*
X144515383Y-92136725D01*
X144506843Y-92160745D01*
X144495863Y-92183952D01*
X144482443Y-92206345D01*
X144476391Y-92215075D01*
X144459109Y-92234889D01*
X144438495Y-92251345D01*
X144419604Y-92262092D01*
X144398581Y-92270689D01*
X144375425Y-92277137D01*
X144350137Y-92281436D01*
X144322716Y-92283585D01*
X144308206Y-92283854D01*
X144284388Y-92283290D01*
X144262302Y-92281597D01*
X144238084Y-92278077D01*
X144216359Y-92272933D01*
X144194166Y-92264877D01*
X144185694Y-92260748D01*
X144164906Y-92247987D01*
X144146603Y-92232807D01*
X144130785Y-92215209D01*
X144117452Y-92195193D01*
X144107825Y-92175380D01*
X144100100Y-92154024D01*
X144094278Y-92131126D01*
X144090359Y-92106684D01*
X144088973Y-92092025D01*
X144087330Y-92069168D01*
X144086027Y-92045328D01*
X144085063Y-92020505D01*
X144084440Y-91994701D01*
X144084180Y-91972446D01*
X144084137Y-91958766D01*
X144084282Y-91932661D01*
X144084715Y-91908076D01*
X144085436Y-91885014D01*
X144086446Y-91863474D01*
X144088039Y-91839634D01*
X144090048Y-91817985D01*
X144093200Y-91794800D01*
X144097483Y-91773672D01*
X144103763Y-91752044D01*
X144112594Y-91730924D01*
X144113691Y-91728787D01*
X144126541Y-91710723D01*
X144141517Y-91694614D01*
X144158618Y-91680460D01*
X144169036Y-91673442D01*
X144187641Y-91662494D01*
X144209068Y-91651143D01*
X144230130Y-91640880D01*
X144249902Y-91631837D01*
X144260383Y-91627231D01*
X144479078Y-91535347D01*
X144503222Y-91524730D01*
X144526355Y-91513703D01*
X144548476Y-91502263D01*
X144569585Y-91490412D01*
X144589683Y-91478150D01*
X144608769Y-91465477D01*
X144626843Y-91452392D01*
X144643905Y-91438896D01*
X144667602Y-91417880D01*
X144689023Y-91395938D01*
X144708167Y-91373071D01*
X144725034Y-91349278D01*
X144739626Y-91324560D01*
X144743984Y-91316115D01*
X144755987Y-91289915D01*
X144766810Y-91262497D01*
X144776452Y-91233860D01*
X144784914Y-91204005D01*
X144792194Y-91172931D01*
X144796392Y-91151539D01*
X144800066Y-91129605D01*
X144803214Y-91107129D01*
X144805838Y-91084112D01*
X144807937Y-91060553D01*
X144809511Y-91036453D01*
X144810560Y-91011811D01*
X144811085Y-90986627D01*
X144811151Y-90973833D01*
X144810863Y-90950966D01*
X144809998Y-90928306D01*
X144808558Y-90905855D01*
X144806541Y-90883611D01*
X144803949Y-90861575D01*
X144800780Y-90839747D01*
X144797035Y-90818126D01*
X144792713Y-90796714D01*
X144787816Y-90775509D01*
X144782342Y-90754512D01*
X144778373Y-90740630D01*
X144771834Y-90720144D01*
X144762204Y-90693668D01*
X144751533Y-90668149D01*
X144739821Y-90643587D01*
X144727067Y-90619982D01*
X144713273Y-90597334D01*
X144698437Y-90575643D01*
X144682561Y-90554910D01*
X144678429Y-90549876D01*
X144662040Y-90530498D01*
X144644577Y-90512128D01*
X144626039Y-90494766D01*
X144606426Y-90478411D01*
X144585739Y-90463063D01*
X144563977Y-90448723D01*
X144541140Y-90435390D01*
X144517229Y-90423065D01*
X144492058Y-90411857D01*
X144465712Y-90402143D01*
X144438190Y-90393923D01*
X144416778Y-90388739D01*
X144394704Y-90384396D01*
X144371969Y-90380893D01*
X144348573Y-90378231D01*
X144324516Y-90376410D01*
X144299797Y-90375429D01*
X144282951Y-90375242D01*
X144254640Y-90375914D01*
X144226934Y-90377929D01*
X144199832Y-90381287D01*
X144173335Y-90385989D01*
X144147442Y-90392034D01*
X144122154Y-90399422D01*
X144097470Y-90408154D01*
X144073391Y-90418229D01*
X144050017Y-90429412D01*
X144027449Y-90441469D01*
X144005687Y-90454398D01*
X143984731Y-90468201D01*
X143964581Y-90482877D01*
X143945237Y-90498426D01*
X143926699Y-90514849D01*
X143908966Y-90532144D01*
X143892114Y-90550718D01*
X143876349Y-90569631D01*
X143861671Y-90588885D01*
X143848080Y-90608479D01*
X143835576Y-90628413D01*
X143824160Y-90648687D01*
X143813831Y-90669301D01*
X143804589Y-90690255D01*
X143796435Y-90711549D01*
X143789368Y-90733183D01*
X143783388Y-90755157D01*
X143778495Y-90777471D01*
X143774690Y-90800125D01*
X143771971Y-90823119D01*
X143770341Y-90846453D01*
X143769797Y-90870127D01*
X143769797Y-91023805D01*
G37*
D13*
X132656955Y-84940273D02*
X131883146Y-84940273D01*
X131883146Y-84940273D02*
X132299812Y-85416464D01*
X132299812Y-85416464D02*
X132121241Y-85416464D01*
X132121241Y-85416464D02*
X132002193Y-85475988D01*
X132002193Y-85475988D02*
X131942669Y-85535511D01*
X131942669Y-85535511D02*
X131883146Y-85654559D01*
X131883146Y-85654559D02*
X131883146Y-85952178D01*
X131883146Y-85952178D02*
X131942669Y-86071226D01*
X131942669Y-86071226D02*
X132002193Y-86130750D01*
X132002193Y-86130750D02*
X132121241Y-86190273D01*
X132121241Y-86190273D02*
X132478384Y-86190273D01*
X132478384Y-86190273D02*
X132597431Y-86130750D01*
X132597431Y-86130750D02*
X132656955Y-86071226D01*
X131347431Y-86071226D02*
X131287908Y-86130750D01*
X131287908Y-86130750D02*
X131347431Y-86190273D01*
X131347431Y-86190273D02*
X131406955Y-86130750D01*
X131406955Y-86130750D02*
X131347431Y-86071226D01*
X131347431Y-86071226D02*
X131347431Y-86190273D01*
X130871241Y-84940273D02*
X130097432Y-84940273D01*
X130097432Y-84940273D02*
X130514098Y-85416464D01*
X130514098Y-85416464D02*
X130335527Y-85416464D01*
X130335527Y-85416464D02*
X130216479Y-85475988D01*
X130216479Y-85475988D02*
X130156955Y-85535511D01*
X130156955Y-85535511D02*
X130097432Y-85654559D01*
X130097432Y-85654559D02*
X130097432Y-85952178D01*
X130097432Y-85952178D02*
X130156955Y-86071226D01*
X130156955Y-86071226D02*
X130216479Y-86130750D01*
X130216479Y-86130750D02*
X130335527Y-86190273D01*
X130335527Y-86190273D02*
X130692670Y-86190273D01*
X130692670Y-86190273D02*
X130811717Y-86130750D01*
X130811717Y-86130750D02*
X130871241Y-86071226D01*
X129740289Y-84940273D02*
X129323622Y-86190273D01*
X129323622Y-86190273D02*
X128906956Y-84940273D01*
X127359336Y-85475988D02*
X127478384Y-85416464D01*
X127478384Y-85416464D02*
X127537907Y-85356940D01*
X127537907Y-85356940D02*
X127597431Y-85237892D01*
X127597431Y-85237892D02*
X127597431Y-85178369D01*
X127597431Y-85178369D02*
X127537907Y-85059321D01*
X127537907Y-85059321D02*
X127478384Y-84999797D01*
X127478384Y-84999797D02*
X127359336Y-84940273D01*
X127359336Y-84940273D02*
X127121241Y-84940273D01*
X127121241Y-84940273D02*
X127002193Y-84999797D01*
X127002193Y-84999797D02*
X126942669Y-85059321D01*
X126942669Y-85059321D02*
X126883146Y-85178369D01*
X126883146Y-85178369D02*
X126883146Y-85237892D01*
X126883146Y-85237892D02*
X126942669Y-85356940D01*
X126942669Y-85356940D02*
X127002193Y-85416464D01*
X127002193Y-85416464D02*
X127121241Y-85475988D01*
X127121241Y-85475988D02*
X127359336Y-85475988D01*
X127359336Y-85475988D02*
X127478384Y-85535511D01*
X127478384Y-85535511D02*
X127537907Y-85595035D01*
X127537907Y-85595035D02*
X127597431Y-85714083D01*
X127597431Y-85714083D02*
X127597431Y-85952178D01*
X127597431Y-85952178D02*
X127537907Y-86071226D01*
X127537907Y-86071226D02*
X127478384Y-86130750D01*
X127478384Y-86130750D02*
X127359336Y-86190273D01*
X127359336Y-86190273D02*
X127121241Y-86190273D01*
X127121241Y-86190273D02*
X127002193Y-86130750D01*
X127002193Y-86130750D02*
X126942669Y-86071226D01*
X126942669Y-86071226D02*
X126883146Y-85952178D01*
X126883146Y-85952178D02*
X126883146Y-85714083D01*
X126883146Y-85714083D02*
X126942669Y-85595035D01*
X126942669Y-85595035D02*
X127002193Y-85535511D01*
X127002193Y-85535511D02*
X127121241Y-85475988D01*
X126347431Y-86190273D02*
X126347431Y-84940273D01*
X126347431Y-85416464D02*
X126228384Y-85356940D01*
X126228384Y-85356940D02*
X125990289Y-85356940D01*
X125990289Y-85356940D02*
X125871241Y-85416464D01*
X125871241Y-85416464D02*
X125811717Y-85475988D01*
X125811717Y-85475988D02*
X125752193Y-85595035D01*
X125752193Y-85595035D02*
X125752193Y-85952178D01*
X125752193Y-85952178D02*
X125811717Y-86071226D01*
X125811717Y-86071226D02*
X125871241Y-86130750D01*
X125871241Y-86130750D02*
X125990289Y-86190273D01*
X125990289Y-86190273D02*
X126228384Y-86190273D01*
X126228384Y-86190273D02*
X126347431Y-86130750D01*
X125216479Y-86190273D02*
X125216479Y-85356940D01*
X125216479Y-84940273D02*
X125276003Y-84999797D01*
X125276003Y-84999797D02*
X125216479Y-85059321D01*
X125216479Y-85059321D02*
X125156956Y-84999797D01*
X125156956Y-84999797D02*
X125216479Y-84940273D01*
X125216479Y-84940273D02*
X125216479Y-85059321D01*
X124799813Y-85356940D02*
X124323622Y-85356940D01*
X124621241Y-84940273D02*
X124621241Y-86011702D01*
X124621241Y-86011702D02*
X124561718Y-86130750D01*
X124561718Y-86130750D02*
X124442670Y-86190273D01*
X124442670Y-86190273D02*
X124323622Y-86190273D01*
X122954574Y-86190273D02*
X122954574Y-84940273D01*
X122954574Y-84940273D02*
X122478384Y-84940273D01*
X122478384Y-84940273D02*
X122359336Y-84999797D01*
X122359336Y-84999797D02*
X122299813Y-85059321D01*
X122299813Y-85059321D02*
X122240289Y-85178369D01*
X122240289Y-85178369D02*
X122240289Y-85356940D01*
X122240289Y-85356940D02*
X122299813Y-85475988D01*
X122299813Y-85475988D02*
X122359336Y-85535511D01*
X122359336Y-85535511D02*
X122478384Y-85595035D01*
X122478384Y-85595035D02*
X122954574Y-85595035D01*
X121168860Y-86190273D02*
X121168860Y-85535511D01*
X121168860Y-85535511D02*
X121228384Y-85416464D01*
X121228384Y-85416464D02*
X121347432Y-85356940D01*
X121347432Y-85356940D02*
X121585527Y-85356940D01*
X121585527Y-85356940D02*
X121704574Y-85416464D01*
X121168860Y-86130750D02*
X121287908Y-86190273D01*
X121287908Y-86190273D02*
X121585527Y-86190273D01*
X121585527Y-86190273D02*
X121704574Y-86130750D01*
X121704574Y-86130750D02*
X121764098Y-86011702D01*
X121764098Y-86011702D02*
X121764098Y-85892654D01*
X121764098Y-85892654D02*
X121704574Y-85773607D01*
X121704574Y-85773607D02*
X121585527Y-85714083D01*
X121585527Y-85714083D02*
X121287908Y-85714083D01*
X121287908Y-85714083D02*
X121168860Y-85654559D01*
X120573622Y-86190273D02*
X120573622Y-85356940D01*
X120573622Y-85595035D02*
X120514099Y-85475988D01*
X120514099Y-85475988D02*
X120454575Y-85416464D01*
X120454575Y-85416464D02*
X120335527Y-85356940D01*
X120335527Y-85356940D02*
X120216480Y-85356940D01*
X119264098Y-86190273D02*
X119264098Y-85535511D01*
X119264098Y-85535511D02*
X119323622Y-85416464D01*
X119323622Y-85416464D02*
X119442670Y-85356940D01*
X119442670Y-85356940D02*
X119680765Y-85356940D01*
X119680765Y-85356940D02*
X119799812Y-85416464D01*
X119264098Y-86130750D02*
X119383146Y-86190273D01*
X119383146Y-86190273D02*
X119680765Y-86190273D01*
X119680765Y-86190273D02*
X119799812Y-86130750D01*
X119799812Y-86130750D02*
X119859336Y-86011702D01*
X119859336Y-86011702D02*
X119859336Y-85892654D01*
X119859336Y-85892654D02*
X119799812Y-85773607D01*
X119799812Y-85773607D02*
X119680765Y-85714083D01*
X119680765Y-85714083D02*
X119383146Y-85714083D01*
X119383146Y-85714083D02*
X119264098Y-85654559D01*
X118490289Y-86190273D02*
X118609337Y-86130750D01*
X118609337Y-86130750D02*
X118668860Y-86011702D01*
X118668860Y-86011702D02*
X118668860Y-84940273D01*
X117835527Y-86190273D02*
X117954575Y-86130750D01*
X117954575Y-86130750D02*
X118014098Y-86011702D01*
X118014098Y-86011702D02*
X118014098Y-84940273D01*
X116883146Y-86130750D02*
X117002194Y-86190273D01*
X117002194Y-86190273D02*
X117240289Y-86190273D01*
X117240289Y-86190273D02*
X117359336Y-86130750D01*
X117359336Y-86130750D02*
X117418860Y-86011702D01*
X117418860Y-86011702D02*
X117418860Y-85535511D01*
X117418860Y-85535511D02*
X117359336Y-85416464D01*
X117359336Y-85416464D02*
X117240289Y-85356940D01*
X117240289Y-85356940D02*
X117002194Y-85356940D01*
X117002194Y-85356940D02*
X116883146Y-85416464D01*
X116883146Y-85416464D02*
X116823622Y-85535511D01*
X116823622Y-85535511D02*
X116823622Y-85654559D01*
X116823622Y-85654559D02*
X117418860Y-85773607D01*
X116109336Y-86190273D02*
X116228384Y-86130750D01*
X116228384Y-86130750D02*
X116287907Y-86011702D01*
X116287907Y-86011702D02*
X116287907Y-84940273D01*
X113966479Y-86071226D02*
X114026003Y-86130750D01*
X114026003Y-86130750D02*
X114204574Y-86190273D01*
X114204574Y-86190273D02*
X114323622Y-86190273D01*
X114323622Y-86190273D02*
X114502193Y-86130750D01*
X114502193Y-86130750D02*
X114621241Y-86011702D01*
X114621241Y-86011702D02*
X114680764Y-85892654D01*
X114680764Y-85892654D02*
X114740288Y-85654559D01*
X114740288Y-85654559D02*
X114740288Y-85475988D01*
X114740288Y-85475988D02*
X114680764Y-85237892D01*
X114680764Y-85237892D02*
X114621241Y-85118845D01*
X114621241Y-85118845D02*
X114502193Y-84999797D01*
X114502193Y-84999797D02*
X114323622Y-84940273D01*
X114323622Y-84940273D02*
X114204574Y-84940273D01*
X114204574Y-84940273D02*
X114026003Y-84999797D01*
X114026003Y-84999797D02*
X113966479Y-85059321D01*
X113430764Y-86190273D02*
X113430764Y-84940273D01*
X113430764Y-84940273D02*
X113014098Y-85833130D01*
X113014098Y-85833130D02*
X112597431Y-84940273D01*
X112597431Y-84940273D02*
X112597431Y-86190273D01*
X111764098Y-84940273D02*
X111526003Y-84940273D01*
X111526003Y-84940273D02*
X111406955Y-84999797D01*
X111406955Y-84999797D02*
X111287908Y-85118845D01*
X111287908Y-85118845D02*
X111228384Y-85356940D01*
X111228384Y-85356940D02*
X111228384Y-85773607D01*
X111228384Y-85773607D02*
X111287908Y-86011702D01*
X111287908Y-86011702D02*
X111406955Y-86130750D01*
X111406955Y-86130750D02*
X111526003Y-86190273D01*
X111526003Y-86190273D02*
X111764098Y-86190273D01*
X111764098Y-86190273D02*
X111883146Y-86130750D01*
X111883146Y-86130750D02*
X112002193Y-86011702D01*
X112002193Y-86011702D02*
X112061717Y-85773607D01*
X112061717Y-85773607D02*
X112061717Y-85356940D01*
X112061717Y-85356940D02*
X112002193Y-85118845D01*
X112002193Y-85118845D02*
X111883146Y-84999797D01*
X111883146Y-84999797D02*
X111764098Y-84940273D01*
X110752193Y-86130750D02*
X110573622Y-86190273D01*
X110573622Y-86190273D02*
X110276003Y-86190273D01*
X110276003Y-86190273D02*
X110156955Y-86130750D01*
X110156955Y-86130750D02*
X110097431Y-86071226D01*
X110097431Y-86071226D02*
X110037908Y-85952178D01*
X110037908Y-85952178D02*
X110037908Y-85833130D01*
X110037908Y-85833130D02*
X110097431Y-85714083D01*
X110097431Y-85714083D02*
X110156955Y-85654559D01*
X110156955Y-85654559D02*
X110276003Y-85595035D01*
X110276003Y-85595035D02*
X110514098Y-85535511D01*
X110514098Y-85535511D02*
X110633146Y-85475988D01*
X110633146Y-85475988D02*
X110692669Y-85416464D01*
X110692669Y-85416464D02*
X110752193Y-85297416D01*
X110752193Y-85297416D02*
X110752193Y-85178369D01*
X110752193Y-85178369D02*
X110692669Y-85059321D01*
X110692669Y-85059321D02*
X110633146Y-84999797D01*
X110633146Y-84999797D02*
X110514098Y-84940273D01*
X110514098Y-84940273D02*
X110216479Y-84940273D01*
X110216479Y-84940273D02*
X110037908Y-84999797D01*
X132537907Y-87548011D02*
X132121241Y-87548011D01*
X131942669Y-88202773D02*
X132537907Y-88202773D01*
X132537907Y-88202773D02*
X132537907Y-86952773D01*
X132537907Y-86952773D02*
X131942669Y-86952773D01*
X131406955Y-88202773D02*
X131406955Y-86952773D01*
X131406955Y-86952773D02*
X130930765Y-86952773D01*
X130930765Y-86952773D02*
X130811717Y-87012297D01*
X130811717Y-87012297D02*
X130752194Y-87071821D01*
X130752194Y-87071821D02*
X130692670Y-87190869D01*
X130692670Y-87190869D02*
X130692670Y-87369440D01*
X130692670Y-87369440D02*
X130752194Y-87488488D01*
X130752194Y-87488488D02*
X130811717Y-87548011D01*
X130811717Y-87548011D02*
X130930765Y-87607535D01*
X130930765Y-87607535D02*
X131406955Y-87607535D01*
X129442670Y-88202773D02*
X129859336Y-87607535D01*
X130156955Y-88202773D02*
X130156955Y-86952773D01*
X130156955Y-86952773D02*
X129680765Y-86952773D01*
X129680765Y-86952773D02*
X129561717Y-87012297D01*
X129561717Y-87012297D02*
X129502194Y-87071821D01*
X129502194Y-87071821D02*
X129442670Y-87190869D01*
X129442670Y-87190869D02*
X129442670Y-87369440D01*
X129442670Y-87369440D02*
X129502194Y-87488488D01*
X129502194Y-87488488D02*
X129561717Y-87548011D01*
X129561717Y-87548011D02*
X129680765Y-87607535D01*
X129680765Y-87607535D02*
X130156955Y-87607535D01*
X128668860Y-86952773D02*
X128430765Y-86952773D01*
X128430765Y-86952773D02*
X128311717Y-87012297D01*
X128311717Y-87012297D02*
X128192670Y-87131345D01*
X128192670Y-87131345D02*
X128133146Y-87369440D01*
X128133146Y-87369440D02*
X128133146Y-87786107D01*
X128133146Y-87786107D02*
X128192670Y-88024202D01*
X128192670Y-88024202D02*
X128311717Y-88143250D01*
X128311717Y-88143250D02*
X128430765Y-88202773D01*
X128430765Y-88202773D02*
X128668860Y-88202773D01*
X128668860Y-88202773D02*
X128787908Y-88143250D01*
X128787908Y-88143250D02*
X128906955Y-88024202D01*
X128906955Y-88024202D02*
X128966479Y-87786107D01*
X128966479Y-87786107D02*
X128966479Y-87369440D01*
X128966479Y-87369440D02*
X128906955Y-87131345D01*
X128906955Y-87131345D02*
X128787908Y-87012297D01*
X128787908Y-87012297D02*
X128668860Y-86952773D01*
X127597431Y-88202773D02*
X127597431Y-86952773D01*
X127597431Y-86952773D02*
X127180765Y-87845630D01*
X127180765Y-87845630D02*
X126764098Y-86952773D01*
X126764098Y-86952773D02*
X126764098Y-88202773D01*
X125276003Y-86893250D02*
X126347432Y-88500392D01*
X124859336Y-87548011D02*
X124442670Y-87548011D01*
X124264098Y-88202773D02*
X124859336Y-88202773D01*
X124859336Y-88202773D02*
X124859336Y-86952773D01*
X124859336Y-86952773D02*
X124264098Y-86952773D01*
X123728384Y-87548011D02*
X123311718Y-87548011D01*
X123133146Y-88202773D02*
X123728384Y-88202773D01*
X123728384Y-88202773D02*
X123728384Y-86952773D01*
X123728384Y-86952773D02*
X123133146Y-86952773D01*
X122597432Y-88202773D02*
X122597432Y-86952773D01*
X122597432Y-86952773D02*
X122121242Y-86952773D01*
X122121242Y-86952773D02*
X122002194Y-87012297D01*
X122002194Y-87012297D02*
X121942671Y-87071821D01*
X121942671Y-87071821D02*
X121883147Y-87190869D01*
X121883147Y-87190869D02*
X121883147Y-87369440D01*
X121883147Y-87369440D02*
X121942671Y-87488488D01*
X121942671Y-87488488D02*
X122002194Y-87548011D01*
X122002194Y-87548011D02*
X122121242Y-87607535D01*
X122121242Y-87607535D02*
X122597432Y-87607535D01*
X120633147Y-88202773D02*
X121049813Y-87607535D01*
X121347432Y-88202773D02*
X121347432Y-86952773D01*
X121347432Y-86952773D02*
X120871242Y-86952773D01*
X120871242Y-86952773D02*
X120752194Y-87012297D01*
X120752194Y-87012297D02*
X120692671Y-87071821D01*
X120692671Y-87071821D02*
X120633147Y-87190869D01*
X120633147Y-87190869D02*
X120633147Y-87369440D01*
X120633147Y-87369440D02*
X120692671Y-87488488D01*
X120692671Y-87488488D02*
X120752194Y-87548011D01*
X120752194Y-87548011D02*
X120871242Y-87607535D01*
X120871242Y-87607535D02*
X121347432Y-87607535D01*
X119859337Y-86952773D02*
X119621242Y-86952773D01*
X119621242Y-86952773D02*
X119502194Y-87012297D01*
X119502194Y-87012297D02*
X119383147Y-87131345D01*
X119383147Y-87131345D02*
X119323623Y-87369440D01*
X119323623Y-87369440D02*
X119323623Y-87786107D01*
X119323623Y-87786107D02*
X119383147Y-88024202D01*
X119383147Y-88024202D02*
X119502194Y-88143250D01*
X119502194Y-88143250D02*
X119621242Y-88202773D01*
X119621242Y-88202773D02*
X119859337Y-88202773D01*
X119859337Y-88202773D02*
X119978385Y-88143250D01*
X119978385Y-88143250D02*
X120097432Y-88024202D01*
X120097432Y-88024202D02*
X120156956Y-87786107D01*
X120156956Y-87786107D02*
X120156956Y-87369440D01*
X120156956Y-87369440D02*
X120097432Y-87131345D01*
X120097432Y-87131345D02*
X119978385Y-87012297D01*
X119978385Y-87012297D02*
X119859337Y-86952773D01*
X118787908Y-88202773D02*
X118787908Y-86952773D01*
X118787908Y-86952773D02*
X118371242Y-87845630D01*
X118371242Y-87845630D02*
X117954575Y-86952773D01*
X117954575Y-86952773D02*
X117954575Y-88202773D01*
X116466480Y-86893250D02*
X117537909Y-88500392D01*
X115633147Y-87548011D02*
X116049813Y-87548011D01*
X116049813Y-88202773D02*
X116049813Y-86952773D01*
X116049813Y-86952773D02*
X115454575Y-86952773D01*
X114799813Y-88202773D02*
X114918861Y-88143250D01*
X114918861Y-88143250D02*
X114978384Y-88024202D01*
X114978384Y-88024202D02*
X114978384Y-86952773D01*
X113787908Y-88202773D02*
X113787908Y-87548011D01*
X113787908Y-87548011D02*
X113847432Y-87428964D01*
X113847432Y-87428964D02*
X113966480Y-87369440D01*
X113966480Y-87369440D02*
X114204575Y-87369440D01*
X114204575Y-87369440D02*
X114323622Y-87428964D01*
X113787908Y-88143250D02*
X113906956Y-88202773D01*
X113906956Y-88202773D02*
X114204575Y-88202773D01*
X114204575Y-88202773D02*
X114323622Y-88143250D01*
X114323622Y-88143250D02*
X114383146Y-88024202D01*
X114383146Y-88024202D02*
X114383146Y-87905154D01*
X114383146Y-87905154D02*
X114323622Y-87786107D01*
X114323622Y-87786107D02*
X114204575Y-87726583D01*
X114204575Y-87726583D02*
X113906956Y-87726583D01*
X113906956Y-87726583D02*
X113787908Y-87667059D01*
X113252194Y-88143250D02*
X113133147Y-88202773D01*
X113133147Y-88202773D02*
X112895051Y-88202773D01*
X112895051Y-88202773D02*
X112776004Y-88143250D01*
X112776004Y-88143250D02*
X112716480Y-88024202D01*
X112716480Y-88024202D02*
X112716480Y-87964678D01*
X112716480Y-87964678D02*
X112776004Y-87845630D01*
X112776004Y-87845630D02*
X112895051Y-87786107D01*
X112895051Y-87786107D02*
X113073623Y-87786107D01*
X113073623Y-87786107D02*
X113192670Y-87726583D01*
X113192670Y-87726583D02*
X113252194Y-87607535D01*
X113252194Y-87607535D02*
X113252194Y-87548011D01*
X113252194Y-87548011D02*
X113192670Y-87428964D01*
X113192670Y-87428964D02*
X113073623Y-87369440D01*
X113073623Y-87369440D02*
X112895051Y-87369440D01*
X112895051Y-87369440D02*
X112776004Y-87428964D01*
X112180765Y-88202773D02*
X112180765Y-86952773D01*
X111645051Y-88202773D02*
X111645051Y-87548011D01*
X111645051Y-87548011D02*
X111704575Y-87428964D01*
X111704575Y-87428964D02*
X111823623Y-87369440D01*
X111823623Y-87369440D02*
X112002194Y-87369440D01*
X112002194Y-87369440D02*
X112121242Y-87428964D01*
X112121242Y-87428964D02*
X112180765Y-87488488D01*
X132061717Y-90155750D02*
X132180765Y-90215273D01*
X132180765Y-90215273D02*
X132418860Y-90215273D01*
X132418860Y-90215273D02*
X132537907Y-90155750D01*
X132537907Y-90155750D02*
X132597431Y-90036702D01*
X132597431Y-90036702D02*
X132597431Y-89560511D01*
X132597431Y-89560511D02*
X132537907Y-89441464D01*
X132537907Y-89441464D02*
X132418860Y-89381940D01*
X132418860Y-89381940D02*
X132180765Y-89381940D01*
X132180765Y-89381940D02*
X132061717Y-89441464D01*
X132061717Y-89441464D02*
X132002193Y-89560511D01*
X132002193Y-89560511D02*
X132002193Y-89679559D01*
X132002193Y-89679559D02*
X132597431Y-89798607D01*
X131466478Y-90096226D02*
X131406955Y-90155750D01*
X131406955Y-90155750D02*
X131466478Y-90215273D01*
X131466478Y-90215273D02*
X131526002Y-90155750D01*
X131526002Y-90155750D02*
X131466478Y-90096226D01*
X131466478Y-90096226D02*
X131466478Y-90215273D01*
X130335526Y-89381940D02*
X130335526Y-90393845D01*
X130335526Y-90393845D02*
X130395050Y-90512892D01*
X130395050Y-90512892D02*
X130454574Y-90572416D01*
X130454574Y-90572416D02*
X130573621Y-90631940D01*
X130573621Y-90631940D02*
X130752193Y-90631940D01*
X130752193Y-90631940D02*
X130871240Y-90572416D01*
X130335526Y-90155750D02*
X130454574Y-90215273D01*
X130454574Y-90215273D02*
X130692669Y-90215273D01*
X130692669Y-90215273D02*
X130811717Y-90155750D01*
X130811717Y-90155750D02*
X130871240Y-90096226D01*
X130871240Y-90096226D02*
X130930764Y-89977178D01*
X130930764Y-89977178D02*
X130930764Y-89620035D01*
X130930764Y-89620035D02*
X130871240Y-89500988D01*
X130871240Y-89500988D02*
X130811717Y-89441464D01*
X130811717Y-89441464D02*
X130692669Y-89381940D01*
X130692669Y-89381940D02*
X130454574Y-89381940D01*
X130454574Y-89381940D02*
X130335526Y-89441464D01*
X129740288Y-90096226D02*
X129680765Y-90155750D01*
X129680765Y-90155750D02*
X129740288Y-90215273D01*
X129740288Y-90215273D02*
X129799812Y-90155750D01*
X129799812Y-90155750D02*
X129740288Y-90096226D01*
X129740288Y-90096226D02*
X129740288Y-90215273D01*
X128787907Y-92168250D02*
X128609336Y-92227773D01*
X128609336Y-92227773D02*
X128311717Y-92227773D01*
X128311717Y-92227773D02*
X128192669Y-92168250D01*
X128192669Y-92168250D02*
X128133145Y-92108726D01*
X128133145Y-92108726D02*
X128073622Y-91989678D01*
X128073622Y-91989678D02*
X128073622Y-91870630D01*
X128073622Y-91870630D02*
X128133145Y-91751583D01*
X128133145Y-91751583D02*
X128192669Y-91692059D01*
X128192669Y-91692059D02*
X128311717Y-91632535D01*
X128311717Y-91632535D02*
X128549812Y-91573011D01*
X128549812Y-91573011D02*
X128668860Y-91513488D01*
X128668860Y-91513488D02*
X128728383Y-91453964D01*
X128728383Y-91453964D02*
X128787907Y-91334916D01*
X128787907Y-91334916D02*
X128787907Y-91215869D01*
X128787907Y-91215869D02*
X128728383Y-91096821D01*
X128728383Y-91096821D02*
X128668860Y-91037297D01*
X128668860Y-91037297D02*
X128549812Y-90977773D01*
X128549812Y-90977773D02*
X128252193Y-90977773D01*
X128252193Y-90977773D02*
X128073622Y-91037297D01*
X127597431Y-92168250D02*
X127418860Y-92227773D01*
X127418860Y-92227773D02*
X127121241Y-92227773D01*
X127121241Y-92227773D02*
X127002193Y-92168250D01*
X127002193Y-92168250D02*
X126942669Y-92108726D01*
X126942669Y-92108726D02*
X126883146Y-91989678D01*
X126883146Y-91989678D02*
X126883146Y-91870630D01*
X126883146Y-91870630D02*
X126942669Y-91751583D01*
X126942669Y-91751583D02*
X127002193Y-91692059D01*
X127002193Y-91692059D02*
X127121241Y-91632535D01*
X127121241Y-91632535D02*
X127359336Y-91573011D01*
X127359336Y-91573011D02*
X127478384Y-91513488D01*
X127478384Y-91513488D02*
X127537907Y-91453964D01*
X127537907Y-91453964D02*
X127597431Y-91334916D01*
X127597431Y-91334916D02*
X127597431Y-91215869D01*
X127597431Y-91215869D02*
X127537907Y-91096821D01*
X127537907Y-91096821D02*
X127478384Y-91037297D01*
X127478384Y-91037297D02*
X127359336Y-90977773D01*
X127359336Y-90977773D02*
X127061717Y-90977773D01*
X127061717Y-90977773D02*
X126883146Y-91037297D01*
X126526003Y-90977773D02*
X125811717Y-90977773D01*
X126168860Y-92227773D02*
X126168860Y-90977773D01*
X125514098Y-90977773D02*
X124740289Y-90977773D01*
X124740289Y-90977773D02*
X125156955Y-91453964D01*
X125156955Y-91453964D02*
X124978384Y-91453964D01*
X124978384Y-91453964D02*
X124859336Y-91513488D01*
X124859336Y-91513488D02*
X124799812Y-91573011D01*
X124799812Y-91573011D02*
X124740289Y-91692059D01*
X124740289Y-91692059D02*
X124740289Y-91989678D01*
X124740289Y-91989678D02*
X124799812Y-92108726D01*
X124799812Y-92108726D02*
X124859336Y-92168250D01*
X124859336Y-92168250D02*
X124978384Y-92227773D01*
X124978384Y-92227773D02*
X125335527Y-92227773D01*
X125335527Y-92227773D02*
X125454574Y-92168250D01*
X125454574Y-92168250D02*
X125514098Y-92108726D01*
X124145051Y-92227773D02*
X123906955Y-92227773D01*
X123906955Y-92227773D02*
X123787908Y-92168250D01*
X123787908Y-92168250D02*
X123728384Y-92108726D01*
X123728384Y-92108726D02*
X123609336Y-91930154D01*
X123609336Y-91930154D02*
X123549813Y-91692059D01*
X123549813Y-91692059D02*
X123549813Y-91215869D01*
X123549813Y-91215869D02*
X123609336Y-91096821D01*
X123609336Y-91096821D02*
X123668860Y-91037297D01*
X123668860Y-91037297D02*
X123787908Y-90977773D01*
X123787908Y-90977773D02*
X124026003Y-90977773D01*
X124026003Y-90977773D02*
X124145051Y-91037297D01*
X124145051Y-91037297D02*
X124204574Y-91096821D01*
X124204574Y-91096821D02*
X124264098Y-91215869D01*
X124264098Y-91215869D02*
X124264098Y-91513488D01*
X124264098Y-91513488D02*
X124204574Y-91632535D01*
X124204574Y-91632535D02*
X124145051Y-91692059D01*
X124145051Y-91692059D02*
X124026003Y-91751583D01*
X124026003Y-91751583D02*
X123787908Y-91751583D01*
X123787908Y-91751583D02*
X123668860Y-91692059D01*
X123668860Y-91692059D02*
X123609336Y-91632535D01*
X123609336Y-91632535D02*
X123549813Y-91513488D01*
X123192670Y-90977773D02*
X122776003Y-92227773D01*
X122776003Y-92227773D02*
X122359337Y-90977773D01*
X121526003Y-91573011D02*
X121942669Y-91573011D01*
X121942669Y-92227773D02*
X121942669Y-90977773D01*
X121942669Y-90977773D02*
X121347431Y-90977773D01*
X120692669Y-90977773D02*
X120692669Y-91275392D01*
X120990288Y-91156345D02*
X120692669Y-91275392D01*
X120692669Y-91275392D02*
X120395050Y-91156345D01*
X120871240Y-91513488D02*
X120692669Y-91275392D01*
X120692669Y-91275392D02*
X120514098Y-91513488D01*
X119740288Y-90977773D02*
X119740288Y-91275392D01*
X120037907Y-91156345D02*
X119740288Y-91275392D01*
X119740288Y-91275392D02*
X119442669Y-91156345D01*
X119918859Y-91513488D02*
X119740288Y-91275392D01*
X119740288Y-91275392D02*
X119561717Y-91513488D01*
X118787907Y-90977773D02*
X118787907Y-91275392D01*
X119085526Y-91156345D02*
X118787907Y-91275392D01*
X118787907Y-91275392D02*
X118490288Y-91156345D01*
X118966478Y-91513488D02*
X118787907Y-91275392D01*
X118787907Y-91275392D02*
X118609336Y-91513488D01*
X128787907Y-93883130D02*
X128192669Y-93883130D01*
X128906955Y-94240273D02*
X128490288Y-92990273D01*
X128490288Y-92990273D02*
X128073622Y-94240273D01*
X127835526Y-92990273D02*
X127121240Y-92990273D01*
X127478383Y-94240273D02*
X127478383Y-92990273D01*
X126764097Y-93109321D02*
X126704573Y-93049797D01*
X126704573Y-93049797D02*
X126585526Y-92990273D01*
X126585526Y-92990273D02*
X126287907Y-92990273D01*
X126287907Y-92990273D02*
X126168859Y-93049797D01*
X126168859Y-93049797D02*
X126109335Y-93109321D01*
X126109335Y-93109321D02*
X126049812Y-93228369D01*
X126049812Y-93228369D02*
X126049812Y-93347416D01*
X126049812Y-93347416D02*
X126109335Y-93525988D01*
X126109335Y-93525988D02*
X126823621Y-94240273D01*
X126823621Y-94240273D02*
X126049812Y-94240273D01*
X125633145Y-92990273D02*
X124799812Y-92990273D01*
X124799812Y-92990273D02*
X125335526Y-94240273D01*
X123728383Y-94240273D02*
X124323621Y-94240273D01*
X124323621Y-94240273D02*
X124323621Y-92990273D01*
X123490288Y-92990273D02*
X123073621Y-94240273D01*
X123073621Y-94240273D02*
X122656955Y-92990273D01*
X122002192Y-92990273D02*
X121883145Y-92990273D01*
X121883145Y-92990273D02*
X121764097Y-93049797D01*
X121764097Y-93049797D02*
X121704573Y-93109321D01*
X121704573Y-93109321D02*
X121645049Y-93228369D01*
X121645049Y-93228369D02*
X121585526Y-93466464D01*
X121585526Y-93466464D02*
X121585526Y-93764083D01*
X121585526Y-93764083D02*
X121645049Y-94002178D01*
X121645049Y-94002178D02*
X121704573Y-94121226D01*
X121704573Y-94121226D02*
X121764097Y-94180750D01*
X121764097Y-94180750D02*
X121883145Y-94240273D01*
X121883145Y-94240273D02*
X122002192Y-94240273D01*
X122002192Y-94240273D02*
X122121240Y-94180750D01*
X122121240Y-94180750D02*
X122180764Y-94121226D01*
X122180764Y-94121226D02*
X122240287Y-94002178D01*
X122240287Y-94002178D02*
X122299811Y-93764083D01*
X122299811Y-93764083D02*
X122299811Y-93466464D01*
X122299811Y-93466464D02*
X122240287Y-93228369D01*
X122240287Y-93228369D02*
X122180764Y-93109321D01*
X122180764Y-93109321D02*
X122121240Y-93049797D01*
X122121240Y-93049797D02*
X122002192Y-92990273D01*
X120395050Y-94240273D02*
X121109335Y-94240273D01*
X120752192Y-94240273D02*
X120752192Y-92990273D01*
X120752192Y-92990273D02*
X120871240Y-93168845D01*
X120871240Y-93168845D02*
X120990288Y-93287892D01*
X120990288Y-93287892D02*
X121109335Y-93347416D01*
X119621240Y-92990273D02*
X119502193Y-92990273D01*
X119502193Y-92990273D02*
X119383145Y-93049797D01*
X119383145Y-93049797D02*
X119323621Y-93109321D01*
X119323621Y-93109321D02*
X119264097Y-93228369D01*
X119264097Y-93228369D02*
X119204574Y-93466464D01*
X119204574Y-93466464D02*
X119204574Y-93764083D01*
X119204574Y-93764083D02*
X119264097Y-94002178D01*
X119264097Y-94002178D02*
X119323621Y-94121226D01*
X119323621Y-94121226D02*
X119383145Y-94180750D01*
X119383145Y-94180750D02*
X119502193Y-94240273D01*
X119502193Y-94240273D02*
X119621240Y-94240273D01*
X119621240Y-94240273D02*
X119740288Y-94180750D01*
X119740288Y-94180750D02*
X119799812Y-94121226D01*
X119799812Y-94121226D02*
X119859335Y-94002178D01*
X119859335Y-94002178D02*
X119918859Y-93764083D01*
X119918859Y-93764083D02*
X119918859Y-93466464D01*
X119918859Y-93466464D02*
X119859335Y-93228369D01*
X119859335Y-93228369D02*
X119799812Y-93109321D01*
X119799812Y-93109321D02*
X119740288Y-93049797D01*
X119740288Y-93049797D02*
X119621240Y-92990273D01*
X118728383Y-93883130D02*
X118133145Y-93883130D01*
X118847431Y-94240273D02*
X118430764Y-92990273D01*
X118430764Y-92990273D02*
X118014098Y-94240273D01*
X116466478Y-94240273D02*
X116585526Y-94180750D01*
X116585526Y-94180750D02*
X116645049Y-94121226D01*
X116645049Y-94121226D02*
X116704573Y-94002178D01*
X116704573Y-94002178D02*
X116704573Y-93645035D01*
X116704573Y-93645035D02*
X116645049Y-93525988D01*
X116645049Y-93525988D02*
X116585526Y-93466464D01*
X116585526Y-93466464D02*
X116466478Y-93406940D01*
X116466478Y-93406940D02*
X116287907Y-93406940D01*
X116287907Y-93406940D02*
X116168859Y-93466464D01*
X116168859Y-93466464D02*
X116109335Y-93525988D01*
X116109335Y-93525988D02*
X116049811Y-93645035D01*
X116049811Y-93645035D02*
X116049811Y-94002178D01*
X116049811Y-94002178D02*
X116109335Y-94121226D01*
X116109335Y-94121226D02*
X116168859Y-94180750D01*
X116168859Y-94180750D02*
X116287907Y-94240273D01*
X116287907Y-94240273D02*
X116466478Y-94240273D01*
X115514097Y-94240273D02*
X115514097Y-93406940D01*
X115514097Y-93645035D02*
X115454574Y-93525988D01*
X115454574Y-93525988D02*
X115395050Y-93466464D01*
X115395050Y-93466464D02*
X115276002Y-93406940D01*
X115276002Y-93406940D02*
X115156955Y-93406940D01*
X113609335Y-94240273D02*
X113728383Y-94180750D01*
X113728383Y-94180750D02*
X113787906Y-94061702D01*
X113787906Y-94061702D02*
X113787906Y-92990273D01*
X112597430Y-94240273D02*
X112597430Y-93585511D01*
X112597430Y-93585511D02*
X112656954Y-93466464D01*
X112656954Y-93466464D02*
X112776002Y-93406940D01*
X112776002Y-93406940D02*
X113014097Y-93406940D01*
X113014097Y-93406940D02*
X113133144Y-93466464D01*
X112597430Y-94180750D02*
X112716478Y-94240273D01*
X112716478Y-94240273D02*
X113014097Y-94240273D01*
X113014097Y-94240273D02*
X113133144Y-94180750D01*
X113133144Y-94180750D02*
X113192668Y-94061702D01*
X113192668Y-94061702D02*
X113192668Y-93942654D01*
X113192668Y-93942654D02*
X113133144Y-93823607D01*
X113133144Y-93823607D02*
X113014097Y-93764083D01*
X113014097Y-93764083D02*
X112716478Y-93764083D01*
X112716478Y-93764083D02*
X112597430Y-93704559D01*
X112002192Y-94240273D02*
X112002192Y-93406940D01*
X112002192Y-93645035D02*
X111942669Y-93525988D01*
X111942669Y-93525988D02*
X111883145Y-93466464D01*
X111883145Y-93466464D02*
X111764097Y-93406940D01*
X111764097Y-93406940D02*
X111645050Y-93406940D01*
X110692668Y-93406940D02*
X110692668Y-94418845D01*
X110692668Y-94418845D02*
X110752192Y-94537892D01*
X110752192Y-94537892D02*
X110811716Y-94597416D01*
X110811716Y-94597416D02*
X110930763Y-94656940D01*
X110930763Y-94656940D02*
X111109335Y-94656940D01*
X111109335Y-94656940D02*
X111228382Y-94597416D01*
X110692668Y-94180750D02*
X110811716Y-94240273D01*
X110811716Y-94240273D02*
X111049811Y-94240273D01*
X111049811Y-94240273D02*
X111168859Y-94180750D01*
X111168859Y-94180750D02*
X111228382Y-94121226D01*
X111228382Y-94121226D02*
X111287906Y-94002178D01*
X111287906Y-94002178D02*
X111287906Y-93645035D01*
X111287906Y-93645035D02*
X111228382Y-93525988D01*
X111228382Y-93525988D02*
X111168859Y-93466464D01*
X111168859Y-93466464D02*
X111049811Y-93406940D01*
X111049811Y-93406940D02*
X110811716Y-93406940D01*
X110811716Y-93406940D02*
X110692668Y-93466464D01*
X109621240Y-94180750D02*
X109740288Y-94240273D01*
X109740288Y-94240273D02*
X109978383Y-94240273D01*
X109978383Y-94240273D02*
X110097430Y-94180750D01*
X110097430Y-94180750D02*
X110156954Y-94061702D01*
X110156954Y-94061702D02*
X110156954Y-93585511D01*
X110156954Y-93585511D02*
X110097430Y-93466464D01*
X110097430Y-93466464D02*
X109978383Y-93406940D01*
X109978383Y-93406940D02*
X109740288Y-93406940D01*
X109740288Y-93406940D02*
X109621240Y-93466464D01*
X109621240Y-93466464D02*
X109561716Y-93585511D01*
X109561716Y-93585511D02*
X109561716Y-93704559D01*
X109561716Y-93704559D02*
X110156954Y-93823607D01*
X109026001Y-94240273D02*
X109026001Y-93406940D01*
X109026001Y-93645035D02*
X108966478Y-93525988D01*
X108966478Y-93525988D02*
X108906954Y-93466464D01*
X108906954Y-93466464D02*
X108787906Y-93406940D01*
X108787906Y-93406940D02*
X108668859Y-93406940D01*
D14*
X168253333Y-131627247D02*
X168139047Y-131665342D01*
X168139047Y-131665342D02*
X168100952Y-131703438D01*
X168100952Y-131703438D02*
X168062856Y-131779628D01*
X168062856Y-131779628D02*
X168062856Y-131893914D01*
X168062856Y-131893914D02*
X168100952Y-131970104D01*
X168100952Y-131970104D02*
X168139047Y-132008200D01*
X168139047Y-132008200D02*
X168215237Y-132046295D01*
X168215237Y-132046295D02*
X168519999Y-132046295D01*
X168519999Y-132046295D02*
X168519999Y-131246295D01*
X168519999Y-131246295D02*
X168253333Y-131246295D01*
X168253333Y-131246295D02*
X168177142Y-131284390D01*
X168177142Y-131284390D02*
X168139047Y-131322485D01*
X168139047Y-131322485D02*
X168100952Y-131398676D01*
X168100952Y-131398676D02*
X168100952Y-131474866D01*
X168100952Y-131474866D02*
X168139047Y-131551057D01*
X168139047Y-131551057D02*
X168177142Y-131589152D01*
X168177142Y-131589152D02*
X168253333Y-131627247D01*
X168253333Y-131627247D02*
X168519999Y-131627247D01*
X167719999Y-132046295D02*
X167719999Y-131246295D01*
X167186666Y-131246295D02*
X167034285Y-131246295D01*
X167034285Y-131246295D02*
X166958095Y-131284390D01*
X166958095Y-131284390D02*
X166881904Y-131360580D01*
X166881904Y-131360580D02*
X166843809Y-131512961D01*
X166843809Y-131512961D02*
X166843809Y-131779628D01*
X166843809Y-131779628D02*
X166881904Y-131932009D01*
X166881904Y-131932009D02*
X166958095Y-132008200D01*
X166958095Y-132008200D02*
X167034285Y-132046295D01*
X167034285Y-132046295D02*
X167186666Y-132046295D01*
X167186666Y-132046295D02*
X167262857Y-132008200D01*
X167262857Y-132008200D02*
X167339047Y-131932009D01*
X167339047Y-131932009D02*
X167377143Y-131779628D01*
X167377143Y-131779628D02*
X167377143Y-131512961D01*
X167377143Y-131512961D02*
X167339047Y-131360580D01*
X167339047Y-131360580D02*
X167262857Y-131284390D01*
X167262857Y-131284390D02*
X167186666Y-131246295D01*
X166539048Y-132008200D02*
X166424762Y-132046295D01*
X166424762Y-132046295D02*
X166234286Y-132046295D01*
X166234286Y-132046295D02*
X166158095Y-132008200D01*
X166158095Y-132008200D02*
X166120000Y-131970104D01*
X166120000Y-131970104D02*
X166081905Y-131893914D01*
X166081905Y-131893914D02*
X166081905Y-131817723D01*
X166081905Y-131817723D02*
X166120000Y-131741533D01*
X166120000Y-131741533D02*
X166158095Y-131703438D01*
X166158095Y-131703438D02*
X166234286Y-131665342D01*
X166234286Y-131665342D02*
X166386667Y-131627247D01*
X166386667Y-131627247D02*
X166462857Y-131589152D01*
X166462857Y-131589152D02*
X166500952Y-131551057D01*
X166500952Y-131551057D02*
X166539048Y-131474866D01*
X166539048Y-131474866D02*
X166539048Y-131398676D01*
X166539048Y-131398676D02*
X166500952Y-131322485D01*
X166500952Y-131322485D02*
X166462857Y-131284390D01*
X166462857Y-131284390D02*
X166386667Y-131246295D01*
X166386667Y-131246295D02*
X166196190Y-131246295D01*
X166196190Y-131246295D02*
X166081905Y-131284390D01*
X167834285Y-133258104D02*
X167872381Y-133296200D01*
X167872381Y-133296200D02*
X167986666Y-133334295D01*
X167986666Y-133334295D02*
X168062857Y-133334295D01*
X168062857Y-133334295D02*
X168177143Y-133296200D01*
X168177143Y-133296200D02*
X168253333Y-133220009D01*
X168253333Y-133220009D02*
X168291428Y-133143819D01*
X168291428Y-133143819D02*
X168329524Y-132991438D01*
X168329524Y-132991438D02*
X168329524Y-132877152D01*
X168329524Y-132877152D02*
X168291428Y-132724771D01*
X168291428Y-132724771D02*
X168253333Y-132648580D01*
X168253333Y-132648580D02*
X168177143Y-132572390D01*
X168177143Y-132572390D02*
X168062857Y-132534295D01*
X168062857Y-132534295D02*
X167986666Y-132534295D01*
X167986666Y-132534295D02*
X167872381Y-132572390D01*
X167872381Y-132572390D02*
X167834285Y-132610485D01*
X167491428Y-132915247D02*
X167224762Y-132915247D01*
X167110476Y-133334295D02*
X167491428Y-133334295D01*
X167491428Y-133334295D02*
X167491428Y-132534295D01*
X167491428Y-132534295D02*
X167110476Y-132534295D01*
X166805714Y-132800961D02*
X166234285Y-132800961D01*
X166577142Y-132458104D02*
X166805714Y-133486676D01*
X166310475Y-133143819D02*
X166881904Y-133143819D01*
X166539047Y-133486676D02*
X166310475Y-132458104D01*
X136231904Y-89174819D02*
X136231904Y-89984342D01*
X136231904Y-89984342D02*
X136184285Y-90079580D01*
X136184285Y-90079580D02*
X136136666Y-90127200D01*
X136136666Y-90127200D02*
X136041428Y-90174819D01*
X136041428Y-90174819D02*
X135850952Y-90174819D01*
X135850952Y-90174819D02*
X135755714Y-90127200D01*
X135755714Y-90127200D02*
X135708095Y-90079580D01*
X135708095Y-90079580D02*
X135660476Y-89984342D01*
X135660476Y-89984342D02*
X135660476Y-89174819D01*
X135279523Y-89174819D02*
X134660476Y-89174819D01*
X134660476Y-89174819D02*
X134993809Y-89555771D01*
X134993809Y-89555771D02*
X134850952Y-89555771D01*
X134850952Y-89555771D02*
X134755714Y-89603390D01*
X134755714Y-89603390D02*
X134708095Y-89651009D01*
X134708095Y-89651009D02*
X134660476Y-89746247D01*
X134660476Y-89746247D02*
X134660476Y-89984342D01*
X134660476Y-89984342D02*
X134708095Y-90079580D01*
X134708095Y-90079580D02*
X134755714Y-90127200D01*
X134755714Y-90127200D02*
X134850952Y-90174819D01*
X134850952Y-90174819D02*
X135136666Y-90174819D01*
X135136666Y-90174819D02*
X135231904Y-90127200D01*
X135231904Y-90127200D02*
X135279523Y-90079580D01*
X112863761Y-100749778D02*
X112863761Y-101559301D01*
X112863761Y-101559301D02*
X112816142Y-101654539D01*
X112816142Y-101654539D02*
X112768523Y-101702159D01*
X112768523Y-101702159D02*
X112673285Y-101749778D01*
X112673285Y-101749778D02*
X112482809Y-101749778D01*
X112482809Y-101749778D02*
X112387571Y-101702159D01*
X112387571Y-101702159D02*
X112339952Y-101654539D01*
X112339952Y-101654539D02*
X112292333Y-101559301D01*
X112292333Y-101559301D02*
X112292333Y-100749778D01*
X111292333Y-101749778D02*
X111863761Y-101749778D01*
X111578047Y-101749778D02*
X111578047Y-100749778D01*
X111578047Y-100749778D02*
X111673285Y-100892635D01*
X111673285Y-100892635D02*
X111768523Y-100987873D01*
X111768523Y-100987873D02*
X111863761Y-101035492D01*
X137149580Y-107133333D02*
X137197200Y-107085714D01*
X137197200Y-107085714D02*
X137244819Y-106942857D01*
X137244819Y-106942857D02*
X137244819Y-106847619D01*
X137244819Y-106847619D02*
X137197200Y-106704762D01*
X137197200Y-106704762D02*
X137101961Y-106609524D01*
X137101961Y-106609524D02*
X137006723Y-106561905D01*
X137006723Y-106561905D02*
X136816247Y-106514286D01*
X136816247Y-106514286D02*
X136673390Y-106514286D01*
X136673390Y-106514286D02*
X136482914Y-106561905D01*
X136482914Y-106561905D02*
X136387676Y-106609524D01*
X136387676Y-106609524D02*
X136292438Y-106704762D01*
X136292438Y-106704762D02*
X136244819Y-106847619D01*
X136244819Y-106847619D02*
X136244819Y-106942857D01*
X136244819Y-106942857D02*
X136292438Y-107085714D01*
X136292438Y-107085714D02*
X136340057Y-107133333D01*
X136578152Y-107990476D02*
X137244819Y-107990476D01*
X136197200Y-107752381D02*
X136911485Y-107514286D01*
X136911485Y-107514286D02*
X136911485Y-108133333D01*
X116761437Y-97248292D02*
X116809057Y-97200673D01*
X116809057Y-97200673D02*
X116856676Y-97057816D01*
X116856676Y-97057816D02*
X116856676Y-96962578D01*
X116856676Y-96962578D02*
X116809057Y-96819721D01*
X116809057Y-96819721D02*
X116713818Y-96724483D01*
X116713818Y-96724483D02*
X116618580Y-96676864D01*
X116618580Y-96676864D02*
X116428104Y-96629245D01*
X116428104Y-96629245D02*
X116285247Y-96629245D01*
X116285247Y-96629245D02*
X116094771Y-96676864D01*
X116094771Y-96676864D02*
X115999533Y-96724483D01*
X115999533Y-96724483D02*
X115904295Y-96819721D01*
X115904295Y-96819721D02*
X115856676Y-96962578D01*
X115856676Y-96962578D02*
X115856676Y-97057816D01*
X115856676Y-97057816D02*
X115904295Y-97200673D01*
X115904295Y-97200673D02*
X115951914Y-97248292D01*
X116856676Y-98200673D02*
X116856676Y-97629245D01*
X116856676Y-97914959D02*
X115856676Y-97914959D01*
X115856676Y-97914959D02*
X115999533Y-97819721D01*
X115999533Y-97819721D02*
X116094771Y-97724483D01*
X116094771Y-97724483D02*
X116142390Y-97629245D01*
X124901437Y-97248292D02*
X124949057Y-97200673D01*
X124949057Y-97200673D02*
X124996676Y-97057816D01*
X124996676Y-97057816D02*
X124996676Y-96962578D01*
X124996676Y-96962578D02*
X124949057Y-96819721D01*
X124949057Y-96819721D02*
X124853818Y-96724483D01*
X124853818Y-96724483D02*
X124758580Y-96676864D01*
X124758580Y-96676864D02*
X124568104Y-96629245D01*
X124568104Y-96629245D02*
X124425247Y-96629245D01*
X124425247Y-96629245D02*
X124234771Y-96676864D01*
X124234771Y-96676864D02*
X124139533Y-96724483D01*
X124139533Y-96724483D02*
X124044295Y-96819721D01*
X124044295Y-96819721D02*
X123996676Y-96962578D01*
X123996676Y-96962578D02*
X123996676Y-97057816D01*
X123996676Y-97057816D02*
X124044295Y-97200673D01*
X124044295Y-97200673D02*
X124091914Y-97248292D01*
X124091914Y-97629245D02*
X124044295Y-97676864D01*
X124044295Y-97676864D02*
X123996676Y-97772102D01*
X123996676Y-97772102D02*
X123996676Y-98010197D01*
X123996676Y-98010197D02*
X124044295Y-98105435D01*
X124044295Y-98105435D02*
X124091914Y-98153054D01*
X124091914Y-98153054D02*
X124187152Y-98200673D01*
X124187152Y-98200673D02*
X124282390Y-98200673D01*
X124282390Y-98200673D02*
X124425247Y-98153054D01*
X124425247Y-98153054D02*
X124996676Y-97581626D01*
X124996676Y-97581626D02*
X124996676Y-98200673D01*
X115949580Y-120703333D02*
X115997200Y-120655714D01*
X115997200Y-120655714D02*
X116044819Y-120512857D01*
X116044819Y-120512857D02*
X116044819Y-120417619D01*
X116044819Y-120417619D02*
X115997200Y-120274762D01*
X115997200Y-120274762D02*
X115901961Y-120179524D01*
X115901961Y-120179524D02*
X115806723Y-120131905D01*
X115806723Y-120131905D02*
X115616247Y-120084286D01*
X115616247Y-120084286D02*
X115473390Y-120084286D01*
X115473390Y-120084286D02*
X115282914Y-120131905D01*
X115282914Y-120131905D02*
X115187676Y-120179524D01*
X115187676Y-120179524D02*
X115092438Y-120274762D01*
X115092438Y-120274762D02*
X115044819Y-120417619D01*
X115044819Y-120417619D02*
X115044819Y-120512857D01*
X115044819Y-120512857D02*
X115092438Y-120655714D01*
X115092438Y-120655714D02*
X115140057Y-120703333D01*
X115044819Y-121036667D02*
X115044819Y-121703333D01*
X115044819Y-121703333D02*
X116044819Y-121274762D01*
X122459580Y-120695833D02*
X122507200Y-120648214D01*
X122507200Y-120648214D02*
X122554819Y-120505357D01*
X122554819Y-120505357D02*
X122554819Y-120410119D01*
X122554819Y-120410119D02*
X122507200Y-120267262D01*
X122507200Y-120267262D02*
X122411961Y-120172024D01*
X122411961Y-120172024D02*
X122316723Y-120124405D01*
X122316723Y-120124405D02*
X122126247Y-120076786D01*
X122126247Y-120076786D02*
X121983390Y-120076786D01*
X121983390Y-120076786D02*
X121792914Y-120124405D01*
X121792914Y-120124405D02*
X121697676Y-120172024D01*
X121697676Y-120172024D02*
X121602438Y-120267262D01*
X121602438Y-120267262D02*
X121554819Y-120410119D01*
X121554819Y-120410119D02*
X121554819Y-120505357D01*
X121554819Y-120505357D02*
X121602438Y-120648214D01*
X121602438Y-120648214D02*
X121650057Y-120695833D01*
X121554819Y-121552976D02*
X121554819Y-121362500D01*
X121554819Y-121362500D02*
X121602438Y-121267262D01*
X121602438Y-121267262D02*
X121650057Y-121219643D01*
X121650057Y-121219643D02*
X121792914Y-121124405D01*
X121792914Y-121124405D02*
X121983390Y-121076786D01*
X121983390Y-121076786D02*
X122364342Y-121076786D01*
X122364342Y-121076786D02*
X122459580Y-121124405D01*
X122459580Y-121124405D02*
X122507200Y-121172024D01*
X122507200Y-121172024D02*
X122554819Y-121267262D01*
X122554819Y-121267262D02*
X122554819Y-121457738D01*
X122554819Y-121457738D02*
X122507200Y-121552976D01*
X122507200Y-121552976D02*
X122459580Y-121600595D01*
X122459580Y-121600595D02*
X122364342Y-121648214D01*
X122364342Y-121648214D02*
X122126247Y-121648214D01*
X122126247Y-121648214D02*
X122031009Y-121600595D01*
X122031009Y-121600595D02*
X121983390Y-121552976D01*
X121983390Y-121552976D02*
X121935771Y-121457738D01*
X121935771Y-121457738D02*
X121935771Y-121267262D01*
X121935771Y-121267262D02*
X121983390Y-121172024D01*
X121983390Y-121172024D02*
X122031009Y-121124405D01*
X122031009Y-121124405D02*
X122126247Y-121076786D01*
X111089580Y-107323333D02*
X111137200Y-107275714D01*
X111137200Y-107275714D02*
X111184819Y-107132857D01*
X111184819Y-107132857D02*
X111184819Y-107037619D01*
X111184819Y-107037619D02*
X111137200Y-106894762D01*
X111137200Y-106894762D02*
X111041961Y-106799524D01*
X111041961Y-106799524D02*
X110946723Y-106751905D01*
X110946723Y-106751905D02*
X110756247Y-106704286D01*
X110756247Y-106704286D02*
X110613390Y-106704286D01*
X110613390Y-106704286D02*
X110422914Y-106751905D01*
X110422914Y-106751905D02*
X110327676Y-106799524D01*
X110327676Y-106799524D02*
X110232438Y-106894762D01*
X110232438Y-106894762D02*
X110184819Y-107037619D01*
X110184819Y-107037619D02*
X110184819Y-107132857D01*
X110184819Y-107132857D02*
X110232438Y-107275714D01*
X110232438Y-107275714D02*
X110280057Y-107323333D01*
X110613390Y-107894762D02*
X110565771Y-107799524D01*
X110565771Y-107799524D02*
X110518152Y-107751905D01*
X110518152Y-107751905D02*
X110422914Y-107704286D01*
X110422914Y-107704286D02*
X110375295Y-107704286D01*
X110375295Y-107704286D02*
X110280057Y-107751905D01*
X110280057Y-107751905D02*
X110232438Y-107799524D01*
X110232438Y-107799524D02*
X110184819Y-107894762D01*
X110184819Y-107894762D02*
X110184819Y-108085238D01*
X110184819Y-108085238D02*
X110232438Y-108180476D01*
X110232438Y-108180476D02*
X110280057Y-108228095D01*
X110280057Y-108228095D02*
X110375295Y-108275714D01*
X110375295Y-108275714D02*
X110422914Y-108275714D01*
X110422914Y-108275714D02*
X110518152Y-108228095D01*
X110518152Y-108228095D02*
X110565771Y-108180476D01*
X110565771Y-108180476D02*
X110613390Y-108085238D01*
X110613390Y-108085238D02*
X110613390Y-107894762D01*
X110613390Y-107894762D02*
X110661009Y-107799524D01*
X110661009Y-107799524D02*
X110708628Y-107751905D01*
X110708628Y-107751905D02*
X110803866Y-107704286D01*
X110803866Y-107704286D02*
X110994342Y-107704286D01*
X110994342Y-107704286D02*
X111089580Y-107751905D01*
X111089580Y-107751905D02*
X111137200Y-107799524D01*
X111137200Y-107799524D02*
X111184819Y-107894762D01*
X111184819Y-107894762D02*
X111184819Y-108085238D01*
X111184819Y-108085238D02*
X111137200Y-108180476D01*
X111137200Y-108180476D02*
X111089580Y-108228095D01*
X111089580Y-108228095D02*
X110994342Y-108275714D01*
X110994342Y-108275714D02*
X110803866Y-108275714D01*
X110803866Y-108275714D02*
X110708628Y-108228095D01*
X110708628Y-108228095D02*
X110661009Y-108180476D01*
X110661009Y-108180476D02*
X110613390Y-108085238D01*
X120681437Y-97248292D02*
X120729057Y-97200673D01*
X120729057Y-97200673D02*
X120776676Y-97057816D01*
X120776676Y-97057816D02*
X120776676Y-96962578D01*
X120776676Y-96962578D02*
X120729057Y-96819721D01*
X120729057Y-96819721D02*
X120633818Y-96724483D01*
X120633818Y-96724483D02*
X120538580Y-96676864D01*
X120538580Y-96676864D02*
X120348104Y-96629245D01*
X120348104Y-96629245D02*
X120205247Y-96629245D01*
X120205247Y-96629245D02*
X120014771Y-96676864D01*
X120014771Y-96676864D02*
X119919533Y-96724483D01*
X119919533Y-96724483D02*
X119824295Y-96819721D01*
X119824295Y-96819721D02*
X119776676Y-96962578D01*
X119776676Y-96962578D02*
X119776676Y-97057816D01*
X119776676Y-97057816D02*
X119824295Y-97200673D01*
X119824295Y-97200673D02*
X119871914Y-97248292D01*
X119776676Y-97581626D02*
X119776676Y-98200673D01*
X119776676Y-98200673D02*
X120157628Y-97867340D01*
X120157628Y-97867340D02*
X120157628Y-98010197D01*
X120157628Y-98010197D02*
X120205247Y-98105435D01*
X120205247Y-98105435D02*
X120252866Y-98153054D01*
X120252866Y-98153054D02*
X120348104Y-98200673D01*
X120348104Y-98200673D02*
X120586199Y-98200673D01*
X120586199Y-98200673D02*
X120681437Y-98153054D01*
X120681437Y-98153054D02*
X120729057Y-98105435D01*
X120729057Y-98105435D02*
X120776676Y-98010197D01*
X120776676Y-98010197D02*
X120776676Y-97724483D01*
X120776676Y-97724483D02*
X120729057Y-97629245D01*
X120729057Y-97629245D02*
X120681437Y-97581626D01*
X126999580Y-120703333D02*
X127047200Y-120655714D01*
X127047200Y-120655714D02*
X127094819Y-120512857D01*
X127094819Y-120512857D02*
X127094819Y-120417619D01*
X127094819Y-120417619D02*
X127047200Y-120274762D01*
X127047200Y-120274762D02*
X126951961Y-120179524D01*
X126951961Y-120179524D02*
X126856723Y-120131905D01*
X126856723Y-120131905D02*
X126666247Y-120084286D01*
X126666247Y-120084286D02*
X126523390Y-120084286D01*
X126523390Y-120084286D02*
X126332914Y-120131905D01*
X126332914Y-120131905D02*
X126237676Y-120179524D01*
X126237676Y-120179524D02*
X126142438Y-120274762D01*
X126142438Y-120274762D02*
X126094819Y-120417619D01*
X126094819Y-120417619D02*
X126094819Y-120512857D01*
X126094819Y-120512857D02*
X126142438Y-120655714D01*
X126142438Y-120655714D02*
X126190057Y-120703333D01*
X126094819Y-121608095D02*
X126094819Y-121131905D01*
X126094819Y-121131905D02*
X126571009Y-121084286D01*
X126571009Y-121084286D02*
X126523390Y-121131905D01*
X126523390Y-121131905D02*
X126475771Y-121227143D01*
X126475771Y-121227143D02*
X126475771Y-121465238D01*
X126475771Y-121465238D02*
X126523390Y-121560476D01*
X126523390Y-121560476D02*
X126571009Y-121608095D01*
X126571009Y-121608095D02*
X126666247Y-121655714D01*
X126666247Y-121655714D02*
X126904342Y-121655714D01*
X126904342Y-121655714D02*
X126999580Y-121608095D01*
X126999580Y-121608095D02*
X127047200Y-121560476D01*
X127047200Y-121560476D02*
X127094819Y-121465238D01*
X127094819Y-121465238D02*
X127094819Y-121227143D01*
X127094819Y-121227143D02*
X127047200Y-121131905D01*
X127047200Y-121131905D02*
X126999580Y-121084286D01*
D15*
X115780000Y-71705000D02*
X156280000Y-71705000D01*
X156280000Y-71705000D02*
X156280000Y-79955000D01*
X156280000Y-79955000D02*
X115780000Y-79955000D01*
X115780000Y-79955000D02*
X115780000Y-71705000D01*
D16*
X115440000Y-71160000D02*
G75*
G03*
X115440000Y-71160000I-170000J0D01*
G01*
D15*
X125280000Y-129685000D02*
X165780000Y-129685000D01*
X165780000Y-129685000D02*
X165780000Y-137935000D01*
X165780000Y-137935000D02*
X125280000Y-137935000D01*
X125280000Y-137935000D02*
X125280000Y-129685000D01*
D16*
X124986155Y-129156155D02*
G75*
G03*
X124986155Y-129156155I-110000J0D01*
G01*
D15*
X156280000Y-80535000D02*
X156280000Y-98785000D01*
X136480000Y-80535000D02*
X156280000Y-80535000D01*
X135480000Y-81535000D02*
X136480000Y-80535000D01*
X135480000Y-88660000D02*
X135480000Y-81535000D01*
X156280000Y-98785000D02*
X135480000Y-98785000D01*
X135480000Y-98785000D02*
X135480000Y-90660000D01*
X133866857Y-102409959D02*
X133641857Y-102409959D01*
X113871857Y-102409959D02*
X113871857Y-100519959D01*
X113646857Y-102409959D02*
X113871857Y-102409959D01*
X133866857Y-102884959D02*
X133866857Y-102409959D01*
X113646857Y-102884959D02*
X113646857Y-102409959D01*
X133866857Y-116154959D02*
X133866857Y-116629959D01*
X113646857Y-116154959D02*
X113646857Y-116629959D01*
X133866857Y-116629959D02*
X133641857Y-116629959D01*
X113646857Y-116629959D02*
X113871857Y-116629959D01*
X138661857Y-106658692D02*
X138661857Y-106951226D01*
X137641857Y-106658692D02*
X137641857Y-106951226D01*
X114461857Y-97561226D02*
X114461857Y-97268692D01*
X115481857Y-97561226D02*
X115481857Y-97268692D01*
X122601857Y-97561226D02*
X122601857Y-97268692D01*
X123621857Y-97561226D02*
X123621857Y-97268692D01*
X117441857Y-121238692D02*
X117441857Y-121531226D01*
X116421857Y-121238692D02*
X116421857Y-121531226D01*
X123951857Y-121231192D02*
X123951857Y-121523726D01*
X122931857Y-121231192D02*
X122931857Y-121523726D01*
X109811857Y-106658692D02*
X109811857Y-106951226D01*
X108791857Y-106658692D02*
X108791857Y-106951226D01*
X118381857Y-97561226D02*
X118381857Y-97268692D01*
X119401857Y-97561226D02*
X119401857Y-97268692D01*
X128491857Y-121238692D02*
X128491857Y-121531226D01*
X127471857Y-121238692D02*
X127471857Y-121531226D01*
%LPC*%
D17*
X127030000Y-74830000D03*
D18*
X117030000Y-72830000D03*
D19*
X119030000Y-72830000D03*
X121030000Y-72830000D03*
X123030000Y-72830000D03*
X125030000Y-72830000D03*
X127030000Y-72830000D03*
X129030000Y-72830000D03*
X131030000Y-72830000D03*
X133030000Y-72830000D03*
X135030000Y-72830000D03*
X137030000Y-72830000D03*
X139030000Y-72830000D03*
X141030000Y-72830000D03*
X143030000Y-72830000D03*
X145030000Y-72830000D03*
X147030000Y-72830000D03*
X149030000Y-72830000D03*
X151030000Y-72830000D03*
X153030000Y-72830000D03*
X155030000Y-72830000D03*
X117030000Y-74830000D03*
X119030000Y-74830000D03*
X121030000Y-74830000D03*
X123030000Y-74830000D03*
X125030000Y-74830000D03*
X129030000Y-74830000D03*
X131030000Y-74830000D03*
X133030000Y-74830000D03*
X135030000Y-74830000D03*
X137030000Y-74830000D03*
X139030000Y-74830000D03*
X141030000Y-74830000D03*
X143030000Y-74830000D03*
X145030000Y-74830000D03*
X147030000Y-74830000D03*
X149030000Y-74830000D03*
X151030000Y-74830000D03*
X153030000Y-74830000D03*
X155030000Y-74830000D03*
X117030000Y-76830000D03*
X119030000Y-76830000D03*
X121030000Y-76830000D03*
X123030000Y-76830000D03*
X125030000Y-76830000D03*
X127030000Y-76830000D03*
X129030000Y-76830000D03*
X131030000Y-76830000D03*
X133030000Y-76830000D03*
X135030000Y-76830000D03*
X137030000Y-76830000D03*
X139030000Y-76830000D03*
X141030000Y-76830000D03*
X143030000Y-76830000D03*
X145030000Y-76830000D03*
X147030000Y-76830000D03*
X149030000Y-76830000D03*
X151030000Y-76830000D03*
X153030000Y-76830000D03*
X155030000Y-76830000D03*
X117030000Y-78830000D03*
X119030000Y-78830000D03*
X121030000Y-78830000D03*
X123030000Y-78830000D03*
X125030000Y-78830000D03*
X127030000Y-78830000D03*
X129030000Y-78830000D03*
X131030000Y-78830000D03*
X133030000Y-78830000D03*
X135030000Y-78830000D03*
X137030000Y-78830000D03*
X139030000Y-78830000D03*
X141030000Y-78830000D03*
X143030000Y-78830000D03*
X145030000Y-78830000D03*
X147030000Y-78830000D03*
X149030000Y-78830000D03*
X151030000Y-78830000D03*
X153030000Y-78830000D03*
X155030000Y-78830000D03*
D17*
X136530000Y-134810000D03*
D18*
X126530000Y-130810000D03*
D19*
X128530000Y-130810000D03*
X130530000Y-130810000D03*
X132530000Y-130810000D03*
X134530000Y-130810000D03*
X136530000Y-130810000D03*
X138530000Y-130810000D03*
X140530000Y-130810000D03*
X142530000Y-130810000D03*
X144530000Y-130810000D03*
X146530000Y-130810000D03*
X148530000Y-130810000D03*
X150530000Y-130810000D03*
X152530000Y-130810000D03*
X154530000Y-130810000D03*
X156530000Y-130810000D03*
X158530000Y-130810000D03*
X160530000Y-130810000D03*
X162530000Y-130810000D03*
X164530000Y-130810000D03*
X126530000Y-132810000D03*
X128530000Y-132810000D03*
X130530000Y-132810000D03*
X132530000Y-132810000D03*
X134530000Y-132810000D03*
X136530000Y-132810000D03*
X138530000Y-132810000D03*
X140530000Y-132810000D03*
X142530000Y-132810000D03*
X144530000Y-132810000D03*
X146530000Y-132810000D03*
X148530000Y-132810000D03*
X150530000Y-132810000D03*
X152530000Y-132810000D03*
X154530000Y-132810000D03*
X156530000Y-132810000D03*
X158530000Y-132810000D03*
X160530000Y-132810000D03*
X162530000Y-132810000D03*
X164530000Y-132810000D03*
X126530000Y-134810000D03*
X128530000Y-134810000D03*
X130530000Y-134810000D03*
X132530000Y-134810000D03*
X134530000Y-134810000D03*
X138530000Y-134810000D03*
X140530000Y-134810000D03*
X142530000Y-134810000D03*
X144530000Y-134810000D03*
X146530000Y-134810000D03*
X148530000Y-134810000D03*
X150530000Y-134810000D03*
X152530000Y-134810000D03*
X154530000Y-134810000D03*
X156530000Y-134810000D03*
X158530000Y-134810000D03*
X160530000Y-134810000D03*
X162530000Y-134810000D03*
X164530000Y-134810000D03*
X126530000Y-136810000D03*
X128530000Y-136810000D03*
X130530000Y-136810000D03*
X132530000Y-136810000D03*
X134530000Y-136810000D03*
X136530000Y-136810000D03*
X138530000Y-136810000D03*
X140530000Y-136810000D03*
X142530000Y-136810000D03*
X144530000Y-136810000D03*
X146530000Y-136810000D03*
X148530000Y-136810000D03*
X150530000Y-136810000D03*
X152530000Y-136810000D03*
X154530000Y-136810000D03*
X156530000Y-136810000D03*
X158530000Y-136810000D03*
X160530000Y-136810000D03*
X162530000Y-136810000D03*
X164530000Y-136810000D03*
D20*
X140800000Y-90930000D03*
D21*
X138260000Y-88390000D03*
X140800000Y-88390000D03*
X138260000Y-85850000D03*
X140800000Y-83310000D03*
X140800000Y-85850000D03*
X143340000Y-83310000D03*
X143340000Y-85850000D03*
X145880000Y-83310000D03*
X145880000Y-85850000D03*
X148420000Y-83310000D03*
X148420000Y-85850000D03*
X150960000Y-83310000D03*
X153500000Y-85850000D03*
X150960000Y-85850000D03*
X153500000Y-88390000D03*
X150960000Y-88390000D03*
X153500000Y-90930000D03*
X150960000Y-90930000D03*
X153500000Y-93470000D03*
X150960000Y-96010000D03*
X150960000Y-93470000D03*
X148420000Y-96010000D03*
X148420000Y-93470000D03*
X145880000Y-96010000D03*
X145880000Y-93470000D03*
X143340000Y-96010000D03*
X143340000Y-93470000D03*
X140800000Y-96010000D03*
X138260000Y-93470000D03*
X140800000Y-93470000D03*
X138260000Y-90930000D03*
D22*
X114331857Y-101394959D03*
X114981857Y-101394959D03*
X115631857Y-101394959D03*
X116281857Y-101394959D03*
X116931857Y-101394959D03*
X117581857Y-101394959D03*
X118231857Y-101394959D03*
X118881857Y-101394959D03*
X119531857Y-101394959D03*
X120181857Y-101394959D03*
X120831857Y-101394959D03*
X121481857Y-101394959D03*
X122131857Y-101394959D03*
X122781857Y-101394959D03*
X123431857Y-101394959D03*
X124081857Y-101394959D03*
X124731857Y-101394959D03*
X125381857Y-101394959D03*
X126031857Y-101394959D03*
X126681857Y-101394959D03*
X127331857Y-101394959D03*
X127981857Y-101394959D03*
X128631857Y-101394959D03*
X129281857Y-101394959D03*
X129931857Y-101394959D03*
X130581857Y-101394959D03*
X131231857Y-101394959D03*
X131881857Y-101394959D03*
X132531857Y-101394959D03*
X133181857Y-101394959D03*
D23*
X134881857Y-103344959D03*
X134881857Y-103994959D03*
X134881857Y-104644959D03*
X134881857Y-105294959D03*
X134881857Y-105944959D03*
X134881857Y-106594959D03*
X134881857Y-107244959D03*
X134881857Y-107894959D03*
X134881857Y-108544959D03*
X134881857Y-109194959D03*
X134881857Y-109844959D03*
X134881857Y-110494959D03*
X134881857Y-111144959D03*
X134881857Y-111794959D03*
X134881857Y-112444959D03*
X134881857Y-113094959D03*
X134881857Y-113744959D03*
X134881857Y-114394959D03*
X134881857Y-115044959D03*
X134881857Y-115694959D03*
D22*
X133181857Y-117644959D03*
X132531857Y-117644959D03*
X131881857Y-117644959D03*
X131231857Y-117644959D03*
X130581857Y-117644959D03*
X129931857Y-117644959D03*
X129281857Y-117644959D03*
X128631857Y-117644959D03*
X127981857Y-117644959D03*
X127331857Y-117644959D03*
X126681857Y-117644959D03*
X126031857Y-117644959D03*
X125381857Y-117644959D03*
X124731857Y-117644959D03*
X124081857Y-117644959D03*
X123431857Y-117644959D03*
X122781857Y-117644959D03*
X122131857Y-117644959D03*
X121481857Y-117644959D03*
X120831857Y-117644959D03*
X120181857Y-117644959D03*
X119531857Y-117644959D03*
X118881857Y-117644959D03*
X118231857Y-117644959D03*
X117581857Y-117644959D03*
X116931857Y-117644959D03*
X116281857Y-117644959D03*
X115631857Y-117644959D03*
X114981857Y-117644959D03*
X114331857Y-117644959D03*
D23*
X112631857Y-115694959D03*
X112631857Y-115044959D03*
X112631857Y-114394959D03*
X112631857Y-113744959D03*
X112631857Y-113094959D03*
X112631857Y-112444959D03*
X112631857Y-111794959D03*
X112631857Y-111144959D03*
X112631857Y-110494959D03*
X112631857Y-109844959D03*
X112631857Y-109194959D03*
X112631857Y-108544959D03*
X112631857Y-107894959D03*
X112631857Y-107244959D03*
X112631857Y-106594959D03*
X112631857Y-105944959D03*
X112631857Y-105294959D03*
X112631857Y-104644959D03*
X112631857Y-103994959D03*
X112631857Y-103344959D03*
D24*
X138151857Y-105942459D03*
X138151857Y-107667459D03*
D25*
X114971857Y-98277459D03*
X114971857Y-96552459D03*
X123111857Y-98277459D03*
X123111857Y-96552459D03*
D24*
X116931857Y-120522459D03*
X116931857Y-122247459D03*
X123441857Y-120514959D03*
X123441857Y-122239959D03*
X109301857Y-105942459D03*
X109301857Y-107667459D03*
D25*
X118891857Y-98277459D03*
X118891857Y-96552459D03*
D24*
X127981857Y-120522459D03*
X127981857Y-122247459D03*
%LPD*%
M02*
