%TF.GenerationSoftware,KiCad,Pcbnew,7.0.6-0*%
%TF.CreationDate,2023-08-16T20:57:52-04:00*%
%TF.ProjectId,Compaq S3 Virge GX VRAM Addon Board,436f6d70-6171-4205-9333-205669726765,1*%
%TF.SameCoordinates,Original*%
%TF.FileFunction,Drillmap*%
%TF.FilePolarity,Positive*%
%FSLAX45Y45*%
G04 Gerber Fmt 4.5, Leading zero omitted, Abs format (unit mm)*
G04 Created by KiCad (PCBNEW 7.0.6-0) date 2023-08-16 20:57:52*
%MOMM*%
%LPD*%
G01*
G04 APERTURE LIST*
%ADD10C,0.100000*%
%ADD11C,0.200000*%
%ADD12C,0.080000*%
G04 APERTURE END LIST*
D10*
X16778000Y-13981000D02*
X12663000Y-13981000D01*
X12097133Y-13747144D02*
X10812156Y-12462167D01*
X16777987Y-13981000D02*
G75*
G03*
X17578000Y-13180987I0J800013D01*
G01*
X16059511Y-7215502D02*
G75*
G03*
X15494000Y-6981259I-565511J-565508D01*
G01*
X11378000Y-6981000D02*
X15494000Y-6981000D01*
X17578173Y-9065512D02*
G75*
G03*
X17343880Y-8499878I-799923J2D01*
G01*
X10578000Y-11896000D02*
X10578000Y-7781000D01*
X10577767Y-11896366D02*
G75*
G03*
X10812126Y-12462167I800163J-4D01*
G01*
X11378013Y-6980990D02*
G75*
G03*
X10578000Y-7781000I-3J-800010D01*
G01*
X17578000Y-9066000D02*
X17578000Y-13181000D01*
X17343858Y-8499858D02*
X16059488Y-7215488D01*
X12097134Y-13747111D02*
G75*
G03*
X12663000Y-13981502I565866J565862D01*
G01*
D11*
D12*
X12663000Y-7443000D02*
X12743000Y-7523000D01*
X12743000Y-7443000D02*
X12663000Y-7523000D01*
X13613000Y-13441000D02*
X13693000Y-13521000D01*
X13693000Y-13441000D02*
X13613000Y-13521000D01*
D11*
X10833540Y-14297986D02*
X10833540Y-14097986D01*
X10833540Y-14097986D02*
X10881159Y-14097986D01*
X10881159Y-14097986D02*
X10909731Y-14107510D01*
X10909731Y-14107510D02*
X10928778Y-14126557D01*
X10928778Y-14126557D02*
X10938302Y-14145605D01*
X10938302Y-14145605D02*
X10947826Y-14183700D01*
X10947826Y-14183700D02*
X10947826Y-14212272D01*
X10947826Y-14212272D02*
X10938302Y-14250367D01*
X10938302Y-14250367D02*
X10928778Y-14269414D01*
X10928778Y-14269414D02*
X10909731Y-14288462D01*
X10909731Y-14288462D02*
X10881159Y-14297986D01*
X10881159Y-14297986D02*
X10833540Y-14297986D01*
X11033540Y-14297986D02*
X11033540Y-14164653D01*
X11033540Y-14202748D02*
X11043064Y-14183700D01*
X11043064Y-14183700D02*
X11052588Y-14174176D01*
X11052588Y-14174176D02*
X11071635Y-14164653D01*
X11071635Y-14164653D02*
X11090683Y-14164653D01*
X11157350Y-14297986D02*
X11157350Y-14164653D01*
X11157350Y-14097986D02*
X11147826Y-14107510D01*
X11147826Y-14107510D02*
X11157350Y-14117034D01*
X11157350Y-14117034D02*
X11166874Y-14107510D01*
X11166874Y-14107510D02*
X11157350Y-14097986D01*
X11157350Y-14097986D02*
X11157350Y-14117034D01*
X11281159Y-14297986D02*
X11262112Y-14288462D01*
X11262112Y-14288462D02*
X11252588Y-14269414D01*
X11252588Y-14269414D02*
X11252588Y-14097986D01*
X11385921Y-14297986D02*
X11366873Y-14288462D01*
X11366873Y-14288462D02*
X11357350Y-14269414D01*
X11357350Y-14269414D02*
X11357350Y-14097986D01*
X11614493Y-14297986D02*
X11614493Y-14097986D01*
X11614493Y-14097986D02*
X11681159Y-14240843D01*
X11681159Y-14240843D02*
X11747826Y-14097986D01*
X11747826Y-14097986D02*
X11747826Y-14297986D01*
X11928778Y-14297986D02*
X11928778Y-14193224D01*
X11928778Y-14193224D02*
X11919254Y-14174176D01*
X11919254Y-14174176D02*
X11900207Y-14164653D01*
X11900207Y-14164653D02*
X11862112Y-14164653D01*
X11862112Y-14164653D02*
X11843064Y-14174176D01*
X11928778Y-14288462D02*
X11909731Y-14297986D01*
X11909731Y-14297986D02*
X11862112Y-14297986D01*
X11862112Y-14297986D02*
X11843064Y-14288462D01*
X11843064Y-14288462D02*
X11833540Y-14269414D01*
X11833540Y-14269414D02*
X11833540Y-14250367D01*
X11833540Y-14250367D02*
X11843064Y-14231319D01*
X11843064Y-14231319D02*
X11862112Y-14221795D01*
X11862112Y-14221795D02*
X11909731Y-14221795D01*
X11909731Y-14221795D02*
X11928778Y-14212272D01*
X12024016Y-14164653D02*
X12024016Y-14364653D01*
X12024016Y-14174176D02*
X12043064Y-14164653D01*
X12043064Y-14164653D02*
X12081159Y-14164653D01*
X12081159Y-14164653D02*
X12100207Y-14174176D01*
X12100207Y-14174176D02*
X12109731Y-14183700D01*
X12109731Y-14183700D02*
X12119254Y-14202748D01*
X12119254Y-14202748D02*
X12119254Y-14259891D01*
X12119254Y-14259891D02*
X12109731Y-14278938D01*
X12109731Y-14278938D02*
X12100207Y-14288462D01*
X12100207Y-14288462D02*
X12081159Y-14297986D01*
X12081159Y-14297986D02*
X12043064Y-14297986D01*
X12043064Y-14297986D02*
X12024016Y-14288462D01*
X12204969Y-14278938D02*
X12214493Y-14288462D01*
X12214493Y-14288462D02*
X12204969Y-14297986D01*
X12204969Y-14297986D02*
X12195445Y-14288462D01*
X12195445Y-14288462D02*
X12204969Y-14278938D01*
X12204969Y-14278938D02*
X12204969Y-14297986D01*
X12204969Y-14174176D02*
X12214493Y-14183700D01*
X12214493Y-14183700D02*
X12204969Y-14193224D01*
X12204969Y-14193224D02*
X12195445Y-14183700D01*
X12195445Y-14183700D02*
X12204969Y-14174176D01*
X12204969Y-14174176D02*
X12204969Y-14193224D01*
D12*
X10492763Y-14586502D02*
X10572763Y-14666502D01*
X10572763Y-14586502D02*
X10492763Y-14666502D01*
D11*
X10871635Y-14517986D02*
X10890683Y-14517986D01*
X10890683Y-14517986D02*
X10909731Y-14527510D01*
X10909731Y-14527510D02*
X10919255Y-14537034D01*
X10919255Y-14537034D02*
X10928778Y-14556081D01*
X10928778Y-14556081D02*
X10938302Y-14594176D01*
X10938302Y-14594176D02*
X10938302Y-14641795D01*
X10938302Y-14641795D02*
X10928778Y-14679891D01*
X10928778Y-14679891D02*
X10919255Y-14698938D01*
X10919255Y-14698938D02*
X10909731Y-14708462D01*
X10909731Y-14708462D02*
X10890683Y-14717986D01*
X10890683Y-14717986D02*
X10871635Y-14717986D01*
X10871635Y-14717986D02*
X10852588Y-14708462D01*
X10852588Y-14708462D02*
X10843064Y-14698938D01*
X10843064Y-14698938D02*
X10833540Y-14679891D01*
X10833540Y-14679891D02*
X10824016Y-14641795D01*
X10824016Y-14641795D02*
X10824016Y-14594176D01*
X10824016Y-14594176D02*
X10833540Y-14556081D01*
X10833540Y-14556081D02*
X10843064Y-14537034D01*
X10843064Y-14537034D02*
X10852588Y-14527510D01*
X10852588Y-14527510D02*
X10871635Y-14517986D01*
X11024016Y-14698938D02*
X11033540Y-14708462D01*
X11033540Y-14708462D02*
X11024016Y-14717986D01*
X11024016Y-14717986D02*
X11014493Y-14708462D01*
X11014493Y-14708462D02*
X11024016Y-14698938D01*
X11024016Y-14698938D02*
X11024016Y-14717986D01*
X11147826Y-14603700D02*
X11128778Y-14594176D01*
X11128778Y-14594176D02*
X11119255Y-14584653D01*
X11119255Y-14584653D02*
X11109731Y-14565605D01*
X11109731Y-14565605D02*
X11109731Y-14556081D01*
X11109731Y-14556081D02*
X11119255Y-14537034D01*
X11119255Y-14537034D02*
X11128778Y-14527510D01*
X11128778Y-14527510D02*
X11147826Y-14517986D01*
X11147826Y-14517986D02*
X11185921Y-14517986D01*
X11185921Y-14517986D02*
X11204969Y-14527510D01*
X11204969Y-14527510D02*
X11214493Y-14537034D01*
X11214493Y-14537034D02*
X11224016Y-14556081D01*
X11224016Y-14556081D02*
X11224016Y-14565605D01*
X11224016Y-14565605D02*
X11214493Y-14584653D01*
X11214493Y-14584653D02*
X11204969Y-14594176D01*
X11204969Y-14594176D02*
X11185921Y-14603700D01*
X11185921Y-14603700D02*
X11147826Y-14603700D01*
X11147826Y-14603700D02*
X11128778Y-14613224D01*
X11128778Y-14613224D02*
X11119255Y-14622748D01*
X11119255Y-14622748D02*
X11109731Y-14641795D01*
X11109731Y-14641795D02*
X11109731Y-14679891D01*
X11109731Y-14679891D02*
X11119255Y-14698938D01*
X11119255Y-14698938D02*
X11128778Y-14708462D01*
X11128778Y-14708462D02*
X11147826Y-14717986D01*
X11147826Y-14717986D02*
X11185921Y-14717986D01*
X11185921Y-14717986D02*
X11204969Y-14708462D01*
X11204969Y-14708462D02*
X11214493Y-14698938D01*
X11214493Y-14698938D02*
X11224016Y-14679891D01*
X11224016Y-14679891D02*
X11224016Y-14641795D01*
X11224016Y-14641795D02*
X11214493Y-14622748D01*
X11214493Y-14622748D02*
X11204969Y-14613224D01*
X11204969Y-14613224D02*
X11185921Y-14603700D01*
X11347826Y-14517986D02*
X11366874Y-14517986D01*
X11366874Y-14517986D02*
X11385921Y-14527510D01*
X11385921Y-14527510D02*
X11395445Y-14537034D01*
X11395445Y-14537034D02*
X11404969Y-14556081D01*
X11404969Y-14556081D02*
X11414493Y-14594176D01*
X11414493Y-14594176D02*
X11414493Y-14641795D01*
X11414493Y-14641795D02*
X11404969Y-14679891D01*
X11404969Y-14679891D02*
X11395445Y-14698938D01*
X11395445Y-14698938D02*
X11385921Y-14708462D01*
X11385921Y-14708462D02*
X11366874Y-14717986D01*
X11366874Y-14717986D02*
X11347826Y-14717986D01*
X11347826Y-14717986D02*
X11328778Y-14708462D01*
X11328778Y-14708462D02*
X11319254Y-14698938D01*
X11319254Y-14698938D02*
X11309731Y-14679891D01*
X11309731Y-14679891D02*
X11300207Y-14641795D01*
X11300207Y-14641795D02*
X11300207Y-14594176D01*
X11300207Y-14594176D02*
X11309731Y-14556081D01*
X11309731Y-14556081D02*
X11319254Y-14537034D01*
X11319254Y-14537034D02*
X11328778Y-14527510D01*
X11328778Y-14527510D02*
X11347826Y-14517986D01*
X11538302Y-14517986D02*
X11557350Y-14517986D01*
X11557350Y-14517986D02*
X11576397Y-14527510D01*
X11576397Y-14527510D02*
X11585921Y-14537034D01*
X11585921Y-14537034D02*
X11595445Y-14556081D01*
X11595445Y-14556081D02*
X11604969Y-14594176D01*
X11604969Y-14594176D02*
X11604969Y-14641795D01*
X11604969Y-14641795D02*
X11595445Y-14679891D01*
X11595445Y-14679891D02*
X11585921Y-14698938D01*
X11585921Y-14698938D02*
X11576397Y-14708462D01*
X11576397Y-14708462D02*
X11557350Y-14717986D01*
X11557350Y-14717986D02*
X11538302Y-14717986D01*
X11538302Y-14717986D02*
X11519254Y-14708462D01*
X11519254Y-14708462D02*
X11509731Y-14698938D01*
X11509731Y-14698938D02*
X11500207Y-14679891D01*
X11500207Y-14679891D02*
X11490683Y-14641795D01*
X11490683Y-14641795D02*
X11490683Y-14594176D01*
X11490683Y-14594176D02*
X11500207Y-14556081D01*
X11500207Y-14556081D02*
X11509731Y-14537034D01*
X11509731Y-14537034D02*
X11519254Y-14527510D01*
X11519254Y-14527510D02*
X11538302Y-14517986D01*
X11690683Y-14717986D02*
X11690683Y-14584653D01*
X11690683Y-14603700D02*
X11700207Y-14594176D01*
X11700207Y-14594176D02*
X11719254Y-14584653D01*
X11719254Y-14584653D02*
X11747826Y-14584653D01*
X11747826Y-14584653D02*
X11766874Y-14594176D01*
X11766874Y-14594176D02*
X11776397Y-14613224D01*
X11776397Y-14613224D02*
X11776397Y-14717986D01*
X11776397Y-14613224D02*
X11785921Y-14594176D01*
X11785921Y-14594176D02*
X11804969Y-14584653D01*
X11804969Y-14584653D02*
X11833540Y-14584653D01*
X11833540Y-14584653D02*
X11852588Y-14594176D01*
X11852588Y-14594176D02*
X11862112Y-14613224D01*
X11862112Y-14613224D02*
X11862112Y-14717986D01*
X11957350Y-14717986D02*
X11957350Y-14584653D01*
X11957350Y-14603700D02*
X11966874Y-14594176D01*
X11966874Y-14594176D02*
X11985921Y-14584653D01*
X11985921Y-14584653D02*
X12014493Y-14584653D01*
X12014493Y-14584653D02*
X12033540Y-14594176D01*
X12033540Y-14594176D02*
X12043064Y-14613224D01*
X12043064Y-14613224D02*
X12043064Y-14717986D01*
X12043064Y-14613224D02*
X12052588Y-14594176D01*
X12052588Y-14594176D02*
X12071635Y-14584653D01*
X12071635Y-14584653D02*
X12100207Y-14584653D01*
X12100207Y-14584653D02*
X12119255Y-14594176D01*
X12119255Y-14594176D02*
X12128778Y-14613224D01*
X12128778Y-14613224D02*
X12128778Y-14717986D01*
X12519255Y-14508462D02*
X12347826Y-14765605D01*
X12776397Y-14517986D02*
X12795445Y-14517986D01*
X12795445Y-14517986D02*
X12814493Y-14527510D01*
X12814493Y-14527510D02*
X12824017Y-14537034D01*
X12824017Y-14537034D02*
X12833540Y-14556081D01*
X12833540Y-14556081D02*
X12843064Y-14594176D01*
X12843064Y-14594176D02*
X12843064Y-14641795D01*
X12843064Y-14641795D02*
X12833540Y-14679891D01*
X12833540Y-14679891D02*
X12824017Y-14698938D01*
X12824017Y-14698938D02*
X12814493Y-14708462D01*
X12814493Y-14708462D02*
X12795445Y-14717986D01*
X12795445Y-14717986D02*
X12776397Y-14717986D01*
X12776397Y-14717986D02*
X12757350Y-14708462D01*
X12757350Y-14708462D02*
X12747826Y-14698938D01*
X12747826Y-14698938D02*
X12738302Y-14679891D01*
X12738302Y-14679891D02*
X12728778Y-14641795D01*
X12728778Y-14641795D02*
X12728778Y-14594176D01*
X12728778Y-14594176D02*
X12738302Y-14556081D01*
X12738302Y-14556081D02*
X12747826Y-14537034D01*
X12747826Y-14537034D02*
X12757350Y-14527510D01*
X12757350Y-14527510D02*
X12776397Y-14517986D01*
X12928778Y-14698938D02*
X12938302Y-14708462D01*
X12938302Y-14708462D02*
X12928778Y-14717986D01*
X12928778Y-14717986D02*
X12919255Y-14708462D01*
X12919255Y-14708462D02*
X12928778Y-14698938D01*
X12928778Y-14698938D02*
X12928778Y-14717986D01*
X13062112Y-14517986D02*
X13081159Y-14517986D01*
X13081159Y-14517986D02*
X13100207Y-14527510D01*
X13100207Y-14527510D02*
X13109731Y-14537034D01*
X13109731Y-14537034D02*
X13119255Y-14556081D01*
X13119255Y-14556081D02*
X13128778Y-14594176D01*
X13128778Y-14594176D02*
X13128778Y-14641795D01*
X13128778Y-14641795D02*
X13119255Y-14679891D01*
X13119255Y-14679891D02*
X13109731Y-14698938D01*
X13109731Y-14698938D02*
X13100207Y-14708462D01*
X13100207Y-14708462D02*
X13081159Y-14717986D01*
X13081159Y-14717986D02*
X13062112Y-14717986D01*
X13062112Y-14717986D02*
X13043064Y-14708462D01*
X13043064Y-14708462D02*
X13033540Y-14698938D01*
X13033540Y-14698938D02*
X13024017Y-14679891D01*
X13024017Y-14679891D02*
X13014493Y-14641795D01*
X13014493Y-14641795D02*
X13014493Y-14594176D01*
X13014493Y-14594176D02*
X13024017Y-14556081D01*
X13024017Y-14556081D02*
X13033540Y-14537034D01*
X13033540Y-14537034D02*
X13043064Y-14527510D01*
X13043064Y-14527510D02*
X13062112Y-14517986D01*
X13195445Y-14517986D02*
X13319255Y-14517986D01*
X13319255Y-14517986D02*
X13252588Y-14594176D01*
X13252588Y-14594176D02*
X13281159Y-14594176D01*
X13281159Y-14594176D02*
X13300207Y-14603700D01*
X13300207Y-14603700D02*
X13309731Y-14613224D01*
X13309731Y-14613224D02*
X13319255Y-14632272D01*
X13319255Y-14632272D02*
X13319255Y-14679891D01*
X13319255Y-14679891D02*
X13309731Y-14698938D01*
X13309731Y-14698938D02*
X13300207Y-14708462D01*
X13300207Y-14708462D02*
X13281159Y-14717986D01*
X13281159Y-14717986D02*
X13224017Y-14717986D01*
X13224017Y-14717986D02*
X13204969Y-14708462D01*
X13204969Y-14708462D02*
X13195445Y-14698938D01*
X13509731Y-14717986D02*
X13395445Y-14717986D01*
X13452588Y-14717986D02*
X13452588Y-14517986D01*
X13452588Y-14517986D02*
X13433540Y-14546557D01*
X13433540Y-14546557D02*
X13414493Y-14565605D01*
X13414493Y-14565605D02*
X13395445Y-14575129D01*
X13690683Y-14517986D02*
X13595445Y-14517986D01*
X13595445Y-14517986D02*
X13585921Y-14613224D01*
X13585921Y-14613224D02*
X13595445Y-14603700D01*
X13595445Y-14603700D02*
X13614493Y-14594176D01*
X13614493Y-14594176D02*
X13662112Y-14594176D01*
X13662112Y-14594176D02*
X13681159Y-14603700D01*
X13681159Y-14603700D02*
X13690683Y-14613224D01*
X13690683Y-14613224D02*
X13700207Y-14632272D01*
X13700207Y-14632272D02*
X13700207Y-14679891D01*
X13700207Y-14679891D02*
X13690683Y-14698938D01*
X13690683Y-14698938D02*
X13681159Y-14708462D01*
X13681159Y-14708462D02*
X13662112Y-14717986D01*
X13662112Y-14717986D02*
X13614493Y-14717986D01*
X13614493Y-14717986D02*
X13595445Y-14708462D01*
X13595445Y-14708462D02*
X13585921Y-14698938D01*
X13776398Y-14517986D02*
X13776398Y-14556081D01*
X13852588Y-14517986D02*
X13852588Y-14556081D01*
X14147826Y-14794176D02*
X14138302Y-14784653D01*
X14138302Y-14784653D02*
X14119255Y-14756081D01*
X14119255Y-14756081D02*
X14109731Y-14737034D01*
X14109731Y-14737034D02*
X14100207Y-14708462D01*
X14100207Y-14708462D02*
X14090683Y-14660843D01*
X14090683Y-14660843D02*
X14090683Y-14622748D01*
X14090683Y-14622748D02*
X14100207Y-14575129D01*
X14100207Y-14575129D02*
X14109731Y-14546557D01*
X14109731Y-14546557D02*
X14119255Y-14527510D01*
X14119255Y-14527510D02*
X14138302Y-14498938D01*
X14138302Y-14498938D02*
X14147826Y-14489414D01*
X14214493Y-14537034D02*
X14224017Y-14527510D01*
X14224017Y-14527510D02*
X14243064Y-14517986D01*
X14243064Y-14517986D02*
X14290683Y-14517986D01*
X14290683Y-14517986D02*
X14309731Y-14527510D01*
X14309731Y-14527510D02*
X14319255Y-14537034D01*
X14319255Y-14537034D02*
X14328779Y-14556081D01*
X14328779Y-14556081D02*
X14328779Y-14575129D01*
X14328779Y-14575129D02*
X14319255Y-14603700D01*
X14319255Y-14603700D02*
X14204969Y-14717986D01*
X14204969Y-14717986D02*
X14328779Y-14717986D01*
X14566874Y-14717986D02*
X14566874Y-14517986D01*
X14652588Y-14717986D02*
X14652588Y-14613224D01*
X14652588Y-14613224D02*
X14643064Y-14594176D01*
X14643064Y-14594176D02*
X14624017Y-14584653D01*
X14624017Y-14584653D02*
X14595445Y-14584653D01*
X14595445Y-14584653D02*
X14576398Y-14594176D01*
X14576398Y-14594176D02*
X14566874Y-14603700D01*
X14776398Y-14717986D02*
X14757350Y-14708462D01*
X14757350Y-14708462D02*
X14747826Y-14698938D01*
X14747826Y-14698938D02*
X14738302Y-14679891D01*
X14738302Y-14679891D02*
X14738302Y-14622748D01*
X14738302Y-14622748D02*
X14747826Y-14603700D01*
X14747826Y-14603700D02*
X14757350Y-14594176D01*
X14757350Y-14594176D02*
X14776398Y-14584653D01*
X14776398Y-14584653D02*
X14804969Y-14584653D01*
X14804969Y-14584653D02*
X14824017Y-14594176D01*
X14824017Y-14594176D02*
X14833541Y-14603700D01*
X14833541Y-14603700D02*
X14843064Y-14622748D01*
X14843064Y-14622748D02*
X14843064Y-14679891D01*
X14843064Y-14679891D02*
X14833541Y-14698938D01*
X14833541Y-14698938D02*
X14824017Y-14708462D01*
X14824017Y-14708462D02*
X14804969Y-14717986D01*
X14804969Y-14717986D02*
X14776398Y-14717986D01*
X14957350Y-14717986D02*
X14938302Y-14708462D01*
X14938302Y-14708462D02*
X14928779Y-14689414D01*
X14928779Y-14689414D02*
X14928779Y-14517986D01*
X15109731Y-14708462D02*
X15090683Y-14717986D01*
X15090683Y-14717986D02*
X15052588Y-14717986D01*
X15052588Y-14717986D02*
X15033541Y-14708462D01*
X15033541Y-14708462D02*
X15024017Y-14689414D01*
X15024017Y-14689414D02*
X15024017Y-14613224D01*
X15024017Y-14613224D02*
X15033541Y-14594176D01*
X15033541Y-14594176D02*
X15052588Y-14584653D01*
X15052588Y-14584653D02*
X15090683Y-14584653D01*
X15090683Y-14584653D02*
X15109731Y-14594176D01*
X15109731Y-14594176D02*
X15119255Y-14613224D01*
X15119255Y-14613224D02*
X15119255Y-14632272D01*
X15119255Y-14632272D02*
X15024017Y-14651319D01*
X15195445Y-14708462D02*
X15214493Y-14717986D01*
X15214493Y-14717986D02*
X15252588Y-14717986D01*
X15252588Y-14717986D02*
X15271636Y-14708462D01*
X15271636Y-14708462D02*
X15281160Y-14689414D01*
X15281160Y-14689414D02*
X15281160Y-14679891D01*
X15281160Y-14679891D02*
X15271636Y-14660843D01*
X15271636Y-14660843D02*
X15252588Y-14651319D01*
X15252588Y-14651319D02*
X15224017Y-14651319D01*
X15224017Y-14651319D02*
X15204969Y-14641795D01*
X15204969Y-14641795D02*
X15195445Y-14622748D01*
X15195445Y-14622748D02*
X15195445Y-14613224D01*
X15195445Y-14613224D02*
X15204969Y-14594176D01*
X15204969Y-14594176D02*
X15224017Y-14584653D01*
X15224017Y-14584653D02*
X15252588Y-14584653D01*
X15252588Y-14584653D02*
X15271636Y-14594176D01*
X15347826Y-14794176D02*
X15357350Y-14784653D01*
X15357350Y-14784653D02*
X15376398Y-14756081D01*
X15376398Y-14756081D02*
X15385922Y-14737034D01*
X15385922Y-14737034D02*
X15395445Y-14708462D01*
X15395445Y-14708462D02*
X15404969Y-14660843D01*
X15404969Y-14660843D02*
X15404969Y-14622748D01*
X15404969Y-14622748D02*
X15395445Y-14575129D01*
X15395445Y-14575129D02*
X15385922Y-14546557D01*
X15385922Y-14546557D02*
X15376398Y-14527510D01*
X15376398Y-14527510D02*
X15357350Y-14498938D01*
X15357350Y-14498938D02*
X15347826Y-14489414D01*
X15709731Y-14794176D02*
X15700207Y-14784653D01*
X15700207Y-14784653D02*
X15681160Y-14756081D01*
X15681160Y-14756081D02*
X15671636Y-14737034D01*
X15671636Y-14737034D02*
X15662112Y-14708462D01*
X15662112Y-14708462D02*
X15652588Y-14660843D01*
X15652588Y-14660843D02*
X15652588Y-14622748D01*
X15652588Y-14622748D02*
X15662112Y-14575129D01*
X15662112Y-14575129D02*
X15671636Y-14546557D01*
X15671636Y-14546557D02*
X15681160Y-14527510D01*
X15681160Y-14527510D02*
X15700207Y-14498938D01*
X15700207Y-14498938D02*
X15709731Y-14489414D01*
X15785922Y-14584653D02*
X15785922Y-14717986D01*
X15785922Y-14603700D02*
X15795445Y-14594176D01*
X15795445Y-14594176D02*
X15814493Y-14584653D01*
X15814493Y-14584653D02*
X15843064Y-14584653D01*
X15843064Y-14584653D02*
X15862112Y-14594176D01*
X15862112Y-14594176D02*
X15871636Y-14613224D01*
X15871636Y-14613224D02*
X15871636Y-14717986D01*
X15995445Y-14717986D02*
X15976398Y-14708462D01*
X15976398Y-14708462D02*
X15966874Y-14698938D01*
X15966874Y-14698938D02*
X15957350Y-14679891D01*
X15957350Y-14679891D02*
X15957350Y-14622748D01*
X15957350Y-14622748D02*
X15966874Y-14603700D01*
X15966874Y-14603700D02*
X15976398Y-14594176D01*
X15976398Y-14594176D02*
X15995445Y-14584653D01*
X15995445Y-14584653D02*
X16024017Y-14584653D01*
X16024017Y-14584653D02*
X16043064Y-14594176D01*
X16043064Y-14594176D02*
X16052588Y-14603700D01*
X16052588Y-14603700D02*
X16062112Y-14622748D01*
X16062112Y-14622748D02*
X16062112Y-14679891D01*
X16062112Y-14679891D02*
X16052588Y-14698938D01*
X16052588Y-14698938D02*
X16043064Y-14708462D01*
X16043064Y-14708462D02*
X16024017Y-14717986D01*
X16024017Y-14717986D02*
X15995445Y-14717986D01*
X16119255Y-14584653D02*
X16195445Y-14584653D01*
X16147826Y-14517986D02*
X16147826Y-14689414D01*
X16147826Y-14689414D02*
X16157350Y-14708462D01*
X16157350Y-14708462D02*
X16176398Y-14717986D01*
X16176398Y-14717986D02*
X16195445Y-14717986D01*
X16414493Y-14584653D02*
X16414493Y-14784653D01*
X16414493Y-14594176D02*
X16433541Y-14584653D01*
X16433541Y-14584653D02*
X16471636Y-14584653D01*
X16471636Y-14584653D02*
X16490684Y-14594176D01*
X16490684Y-14594176D02*
X16500207Y-14603700D01*
X16500207Y-14603700D02*
X16509731Y-14622748D01*
X16509731Y-14622748D02*
X16509731Y-14679891D01*
X16509731Y-14679891D02*
X16500207Y-14698938D01*
X16500207Y-14698938D02*
X16490684Y-14708462D01*
X16490684Y-14708462D02*
X16471636Y-14717986D01*
X16471636Y-14717986D02*
X16433541Y-14717986D01*
X16433541Y-14717986D02*
X16414493Y-14708462D01*
X16624017Y-14717986D02*
X16604969Y-14708462D01*
X16604969Y-14708462D02*
X16595445Y-14689414D01*
X16595445Y-14689414D02*
X16595445Y-14517986D01*
X16785922Y-14717986D02*
X16785922Y-14613224D01*
X16785922Y-14613224D02*
X16776398Y-14594176D01*
X16776398Y-14594176D02*
X16757350Y-14584653D01*
X16757350Y-14584653D02*
X16719255Y-14584653D01*
X16719255Y-14584653D02*
X16700207Y-14594176D01*
X16785922Y-14708462D02*
X16766874Y-14717986D01*
X16766874Y-14717986D02*
X16719255Y-14717986D01*
X16719255Y-14717986D02*
X16700207Y-14708462D01*
X16700207Y-14708462D02*
X16690684Y-14689414D01*
X16690684Y-14689414D02*
X16690684Y-14670367D01*
X16690684Y-14670367D02*
X16700207Y-14651319D01*
X16700207Y-14651319D02*
X16719255Y-14641795D01*
X16719255Y-14641795D02*
X16766874Y-14641795D01*
X16766874Y-14641795D02*
X16785922Y-14632272D01*
X16852588Y-14584653D02*
X16928779Y-14584653D01*
X16881160Y-14517986D02*
X16881160Y-14689414D01*
X16881160Y-14689414D02*
X16890684Y-14708462D01*
X16890684Y-14708462D02*
X16909731Y-14717986D01*
X16909731Y-14717986D02*
X16928779Y-14717986D01*
X17071636Y-14708462D02*
X17052588Y-14717986D01*
X17052588Y-14717986D02*
X17014493Y-14717986D01*
X17014493Y-14717986D02*
X16995446Y-14708462D01*
X16995446Y-14708462D02*
X16985922Y-14689414D01*
X16985922Y-14689414D02*
X16985922Y-14613224D01*
X16985922Y-14613224D02*
X16995446Y-14594176D01*
X16995446Y-14594176D02*
X17014493Y-14584653D01*
X17014493Y-14584653D02*
X17052588Y-14584653D01*
X17052588Y-14584653D02*
X17071636Y-14594176D01*
X17071636Y-14594176D02*
X17081160Y-14613224D01*
X17081160Y-14613224D02*
X17081160Y-14632272D01*
X17081160Y-14632272D02*
X16985922Y-14651319D01*
X17252588Y-14717986D02*
X17252588Y-14517986D01*
X17252588Y-14708462D02*
X17233541Y-14717986D01*
X17233541Y-14717986D02*
X17195446Y-14717986D01*
X17195446Y-14717986D02*
X17176398Y-14708462D01*
X17176398Y-14708462D02*
X17166874Y-14698938D01*
X17166874Y-14698938D02*
X17157350Y-14679891D01*
X17157350Y-14679891D02*
X17157350Y-14622748D01*
X17157350Y-14622748D02*
X17166874Y-14603700D01*
X17166874Y-14603700D02*
X17176398Y-14594176D01*
X17176398Y-14594176D02*
X17195446Y-14584653D01*
X17195446Y-14584653D02*
X17233541Y-14584653D01*
X17233541Y-14584653D02*
X17252588Y-14594176D01*
X17328779Y-14794176D02*
X17338303Y-14784653D01*
X17338303Y-14784653D02*
X17357350Y-14756081D01*
X17357350Y-14756081D02*
X17366874Y-14737034D01*
X17366874Y-14737034D02*
X17376398Y-14708462D01*
X17376398Y-14708462D02*
X17385922Y-14660843D01*
X17385922Y-14660843D02*
X17385922Y-14622748D01*
X17385922Y-14622748D02*
X17376398Y-14575129D01*
X17376398Y-14575129D02*
X17366874Y-14546557D01*
X17366874Y-14546557D02*
X17357350Y-14527510D01*
X17357350Y-14527510D02*
X17338303Y-14498938D01*
X17338303Y-14498938D02*
X17328779Y-14489414D01*
M02*
